<svg width="356" height="327" viewBox="0 0 356 327" fill="none" xmlns="http://www.w3.org/2000/svg">
<g filter="url(#filter0_d)">
<rect x="28" y="24" width="300" height="271" fill="white"/>
</g>
<path fill-rule="evenodd" clip-rule="evenodd" d="M247.392 101.856C274.777 122.501 298.462 154.785 292.529 188.677C287.045 220.001 250.401 231.354 222.158 246C201.941 256.484 180.986 261.087 158.451 258.207C130.561 254.643 97.1338 253.259 84.1133 228.358C70.705 202.716 87.22 173.107 100.431 147.249C113.666 121.343 128.937 94.8556 156.702 86.2796C187.596 76.7373 221.651 82.451 247.392 101.856Z" fill="url(#paint0_linear)"/>
<path d="M271.908 155.464C268.718 166.287 256.069 170.077 245.124 166.931C233.426 163.568 229.134 140.438 229.134 140.438L221.538 118.69C221.538 118.69 214.406 112.413 211.545 107.222C206.502 98.0743 203.743 90.1014 208.346 80.7293C212.623 72.0232 220.61 71.6443 229.134 66.8897C239.116 61.3213 245.345 50.6533 255.918 55.0271C265.068 58.8122 258.495 74.0877 267.91 77.1706C272.208 78.5779 276.248 74.0581 279.503 77.1706C282.871 80.3904 279.503 89.0332 279.503 89.0332V111.572C279.503 111.572 263.564 122.939 262.714 133.716C261.989 142.894 274.513 146.626 271.908 155.464Z" fill="white"/>
<g clip-path="url(#clip0)">
<path d="M247.33 167.956C245.586 167.681 244.716 164.613 244.222 156.996C244.091 154.969 243.94 152.807 243.886 152.19C243.833 151.574 243.781 150.889 243.77 150.669C243.76 150.448 243.466 150.268 243.117 150.268C242.767 150.268 242.479 150.448 242.475 150.669C242.169 155.463 240.162 159.602 239.522 164.364C239.491 164.628 239.287 165.035 239.068 165.268C238.85 165.5 238.672 166.029 238.672 166.442C238.672 167.299 238.306 167.496 237.06 167.312C235.965 167.15 235.528 165.855 236.283 165.013C238.396 160.853 239.387 156.045 239.725 151.61C239.86 149.732 239.801 149.233 239.426 149.087C238.735 148.82 238.061 149.93 238.029 151.389C238.013 152.094 237.579 153.896 237.064 155.394C236.548 156.891 236.081 158.261 236.025 158.437C235.97 158.613 235.625 159.406 235.258 160.199C234.892 160.992 234.291 162.334 233.923 163.181C233.058 165.17 230.881 167.567 229.938 167.567C229.545 167.567 229.057 167.365 228.854 167.117C228.357 166.513 228.747 165.074 229.471 164.842C230.044 164.658 231.648 162.389 232.3 160.84C232.486 160.399 232.769 159.823 232.929 159.558C233.847 158.048 236.005 150.995 235.657 150.644C235.588 150.574 234.987 150.644 234.323 150.803C233.219 151.065 233.107 151.192 233.017 152.281C232.962 152.936 232.771 153.472 232.591 153.472C232.411 153.472 231.707 153.952 231.028 154.539C228.341 156.859 219.746 160.072 218.757 159.125C217.817 158.224 218.665 157.458 222.368 155.86C224.38 154.993 226.099 154.163 226.189 154.016C226.5 153.508 226.096 153.498 225.163 153.992C224.61 154.285 223.313 154.507 222.002 154.533C219.449 154.585 218.506 154.188 216.45 152.194C215.198 150.98 215.139 150.847 215.566 150.198C216.439 148.872 217.444 148.845 219.288 150.097C221.613 151.676 222.562 151.619 226.179 149.683C227.69 148.875 227.575 148.541 225.654 148.156C223.084 147.64 220.486 145.855 219.958 144.242C219.483 142.79 219.714 140.422 220.476 138.936C222.293 135.391 224.962 136.041 228.231 139.769C229.207 140.882 229.602 142.222 230.283 143.018C231.052 143.898 231.104 143.912 231.534 143.338C231.782 143.009 231.988 142.56 231.994 142.339C231.999 142.119 232.366 141.939 232.808 141.939C233.25 141.939 233.686 141.742 233.778 141.501C233.521 138.69 230.872 129.963 227.046 130.436C226.122 130.568 222.497 130.054 222.321 129.767C222.235 129.627 221.607 129.219 220.926 128.86C219.531 128.127 218.909 127.599 215.949 124.64C213.37 121.286 210.248 116.929 209.51 113.008C209.191 110.447 209.902 106.5 211.553 104.482C212.005 103.94 212.204 103.497 211.995 103.497C211.409 103.497 209.925 102.123 207.938 99.7407C205.564 97.3401 204.513 95.0692 203.359 93.5658C202.615 92.5968 201.996 91.7318 201.983 91.6437C201.971 91.5556 201.708 90.3827 201.4 89.0372C200.872 86.7293 200.87 86.4663 201.374 84.3921C202.793 79.4405 205.539 77.1054 208.225 75.4659C209.5 74.6731 210.733 74.0243 210.965 74.0243C211.198 74.0243 211.704 73.8275 212.091 73.587C212.995 73.0249 218.865 72.0162 220.282 72.1794C220.955 72.2569 221.404 72.4988 221.464 72.8166C221.568 73.3588 221.421 73.4228 218.668 74.0387C216.109 74.7578 213.38 75.7483 211.524 76.5925C209.971 77.3015 208.191 79.0523 206.651 81.3859C205.605 82.9696 205.481 83.3897 205.377 85.6793C205.313 87.0751 205.43 88.7855 205.637 89.4803C207.637 94.0635 216.15 97.7058 220.368 95.2238C220.568 95.0653 221.161 94.8342 221.685 94.7104C222.92 94.4184 226.254 92.7946 227.131 92.0576C227.507 91.7419 228.204 90.7189 228.681 89.7844C229.395 88.3856 229.516 87.8195 229.365 86.5809C228.886 82.6508 226.83 80.9637 222.497 80.9449C221.177 80.9391 219.63 81.0275 219.058 81.1411C214.632 82.0208 211.706 84.1004 212.185 86.0258C212.882 88.2797 217.529 90.4945 219.199 88.6805C219.337 88.4602 219.453 87.7046 219.456 87.0014C219.462 85.8291 219.555 85.6908 220.573 85.3376C222.303 84.7382 224.343 84.8395 225.905 85.6023C227.24 86.2542 227.301 86.3433 227.132 87.3929C226.908 88.7862 226.514 89.2618 224.542 90.5213C222.28 91.9662 220.278 92.4472 216.605 92.428C212.31 92.5275 208.414 90.1502 208.349 86.0376C208.349 84.552 208.494 83.9635 208.984 83.4466C209.334 83.0788 209.762 82.5509 209.937 82.2735C210.112 81.9961 211.469 81.121 212.953 80.3288C219.17 77.0108 227.377 77.0081 230.775 80.323C231.98 81.4988 233.654 84.4874 233.715 85.5731C233.734 85.9211 233.822 86.2246 233.909 86.2476C233.996 86.2707 235.282 85.9119 236.766 85.4503C241.423 84.0023 243.844 83.3144 244.281 83.3144C244.514 83.3144 244.704 83.1703 244.704 82.9941C244.704 82.8127 243.789 82.6737 242.594 82.6737C239.188 82.2558 234.879 81.7219 232.01 79.7956C231.57 79.4956 230.582 78.8332 229.815 78.3237C226.922 75.9179 224.165 73.3309 223.831 69.6304C223.686 67.9019 223.78 67.3991 224.546 65.8195C225.72 63.3985 229.338 59.8823 232.327 58.2581C232.761 58.0226 233.687 57.4646 234.385 57.018C236.304 55.7907 240.17 54.4958 242.483 54.3051C243.617 54.2116 244.691 54.0864 244.869 54.0269C245.462 53.829 251.79 54.776 252.123 55.1126C257.295 56.9952 256.678 62.8185 260.024 64.2024C260.704 64.3875 260.773 66.2119 260.133 67.0637C259.787 67.5238 259.545 67.57 258.861 67.3072C258.026 66.987 258.029 67.001 259.149 68.4814C260.183 69.8475 260.265 70.1055 260.071 71.4068C259.866 72.7883 259.883 72.8284 260.616 72.6579C261.671 72.4126 265.391 71.1415 266.023 70.8108C266.733 70.439 272.999 69.2805 275.323 69.0912C277.601 68.9057 280.17 69.353 280.958 70.0722C281.681 70.7324 281.723 72.37 281.024 72.6407C280.742 72.7497 280.079 72.5806 279.549 72.265C278.737 71.7807 278.136 71.7215 275.695 71.8857C270.733 72.2195 269.255 72.7969 272.286 73.2176C276.937 74.3047 282.506 76.6603 285.932 79.1079C287.016 79.9302 287.44 80.6938 287.903 82.6554C288.11 83.529 288.005 84.095 287.401 85.3784C286.707 86.8523 283.682 90.3622 283.106 90.3622C282.975 90.3622 282.326 91.1911 281.665 92.2042C279.585 95.3901 277.953 97.247 275.768 98.9116L273.652 100.524L275.133 101.667C278.429 104.211 279.707 106.257 279.279 108.302C278.977 109.741 275.816 112.771 273.506 113.834C272.036 114.511 271.151 114.768 267.808 115.492C267.194 115.625 266.882 115.936 266.742 116.556C266.472 117.755 265.388 120.114 264.574 121.276C264.204 121.805 263.691 122.652 263.434 123.16C262.361 125.285 259.51 127.843 258.217 127.843C257.78 127.843 255.982 130.774 255.465 132.328C255.26 132.945 254.911 133.666 254.689 133.93C253.992 134.761 251.358 142.101 251.312 143.341C251.249 145.05 251.867 145.532 252.745 144.459C253.713 143.277 254.614 143.062 255.126 143.89C255.745 144.889 255.295 146.246 253.936 147.485C253.274 148.089 252.587 148.637 252.409 148.705C251.977 148.868 252.529 152.963 253.145 154.165C253.399 154.661 253.603 155.141 253.597 155.232C253.592 155.322 253.794 155.897 254.047 156.508C254.467 157.521 255.597 158.422 258.502 160.06C259.497 160.621 259.797 161.344 259.45 162.344C259.236 162.964 258.887 163.272 258.326 163.338C257.393 163.449 253.126 161.247 252.096 160.123C251.043 158.975 250.167 157.018 249.62 154.593C248.557 149.874 248.59 149.948 247.514 149.948H246.537L246.727 153.391C246.998 158.325 247.7 163.404 248.276 164.604C248.466 165 248.812 165.325 249.044 165.325C249.85 165.325 249.405 167.757 248.564 167.948C248.275 168.014 247.72 168.018 247.33 167.956L247.33 167.956ZM234.861 146.826C234.861 146.435 234.772 146.42 234.385 146.744C234.123 146.964 233.909 147.359 233.909 147.624C233.909 148.014 233.998 148.03 234.385 147.705C234.647 147.486 234.861 147.09 234.861 146.826V146.826ZM243.689 144.747L243.732 143.381L243.107 144.137C242.186 145.251 242.329 147.216 243.273 146.426C243.479 146.253 243.666 145.498 243.689 144.747H243.689ZM247.457 146.549C248.074 146.382 248.14 146.164 248.092 144.469C248.055 143.164 247.922 142.619 247.664 142.719C247.458 142.798 246.802 142.955 246.205 143.068L245.121 143.273L245.6 145.009C246.085 146.767 246.224 146.883 247.457 146.549V146.549ZM228.187 145.863C227.287 144.101 226.204 142.636 225.135 141.188C224.12 139.811 223.937 139.69 223.517 140.113C223.256 140.376 222.969 141.252 222.879 142.06C222.73 143.392 222.807 143.614 223.708 144.463C224.884 145.572 228.209 146.611 228.187 145.863V145.863ZM247.303 139.522C248.787 139.257 249.149 138.803 250.23 135.852C251.318 132.88 252.913 129.563 253.484 129.085C253.999 128.654 254.051 127.844 253.564 127.844C253.373 127.844 252.802 127.546 252.296 127.183C251.79 126.819 251.233 126.611 251.057 126.72C250.757 126.908 249.87 128.712 248.457 132.008C247.777 134.105 246.527 136.096 245.803 137.933C245.461 138.813 245.128 139.657 245.064 139.809C244.999 139.96 245.214 140.005 245.54 139.907C245.866 139.81 246.659 139.637 247.303 139.522H247.303ZM244.252 135.589C244.92 135.461 246.222 130.132 246.768 129.56C247.559 128.761 247.348 128.164 246.274 128.164C243.672 128.164 240.943 125.669 239.797 122.241C239.271 120.667 239.072 116.632 239.488 115.954C239.752 115.523 239.008 114.068 238.524 114.068C238.327 114.068 237.601 114.659 236.91 115.381C233.492 118.954 227.203 121.62 221.698 121.829C219.74 121.903 219.408 121.994 219.624 122.398C220.288 123.643 223.789 126.134 225.664 126.696C228.956 127.682 231.614 126.039 234.039 121.519C235.314 119.142 236.115 118.515 236.965 119.227C237.557 119.723 237.422 122.902 236.734 124.64C236.095 126.255 234.665 128.028 233.391 128.787L232.287 129.444L233.045 130.165C233.881 130.961 235.568 134.383 236.096 136.354C236.543 138.025 237.295 139.056 238.064 139.056C239.002 139.056 239.096 138.378 238.521 135.792C237.294 130.282 237.268 130.016 237.903 129.547C239.173 128.61 240.077 130.659 241.569 137.863C241.786 138.91 242.102 139.665 242.296 139.6C242.486 139.537 243.366 137.732 244.252 135.589V135.589ZM257.318 124.32C257.762 123.967 258.286 123.679 258.482 123.679C258.935 123.679 261.304 121.047 262.423 119.299C262.893 118.564 263.683 117.507 264.178 116.95C264.673 116.393 264.993 115.852 264.89 115.748C264.787 115.644 264.091 115.524 263.343 115.482C262.595 115.439 261.489 115.318 260.885 115.213C259.855 115.034 259.731 115.11 258.913 116.429C258.433 117.203 258.04 117.95 258.04 118.09C258.04 118.725 255.65 123.138 255.129 123.466C254.283 123.999 254.416 124.577 255.42 124.731C255.9 124.804 256.342 124.886 256.402 124.912C256.462 124.939 256.874 124.672 257.318 124.32ZM249.41 123.787C251.037 122.853 252.833 121.287 253.327 120.371C253.607 119.853 253.568 119.826 252.986 120.141C252.625 120.336 251.031 120.581 249.444 120.686C246.571 120.875 246.327 120.829 243.971 119.649C243.084 119.205 243.081 119.208 243.23 120.162C243.312 120.69 243.781 121.762 244.271 122.543C245.711 124.84 247.023 125.158 249.41 123.787V123.787ZM225.177 117.868C226.051 117.666 227.047 117.305 227.391 117.066C227.736 116.827 228.217 116.631 228.46 116.631C229.06 116.631 232.912 114.016 233.965 112.893C235.175 111.604 236.449 108.882 236.449 107.588C236.449 105.536 232.812 102.766 229.89 102.592C228.304 102.497 226.72 103.303 224.751 105.207C223.501 106.415 221.844 109.37 221.844 110.39C221.844 112.024 227.148 110.433 228.179 108.49C228.424 108.029 228.513 107.278 228.398 106.646C228.126 105.148 228.527 104.713 230.339 104.538C231.725 104.403 231.98 104.476 232.437 105.133C234.085 107.508 231.285 112.254 227.362 113.735C223.48 115.2 219.272 114.376 218.349 111.97C217.955 110.943 218.63 107.96 219.488 106.931C219.911 106.425 220.256 105.86 220.256 105.675C220.256 105.491 221.208 104.421 222.373 103.297C223.537 102.174 224.412 101.176 224.317 101.081C224.223 100.985 223.592 101.112 222.915 101.363C222.238 101.613 221.042 102.005 220.256 102.234C219.47 102.463 218.602 102.84 218.326 103.073C218.05 103.306 217.69 103.497 217.525 103.497C216.802 103.497 214.921 105.501 214.091 107.155C213.286 108.762 213.204 109.201 213.343 111.163C213.451 112.689 213.726 113.746 214.237 114.599C215.032 115.928 216.699 117.558 217.283 117.579C217.481 117.587 218.053 117.808 218.553 118.071C219.558 118.6 222.38 118.514 225.177 117.868V117.868ZM250.979 116.995C251.283 116.843 252.352 116.327 253.356 115.85C254.36 115.372 255.182 114.931 255.182 114.871C255.182 114.811 255.278 114.508 255.396 114.199C255.57 113.742 255.496 113.684 254.999 113.889C252.792 114.798 251.321 114.98 249.812 114.528C247.884 113.95 246.609 112.786 246.609 111.601C246.609 110.828 246.466 110.689 245.577 110.587C242.991 110.292 242.645 110.352 242.537 111.117C242.355 112.414 244.714 115.777 246.486 116.745C247.486 117.291 250.099 117.437 250.979 116.995V116.995ZM265.977 111.923C265.366 111.856 264.652 111.711 264.39 111.601C264.128 111.491 263.818 111.388 263.702 111.373C263.585 111.358 263.383 111.237 263.252 111.105C263.121 110.973 262.716 110.86 262.352 110.855C261.528 110.842 258 108.424 257.076 107.239C256.127 106.022 255.964 104.245 256.674 102.865C257.236 101.771 259.042 100.266 260.555 99.6294C261.223 99.3487 261.265 99.2452 260.87 98.8472C260.62 98.5949 259.739 98.3486 258.912 98.2997C258.084 98.2509 257.407 98.1166 257.406 98.0012C257.403 97.5989 251.71 98.4969 251.384 98.9513C251.29 99.0818 250.606 99.6655 249.864 100.248C247.911 101.782 247.991 102.742 250.287 105.339C251.261 106.44 252.199 107.341 252.371 107.341C254.671 108.727 257.058 110.297 259.513 111.202C261.525 111.934 262.501 112.104 264.549 112.077C265.946 112.059 266.589 111.989 265.977 111.923V111.923ZM251.118 111.121C250.822 110.822 250.652 110.822 250.356 111.121C250.06 111.42 250.144 111.506 250.737 111.506C251.33 111.506 251.414 111.42 251.118 111.121ZM269.119 108.33C269.363 108.174 269.475 107.816 269.367 107.534C269.224 107.157 268.746 107.021 267.567 107.021C266.141 107.021 265.927 106.93 265.656 106.209C265.323 105.325 265.816 104.116 266.431 104.307C266.618 104.366 267.486 104.483 268.359 104.568C269.232 104.653 270.307 104.863 270.749 105.035C271.954 105.506 273.598 107.188 273.598 107.95C273.598 108.875 273.998 108.792 274.604 107.741C275.291 106.55 274.967 105.837 272.912 104.019C270.208 101.628 268.947 101.143 266.016 101.37C261.792 101.696 259.065 103.438 259.896 105.278C261.43 107.517 267.332 109.14 269.119 108.33V108.33ZM241.661 107.705C241.819 107.447 243.491 107.074 245.339 106.886C246.346 106.783 246.335 106.588 245.207 104.533C244.486 103.221 244.152 102.888 243.7 103.033C243.38 103.135 242.309 103.281 241.32 103.357C240.33 103.433 239.47 103.545 239.409 103.607C239.348 103.669 239.611 104.121 239.993 104.612C240.638 105.438 240.798 105.955 240.868 107.421C240.895 108.009 241.371 108.179 241.661 107.705V107.705ZM215.555 100.958C216.132 100.618 217.605 100.032 218.827 99.6546C222.361 98.564 222.573 98.3626 219.938 98.5968C216.781 98.8774 213.67 98.8637 212.398 98.5637C211.739 98.4083 211.366 98.4411 211.366 98.6542C211.366 99.0263 213.899 101.575 214.269 101.575C214.399 101.575 214.977 101.297 215.555 100.958V100.958ZM243.522 99.1998C246.362 98.1894 250.432 94.8164 251.414 92.659C251.998 91.377 252.008 91.2127 251.544 90.4986C251.268 90.0735 250.938 89.7481 250.81 89.7754C250.683 89.8027 250.176 89.6577 249.684 89.453C248.385 88.9123 247.791 88.9837 245.749 89.9264C244.082 90.6955 242.442 91.8771 240.383 93.7916C239.487 94.6251 239.368 95.3403 240.18 95.0105C240.485 94.8865 241.16 94.7132 241.678 94.6256C243.483 94.3206 247.244 91.9098 247.244 91.0577C247.244 90.8946 247.428 90.6075 247.652 90.4196C247.953 90.1678 248.32 90.2831 249.048 90.8582C249.953 91.5728 250.014 91.7368 249.774 92.8092C249.631 93.4531 249.324 94.1062 249.093 94.2604C244.849 97.0957 242.504 98.0586 239.435 98.2264C237.295 98.3434 237.139 98.3035 236.308 97.4286C235.595 96.6781 235.472 96.3275 235.645 95.5342C235.897 94.3786 239.11 90.7611 241.367 89.0938C244.754 86.5904 247.202 85.8607 250.104 86.4886C251.027 86.6884 251.828 86.8055 251.884 86.7489C251.94 86.6924 251.87 86.2209 251.728 85.7012C251.545 85.0303 251.294 84.7781 250.865 84.8316C250.533 84.873 249.546 84.9928 248.673 85.0976C247.8 85.2025 246.95 85.4208 246.784 85.5829C246.618 85.7449 246.16 85.8774 245.767 85.8774C245.374 85.8774 244.723 86.0099 244.322 86.1717C242.818 86.7786 242.31 86.9556 241.847 87.0334C240.082 87.3298 237.678 88.0872 237.259 88.4789C237.093 88.6339 236.787 88.7606 236.58 88.7606C236.373 88.7606 235.419 89.2743 234.46 89.9021C232.537 91.1619 231.54 92.8335 231.593 94.7118C231.635 96.2046 233.15 98.0376 235.233 99.1143C236.75 99.8983 237.188 99.9759 239.465 99.8642C240.862 99.7957 242.688 99.4967 243.522 99.1998V99.1998ZM226.291 98.2262C227.613 98.317 227.875 98.2447 227.871 97.7925C227.859 96.4136 227.415 96.3259 225.056 97.2356C222.59 98.1862 221.838 98.7697 223.594 98.3702C224.205 98.2312 225.419 98.1664 226.291 98.2262V98.2262ZM270.962 98.2892C271.102 98.0679 271.788 97.4633 272.486 96.9457C274.053 95.7848 275.172 94.7569 275.18 94.4727C275.186 94.2289 272.97 94.7886 272.486 95.153C271.349 96.0091 265.861 96.2949 262.485 95.6737L261.373 95.4692L262.485 96.0152C267.621 98.539 270.344 99.2692 270.962 98.2892V98.2892ZM261.215 95.5025C261.215 95.3343 260.679 95.0973 260.024 94.9758C259.369 94.8543 258.762 94.6675 258.675 94.5608C258.24 94.0295 257.17 93.298 256.548 93.107C255.989 92.9352 255.753 93.0823 255.362 93.8455C254.881 94.7824 254.888 94.8012 255.742 94.9669C256.22 95.0597 257.182 95.1392 257.881 95.1437C258.909 95.1504 259.846 95.3337 261.135 95.7808C261.179 95.7959 261.215 95.6707 261.215 95.5025H261.215ZM269.578 91.8999C270.597 91.5828 271.758 91.3234 272.158 91.3234C272.557 91.3234 273.651 90.9866 274.59 90.5751C275.529 90.1634 276.511 89.734 276.773 89.6207C277.239 89.4191 278.557 88.598 280.467 87.319C283.218 85.4768 284.568 82.3618 283.18 81.0571C282.814 80.713 282.423 80.4314 282.312 80.4314C282.201 80.4314 281.73 80.162 281.267 79.8328C280.803 79.5035 280.104 79.134 279.714 79.0116C279.067 78.8091 279.02 78.8725 279.187 79.7169C279.398 80.7821 278.853 81.9406 276.882 84.6176C275.137 86.9869 274.527 87.3529 270.105 88.6848C269.02 89.0115 264.448 88.6879 263.002 88.1809C260.557 87.3242 257.795 84.2358 257.255 81.7528C256.92 80.2183 256.433 80.9306 256.224 83.2598C256.072 84.9459 256.163 85.4247 256.914 86.9008C258.013 89.0608 259.75 90.7063 262.167 91.8773C263.892 92.7128 266.934 92.7221 269.578 91.9002V91.8999ZM267.86 84.9045C268.829 85.4278 271.611 84.1832 273.006 82.6021C273.671 81.8488 274.219 81.0521 274.224 80.8319C274.246 79.8396 271.139 80.7543 268.953 82.3836C268.03 83.0719 267.141 83.635 266.977 83.635C266.602 83.635 266.295 82.8427 266.295 81.8728C266.295 81.0442 267.253 79.1553 267.675 79.1521C267.822 79.1521 268.322 78.8787 268.786 78.547C269.875 77.7679 273.003 77.1182 274.318 77.3978C274.993 77.5411 275.235 77.5078 275.026 77.3004C273.78 76.0619 267.092 75.4662 264.938 76.4019C263.469 77.0402 261.215 79.047 261.215 79.717C261.215 80.4739 262.687 83.4157 263.336 83.9553C264.273 84.7346 265.75 85.1503 266.554 84.8608C266.974 84.7096 267.534 84.7283 267.86 84.9045V84.9045ZM246.733 82.7319C246.821 82.5876 246.472 82.5318 245.957 82.608C245.443 82.6843 245.022 82.8023 245.022 82.8705C245.022 83.1146 246.575 82.9887 246.733 82.7319V82.7319ZM252.197 81.3579C252.498 81.0224 252.667 80.6701 252.573 80.575C252.376 80.3765 249.467 81.7418 249.467 82.0327C249.467 82.4708 251.692 81.9207 252.197 81.3579V81.3579ZM246.927 78.5324C249.147 77.9809 251.284 76.9471 252.801 75.6907C254.116 74.6013 255.817 72.1306 255.817 71.31C255.817 70.2719 253.644 68.3389 251.872 67.8008C251.019 67.5419 250.236 67.3532 250.132 67.3816C250.028 67.4101 249.6 67.2414 249.18 67.0071C247.396 66.0113 241.195 67.1544 239.227 68.842C238.507 69.4599 238.526 69.6985 239.364 70.4861C241.277 72.2839 244.197 72.9777 246.247 72.1212C246.975 71.8169 247.232 71.4824 247.306 70.7457C247.361 70.1962 247.69 69.5813 248.062 69.3334C248.662 68.934 248.845 69.0091 250.088 70.1677C251.314 71.3097 251.434 71.5486 251.248 72.4857C250.803 74.7333 247.555 76.1106 243.24 75.8821C241.768 75.8041 240.394 75.5705 240.189 75.3629C239.983 75.1553 239.522 74.9821 239.164 74.978C238.399 74.9694 235.701 72.4706 235.018 71.1379C234.757 70.6287 234.544 69.9215 234.544 69.5666C234.544 68.7123 236.192 66.8496 237.483 66.2452C241.998 64.1308 242.327 64.0374 245.881 63.8582C248.021 63.7503 249.04 63.8832 251.596 64.6043C253.306 65.0869 255.063 65.7256 255.5 66.0236C256.921 66.9942 257.722 67.3416 257.722 66.988C257.722 66.8055 257.534 66.6563 257.303 66.6563C257.073 66.6563 256.458 66.2599 255.936 65.7753C254.054 64.1561 254.006 58.368 248.802 56.876C247.694 56.5212 244.329 56.6792 241.868 57.2014C239.226 57.7622 236.993 58.7354 234.591 60.3725C233.657 61.0095 232.821 61.5307 232.734 61.5307C232.647 61.5307 232.094 61.9992 231.506 62.5718C230.918 63.1444 230.002 64.0354 229.47 64.5518C227.216 66.7385 227.487 70.279 230.13 73.1973C234.982 78.1058 240.731 80.0026 246.927 78.5324V78.5324Z" fill="#1C2541"/>
</g>
<path d="M104.659 171C119.188 166.785 130.003 166.711 140.159 155.5C147.019 147.928 157.16 132.75 146.159 130.5C124.159 126 109.659 125.5 109.659 125.5C109.659 125.5 93.6841 113.874 84.1594 118C75.8594 121.596 71.6594 137.5 71.6594 137.5C71.6594 137.5 47.7904 143.269 45.1594 155.5C43.3657 163.838 46.0961 169.636 51.1594 176.5C63.6279 193.402 84.4882 176.853 104.659 171Z" fill="white"/>
<path d="M99.1306 130C104.969 129.981 113.372 133.475 117.754 138.193L122.052 137.466C129.707 136.172 139.65 136.708 145.047 138.706C154.495 142.655 151.662 152.418 138.609 157.358C136.751 158.061 134.835 159.571 132.7 160.692C132.021 160.916 131.466 161.216 131.466 161.359C131.466 161.502 131.954 162.085 132.551 162.654C133.148 163.224 134.688 165.278 135.974 167.218C138.218 170.604 138.31 170.828 138.257 172.774C138.205 174.68 138.264 174.834 139.226 175.332C140.461 175.97 142.522 176.047 142.322 175.446C142.246 175.218 141.575 174.86 140.831 174.652C139.03 174.146 138.545 173.363 139.439 172.403C140.759 170.985 141.893 170.832 143.823 171.809C145.868 172.846 146.192 173.649 145.585 176.179C145.096 178.216 144.531 178.806 142.489 179.41C140.522 179.992 137.555 179.378 136.402 178.152C135.693 177.397 135.626 177.068 135.828 175.344C135.954 174.27 135.92 173.392 135.751 173.392C134.725 173.051 131.393 166.623 129.859 164.788C128.574 162.147 128.93 162.187 123.107 164.033C120.234 164.944 116.97 165.993 115.854 166.365C114.992 166.651 109.953 167.444 110.867 169.046C111.844 169.421 113.826 174.038 113.826 175.939C113.826 177.771 113.945 177.91 114.784 177.071C115.391 176.464 116.841 176.636 117.633 177.41C118.332 178.093 117.773 180.715 116.664 181.956C115.909 182.801 115.464 182.994 114.337 182.962C111.516 182.882 111.254 182.718 110.707 180.689C110.391 179.521 110.437 179.251 111.058 178.63L111.773 177.914C109.93 175.924 108.775 172.81 107.15 170.291C106.75 169.316 106.527 169.157 105.752 169.29C101.408 170.066 95.9414 172.2 90.7921 172.886C86.9652 173.848 86.4333 173.971 84.6411 174.31C83.7654 174.476 83.5086 174.701 83.53 175.282C83.5456 175.697 83.3084 177.26 83.0029 178.755C82.6722 180.373 82.4722 182.941 82.5084 185.105C82.5766 189.187 82.0713 191.264 80.8945 191.738C79.4364 192.327 77.9759 192.126 77.0612 191.211C76.2566 190.406 76.2078 190.18 76.4726 188.505C76.7513 186.742 77.1801 186.108 78.1035 186.097C78.406 186.093 78.5335 185.414 78.5179 183.887C78.5055 182.674 78.8202 180.341 79.2176 178.703C79.615 177.065 79.8776 175.661 79.8011 175.585C73.8457 176.567 67.1075 177.341 63.0765 175.728C59.221 174.184 56.6358 172.056 57.0417 167.709C57.5184 162.603 60.1512 158.39 64.1524 155.084C67.2303 152.54 74.3802 148.836 78.1924 147.809C80.2379 147.258 80.8631 146.94 80.9612 146.398C82.6461 138.544 88.7745 130.034 99.1306 130V130ZM98.5193 134.386C95.3919 134.32 93.2115 135.182 90.99 137.189C89.2228 138.785 86.7868 141.268 85.8446 144.817C84.9722 147.556 84.7506 157.238 87.5851 156.326C87.9939 156.388 88.4021 156.365 88.4925 156.274C88.5829 156.184 89.7563 156.037 91.0995 155.947C92.4429 155.857 93.7799 155.723 94.071 155.649C94.6843 155.492 95.6974 155.3 102.185 154.114C107.08 153.213 120.937 149.473 119.759 146.932C119.421 145.962 114.708 141.246 112.271 139.439C108.21 136.428 106.049 135.442 101.999 134.752C100.71 134.533 99.5617 134.408 98.5193 134.386V134.386ZM105.029 139.207C105.813 139.175 106.765 139.521 108.078 140.272C110.083 141.419 110.519 141.97 110.16 142.905C109.998 143.329 109.673 143.405 108.8 143.223C107.386 142.928 105.123 141.833 103.956 140.878C103.106 140.183 103.1 140.149 103.759 139.668C104.149 139.382 104.559 139.227 105.029 139.207V139.207ZM128.12 141.301C126.468 141.304 124.959 141.35 123.92 141.443C122.079 141.61 121.093 142.177 121.841 142.639C122.528 143.064 123.604 144.78 124.081 146.407C124.76 150.727 119.421 151.8 115.678 154.479C113.219 155.712 110.783 156.524 107.541 157.191C100.158 158.753 90.2872 161.685 81.8159 160.791C78.487 160.597 77.5853 159.555 78.7417 157.237C79.2812 156.155 80.1428 155.634 81.0697 155.829C81.3446 155.887 81.4893 155.705 81.4108 155.4C81.3358 155.109 81.2072 154.474 81.125 153.989C80.6958 151.458 80.7936 151.566 79.2424 151.914C77.0287 152.427 74.9509 153.562 72.8221 154.387C71.7098 154.847 70.7973 155.433 70.7938 155.688C70.7898 155.97 71.0312 156.078 71.4052 155.961C71.7447 155.856 72.2182 155.892 72.4578 156.043C73.0415 156.41 73.4705 158.575 72.9596 158.575C72.7475 158.575 72.6552 158.788 72.7549 159.048C73.0705 159.87 71.9853 160.368 69.4068 160.584C66.6946 160.812 66.6797 160.8 66.8685 158.644C66.9369 157.864 66.9055 157.854 66.0882 158.39C65.1633 158.996 62.3284 162.225 62.3091 162.695C62.3021 162.854 61.9905 163.62 61.6156 164.396C61.2407 165.172 60.9282 166.487 60.9216 167.318C60.9036 169.576 62.4731 171.012 65.7787 171.764C68.4352 172.368 68.671 172.405 68.671 172.21C68.671 172.142 68.4947 171.58 68.2792 170.962C67.1865 167.757 72.2331 165.21 72.3126 170.392L72.2501 172.04L74.0423 171.793C75.0278 171.658 76.4056 171.308 77.1036 171.017C77.8015 170.725 78.4121 170.505 78.4606 170.528C78.5091 170.551 78.8663 170.57 79.2543 170.57C79.8411 170.57 79.9597 170.335 79.9597 169.173C79.9597 168.104 80.1866 167.566 80.9266 166.879C82.6745 165.278 83.4883 166.614 84.6742 168.579C84.9231 169.284 85.5274 169.267 88.7793 168.465C89.6525 168.25 90.9691 167.985 91.7053 167.876C94.7562 167.424 94.9513 167.296 94.9748 165.708C94.9923 164.532 95.195 164.093 96.0197 163.444C97.1497 162.555 97.8365 162.563 99.4893 163.482C100.238 163.899 100.635 164.413 100.712 165.069C100.778 165.632 101 165.974 101.241 165.885C101.682 165.721 103.768 165.072 105.561 164.541C106.157 164.364 106.991 164.22 107.413 164.22C108.337 164.22 108.377 163.961 107.588 163.09C107.029 162.472 107.04 162.338 107.765 160.845C109.31 157.724 110.891 159.147 113.664 160.875L115.088 162.028L117.985 161.097C120.79 160.196 121.502 159.594 120.306 159.135C119.84 158.956 119.772 158.602 119.954 157.281C120.077 156.382 120.326 155.468 120.508 155.25C121.404 154.169 124.763 155.202 124.763 156.558C124.763 157.805 125.451 158.627 126.283 158.374C128.276 157.766 133.229 155.37 133.229 155.013C133.229 154.869 132.768 154.649 132.204 154.525C130.384 154.126 130.442 151.359 132.295 150.143C133.132 149.594 133.501 149.549 134.584 149.864C136.389 150.391 137.816 151.443 137.816 152.249C137.816 153.125 137.989 153.1 140.109 151.923C143.503 150.037 144.109 149.593 144.742 148.532C145.62 147.059 145.697 146.073 145.035 144.793C144.164 143.108 141.608 142.206 136.051 141.624C134.023 141.412 130.874 141.297 128.12 141.301L128.12 141.301ZM139.843 142.805C141.731 142.771 143.813 144.096 143.813 145.526C143.813 146.083 143.975 146.639 144.173 146.762C144.384 146.892 144.202 147.261 143.732 147.653C142.755 148.468 142.085 148.505 140.766 147.818C140.211 147.528 139.502 147.289 139.193 147.288C138.883 147.287 138.342 146.968 137.991 146.579C137.435 145.966 137.406 145.693 137.763 144.5C138.061 143.505 138.415 143.067 139.053 142.907C139.308 142.843 139.574 142.81 139.843 142.805V142.805ZM167.734 145.783C168.061 145.783 168.401 145.917 168.723 146.228C169.344 146.828 170.73 149.34 170.692 151.585C170.603 156.897 165.195 162.099 158.104 163.694C153.792 164.663 150.875 163.154 152.985 161.045C155.553 158.869 163.297 159.394 166.136 155.35C167.073 154.08 167.113 151.246 166.225 149.009C165.581 147.506 166.569 145.785 167.734 145.783H167.734ZM183.997 158.575C185.157 158.593 185.562 160.166 184.319 161.998C183.861 163.038 179.327 167.236 178.022 167.725C174.785 168.064 176.851 165.076 178.189 164.108C179.246 163.06 180.207 161.823 180.326 161.359C180.579 160.365 182.94 158.575 183.997 158.575V158.575ZM65.0955 163.311C65.4942 163.322 65.8636 163.42 66.1135 163.612C66.6602 164.035 66.7021 167.458 66.1672 167.993C65.8392 168.321 65.1601 168.359 64.4376 168.088C64.3406 168.052 63.9298 168.048 63.525 168.079C63.1203 168.11 62.5803 167.884 62.3251 167.577C61.7753 166.914 61.7616 164.818 62.306 164.636C62.5151 164.566 62.9496 164.246 63.2718 163.924C63.6839 163.511 64.4308 163.292 65.0954 163.311L65.0955 163.311ZM168.987 171.01C169.557 170.999 170.215 171.035 170.976 171.136C177.311 171.884 199.424 181.736 202.86 186.175C204.326 187.641 205.07 190.501 204.467 192.352C203.834 194.296 202.15 197.902 201.609 198.474C200.657 199.479 198.493 202.445 198.493 202.745C198.493 202.915 198.182 203.389 197.802 203.797C194.244 210.878 200.879 217.013 204.494 220.488C206.939 222.799 210.142 225.334 213.175 227.367C213.411 227.367 213.657 227.486 213.722 227.631C213.86 227.944 216.011 229.483 216.309 229.483C235.12 240.138 254.72 250.504 275.399 260.112C276.078 260.438 276.687 260.823 276.751 260.969C276.816 261.114 277.085 261.233 277.351 261.233C277.616 261.233 277.96 261.448 278.115 261.711C278.27 261.974 278.747 262.372 279.173 262.596C279.6 262.819 280.156 263.423 280.408 263.938C280.66 264.452 281.178 265.046 281.558 265.258C282.325 265.686 283.16 266.396 283.16 266.62C283.16 266.7 282.406 266.778 281.484 266.792C280.111 266.814 279.171 266.481 276.281 264.95C274.34 263.922 272.286 262.973 271.716 262.839C271.146 262.706 270.273 262.311 269.776 261.962C254.142 254.332 228.591 242.221 215.925 234.07C211.042 231.187 209.149 229.905 205.893 227.278C204.751 226.357 203.732 225.603 203.629 225.603C203.396 225.603 199.581 222.077 197.522 219.958C196.673 219.085 195.345 217.101 194.571 215.549C192.172 210.74 192.322 207.692 195.22 202.323C196.419 200.103 196.775 199.59 199.022 196.843C201.004 194.421 201.48 191.773 200.281 189.838C196.708 184.31 188.768 182.073 183.324 179.115C180.535 177.81 177.367 176.59 174.328 175.678C173.746 175.548 172.555 175.18 171.682 174.86C170.691 174.498 169.001 174.279 167.184 174.277C163.855 174.273 163.583 173.967 165.401 172.268C165.715 171.98 166.518 171.057 168.987 171.01V171.01ZM163.39 178.463C164.326 178.478 165.302 178.615 166.102 178.881C169.185 179.905 174.652 183.52 177.679 186.535C180.966 189.825 185.03 194.33 186.022 200.447C186.319 202.948 185.345 206.734 183.454 210.433C180.663 215.891 179.828 221.468 181.034 226.583C181.734 229.551 184.499 234.753 186.574 237.004C193.86 244.954 202.772 252.361 213.139 258.969C213.802 259.632 214.595 260.175 214.9 260.175C215.206 260.175 215.648 260.336 215.882 260.532C216.117 260.728 217.539 261.677 219.043 262.641C221.023 263.911 221.776 264.597 221.776 265.132C221.776 265.803 221.726 265.819 221.222 265.315C220.59 264.683 220.381 264.65 219.705 265.079C207.256 260.745 195.216 251.825 189.85 247.652C187.522 245.394 185.089 243.041 184.443 242.424C180.226 238.156 176.493 230.628 176.475 224.368C176.49 219.647 177.674 214.602 180.301 210.08C180.811 208.819 181.502 207.311 181.836 206.729C182.716 205.193 182.585 201.227 181.584 199.145C179.28 194.347 177.54 192.182 172.66 188.036C171.571 187.111 165.813 183.27 165.515 183.27C165.356 183.27 164.416 182.884 163.427 182.412C162.437 181.94 161.31 181.502 160.922 181.439C160.09 181.303 159.72 179.452 160.436 179.009C161.05 178.63 162.187 178.445 163.39 178.463V178.463Z" fill="#1C2541"/>
<defs>
<filter id="filter0_d" x="0" y="0" width="356" height="327" filterUnits="userSpaceOnUse" color-interpolation-filters="sRGB">
<feFlood flood-opacity="0" result="BackgroundImageFix"/>
<feColorMatrix in="SourceAlpha" type="matrix" values="0 0 0 0 0 0 0 0 0 0 0 0 0 0 0 0 0 0 127 0"/>
<feOffset dy="4"/>
<feGaussianBlur stdDeviation="14"/>
<feColorMatrix type="matrix" values="0 0 0 0 0 0 0 0 0 0 0 0 0 0 0 0 0 0 0.06 0"/>
<feBlend mode="normal" in2="BackgroundImageFix" result="effect1_dropShadow"/>
<feBlend mode="normal" in="SourceGraphic" in2="effect1_dropShadow" result="shape"/>
</filter>
<linearGradient id="paint0_linear" x1="249.884" y1="103.685" x2="118.322" y2="260.899" gradientUnits="userSpaceOnUse">
<stop stop-color="#FFD6BA"/>
<stop offset="1" stop-color="#F7D6E0"/>
</linearGradient>
<clipPath id="clip0">
<rect width="87" height="114" fill="white" transform="translate(201 54)"/>
</clipPath>
</defs>
</svg>
