<svg width="356" height="326" viewBox="0 0 356 326" fill="none" xmlns="http://www.w3.org/2000/svg">
<g filter="url(#filter0_d)">
<rect x="28" y="24" width="300" height="270" fill="white"/>
</g>
<path fill-rule="evenodd" clip-rule="evenodd" d="M142.467 71.566C158.331 73.9246 171.76 81.4599 186.679 87.3574C208.158 95.8482 235.632 94.7602 248.949 113.658C263.071 133.697 266.427 163.144 255.584 185.137C244.971 206.664 215.438 208.1 195.684 221.695C176.726 234.742 165.458 262.345 142.467 262.986C119.479 263.627 102.076 242.166 87.0526 224.724C74.6353 210.309 69.4628 192.011 65.3233 173.428C61.5689 156.573 60.6493 139.76 64.3704 122.898C68.4483 104.419 71.7733 83.005 87.5686 72.6229C103.255 62.3122 123.908 68.8069 142.467 71.566Z" fill="url(#paint0_linear)"/>
<path d="M246.14 151.281C224.679 184.574 198.496 197.055 186 189C173.504 180.945 192.538 159.793 214 126.5C224 93.4999 217.505 61.4449 230 69.5C242.496 77.5551 267.602 117.989 246.14 151.281Z" fill="white"/>
<rect x="89" y="214" width="49" height="44" rx="10" fill="white"/>
<rect x="103" y="195" width="35" height="31" rx="10" fill="white"/>
<g clip-path="url(#clip0)">
<path d="M168.393 214.303C167.098 212.078 168.937 208.29 174.915 200.862C178.546 196.35 181.278 192.039 180.985 191.282C177.96 183.463 180.143 172.077 187.361 158.029C191.51 149.955 193.203 147.862 195.586 147.862C198.581 147.862 211.84 127.322 215.56 115.837C216.498 112.941 217.314 114.274 217.371 116.064C217.537 121.259 209.976 135.14 200.743 146.593C197.262 150.91 197.133 151.378 197.703 157.628C198.544 166.865 196.968 168.646 194.585 161.15C193.548 157.886 192.325 155.215 191.867 155.215C191.41 155.215 190.36 156.493 189.535 158.054C188.252 160.484 188.247 161.487 189.502 165.014C190.308 167.281 190.947 170.139 190.921 171.367C190.891 172.797 190.327 172.09 189.348 169.396C188.509 167.085 187.815 165.076 187.806 164.932C187.732 163.706 185.803 165.109 185.386 166.691C184.841 168.758 190.343 181.489 191.769 181.461C192.202 181.451 195.471 177.56 199.033 172.809L205.509 164.173L203.517 158.431C202.422 155.273 201.697 152.193 201.907 151.588C202.118 150.983 203.57 152.597 204.581 156.023C205.954 160.676 206.832 161.606 207.593 160.484C212.303 153.543 222.969 128.356 224.184 121.56L224.833 117.924L223.306 121.075C222.465 122.809 221.756 123.72 221.73 123.101C221.644 121.089 225.035 112.146 225.883 112.146C226.336 112.146 227.02 110.374 227.402 108.207C228.031 104.636 228.693 103.988 234.491 101.273C242.704 97.4258 243.695 98.3147 236.037 102.66C229.538 106.348 225.848 110.805 230.329 109.554C231.69 109.174 233.756 108.421 234.921 107.881C236.087 107.34 238.946 106.252 241.276 105.462C246.265 103.772 246.328 103.197 242.916 90.6122C236.805 68.0733 236.079 67.4805 229.195 79.4119C224.971 86.7324 223.21 91.2232 221.435 99.2009C220.172 104.877 218.988 109.725 218.804 109.976C218.62 110.226 217.94 109.905 217.292 109.263C216.427 108.405 216.746 105.768 218.49 99.3533C220.973 90.2157 224.64 82.3076 230.093 74.3302C231.87 71.7303 233.326 69.0123 233.328 68.2901C233.339 66.1474 236.26 66.7943 238.076 69.3405C239.806 71.7647 242.083 78.766 246.115 94.0532C247.922 100.906 248.698 102.507 249.778 101.618C250.737 100.829 251.357 100.823 251.84 101.598C252.221 102.208 251.785 102.991 250.873 103.338C248.528 104.231 248.876 119.499 251.242 119.499C252.383 119.499 252.25 119.9 250.746 120.99C249.108 122.178 248.67 123.834 248.591 129.131C248.535 132.789 247.853 137.2 247.074 138.933C246.295 140.666 245.573 142.863 245.47 143.815C245.367 144.767 244.381 147.764 243.28 150.475L241.276 155.405L235.451 154.828L229.626 154.252L234.392 156.549C237.013 157.812 239.321 158.939 239.519 159.052C240.733 159.744 238.695 165.502 234.031 170.401C224.364 180.558 209.084 189.757 193.989 194.653C189.214 196.202 190.018 195.72 184.653 202.232C181.931 204.8 173.845 218.171 168.392 214.303L168.393 214.303ZM179.549 203.987C183.208 199.613 186.111 195.679 186 195.245C185.888 194.811 189.225 193.379 193.413 192.065C205.377 188.309 227.114 176.053 226.942 173.16C226.922 172.823 222.644 172.208 218.29 170.239C213.937 168.269 210.763 166.302 211.517 164.947C212.861 162.53 215.696 166.154 220.263 168.166C228.401 171.75 228.608 171.783 230.626 169.851C231.759 168.766 232.474 167.705 232.215 167.493C231.401 166.826 212.179 159.417 211.262 159.417C210.782 159.417 208.804 161.898 206.868 164.932C201.347 173.579 191.187 186.588 183.88 194.364C180.205 198.275 177.199 201.938 177.199 202.505C177.199 203.072 176.603 203.539 175.875 203.543C174.628 203.553 169.785 209.652 169.785 211.217C169.785 213.814 173.839 210.813 179.549 203.987V203.987ZM188.206 186.389L190.339 183.555L187.378 177.567C184.187 171.114 183.377 171.275 182.046 178.625C181.27 182.905 183.249 190.156 185.032 189.566C185.604 189.377 187.033 187.947 188.206 186.389V186.389ZM236.095 163.881C236.869 162.87 237.517 161.67 237.536 161.214C237.554 160.758 234.211 158.789 230.107 156.838C217.564 150.876 216.023 148.419 226.184 150.581C229.825 151.356 234.533 152.006 236.647 152.027C239.943 152.058 240.679 151.61 241.82 148.879C243.365 145.179 242.582 146.264 237.346 144.572C228.446 142.884 233.235 141.853 239.044 142.284C242.782 142.562 244.017 142.557 243.483 141.701C243.074 141.045 240.266 140.503 237.242 140.497C234.218 140.487 229.838 140.136 227.508 139.709C224.097 139.084 225.438 138.831 234.381 138.408C243.5 137.977 245.549 137.578 245.817 136.185C246.082 134.804 244.753 134.351 238.703 133.76C227.29 132.645 227.68 130.929 239.688 129.428C245.691 128.677 247.057 127.743 247.085 124.368C247.1 122.605 246.494 122.476 241.012 123.078C223.912 124.958 226.381 124.841 223.95 130.248C221.665 140.667 214.925 151.408 212.296 157.734C213.253 158.494 231.904 165.518 233.216 165.613C234.026 165.672 235.321 164.892 236.095 163.881V163.881ZM220.359 155.143C218.174 154 216.387 152.602 216.387 152.039C216.387 150.248 218.111 150.92 221.804 154.148C225.991 157.809 225.757 157.97 220.359 155.143ZM247.102 131.055C247.102 130.477 246.177 130.004 245.046 130.004C243.915 130.004 242.696 130.477 242.336 131.055C241.964 131.65 242.854 132.105 244.391 132.105C245.882 132.105 247.102 131.632 247.102 131.055ZM237.04 122.148C247.112 121.105 248.161 120.741 248.161 118.291C248.161 116.319 247.718 116.139 244.189 116.679C242.005 117.013 238.401 118.587 236.071 118.905C232.146 119.441 232.133 118.328 237.04 116.89C239.953 116.037 243.38 115.329 244.656 115.318C247.741 115.291 248.404 113.974 247.565 109.538C246.787 105.425 246.232 105.22 241.436 107.272C234.098 110.412 232.093 111.096 230.231 111.096C228.817 111.096 227.967 112.364 227.104 115.763C225.318 122.795 225.512 124.025 228.302 123.368C229.613 123.059 233.545 122.51 237.04 122.148V122.148ZM230.076 96.7992C231.272 88.0491 234.407 73.7819 234.961 73.4158C237.373 71.8205 233.836 88.1341 231.834 97.3654C231.707 99.6564 229.194 103.247 230.076 96.7992V96.7992Z" fill="#1C2541"/>
</g>
<g clip-path="url(#clip1)">
<path d="M104.294 262.481C98.2733 260.521 92.5879 256.604 87.8635 253.545C86.3302 252.652 85.566 251.64 85.3683 250.675C83.7309 242.263 82.9056 233.56 82.2093 226.312C80.5507 215.271 89.0656 212.622 96.5491 212.556C98.2193 212.331 99.2018 211.52 97.1724 211.167C94.3279 211.03 93.1762 209.09 92.6207 207.699C92.1494 206.355 92.5674 197.553 93.17 196.132C93.9331 194.332 95.1643 193.666 98.4804 193.258C102.556 192.756 122.273 193.05 127.109 193.591C133.649 193.503 134.708 205.829 132.144 208.604C131.225 209.533 130.681 209.827 129.571 209.993C127.608 210.288 127.145 210.597 127.145 211.613C127.676 213.22 136.377 215.619 139.895 217.133C141.197 217.648 142.611 218.88 143.013 221.62C147.331 225.98 139.788 248.141 141.085 252.089C141.56 252.089 142.278 253.888 142.278 255.081C139.71 262.901 106.885 263.842 104.294 262.481V262.481ZM137.992 254.478C135.579 245.922 138.962 237.67 139.471 228.883C139.63 226.426 140.19 222.069 138.511 220.213C135.984 218.6 133.229 217.61 129.676 216.444C127.32 215.352 126.618 215.88 125.293 215.571C124.693 215.42 124.534 215.531 124.274 216.276C124.79 219.894 100.67 220.266 100.683 215.628C97.1813 216.594 92.0044 216.524 88.753 217.999C86.2029 219.689 85.8405 222.876 86.1096 225.217C86.8866 232.759 87.6572 240.369 88.8799 247.456C89.2408 249.198 89.3604 249.767 90.8169 251.263C94.8558 254.649 103.377 258.978 108.05 259.045C112.472 259.541 130.598 258.992 137.992 254.478V254.478ZM99.6975 251.069C99.5818 249.829 99.3637 248.987 99.1395 248.915C94.443 248.014 87.4712 237.13 89.6251 231.37C91.3186 228.014 94.9523 231.51 97.3415 231.7C97.6782 231.7 97.6655 231.487 97.2679 230.462C96.6575 228.889 96.4017 228.569 95.0883 227.74C91.5503 224.951 95.9733 224.61 97.8733 225.858C103.307 227.882 105.421 255.499 102.218 254.71C100.259 254.319 99.812 252.256 99.6975 251.069H99.6975ZM106.916 246.065C104.6 240.013 104.788 234.436 106.905 229.526C108.116 226.738 111.189 224.274 113.011 224.628C114.575 224.932 114.893 226.447 113.54 227.15C112.291 228.274 110.323 229.524 110.514 231.212C110.575 231.753 113.399 231.79 115.941 231.283C118.76 230.721 122.353 230.698 123.121 231.237C125.263 231.619 128.574 232.002 130.214 230.976C131.86 229.712 133.495 227.425 135.623 229.292C137.948 232.314 136.405 239.75 135.73 244.863C134.337 250.344 125.152 252.436 119.579 252.782C114.377 253.07 109.51 251.073 106.916 246.065L106.916 246.065ZM111.431 223.425C98.3769 223.215 96.4221 223.083 95.3798 222.345C92.286 220.832 91.3229 218.015 94.6972 219.053C96.6832 219.671 97.1313 219.707 105.756 219.941C121.325 220.363 127.328 220.252 132.327 219.453C134.09 219.171 134.223 219.191 134.814 219.827C135.227 220.271 135.41 220.792 135.353 221.366C135.269 222.218 135.218 222.243 132.589 222.736C124.525 223.196 117.39 223.523 111.431 223.425V223.425ZM123.855 215.144C124.278 215.493 124.308 215.449 124.137 214.734C123.866 213.609 123.67 212.262 123.472 211C123.444 210.183 120.315 209.811 120.487 210.881C119.931 213.855 116.999 213.144 116.887 210.582C113.732 210.715 110.396 211.066 107.781 211.021C107.041 211.021 107.01 211.08 107.129 212.258C106.172 216.674 103.726 213.815 103.704 211.346C102.88 211.188 101.94 211.13 101.695 212.479C101.526 213.408 101.594 213.543 102.469 214.034C111.493 218.839 122.943 213.769 123.855 215.144ZM106.192 207.953C117.761 207.234 126.105 208.079 128.342 207.773C129.957 207.288 130.739 205.717 130.479 203.481C130.282 201.785 129.23 198.034 128.896 197.253C128.568 196.205 116.906 196.088 112.595 196.067C100.067 196.01 96.8512 195.897 96.3326 197.183C95.0783 200.447 95.1094 205.641 95.4588 206.958C95.8964 209.2 102.868 208.074 106.192 207.953ZM101.001 200.319C99.0313 198.04 101.087 197.701 102.822 198.332C104.398 198.863 107.812 198.929 117.105 198.611C123.924 198.378 124.455 198.407 125.154 199.059C126.25 200.718 125.246 201.576 124.05 201.637C118.584 201.883 105.338 203.483 101.001 200.319V200.319ZM164.395 254.928C163.675 254.791 162.712 254.681 162.255 254.685C161.798 254.688 161.232 254.499 160.997 254.264C160.762 254.029 160.395 253.836 160.18 253.836C159.404 253.836 155.51 251.812 155.146 251.22C154.835 250.712 154.857 250.434 155.279 249.53C155.556 248.935 156.012 248.281 156.292 248.077C156.571 247.874 156.994 247.513 157.23 247.276C157.467 247.04 157.747 246.846 157.854 246.846C158.297 246.846 159.733 245.615 159.579 245.367C159.488 245.219 158.472 245.093 157.321 245.086C154.989 245.071 152.78 244.584 151.976 243.907C151.42 243.44 149.633 242.648 148.389 242.318C147.105 241.977 146.352 241.334 146.352 240.577C146.352 240.18 146.25 239.856 146.124 239.856C145.559 239.856 146.051 238.315 146.956 237.251C148.046 235.969 150.154 234.904 151.6 234.904C152.107 234.904 152.999 234.694 153.583 234.438C154.168 234.181 154.908 233.868 155.228 233.742C156.142 233.381 158.822 232.865 159.78 232.865C160.259 232.865 160.911 232.726 161.23 232.555C161.923 232.184 173.924 232.172 176.327 232.54C177.207 232.675 178.091 232.724 178.291 232.648C178.491 232.573 178.655 232.657 178.655 232.834C178.655 233.012 178.877 233.157 179.148 233.157C179.92 233.157 181.848 234.628 182.031 235.355C182.25 236.231 183.399 236.347 186.645 235.821L189.191 235.408L190.971 236.249C191.95 236.711 193.246 237.58 193.851 238.181C194.767 239.09 194.951 239.473 194.951 240.466C194.951 241.413 194.832 241.689 194.369 241.81C194.049 241.894 193.787 242.072 193.787 242.206C193.787 242.34 193.33 242.667 192.771 242.932C192.213 243.198 191.822 243.522 191.903 243.653C191.984 243.784 195.093 243.899 198.812 243.907C205.243 243.922 206.219 243.974 207.464 244.37C207.758 244.463 208.086 244.397 208.194 244.222C208.315 244.026 208.518 244.006 208.728 244.171C208.914 244.317 209.655 244.522 210.375 244.626C213.703 245.107 217.068 247.237 217.068 248.861C217.068 249.633 216.046 250.556 214.919 250.8C214.421 250.908 213.941 251.108 213.854 251.245C213.767 251.381 211.768 251.555 209.412 251.631C207.055 251.707 205.019 251.836 204.887 251.917C204.756 251.999 200.665 252.136 195.798 252.221C190.931 252.307 186.032 252.511 184.911 252.675C183.791 252.838 181.827 253.048 180.546 253.139C179.266 253.231 177.694 253.435 177.054 253.592C176.414 253.749 175.694 253.915 175.453 253.961C175.213 254.007 174.69 254.179 174.289 254.341C172.646 255.011 166.679 255.365 164.395 254.929V254.928ZM226.381 248.508C224.677 248.188 224.355 247.942 224.348 246.95C224.343 246.266 225.354 245.838 226.716 245.948C227.14 245.982 227.576 245.866 227.685 245.69C227.93 245.293 229 246.582 229 247.275C229 247.873 228.471 248.898 228.189 248.847C228.075 248.826 227.261 248.673 226.381 248.508V248.508ZM200.326 241.115C199.982 241.046 199.54 240.549 199.272 239.928C198.849 238.949 198.85 238.779 199.282 237.904C199.541 237.378 199.95 236.974 200.19 237.005C200.43 237.037 200.931 236.894 201.304 236.689C201.676 236.484 202.159 236.384 202.376 236.467C202.594 236.551 202.818 236.478 202.876 236.304C203.018 235.878 206.79 236.008 209.427 236.53C211.367 236.915 213.05 239.813 211.601 240.273C209.677 240.884 202.032 241.455 200.326 241.115H200.326Z" fill="#1C2541"/>
</g>
<defs>
<filter id="filter0_d" x="0" y="0" width="356" height="326" filterUnits="userSpaceOnUse" color-interpolation-filters="sRGB">
<feFlood flood-opacity="0" result="BackgroundImageFix"/>
<feColorMatrix in="SourceAlpha" type="matrix" values="0 0 0 0 0 0 0 0 0 0 0 0 0 0 0 0 0 0 127 0"/>
<feOffset dy="4"/>
<feGaussianBlur stdDeviation="14"/>
<feColorMatrix type="matrix" values="0 0 0 0 0 0 0 0 0 0 0 0 0 0 0 0 0 0 0.06 0"/>
<feBlend mode="normal" in2="BackgroundImageFix" result="effect1_dropShadow"/>
<feBlend mode="normal" in="SourceGraphic" in2="effect1_dropShadow" result="shape"/>
</filter>
<linearGradient id="paint0_linear" x1="157.408" y1="86.3979" x2="252.351" y2="252.094" gradientUnits="userSpaceOnUse">
<stop stop-color="#7BDFF2"/>
<stop offset="1" stop-color="#378CFF"/>
</linearGradient>
<clipPath id="clip0">
<rect width="84" height="148" fill="white" transform="translate(168 67)"/>
</clipPath>
<clipPath id="clip1">
<rect width="147" height="70" fill="white" transform="translate(82 193)"/>
</clipPath>
</defs>
</svg>
