<svg width="356" height="326" viewBox="0 0 356 326" fill="none" xmlns="http://www.w3.org/2000/svg">
<g filter="url(#filter0_d)">
<rect x="28" y="24" width="300" height="270" fill="white"/>
</g>
<path fill-rule="evenodd" clip-rule="evenodd" d="M204.954 68.4525C230.428 77.7477 233.71 124.13 245.5 148.5C258.187 174.723 284.702 180.964 272.068 207.175C259.059 234.162 226.909 243.129 197.473 249.048C167.242 255.126 131.697 261.661 109.994 239.764C89.0813 218.663 102.954 184.98 104.638 155.381C106.259 126.875 97.7525 94.0279 119.347 75.3157C142.071 55.6246 176.651 58.125 204.954 68.4525Z" fill="url(#paint0_linear)"/>
<rect x="155.194" y="99" width="7" height="32" rx="3.5" transform="rotate(46.4538 155.194 99)" fill="white"/>
<rect x="171.417" y="130.83" width="7" height="32" rx="3.5" transform="rotate(135.515 171.417 130.83)" fill="white"/>
<path d="M175.588 96.5562C172.867 101.321 166.311 112.446 162.555 110.302C158.8 108.158 145.551 104.158 148.272 99.3925C150.993 94.6274 153.983 84.221 157.739 86.3652C161.494 88.5093 178.308 91.791 175.588 96.5562Z" fill="white"/>
<path d="M248 118.999C248 130.877 233.495 155 222.472 155C211.45 155 202.514 145.371 202.514 133.493C202.514 121.615 196.944 111.986 222.472 111.986C233.495 111.986 248 107.122 248 118.999Z" fill="white"/>
<g clip-path="url(#clip0)">
<path d="M230.483 112.001C228.639 112.025 226.86 112.519 224.807 113.403C223.453 114.114 220.899 116.45 219.964 117.832L219.448 118.595C209.636 110.895 193.847 115.482 197.553 129.998C199.297 136.375 204.063 141.238 208.797 145.773C210.887 147.461 214.58 150.322 215.992 152.818C216.352 153.809 216.865 154.593 217.253 154.748C218.161 155.112 218.173 155.111 219.307 154.552C225.009 144.907 236.778 138.143 240.769 130.319C243.353 124.024 241.941 116.649 235.842 113.133C233.99 112.396 232.391 112.035 230.853 112.002C230.729 112 230.606 112 230.483 112.001V112.001ZM230.357 115.301C231.38 115.295 232.403 115.473 233.127 115.822C239.809 118.418 239.657 126.459 236.521 131.254C232.397 137.942 222.647 143.469 219.045 149.59C218.262 150.586 218.212 150.602 217.708 150.027C216.521 148.641 215.691 147.041 212.794 144.937C206.897 141.351 200.152 132.346 200.53 126.593C200.965 119.963 205.7 116.399 212.82 118.337C216.653 119.379 217.264 123.353 219.543 124.279C219.892 124.624 220.824 123.554 221.621 121.893C222.543 120.111 225.375 116.524 228.11 115.654C228.765 115.421 229.561 115.305 230.357 115.301V115.301ZM230.239 116.444C229.38 116.584 228.093 117.466 228.093 118.007C228.093 118.179 228.596 118.991 229.905 118.767C231.985 118.745 233.164 116.44 230.239 116.444ZM208.886 119.58C208.159 121.167 211.351 121.806 211.882 120.971C212.376 119.458 210.037 118.373 208.886 119.58V119.58ZM233.653 118.694C232.764 118.721 231.842 119.113 231.757 119.705C231.671 120.295 231.906 120.482 233.221 120.873C234.624 121.29 234.829 121.285 235.194 120.827C235.748 120.131 235.704 119.666 235.031 119.076C234.708 118.793 234.186 118.677 233.653 118.694V118.694ZM212.817 121.252C212.231 121.891 212.688 122.328 213.448 122.936C214.402 123.699 215.159 123.615 215.282 122.589C215.238 121.379 213.548 120.232 212.817 121.252ZM235.321 122.71C234.515 122.74 234.068 122.809 233.654 123.238C233.09 123.821 233.415 124.419 234.091 124.887C235.615 125.941 237.085 125.244 236.889 123.56C236.586 122.53 236.147 122.684 235.321 122.71V122.71ZM231.807 127.397C231.191 127.841 231.356 128.228 231.96 128.887C232.654 129.644 233.496 129.573 234.809 128.982C235.625 128.615 235.827 127.97 235.44 126.972C234.569 125.873 232.699 126.755 231.807 127.397ZM230.435 131.255C229.234 131.735 229.073 132.379 230.029 132.884C231.273 133.65 233.829 133.04 233.465 131.405C232.968 129.767 231.134 130.965 230.435 131.255ZM229.566 134.553C228.733 134.85 225.268 135.872 227.872 136.586C228.318 136.69 229.196 136.693 229.823 136.591C231.848 135.729 231.578 134.787 229.566 134.553V134.553Z" fill="black"/>
</g>
<path d="M230 207.5C230 222.136 209.031 229.5 195.5 229.5C181.969 229.5 188.5 222.136 188.5 207.5C188.5 192.864 205.969 189.5 219.5 189.5C233.031 189.5 230 192.864 230 207.5Z" fill="white"/>
<path d="M159 181.765C159 183.552 145.232 185 128.247 185C111.263 185 107 180.519 107 178.732C107 176.946 112.591 175.497 128.247 179.945C145.232 179.945 159 179.978 159 181.765Z" fill="white"/>
<g clip-path="url(#clip1)">
<path d="M191.148 226.898C187.921 225.939 185.678 225.381 185.054 221.793C184.342 217.708 183.332 200.75 184.617 193.373C185.079 190.718 186.628 188.173 190.856 187.865C194.341 187.611 200.577 187.091 207.781 187C222.761 187.364 225.495 188.734 225.132 197.734C224.902 203.422 225.948 213.417 224.117 221.437C222.942 226.583 219.807 228.08 211.059 227.672C204.798 227.525 196.266 228.444 191.148 226.898V226.898ZM210.978 225.039C218.775 224.706 220.144 223.194 221.012 218.682C221.825 214.458 222.085 203.306 222.262 200.949C223.03 190.749 217.593 190.694 214.323 190.197C206.346 189.137 202.394 190.185 194.31 190.812C191.433 191.075 189.391 191.455 188.253 194.002C187.201 196.358 187.007 215.162 188.224 218.826C189.245 221.899 189.002 222.987 195.245 224.264C201.228 225.53 205.721 225.263 210.978 225.039H210.978ZM200.684 217.034C197.456 215.26 195.035 209.627 195.673 205.375C195.934 203.634 196.47 202.593 197.908 201.033C200.8 197.895 204.101 197.487 208.624 199.707C210.843 200.447 211.616 202.255 212.768 203.711C215.539 207.197 215.582 210.674 212.89 213.697C209.742 217.233 203.935 218.82 200.684 217.034ZM207.838 213.461C210.395 212.112 212.205 209.294 211.83 207.246C210 201.529 204.099 199.318 200.574 202.709C198.684 204.6 198.68 204.609 198.866 207.805C199.047 210.924 199.335 211.581 201.547 213.905C202.499 214.905 205.503 214.693 207.838 213.461V213.461ZM213.154 198.414C211.726 197.874 211.163 194.959 212.254 193.753C213.123 192.793 214.699 193.11 215.797 193.928C217.653 195.311 217.304 196.371 215.972 197.588C214.658 198.717 214.262 198.833 213.154 198.414V198.414Z" fill="black"/>
</g>
<g clip-path="url(#clip2)">
<path d="M146.291 118.011L143.699 120.855C142.274 122.419 140.592 124.479 139.961 125.433C138.354 127.861 135.463 130.573 134.481 130.573C133.589 130.573 132.8 129.164 133.441 128.715C133.656 128.563 134.837 127.16 136.064 125.595C141.545 120.347 146.803 112.152 153.377 107.344C154.16 107.344 154.083 106.421 153.273 106.111C151.943 105.6 135.511 122.118 131.977 127.518C130.597 129.627 129.577 129.858 129.045 128.181C128.793 127.389 129.629 125.593 130.942 124.102C131.206 123.802 132.482 122.309 133.778 120.784C135.074 119.258 139.426 114.748 143.45 110.761L150.765 103.512L149.634 101.099C146.242 91.8919 150.818 87.952 159.544 87.0709C167.49 86.4174 172.687 90.3245 172.65 96.9237C172.632 100.161 171.399 102.91 167.647 108.073C164.257 112.739 162.951 115.599 162.608 119.113C162.463 120.592 162.115 122.092 161.835 122.445C161.443 122.939 161.816 123.542 163.446 125.053C165.964 127.385 170.431 131.233 171.688 132.153C172.672 132.872 172.446 134.206 171.264 134.66C170.502 134.952 169.956 134.586 165.261 130.634C158.861 126.549 154.23 118.496 148.725 115.774C148.725 116.326 157.508 125.294 165.253 132.648C167.733 135.003 168.646 136.186 168.542 136.91C168.463 137.461 168.078 137.965 167.687 138.031C160.076 132.233 152.772 124.37 146.291 118.011V118.011ZM158.206 116.308C158.206 113.515 157.546 111.29 156.194 109.521C154.758 109.755 153.008 111.04 150.92 113.07C153.19 115.04 155.227 118.048 157.815 119.382C158.03 119.249 158.206 117.865 158.206 116.308V116.308ZM164.045 106.795C168.567 101.199 170.113 96.423 168.517 92.9825C166.827 89.3411 157.579 89.0232 153.487 92.466C151.12 94.8116 151.911 98.3843 153.385 100.733C155.321 102.804 160.407 110.302 161.288 110.663C162.527 109.796 163.165 107.893 164.045 106.795V106.795ZM159.416 100.235C156.435 98.0296 156.592 94.314 160.661 94.333C162.549 94.333 164.309 96.0061 164.275 97.2616C164.194 100.274 161.634 101.52 159.416 100.235V100.235Z" fill="black"/>
</g>
<g clip-path="url(#clip3)">
<path d="M112.954 174.039C110.331 170.181 107.571 162.026 113.681 167.406C114.719 168.319 118.773 170.85 121.109 171.463C129.685 173.714 138.594 172.383 143.313 168.146L145.68 166.02C145.68 166.02 143.626 166.01 142.599 166.005C139.235 165.989 138.743 165.805 137.93 164.26C137.197 162.867 138.244 161.857 140.082 162.063C144.154 162.518 149.18 160.756 151.868 164.139C153.708 166.455 153.277 172.733 150.437 173.114C146.451 173.649 150.014 168.422 148.29 166.245C147.316 165.014 146.972 165.44 147.217 167.615C147.416 169.388 147.155 169.971 145.98 171.84C138.97 182.992 121.082 185.989 112.954 174.039V174.039ZM132.407 176.714C134.213 176.146 134.076 176.116 129.514 176.078C126.641 176.054 123.714 175.738 122.198 175.288C119.226 174.405 118.896 174.379 118.896 175.024C118.896 176.784 128.4 177.972 132.407 176.714V176.714Z" fill="black"/>
</g>
<defs>
<filter id="filter0_d" x="0" y="0" width="356" height="326" filterUnits="userSpaceOnUse" color-interpolation-filters="sRGB">
<feFlood flood-opacity="0" result="BackgroundImageFix"/>
<feColorMatrix in="SourceAlpha" type="matrix" values="0 0 0 0 0 0 0 0 0 0 0 0 0 0 0 0 0 0 127 0"/>
<feOffset dy="4"/>
<feGaussianBlur stdDeviation="14"/>
<feColorMatrix type="matrix" values="0 0 0 0 0 0 0 0 0 0 0 0 0 0 0 0 0 0 0.06 0"/>
<feBlend mode="normal" in2="BackgroundImageFix" result="effect1_dropShadow"/>
<feBlend mode="normal" in="SourceGraphic" in2="effect1_dropShadow" result="shape"/>
</filter>
<linearGradient id="paint0_linear" x1="268.569" y1="93.1585" x2="114.428" y2="243.732" gradientUnits="userSpaceOnUse">
<stop stop-color="#7BDFF2"/>
<stop offset="0.684269" stop-color="#B2F7EF"/>
</linearGradient>
<clipPath id="clip0">
<rect width="45" height="43" fill="white" transform="translate(197 112)"/>
</clipPath>
<clipPath id="clip1">
<rect width="41.2253" height="40.811" fill="white" transform="translate(184 187)"/>
</clipPath>
<clipPath id="clip2">
<rect width="43.6504" height="51.0315" fill="white" transform="translate(129 87)"/>
</clipPath>
<clipPath id="clip3">
<rect width="42.977" height="19.711" fill="white" transform="translate(110 162)"/>
</clipPath>
</defs>
</svg>
