<svg width="356" height="327" viewBox="0 0 356 327" fill="none" xmlns="http://www.w3.org/2000/svg">
<g filter="url(#filter0_d)">
<rect x="28" y="24" width="300" height="271" fill="white"/>
</g>
<path fill-rule="evenodd" clip-rule="evenodd" d="M186.371 79.0724C216.275 78.0819 246.932 87.1898 265.704 110.569C284.575 134.07 288.024 166.417 279.82 195.453C272.122 222.694 251.414 244.565 225.015 254.57C201.126 263.625 176.783 252.935 153.038 243.505C125.614 232.614 91.0556 226.144 82.2859 197.889C73.1428 168.43 93.0432 138.789 113.344 115.615C132.238 94.0466 157.768 80.0197 186.371 79.0724Z" fill="url(#paint0_linear)"/>
<path d="M89.48 132.325C89.48 132.325 69.8176 139.424 69 149.646V152.533L81.9873 165.523C83.1528 177.391 71.5797 197.483 85.4839 205.938C102.197 216.099 110.792 186.051 123.447 173.702C123.447 173.702 143.989 190.379 152.418 182.362C159.22 175.894 147.866 166.882 152.418 158.787C158.071 148.737 177.966 157.557 179.892 146.278C182.008 133.884 152.418 127.995 152.418 127.995C152.418 127.995 155.36 106.305 145.425 102.495C134.019 98.1219 123.447 124.146 123.447 124.146C123.447 124.146 113.34 109.144 102.967 106.344C93.27 103.727 82.0584 101.548 77.4917 110.193C72.9019 118.882 89.48 132.325 89.48 132.325Z" fill="white"/>
<path d="M217 204.5C217 171.5 180.5 256.5 180.5 256.5C180.5 256.5 228.567 276.665 240.5 256.5C251.849 237.322 217 237.5 217 204.5Z" fill="white"/>
<path d="M149.614 94.0023C148.462 93.9739 147.97 94.2043 146.526 95.0198C145.409 95.6502 144.303 96.3467 144.069 96.5675C143.835 96.7883 143.19 97.2863 142.636 97.6744C140.062 99.4758 131.67 107.82 130.077 110.161C129.469 111.055 128.871 111.865 128.748 111.962C128.493 112.162 126.209 115.191 123.716 118.634C122.79 119.912 121.732 121.615 121.363 122.418C120.995 123.221 120.53 123.98 120.33 124.103C119.942 124.343 117.813 127.392 117.813 127.708C117.813 127.811 116.464 130.091 114.815 132.775C113.166 135.458 111.711 137.945 111.582 138.301C111.453 138.658 111.069 139.353 110.729 139.845C110.388 140.338 108.173 144.545 105.807 149.194C103.44 153.843 101.355 157.74 101.173 157.855C100.991 157.97 100.89 158.208 100.948 158.384C101.046 158.681 100.59 159.828 97.5249 166.995C96.9025 168.45 96.0374 170.832 95.603 172.287C95.1687 173.742 94.5699 175.647 94.2724 176.52C93.4192 179.023 92.4487 185.884 92.7624 187.192C93.1472 188.797 93.4977 189.573 93.8378 189.573C93.998 189.573 94.2315 189.896 94.3566 190.29C94.7045 191.386 96.0326 192.66 97.0071 192.833C99.2683 193.234 101.78 192.344 102.805 190.781C103.314 190.004 103.339 189.782 102.945 189.525C102.499 189.234 102.159 189.263 100.082 189.766C99.5523 189.895 99.0075 189.701 98.4566 189.188C97.6683 188.453 97.636 188.243 97.792 184.849C97.8822 182.888 98.2092 180.489 98.5186 179.519C98.828 178.549 99.5055 176.363 100.024 174.662C100.542 172.961 101.105 171.483 101.276 171.378C101.446 171.273 101.585 170.886 101.585 170.519C101.585 169.277 109.655 151.407 110.433 150.926C110.611 150.816 110.757 150.447 110.757 150.107C110.757 149.767 111.114 149.106 111.551 148.637C111.987 148.169 112.303 147.741 112.252 147.686C112.073 147.496 116.174 139.698 116.94 138.773C117.181 138.482 117.707 137.588 118.11 136.788C118.512 135.987 119.096 135.235 119.408 135.115C119.719 134.995 119.888 134.757 119.781 134.585C119.575 134.251 120.484 132.205 120.974 131.903C121.135 131.803 121.617 131.045 122.045 130.22C122.472 129.394 123.468 127.767 124.257 126.602C125.046 125.438 125.955 124.089 126.277 123.604C130.864 116.688 133.686 113.149 138.687 108.039C145.837 100.733 149.137 98.2036 151.517 98.2036C153.906 98.2036 154.576 99.534 154.101 103.34C153.606 107.302 153.467 108.649 153.284 111.257C153.195 112.518 152.632 115.137 152.033 117.077C151.014 120.378 150.888 122.192 151.678 122.192C151.864 122.192 152.294 121.756 152.634 121.222C152.973 120.689 153.383 120.158 153.545 120.042C154 119.717 155.268 114.746 155.224 113.461C155.203 112.83 155.32 112.315 155.484 112.315C155.649 112.315 156.229 111.322 156.773 110.11C157.317 108.897 157.913 107.611 158.097 107.252C158.282 106.893 158.523 105.203 158.634 103.497C158.813 100.737 158.745 100.207 158.016 98.6821C156.585 95.6848 154.695 94.4444 151.045 94.1051C150.454 94.0503 149.998 94.0117 149.614 94.0023V94.0023ZM96.4278 95.1986C95.5089 95.1885 94.5912 95.3015 94.2 95.5433C93.9745 95.6826 93.5599 95.7082 93.2781 95.6001C92.9964 95.4919 92.7655 95.5574 92.7655 95.7453C92.7655 95.9332 92.5672 96.0928 92.3247 96.0998C91.6426 96.1194 90.107 97.5583 89.515 98.7327C89.2216 99.3148 88.7211 100.267 88.403 100.849C87.7151 102.108 87.8707 105.696 88.7471 108.787C89.0496 109.854 89.3325 110.965 89.376 111.256C89.4964 112.061 90.7263 115.269 91.0602 115.648C91.2221 115.833 91.3547 116.256 91.3547 116.589C91.3547 116.922 91.4738 117.248 91.6193 117.312C91.9396 117.455 92.8319 118.928 94.06 121.341C94.8179 122.831 95.1079 123.11 95.7679 122.983C96.2052 122.9 96.7402 122.443 96.9564 121.968C97.3502 121.104 96.8719 119.131 95.4532 115.768C94.3075 113.053 93.4284 110.569 93.3386 109.794C93.2856 109.337 93.0485 108.498 92.812 107.93C92.5755 107.361 92.3492 105.746 92.3092 104.34C92.2185 101.152 92.9697 99.8546 95.0056 99.6815C96.0208 99.5952 96.2934 99.6978 96.2934 100.166C96.2934 100.653 96.3879 100.681 96.8226 100.32C97.2608 99.9565 97.3525 99.9943 97.3569 100.541C97.361 101.048 97.4336 101.09 97.6665 100.722C97.9069 100.343 98.4033 100.518 100.043 101.561C101.182 102.287 102.241 103.098 102.396 103.364C102.552 103.63 102.887 103.848 103.142 103.848C103.397 103.848 104.003 104.245 104.488 104.731C105.238 105.481 105.334 105.813 105.128 106.941C104.493 110.414 109.285 113.382 113.012 111.824C113.952 111.432 114.292 111.4 114.242 111.71C114.085 112.698 114.772 113.689 117.603 116.558C118.882 117.853 119.599 118.312 120.349 118.312C122.215 118.312 122.302 115.935 120.522 113.602C118.906 111.483 116.512 109.147 116.225 109.407C116.066 109.551 116.07 109.351 116.234 108.963C116.924 107.327 116.844 104.487 116.061 102.816C115.435 101.478 115.047 101.105 113.915 100.752C111.95 100.138 110.051 100.217 108.567 100.973C107.286 101.627 107.286 101.627 106.256 100.432C105.69 99.7746 104.368 98.6938 103.318 98.0299C102.268 97.366 101.217 96.6571 100.983 96.4548C100.748 96.2524 100.306 96.0869 100 96.0869C99.6941 96.0869 99.092 95.8644 98.6623 95.5923C98.2668 95.3419 97.3466 95.2086 96.4278 95.1985V95.1986ZM110.558 104.108C110.63 104.108 110.707 104.113 110.791 104.123C111.968 104.262 112.223 104.626 112.43 106.463C112.612 108.075 112.609 108.082 111.527 108.082C110.43 108.082 108.301 106.539 108.762 106.079C108.889 105.951 109.006 105.993 109.02 106.171C109.035 106.348 109.252 105.938 109.502 105.259C109.821 104.392 110.056 104.112 110.558 104.108V104.108ZM130.01 124.254C129.388 124.234 128.845 124.432 128.385 124.849C127.271 125.857 127.53 126.887 129.287 128.44C130.165 129.216 131.475 130.631 132.198 131.584C133.654 133.507 134.872 134.961 136.069 136.212C136.506 136.668 136.869 137.153 136.877 137.29C136.885 137.426 137.361 138.088 137.935 138.76C138.51 139.432 138.98 140.099 138.98 140.243C138.98 140.387 139.337 140.877 139.773 141.332C140.21 141.787 141.177 142.865 141.922 143.729C143.976 146.109 148.608 150.797 149.241 151.136C150.165 151.632 151.24 151.136 151.449 150.118C151.665 149.069 150.407 146.227 149.003 144.594C148.535 144.048 148.151 143.508 148.149 143.393C148.146 143.277 147.552 142.562 146.826 141.802C146.1 141.043 144.95 139.675 144.271 138.762C142.141 135.899 138.933 131.955 137.428 130.351C135.981 128.808 135.981 128.809 139.332 129.049C141.175 129.181 143.954 129.369 145.506 129.467C147.058 129.566 149.28 129.723 150.445 129.817C151.609 129.91 152.938 129.995 153.398 130.005C154.082 130.02 158.926 130.857 162.086 131.506C162.474 131.586 164.221 131.903 165.967 132.211C169.286 132.795 174.66 134.172 174.963 134.516C175.06 134.626 175.298 134.716 175.492 134.716C175.686 134.716 177.071 135.332 178.571 136.085C181.498 137.557 184.12 139.763 184.159 140.788C184.172 141.135 184.248 141.919 184.328 142.53C184.497 143.817 183.864 144.356 181.313 145.093C180.44 145.345 179.111 145.846 178.361 146.207C177.14 146.794 176.894 146.809 176.014 146.354C175.473 146.074 174.762 145.577 174.435 145.25C174.047 144.863 173.76 144.786 173.608 145.031C173.48 145.237 172.82 145.425 172.14 145.449C167.586 145.609 165.355 147.595 165.907 150.996C166.16 152.551 167.645 154.548 168.7 154.752C170.321 155.064 171.452 154.987 173.009 154.458C173.888 154.16 175.018 153.961 175.519 154.017C176.278 154.102 176.572 153.856 177.284 152.537C177.754 151.667 178.151 150.476 178.166 149.891C178.181 149.306 178.276 149.032 178.376 149.283C178.492 149.571 178.708 149.621 178.966 149.419C179.19 149.243 180.486 149.011 181.848 148.902C185.189 148.637 185.176 148.641 186.47 147.264C188.249 145.372 188.709 140.737 187.311 138.774C186.923 138.229 186.605 137.686 186.605 137.568C186.605 137.062 183.814 134.392 182.163 133.318C179.781 131.77 175.444 129.727 173.905 129.429C173.226 129.298 172.193 129.049 171.611 128.876C171.029 128.704 168.728 128.244 166.496 127.855C164.265 127.466 161.963 127.054 161.381 126.939C160.799 126.824 159.608 126.657 158.735 126.568C157.862 126.478 156.566 126.248 155.855 126.057C155.144 125.866 153.318 125.633 151.798 125.539C150.278 125.445 148.637 125.289 148.152 125.193C147.667 125.096 144.407 124.914 140.908 124.788C135.271 124.585 134.48 124.625 133.964 125.141C133.423 125.683 133.292 125.671 132.108 124.972C131.331 124.514 130.631 124.275 130.01 124.254V124.254ZM106.919 127.405C106.481 127.405 105.894 127.459 105.046 127.556C103.628 127.717 101.975 127.902 101.373 127.966C100.772 128.03 100.137 128.167 99.9625 128.271C99.6628 128.449 97.8067 128.913 96.6464 129.1C91.9588 129.857 88.8087 130.837 83.7697 133.103C82.9935 133.452 81.7237 133.931 80.9476 134.168C80.1715 134.405 78.0673 135.299 76.2714 136.156C74.4755 137.013 72.8809 137.715 72.7285 137.715C72.0849 137.715 69.5179 140.813 69.2098 141.962C68.6446 144.069 69.2599 147.108 70.5911 148.782C71.2281 149.583 71.874 150.291 72.0267 150.356C72.1794 150.421 72.3047 150.693 72.3047 150.962C72.3047 151.24 72.5211 151.368 72.806 151.258C73.0819 151.152 73.6772 151.27 74.1289 151.52C76.219 152.676 84.7588 154.494 89.7636 154.848C91.5118 154.972 92.988 155.116 93.044 155.168C93.1 155.22 93.9764 155.255 94.9917 155.244C96.6944 155.226 96.8817 155.139 97.405 154.123C97.8984 153.164 97.9081 152.898 97.481 152.083C97.1842 151.517 96.7932 151.222 96.4929 151.337C96.2195 151.442 95.6876 151.363 95.3111 151.161C94.9346 150.96 94.1681 150.72 93.6078 150.628C91.7384 150.322 89.7827 150.038 88.1797 149.841C87.3066 149.734 86.3541 149.607 86.063 149.56C85.772 149.512 84.7004 149.353 83.6818 149.206C82.6632 149.058 81.8297 148.79 81.8297 148.611C81.8297 148.431 81.4327 148.384 80.9476 148.506C80.3692 148.651 80.0655 148.58 80.0655 148.299C80.0655 148.05 79.8276 147.961 79.4981 148.087C78.5359 148.457 73.9745 146.936 73.0855 145.949C71.8853 144.617 72.7279 142.74 75.0498 141.574C75.5773 141.308 76.4054 140.827 76.8905 140.504C77.3756 140.182 78.884 139.488 80.2422 138.962C81.6004 138.437 83.4257 137.68 84.2988 137.281C88.1695 135.509 90.6488 134.52 90.6488 134.747C90.6488 134.84 90.9616 134.751 91.3439 134.546C91.7261 134.341 93.9883 133.625 96.3709 132.955C109.518 129.258 109.793 129.143 108.374 127.912C107.963 127.556 107.649 127.405 106.919 127.405V127.405ZM147.191 131.399C146.8 131.374 146.421 131.69 146.144 132.335C145.369 134.143 144.575 137.351 144.809 137.729C145.255 138.451 145.868 137.833 147.192 135.326C148.351 133.132 148.467 132.706 148.078 132.083C147.804 131.644 147.494 131.419 147.191 131.399V131.399ZM103.31 132.97C103.019 133.001 102.771 133.251 102.512 133.758C101.819 135.114 101.863 135.208 105.89 140.973C106.536 141.897 106.601 141.914 107.426 141.373C107.9 141.063 108.288 140.513 108.288 140.151C108.288 139.232 107.22 136.657 106.839 136.657C106.666 136.657 106.524 136.427 106.524 136.147C106.524 135.525 104.465 133.305 103.616 133.012C103.508 132.975 103.406 132.96 103.31 132.97V132.97ZM126.934 133.862C126.409 133.874 125.851 133.937 125.265 134.055C123.823 134.343 121.031 136.82 120.373 138.395C119.731 139.931 119.444 143.235 119.926 143.534C120.122 143.655 120.282 144.06 120.282 144.434C120.282 145.418 122.723 147.567 124.874 148.476C126.819 149.299 127.563 149.241 129.924 148.083C130.473 147.813 131.109 147.592 131.337 147.592C131.565 147.592 131.968 147.103 132.233 146.504C132.608 145.657 132.626 145.218 132.309 144.524C132.069 143.997 132.03 143.469 132.214 143.231C132.703 142.601 132.388 137.879 131.772 136.588C130.894 134.748 129.212 133.813 126.934 133.862H126.934ZM125.997 138.514C126.102 138.519 126.219 138.529 126.349 138.543C127.275 138.638 127.659 138.932 128.22 139.971C128.869 141.174 128.879 141.305 128.339 141.613C128.016 141.798 127.645 142.583 127.514 143.359C127.383 144.135 127.091 144.765 126.866 144.759C126.141 144.739 124.163 142.467 124.163 141.654C124.163 141.221 124.393 140.317 124.674 139.644C125.073 138.689 125.259 138.48 125.997 138.514V138.514ZM140.503 146.4C140.355 146.393 140.189 146.454 139.972 146.57C139.587 146.775 139.039 147.447 138.752 148.062C138.015 149.646 137.361 150.763 136.904 151.221C136.472 151.653 136.373 152.982 136.745 153.355C136.875 153.484 137.33 153.59 137.757 153.59C138.324 153.59 138.973 152.933 140.167 151.154C141.066 149.814 141.802 148.538 141.802 148.319C141.802 148.1 141.547 147.532 141.236 147.058C140.944 146.612 140.749 146.411 140.503 146.4V146.4ZM163.791 150.712C162.813 150.702 162.06 150.858 161.701 151.152C161.489 151.325 161.244 151.395 161.157 151.308C160.867 151.019 155.257 151.725 150.445 152.657C147.957 153.139 146.202 153.426 143.742 153.755C143.354 153.807 142.285 153.967 141.367 154.111C140.448 154.255 139.178 154.418 138.544 154.472C137.91 154.526 135.963 154.733 134.217 154.931C132.471 155.13 130.328 155.303 129.455 155.317C127.725 155.343 123.101 155.537 116.755 155.848C113.49 156.008 112.612 156.165 112.257 156.65C112.014 156.981 111.815 157.384 111.815 157.546C111.815 157.995 113.54 158.583 115.696 158.868C116.764 159.009 117.954 159.075 118.342 159.015C118.73 158.956 121.429 158.806 124.339 158.682C127.25 158.557 130.345 158.407 131.218 158.348C134.964 158.095 138.159 157.805 138.98 157.644C139.465 157.549 140.496 157.384 141.273 157.276C143.171 157.014 143.74 156.92 146.211 156.462C147.375 156.246 149.251 155.991 150.379 155.895C151.507 155.799 152.575 155.63 152.752 155.521C153.581 155.008 162.244 154.28 162.792 154.677C163.817 155.418 166.143 154.974 166.143 154.037C166.143 152.823 164.952 150.768 164.224 150.727C164.075 150.719 163.931 150.713 163.791 150.712V150.712ZM155.16 156.059C154.334 156.059 154.148 156.238 153.972 157.206C153.72 158.582 153.896 159.91 154.372 160.233C154.799 160.523 159.44 169.731 159.443 170.294C159.443 170.517 159.698 171.176 160.008 171.758C160.609 172.887 160.984 177.853 160.515 178.461C160.366 178.655 160.145 179.23 160.023 179.738C159.902 180.247 159.225 181.104 158.518 181.643C157.232 182.623 157.232 182.624 155.426 181.997C153.784 181.427 150.97 179.599 150.68 178.914C150.615 178.762 150.338 178.637 150.063 178.637C149.788 178.637 149.563 178.399 149.563 178.108C149.563 177.817 149.27 177.579 148.912 177.579C148.554 177.579 147.974 177.261 147.623 176.873C147.271 176.485 146.816 176.167 146.609 176.167C146.403 176.167 145.912 175.809 145.517 175.371C145.123 174.934 144.057 174.214 143.148 173.771C142.239 173.328 140.992 172.496 140.377 171.921C139.761 171.346 139.05 170.876 138.795 170.876C138.541 170.876 138.28 170.755 138.215 170.608C138.151 170.462 137.383 169.794 136.51 169.125C135.637 168.457 134.208 167.188 133.335 166.306C131.434 164.386 129.025 162.762 128.076 162.762C127.131 162.762 126.28 163.696 126.28 164.731C126.28 165.836 128.728 168.602 131.483 170.609C132.308 171.21 132.982 171.833 132.982 171.994C132.982 172.155 133.148 172.287 133.35 172.287C133.689 172.287 134.04 172.526 135.2 173.546C135.435 173.753 136.501 174.532 137.568 175.276C138.636 176.02 139.636 176.842 139.791 177.104C139.946 177.365 140.299 177.579 140.576 177.579C141.029 177.579 144.181 179.755 148.505 183.054C150.619 184.667 153.354 186.041 154.819 186.226C155.473 186.309 156.081 186.449 156.169 186.537C156.416 186.784 159.366 185.823 160.359 185.172C160.845 184.853 161.343 184.325 161.465 183.996C161.588 183.668 162.331 182.453 163.116 181.296C164.544 179.193 164.544 179.193 164.535 174.946C164.528 171.429 164.402 170.427 163.803 169.112C163.405 168.239 162.871 166.969 162.614 166.29C162.358 165.611 161.865 164.735 161.517 164.345C161.17 163.954 160.55 162.923 160.139 162.052C158.302 158.163 156.554 156.059 155.16 156.059V156.059ZM124.815 167.548C124.04 167.57 123.246 167.875 122.789 168.424C122.393 168.899 122.064 169.416 122.058 169.573C122.048 169.812 120.155 172.418 119.575 172.992C119.477 173.089 118.945 173.774 118.394 174.513C116.094 177.598 112.942 180.837 112.504 180.567C112.32 180.452 112.168 180.597 112.168 180.888C112.168 181.669 111.511 181.938 110.882 181.416C110.579 181.165 109.546 180.925 108.587 180.882C106.923 180.808 106.761 180.885 105.109 182.554C103.377 184.305 103.377 184.305 103.455 186.571C103.526 188.611 103.651 188.957 104.712 190.052C105.785 191.159 106.054 191.262 107.707 191.193C111.705 191.025 113.005 189.34 113.211 184.055C113.22 183.834 113.66 183.544 114.189 183.411C115.36 183.117 118.099 180.612 120.374 177.755C122.05 175.649 123.188 174.227 124.865 172.144C125.348 171.543 126.022 170.845 126.364 170.591C127.138 170.017 127.169 168.646 126.423 168.026C126.01 167.683 125.418 167.53 124.815 167.548H124.815ZM108.851 184.456C108.925 184.447 108.989 184.456 109.039 184.486C109.586 184.824 109.364 186.625 108.701 187.226C107.541 188.275 106.966 187.822 107.22 186.058C107.305 185.47 108.33 184.52 108.851 184.456V184.456Z" fill="#1C2541"/>
<path d="M184.85 257.625C177.391 256.387 176.895 251.703 179.259 245.818C186.539 227.697 198.247 216.725 200.125 210.755C200.121 210.724 200.14 210.226 200.168 209.648C200.368 206.407 199.475 203.066 200.095 199.803C200.509 197.116 201.712 194.232 202.972 191.847C215.869 173.847 234.195 182.58 237.837 187.47C238.004 187.384 238.145 187.269 238.15 187.215C242.733 186.102 247.566 185.477 251.563 185.899C257.314 186.601 263.676 189.239 267.41 192.048C268.166 192.557 267.793 192.964 268.801 192.417C278.252 187.236 289.716 194.135 291.771 204.004C291.835 204.316 291.92 204.6 291.959 204.634C293.141 208.825 293.489 214.121 292.086 218.031C291.425 219.676 286.604 219.736 285.124 219.679C281.575 220.377 282.525 214.914 282.653 213.315C283.119 206.036 278.733 198.486 274.87 201.148C275.309 202.089 275.54 203.188 275.853 204.001C277.296 210.213 278.783 217.603 274.328 223.789C268.251 230.553 256.623 227.071 254.631 219.114C254.216 216.83 253.085 214.316 253.226 211.961C253.211 204.432 255.324 201.363 258.376 198.347C258.495 198.316 258.467 198.265 258.277 198.166C255.312 196.842 252.167 196.427 248.855 196.654C248.542 196.622 248.436 196.662 248.372 196.834C250.424 201.306 251.829 206.3 251.333 211.096C249.94 220.828 242.831 227.853 234.264 227.601C228.806 227.652 223.497 224.214 221.353 218.777C219.331 214.359 217.667 206.405 226.413 194.386C226.469 194.392 226.7 194.163 226.926 193.878C227.318 193.385 227.329 193.349 227.169 193.132C227.076 193.007 226.928 192.924 226.84 192.948C226.752 192.972 226.685 192.938 226.691 192.873C217.397 187.231 209.661 199.095 212.126 206.116C212.171 206.186 212.249 206.448 212.301 206.697C214.223 213.291 215.364 216.545 219.656 224.862C221.264 226.934 222.21 229.33 223.657 231.306C223.956 231.711 224.242 232.165 224.292 232.315C224.342 232.464 224.495 232.823 224.631 233.112C230.633 242.818 231.914 246.766 233.388 250.965C234.841 255.995 225.937 257.23 221.965 257.14C213.662 257.747 197.586 258.448 184.85 257.625H184.85ZM230.026 250.923C228.023 244.286 224.717 240.232 221.724 234.932C220.906 233.704 220.49 232.467 219.958 231.737C214.101 224.707 210.253 211.54 209.382 207.627C208.502 205.571 208.339 203.01 208.458 201.421C208.531 200.472 209.027 198.516 209.255 198.277C210.446 195.371 211.757 192.756 213.929 190.91C214.723 190.288 215.62 189.852 215.377 189.73C214.325 190.396 213.141 189.592 213.189 188.87C213.454 186.425 215.237 186.805 216.255 188.105C216.595 188.534 216.616 188.604 216.489 188.921C216.318 189.351 216.405 189.477 216.715 189.249C218.809 188.686 220.262 188.561 222.692 188.707C224.967 188.844 227.276 189.696 228.923 190.752C229.797 191.321 230.139 191.418 230.28 191.136C230.893 190.539 234.254 188.633 233.893 188.579C231.946 186.314 228.775 185.869 226.788 185.047C226.608 184.899 226.423 184.837 226.261 184.871C222.157 183.856 215.843 184.832 212.896 186.929C210.976 187.984 208.82 189.656 207.49 191.431C205.942 193.625 204.427 196.838 204.179 198.456C204.131 198.768 204.051 199.076 204.002 199.141C203.737 199.487 203.38 202.183 203.335 204.185C203.315 205.07 203.274 206.291 203.243 206.899C203.212 207.508 203.219 208.021 203.258 208.04C203.384 208.103 202.982 211.411 202.767 212.076C201.612 215.283 198.906 217.45 197.728 220.124C195.839 224.86 193.034 227.845 190.024 233.784C190.015 233.879 189.965 233.978 189.913 234.003C187.194 238.255 184.941 242.64 182.554 246.784C182.133 247.506 181.733 248.241 181.665 248.417C180.944 251.435 182.102 253.969 184.769 254.405C185.06 254.45 185.328 254.524 185.364 254.569C191.982 254.792 231.728 256.609 230.026 250.923H230.026ZM188.255 252.52C183.424 252.19 184.454 248.04 186.175 245.219C188.018 242.184 189.491 237.526 192.379 237.159C197.498 236.61 204.552 237.486 209.709 237.16C209.816 237.116 209.967 237.111 210.044 237.149C210.371 237.308 210.454 237.102 210.395 236.272C210.722 229.501 219.183 233.141 219.397 237.861L219.478 238.456C221.285 238.69 221.849 239.24 222.346 239.932C224.601 244.558 229.428 250.935 224.963 251.606C215.606 253.012 199.062 253.302 188.255 252.52V252.52ZM198.976 250.553C199.57 250.543 200.081 250.514 200.111 250.489C200.142 250.465 200.015 250.134 199.83 249.753C199.645 249.373 199.503 248.962 199.516 248.839C199.791 247.822 201.04 248.122 201.557 248.619C202.249 249.295 202.266 249.332 202.14 249.889C202.04 250.338 202.05 250.408 202.223 250.425C202.332 250.436 202.473 250.405 202.536 250.356C205.229 250.484 208.114 250.41 209.821 250.247C211.83 250.395 212.814 250.412 212.951 250.3C213.053 250.217 212.94 249.39 212.804 249.214C212.754 249.151 212.723 249.011 212.734 248.902C212.745 248.793 212.693 248.691 212.618 248.676C212.543 248.66 212.369 248.625 212.231 248.596C212.02 248.553 211.981 248.59 211.985 248.836C211.988 249.058 212.058 249.142 212.279 249.19C212.571 249.254 212.75 249.559 212.575 249.694C212.402 249.828 211.642 249.907 211.4 249.818C211.103 249.637 209.94 249.299 209.516 248.379C209.304 248.357 209.273 247.712 209.469 247.388C210.518 245.253 214.949 246.408 214.261 247.505C214.227 247.533 214.325 247.722 214.479 247.925C214.795 248.341 215.041 249.166 214.994 249.655C214.977 249.834 214.982 250.101 215.006 250.247C215.047 250.502 215.08 250.513 215.837 250.529C216.8 250.549 217.461 250.526 217.689 250.465C217.784 250.44 218.225 250.432 218.67 250.447C219.452 250.473 220.546 250.236 220.261 250.102C220.074 250.014 219.587 249.998 219.431 250.075C219.361 250.109 219.196 250.032 219.064 249.905C218.932 249.777 218.727 249.645 218.608 249.609C218.43 249.557 218.394 249.432 218.4 248.889C218.407 248.33 218.443 248.206 218.649 248.05C218.782 247.949 219.008 247.849 219.151 247.828C219.535 247.771 220.327 248.117 220.612 248.466C221.034 248.817 221.027 249.687 220.679 250.112C224.645 249.404 224.048 249.288 223.346 247.286C222.545 245.063 221.221 241.162 220.141 240.942C219.235 240.523 218.035 240.431 217.806 240.903C216.905 242.313 213.88 242.226 212.682 241.582C212.408 241.437 211.616 242.976 210.209 241.879C209.806 241.406 209.723 241.006 209.924 240.519C210.073 240.157 210.139 240.105 210.416 240.132C210.592 240.15 210.838 240.235 210.963 240.321C211.088 240.407 211.275 240.5 211.379 240.529C211.698 240.615 211.678 240.018 211.349 239.633L211.068 239.303C210.609 239.631 209.811 239.73 209.264 239.734C206.514 239.52 205.574 239.689 202.947 239.653C200.581 239.408 202.555 239.86 201.819 241.209C201.734 241.357 201.626 241.473 201.58 241.468C199.667 241.501 200.525 239.714 198.889 239.852C196.559 239.986 194.499 239.543 192.098 239.94C192.033 239.862 191.965 239.817 191.946 239.842C191.628 240.259 191.319 240.882 191.358 241.027C191.396 241.166 191.544 241.223 191.952 241.255C192.373 241.287 192.547 241.358 192.733 241.57C193.021 241.971 192.814 242.9 192.356 243.044C191.742 243.231 191.523 243.167 191.118 242.684C190.672 241.995 190.233 242.801 190.201 243.099C189.315 244.777 188.806 246.042 188.085 247.789C187.594 248.417 187.53 248.572 187.561 249.046C187.579 249.313 187.694 249.561 187.89 249.754C188.159 250.02 188.317 250.069 189.346 250.202C189.982 250.284 190.519 250.373 190.541 250.4C193.366 250.421 196.645 250.589 198.976 250.553L198.976 250.553ZM189.999 248.87C189.952 248.654 189.859 248.453 189.793 248.423C189.49 248.287 189.879 247.519 190.232 247.554C190.327 247.564 190.441 247.526 190.484 247.469C190.706 247.179 192.173 247.914 192.3 248.379C192.616 249.82 190.162 249.593 189.999 248.87ZM194.012 243.626C194.163 243.351 194.339 242.956 194.403 242.749C194.612 242.081 195.585 241.441 196.393 241.442C198.289 241.184 199.102 242.545 199.99 243.923C200.454 245 199.879 245.894 199.054 246.556C198.614 246.9 198.19 247.057 197.441 247.155C195.243 247.026 193.125 245.261 194.012 243.626V243.626ZM197.145 244.447C197.364 244.274 197.552 244.041 197.563 243.93C197.589 243.671 197.322 243.153 197.154 243.136C196.823 243.103 196.429 244.063 196.567 244.569C196.635 244.819 196.691 244.807 197.145 244.447V244.447ZM202.677 245.233C202.216 244.571 202.015 244.05 201.995 243.467C201.881 242.591 201.877 242.422 202.419 241.984C205.739 239.976 208.769 240.869 209.294 243.808C209.369 244.538 209.28 244.932 208.91 245.498C207.263 247.493 204.199 247.797 202.677 245.233ZM206.768 243.296C206.824 242.031 204.816 241.994 204.468 243.039C204.339 243.507 204.665 244.29 204.885 244.182C205.582 244.518 206.703 244.426 206.768 243.296V243.296ZM214.162 246.918C212.882 245.815 214.608 244.762 215.428 245.624C215.489 245.699 215.624 245.768 215.729 245.779C217.258 246.777 215.297 248.404 214.162 246.918V246.918ZM218.486 245.055C218.004 244.775 217.805 244.506 217.669 243.949C217.583 243.595 217.596 243.481 217.748 243.255C217.919 243.001 217.964 242.992 218.477 243.116C219.262 243.304 219.473 243.435 219.628 243.826C219.882 244.465 219.629 245.219 219.147 245.262C219.002 245.275 218.705 245.182 218.486 245.055ZM216.893 238.641C217.918 236.264 214.214 234.517 212.953 235.302C212.31 235.705 212.33 235.623 212.318 236.094C212.448 237.01 212.665 236.774 213.619 236.934C214.322 237.046 214.83 237.58 214.727 238.099C215.494 239.088 213.554 239.661 213.313 238.703C213.322 238.613 213.202 238.44 213.046 238.317C212.89 238.195 212.73 238.04 212.691 237.973C212.451 238.784 212.888 240.251 213.975 240.247C215.44 240.135 216.558 239.434 216.893 238.641ZM199.353 230.929C199.331 230.823 199.272 230.608 199.222 230.45C198.106 227.112 202.886 223.654 205.079 225.853C205.102 225.938 205.379 226.19 205.694 226.412C206.281 226.825 206.781 227.385 206.759 227.605C206.752 227.673 206.907 227.914 207.102 228.141C207.537 228.644 207.783 229.354 207.796 230.144C207.804 230.632 207.759 230.801 207.54 231.087C205.639 233.487 200.658 234.648 199.353 230.929ZM204.088 230.633C205.124 229.75 205.394 228.803 204.857 227.924C203.591 225.982 201.924 228.4 201.774 229.674C201.736 230.037 201.791 230.229 202.028 230.561C202.305 230.948 202.381 230.989 202.932 231.044C203.505 231.102 203.559 231.083 204.088 230.633ZM208.753 226.223C207.895 225.87 207.194 225.639 207.271 224.71C208.078 217.715 215.469 228.777 208.753 226.223ZM203.313 215.428C203.384 214.724 204.046 213.902 204.352 214.139C210.576 215.864 203.298 218.767 203.313 215.428V215.428ZM204.614 206.148C204.518 205.609 205.117 204.897 205.509 204.532C206.13 203.945 206.76 204.383 207.224 204.932C207.604 205.389 207.643 205.497 207.597 205.956C207.466 209.32 204.871 207.739 204.614 206.148V206.148ZM205.228 199.385C204.868 199.003 204.845 198.935 204.948 198.579C205.118 196.716 206.434 195.937 207.731 196.904C208.324 197.367 208.485 198.028 208.465 198.223C207.631 200.681 206.415 200.661 205.228 199.385V199.385ZM224.002 185.339C224.529 186.192 224.717 188.028 223.135 187.888C217.808 187.414 221.541 183.842 224.002 185.339V185.339ZM243.41 220.078C245.702 217.742 246.387 215.209 247.835 212.599C247.932 212.434 248.321 210.902 248.413 210.322C249.047 205.038 247.491 202.134 245.324 198.112C245.253 197.78 244.795 196.863 244.112 197.096C242.995 197.363 241.419 197.839 240.6 198.423L240.255 198.689C241.143 200.212 241.892 201.633 242.388 202.97C242.453 203.142 242.535 203.861 242.57 204.567C242.863 208.099 241.996 213.033 239.972 214.883C233.847 220.183 229.332 215.931 228.535 211.106C228.376 210.164 228.458 208.784 228.834 206.023C229.675 198.127 238.811 195.548 240.397 194.683C243.179 193.52 253.696 193.043 257.91 194.71C261.46 195.684 265.943 198.798 267.92 203.525C269.022 206.406 269.362 209.264 269.518 211.752C269.577 212.697 269.528 213.185 269.265 214.25C269.199 214.518 269.135 214.88 269.124 215.054C267.848 217.921 264.114 218.422 262.107 216.449C261.954 216.296 261.734 216.041 261.685 215.967C259.947 213.346 261.496 206.447 263.487 204.333C263.639 204.348 263.791 204.13 263.818 203.86C263.627 202.037 260.914 199.161 260.641 199.794C258.812 202.718 256.711 207.232 256.784 210.162C256.966 213.274 257.535 216.543 258.193 218.752C258.311 219.148 258.848 220.153 259.04 220.337C259.728 221.536 260.945 222.496 262.198 223.282C266.124 225.302 272.083 223.79 273.257 217.818C273.314 217.518 273.451 216.907 273.562 216.46C274.004 212.655 273.699 207.593 272.742 204.378C272.156 202.2 269.981 197.508 265.394 195.306C265.602 195.93 266.021 195.85 265.996 196.574C265.928 198.561 262.874 196.769 262.78 195.38C263.085 194.699 263.282 194.792 264.086 194.485C263.893 194.356 263.519 193.863 262.688 193.359C254.524 188.404 241.954 188.016 234.391 192.297C231.336 194.312 228.679 196.354 226.673 199.637C223.888 202.772 222.949 208.271 223.083 212.226C223.501 215.664 224.466 219.965 227.59 222.182C227.759 222.291 227.977 222.5 228.073 222.647C228.17 222.795 228.303 222.921 228.368 222.927C232.357 225.935 240.368 225.021 243.41 220.078H243.41ZM236.878 222.595C236.158 222.477 235.089 222.148 235.099 222.047C235.104 222.003 234.978 221.765 234.819 221.518C234.408 220.879 234.469 220.676 235.153 220.41C236.503 220.167 238.68 220.272 238.18 221.747C238.025 222.202 237.564 222.808 237.45 222.707C237.436 222.695 237.179 222.644 236.878 222.595H236.878ZM229.578 220.831C229.485 220.712 229.217 220.528 228.983 220.422C228.748 220.315 228.354 219.974 228.101 219.66C227.741 219.212 227.639 218.983 227.62 218.585C227.581 217.787 227.707 217.689 228.695 217.752C229.783 217.82 230.442 218.138 230.488 218.617C230.506 218.794 230.597 219.079 230.69 219.251C230.818 219.486 230.835 219.709 230.758 220.141C230.66 220.687 230.631 220.725 230.201 220.882C229.765 221.042 229.741 221.04 229.578 220.831V220.831ZM264.975 222.429C264.472 222.078 264.289 221.325 264.317 221.041C264.35 220.709 265.165 220.248 265.849 220.173C266.126 220.143 266.962 220.325 267.099 220.566C268.671 221.961 266.27 223.63 264.975 222.429ZM259.217 218.669C258.695 217.681 258.686 217.492 259.143 217.118C259.859 216.317 261.203 217.285 261.624 217.76C261.957 218.137 262.29 218.417 262.376 218.393C263.355 221.114 260.156 220.407 259.217 218.669V218.669ZM225.618 213.534C225.623 213.489 225.464 213.259 225.266 213.023C224.848 212.527 224.779 211.848 225.105 211.445C225.287 211.22 225.327 211.218 226.138 211.395C226.602 211.497 227.052 211.658 227.139 211.753C227.96 212.714 228.126 213.575 227.727 214.344C226.822 214.429 225.942 214.689 225.618 213.534ZM271.018 214.661C270.99 214.529 270.883 214.412 270.779 214.402C270.504 214.374 270.282 213.994 270.248 213.494C270.224 213.146 270.271 213.002 270.478 212.787C270.883 212.43 272.069 212.849 272.571 212.866C272.793 212.758 273.095 213.297 273.176 213.947C273.28 214.781 273.182 214.904 272.452 214.861C272.202 214.847 271.788 214.85 271.533 214.868C271.122 214.898 271.063 214.874 271.018 214.661V214.661ZM257.721 208.838C257.649 207.957 257.673 207.763 257.868 207.625C258.918 206.286 260.007 207.652 260.273 208.12C260.453 208.439 260.492 208.681 260.45 209.223C260.142 210.589 257.834 209.762 257.721 208.838V208.838ZM245.308 207.248C244.188 206.437 243.943 206.168 243.932 205.742C244.097 203.64 246.471 204.377 247.006 205.171C247.517 205.717 247.064 207.289 246.776 207.445C246.547 207.56 245.555 207.426 245.308 207.248V207.248ZM268.706 203.051C268.489 202.777 268.314 202.529 268.317 202.5C266.906 200.462 270.227 200.334 270.603 201.005C271.032 201.529 271.27 201.639 271.185 202.435C271.193 204.026 269.379 203.882 268.706 203.051ZM237.223 192.649C237.355 192.24 237.257 192.315 237.995 192.059C239.264 191.652 239.388 191.619 239.952 192.609C240.194 193.037 240.033 193.42 239.925 193.742C237.187 195.94 237.068 193.322 237.223 192.649H237.223ZM237.379 212.437C237.641 212.265 238.058 210.982 238.271 209.693C238.36 209.159 238.669 207.578 238.804 206.968C238.851 206.759 238.953 206.019 239.032 205.324C239.225 203.767 238.832 202.576 238.312 201.625C238.104 201.245 237.883 200.766 237.822 200.561C237.682 200.096 237.441 200.063 236.989 200.45C235.508 201.422 234.067 202.465 233.192 203.877C232.827 204.482 232.577 205.546 232.237 207.943C232.201 209.104 231.945 211.045 232.299 212.038C233.741 214.871 236.736 213.457 237.379 212.437H237.379ZM265.49 214.848C265.71 214.181 265.799 213.479 265.835 212.127C265.69 210.813 265.816 209.261 265.446 208.022C264.878 208.014 264.116 211.713 264.135 213.457C264.189 214.411 264.936 216.504 265.49 214.848V214.848ZM287.691 217.138C289.263 216.983 289.308 216.791 289.484 214.641C289.614 213.013 289.488 212.463 289.244 213.593C288.349 215.75 286.297 214.71 286.287 213.628C286.299 213.505 286.26 213.399 286.2 213.393C286.142 214.467 286.095 215.79 286.051 216.707C285.938 217.418 286.997 217.114 287.691 217.138V217.138ZM289.499 211.863C289.549 210.432 289.082 208.527 288.73 207.012C288.743 206.88 288.707 206.736 288.65 206.692C288.593 206.649 288.537 206.711 288.525 206.832C288.513 206.952 288.419 207.119 288.317 207.202C287.21 208.531 285.454 206.635 285.659 205.782C285.891 204.534 288.091 205.016 288.349 205.836C288.375 205.956 288.438 206.059 288.491 206.065C288.543 206.07 288.556 205.935 288.519 205.762C287.69 201.855 285.169 197.739 282.465 195.939C282.169 195.761 281.857 195.561 281.772 195.497C279.777 193.493 272.495 192.775 270.724 194.623C270.51 194.854 270.493 194.922 270.599 195.138C271.594 195.868 272.91 197.267 273.512 198.408C273.608 198.616 273.787 198.626 274.263 198.448C275.91 197.599 276.508 197.333 278.443 197.935C280.434 198.362 278.963 198.497 278.903 197.511C278.908 197.456 278.804 197.251 278.671 197.056C278.149 196.464 278.894 196.007 279.364 196.015C281.072 196.037 280.911 196.385 281.876 196.846C282.168 196.984 282.272 197.108 282.295 197.342C282.326 197.658 282.085 198.191 281.756 198.534C281.507 198.793 280.754 198.808 280.585 198.558C279.317 198.166 279.874 198.391 280.299 198.795C282.232 200.217 283.727 202.014 284.534 203.945C284.985 205.057 285.223 205.684 285.325 206.025C285.814 207.391 286.414 209.603 286.23 211.043C286.207 211.182 286.23 211.397 286.281 211.52C286.385 211.773 286.631 211.66 286.653 211.435C287.918 210.045 289.08 211.139 289.445 212.271C289.486 212.277 289.511 212.093 289.499 211.863L289.499 211.863ZM281.867 231.026C282.3 228.112 284.688 225.959 285.243 223.448C285.437 222.775 286.213 221.915 286.789 222.338C287.041 222.523 287.33 223.169 287.314 223.332C288.52 225.828 289.202 227.449 289.942 229.908C290.348 231.231 290.573 232.42 290.536 233.477C290.097 241.683 280.809 238.133 281.867 231.026V231.026ZM288.3 233.015C288.372 230.78 287.257 229.014 286.725 227.09C286.678 226.917 286.597 226.772 286.544 226.766C285.163 228.515 284.145 231.456 284.404 233.09C285.26 237.668 288.571 235.408 288.3 233.015Z" fill="black"/>
<defs>
<filter id="filter0_d" x="0" y="0" width="356" height="327" filterUnits="userSpaceOnUse" color-interpolation-filters="sRGB">
<feFlood flood-opacity="0" result="BackgroundImageFix"/>
<feColorMatrix in="SourceAlpha" type="matrix" values="0 0 0 0 0 0 0 0 0 0 0 0 0 0 0 0 0 0 127 0"/>
<feOffset dy="4"/>
<feGaussianBlur stdDeviation="14"/>
<feColorMatrix type="matrix" values="0 0 0 0 0 0 0 0 0 0 0 0 0 0 0 0 0 0 0.06 0"/>
<feBlend mode="normal" in2="BackgroundImageFix" result="effect1_dropShadow"/>
<feBlend mode="normal" in="SourceGraphic" in2="effect1_dropShadow" result="shape"/>
</filter>
<linearGradient id="paint0_linear" x1="247.344" y1="85.9922" x2="156.893" y2="268.166" gradientUnits="userSpaceOnUse">
<stop stop-color="#7BDFF2"/>
<stop offset="0.684269" stop-color="#B2F7EF"/>
</linearGradient>
</defs>
</svg>
