<svg width="378" height="420" viewBox="0 0 378 420" fill="none" xmlns="http://www.w3.org/2000/svg">
<path fill-rule="evenodd" clip-rule="evenodd" d="M193.635 24.4007C246.14 28.6228 299.882 36.8764 334.47 76.5927C370.794 118.302 387.622 176.495 372.392 229.66C357.95 280.079 309.218 307.943 261.782 330.341C214.96 352.449 162.818 372.11 115.572 350.924C67.1296 329.202 45.6597 276.9 29.7096 226.276C11.258 167.712 -17.5072 99.0726 21.202 51.4019C59.7793 3.89373 132.623 19.4946 193.635 24.4007Z" fill="url(#paint0_linear)"/>
<g clip-path="url(#clip0)">
<path d="M140.585 413.621C142.928 408.286 144.031 402.288 145.307 396.926C148.009 385.577 148.61 382.684 150.199 373.389C154.175 350.131 153.796 332.525 148.842 310.404C146.359 299.559 141.767 293.268 132.747 287.238C121.725 281.135 104.398 276.767 91.5841 281.714C81.0721 286.248 79.0284 288.347 74.2972 299.464C72.8106 302.957 71.0862 313.834 71.0732 319.8C71.0675 321.743 70.9254 324.824 70.7544 326.647C70.1174 333.439 68.4243 356.877 67.7372 368.417C67.579 379.175 65.4505 389.96 65.8599 400.723C66.0673 405.745 64.3383 408.948 59.9019 408.221C55.0801 407.406 55.0508 407.331 55.7538 397.589C56.096 392.849 56.7049 383.6 57.1071 377.036C57.8441 365.01 58.2358 359.086 60.1261 331.38C60.6949 323.043 61.0016 316.064 60.8075 315.87C48.0228 330.157 33.0398 345.848 17.7683 353.74C10.0551 358.928 2.42044 352.675 0.307428 345.638C-1.06213 340.181 2.35321 318.618 6.41325 307.089C7.24794 304.718 9.01355 299.646 10.3369 295.818C17.9128 277.505 24.2794 262.91 33.0808 247.734C34.5633 245.172 36.5137 242.338 37.4153 241.435C38.3168 240.532 39.638 238.749 40.3514 237.473C41.0647 236.197 42.0692 235.112 42.5836 235.063C43.098 235.014 44.05 234.94 44.699 234.897C45.7668 234.828 45.7352 234.625 44.3675 232.767C43.023 230.941 42.8745 230.062 43.0231 224.817C43.1339 220.905 43.5093 218.528 44.1383 217.754C48.8038 212.016 51.4079 209.24 53.726 207.535C55.8997 205.936 56.4516 205.112 56.4704 203.437C56.5177 199.279 59.5551 188.919 61.6348 185.824C63.9288 182.051 65.9315 177.844 68.6547 174.648C69.9379 173.162 69.9373 173.137 68.5842 171.306C66.6331 168.667 66.0799 165.626 67.3579 164.565C68.6879 163.461 72.1803 164.144 74.0132 165.866C75.3975 167.167 75.4063 167.165 77.8778 165.128C80.8194 162.703 90.6883 157.288 94.8989 155.789C101.632 153.392 107.924 152.419 114.586 152.747C120.244 153.026 121.635 153.346 125.327 155.217C130.39 157.845 136.522 157.099 141.045 160.5C148.739 167.513 150.721 173.461 150.935 182.287C151.133 191.373 149.174 202.442 145.804 211.28C141.004 223.868 130.657 237.761 121.418 244.026C117.634 246.591 109.231 250.843 107.495 251.071C106.948 251.143 105.196 251.565 103.601 252.009C102.006 252.454 97.8294 252.852 94.3195 252.894C88.3008 252.967 87.6068 252.827 82.1192 250.44C78.919 249.048 74.951 246.878 73.3015 245.618C68.4474 241.912 62.9814 240.826 57.8034 242.539C56.1795 243.076 54.1712 243.345 53.3405 243.137C51.4954 242.674 49.7032 239.414 49.9597 236.987C50.0843 235.808 49.8037 235.128 49.1347 234.99C48.3303 234.824 48.1719 235.317 48.3683 237.375C48.6397 240.222 47.8829 241.792 42.226 250.124C31.977 267.392 24.0434 285.321 18.3003 303.111C14.4591 313.307 11.8547 324.025 10.6965 334.657C9.15471 349.527 13.0267 349.343 29.8847 333.748C45.6644 319.15 63.0277 300.74 62.5792 299.082C64.011 297.265 65.4332 294.866 66.3398 293C69.2106 287.047 73.1023 282.385 77.4659 279.671C89.6126 272.709 99.9733 271.099 110.085 271.582C115.452 271.814 120.06 272.426 123.344 273.342C132.315 275.842 141.862 281.028 146.965 286.171C148.871 288.092 153.415 293.881 154.398 295.64C159.397 307.111 161.218 320.335 162.445 329.631C163.927 347.872 162.348 366.144 158.819 382.849C157.216 391.224 155.174 400.633 153.084 407.999C151.004 415.31 150.723 415.868 148.201 417.696C141.256 422.337 138.026 419.451 140.585 413.621ZM105.705 242.964C111.01 241.02 112.172 240.368 117.44 236.387C122.221 232.774 126.387 227.982 131.77 219.903C134.699 215.507 138.805 206.04 140.292 200.25C141.481 195.619 142.486 185.875 142.23 181.449C142.109 175.669 139.966 167.894 132.174 163.366C131.344 162.901 128.212 161.746 125.214 160.799C120.435 159.289 118.986 159.119 113.464 159.418C107.757 159.727 101.78 161.022 98.711 162.614C96.0685 163.985 95.057 164.475 91.5078 166.103C89.4604 167.042 86.09 169.192 84.0181 170.879C80.2513 173.948 80.251 173.949 80.6893 176.871C81.0139 179.036 80.846 180.223 80.0424 181.45C78.7388 183.44 76.6245 183.619 76.1438 181.78C75.6001 179.702 74.7895 180.185 72.5299 183.935C67.1761 192.821 63.3477 203.786 66.8068 200.327C67.927 199.207 73.8815 198.809 77.5984 199.606C82.9452 200.753 89.3949 204.098 89.8641 205.967C90.3245 207.801 89.7713 209.583 88.6955 209.73C86.1958 210.073 84.2914 210.031 84.2914 209.634C84.2914 208.817 81.2624 207.769 77.5973 207.317C74.511 206.936 73.3734 207.15 69.3747 208.857C65.998 210.3 64.6762 211.216 64.522 212.222C64.3497 213.347 64.6588 213.605 66.1795 213.604C69.4689 213.604 79.9385 216.382 81.2214 217.598C82.627 218.93 82.8832 223.709 81.6301 225.219C81.044 225.925 81.1827 226.319 82.2522 226.987C84.3 228.266 84.1594 232.332 82.0189 233.734C80.5334 234.708 80.1886 234.693 77.5439 233.546C75.9679 232.863 73.6389 232.085 72.3685 231.818L70.0586 231.332L72.3685 233.939C75.5356 237.514 79.139 240.205 84.6229 243.091C89.2223 245.512 89.3158 245.53 95.0977 245.123C98.8858 244.857 102.606 244.1 105.705 242.964ZM101.556 182.163C100.17 179.574 101.194 177.4 105.01 174.83C109.034 172.12 111.605 171.847 113.093 173.972C113.661 174.782 114.125 175.816 114.125 176.268C114.125 176.721 112.319 178.594 110.113 180.43C105.5 184.27 102.959 184.784 101.556 182.163ZM89.1812 176.632C88.7712 176.364 88.2241 175.169 87.9654 173.977C87.5606 172.11 87.7718 171.55 89.4819 169.952C90.5747 168.931 93.0412 167.588 94.9628 166.967L98.4568 165.839L100.324 167.884C101.351 169.008 102.192 170.181 102.192 170.49C102.192 171.05 91.3878 177.149 90.4302 177.129C90.1533 177.124 89.5912 176.9 89.1812 176.632ZM62.082 232.832C62.3135 232.457 61.7705 232.169 60.8343 232.169C59.9228 232.169 58.9926 232.467 58.7672 232.832C58.5358 233.206 59.0787 233.495 60.0149 233.495C60.9265 233.495 61.8567 233.197 62.082 232.832ZM74.3469 223.55C74.3469 223.185 73.8248 222.891 73.1868 222.897C72.1953 222.906 72.1711 223.001 73.021 223.55C74.2722 224.358 74.3469 224.358 74.3469 223.55ZM71.3636 222.887C71.1382 222.522 70.6555 222.224 70.2909 222.224C69.9263 222.224 69.8123 222.522 70.0376 222.887C70.263 223.251 70.7457 223.55 71.1103 223.55C71.4749 223.55 71.5889 223.251 71.3636 222.887ZM68.8637 222.486C68.6434 222.266 68.0715 222.242 67.593 222.434C67.0641 222.646 67.2211 222.803 67.9935 222.835C68.6923 222.864 69.0839 222.707 68.8637 222.486Z" fill="url(#paint1_linear)"/>
</g>
<g clip-path="url(#clip1)">
<path d="M121.89 133.359C117.566 132.199 113.521 129.213 111.329 125.565C109.343 122.258 109.081 121.211 109.017 116.308C108.959 111.832 108.959 111.832 110.551 109.513C115.08 102.278 124.398 104.773 131.592 108.472C135.325 110.367 137.927 113.695 138.554 117.374C138.593 117.608 138.672 117.992 138.728 118.227C140.383 130.738 131.97 135.931 121.89 133.359ZM125.54 128.801C125.54 128.403 126.052 127.542 126.678 126.887C127.86 125.651 127.855 124.706 126.673 125.89C125.913 126.652 121.638 127.558 120.149 127.273C118.614 126.979 118.979 127.563 120.968 128.584C123.207 129.733 125.54 129.843 125.54 128.801H125.54ZM122.214 121.93C125.125 120.549 126.275 118.132 126.209 113.535C125.464 105.228 114.624 108.631 114.204 114.777C114.075 117.529 114.761 120.307 115.803 121.252C116.481 121.867 118.493 122.498 120.223 122.639C120.457 122.658 121.353 122.339 122.214 121.93ZM121.106 99.9774C118.497 97.5027 115.982 95.5489 115.008 95.2389C114.479 95.0708 113.786 94.4193 113.468 93.7912C112.032 90.9603 111.737 83.5475 112.791 76.7698C113.606 68.2869 115.289 62.522 119.785 56.4144C123.68 51.1812 126.311 48.2121 128.355 46.7406C130.5 45.1964 130.712 44.5826 129.048 44.7326C127.002 44.9171 124.434 44.2447 123.502 43.2804C118.815 39.629 115.122 38.2159 111.814 35.3131C110.143 33.821 110.143 33.821 110.44 29.4391C111.251 21.1786 114.072 13.5906 120.534 7.97053C137.314 -6.92463 165.586 0.364681 177.215 19.0198C182.683 26.2065 184.694 28.4344 185.757 37.8708C186.311 42.7635 185.912 46.5621 184.622 48.6889C173.993 69.4938 150.244 55.674 141.577 81.7787C141.258 83.1685 137.267 90.3955 139.409 97.3198C139.74 98.9862 140.569 100.311 139.809 100.944C132.666 101.994 126.338 104.832 121.106 99.9774ZM128.019 97.7635C128.449 97.3405 126.573 95.3846 125.795 95.445C125.304 95.4832 124.806 95.4784 124.689 95.4341C122.697 94.6864 122.262 95.422 123.69 97.1234C124.699 98.3248 124.991 98.4418 126.351 98.1872C127.191 98.0299 127.942 97.8391 128.019 97.7631V97.7635ZM125.167 88.3862C125.317 87.6828 125.462 86.3014 125.489 85.3164C126.566 77.149 128.861 67.9978 134.295 61.7964C141.762 52.1673 155.74 54.3975 165.724 47.1001C167.959 45.3442 168.718 44.4117 169.592 42.3468C169.989 41.409 170.678 39.8112 171.124 38.7961C172.105 36.5627 172.286 30.8406 171.497 27.0004C170.092 18.0184 162.503 12.0792 156.8 9.00087C150.542 5.85665 142.682 4.65688 136.385 5.88476C133.907 6.36792 129.347 8.40452 126.652 10.2315C121.58 14.3014 115.532 22.2702 115.332 29.4073C115.332 30.5377 115.458 30.6453 116.715 30.5925C117.475 30.5604 120.986 30.6774 124.518 30.8522C130.938 31.1701 130.938 31.1701 131.219 29.7654C131.87 26.5004 135.023 23.1939 138.736 21.8807C143.377 20.6974 148.876 24.0748 150.181 28.3932C151.611 37.4832 143.85 43.9247 138.932 46.3858C124.851 55.0363 118.4 66.8657 118.197 84.4819C118.178 88.0083 118.313 89.1909 118.769 89.4729C119.097 89.6761 120.609 89.8025 122.13 89.7537C124.831 89.6671 124.901 89.6358 125.167 88.3862ZM138.62 40.1088C138.726 39.7862 138.404 39.5723 137.803 39.5667C135.825 39.237 135.019 36.6357 133.118 36.5919C130.07 36.1318 123.527 35.1452 119.712 35.4675C119.712 35.9878 123.122 37.4445 123.669 37.4445C123.962 37.4445 124.558 37.8761 124.993 38.4037C126.306 39.9955 127.333 40.3268 131.023 40.3475C132.964 40.3584 134.67 40.4861 134.815 40.6312C135.278 41.0955 138.439 40.6617 138.62 40.1088Z" fill="url(#paint2_linear)"/>
</g>
<defs>
<linearGradient id="paint0_linear" x1="310.438" y1="31.3594" x2="133.897" y2="374.365" gradientUnits="userSpaceOnUse">
<stop stop-color="#7BDFF2"/>
<stop offset="0.684269" stop-color="#B2F7EF"/>
</linearGradient>
<linearGradient id="paint1_linear" x1="81.5" y1="152.686" x2="81.5" y2="420" gradientUnits="userSpaceOnUse">
<stop stop-color="#001E7C"/>
<stop offset="1" stop-color="#212941"/>
</linearGradient>
<linearGradient id="paint2_linear" x1="147.5" y1="0" x2="147.5" y2="134" gradientUnits="userSpaceOnUse">
<stop stop-color="#001E7C"/>
<stop offset="1" stop-color="#212941"/>
</linearGradient>
<clipPath id="clip0">
<rect width="163" height="345" fill="white" transform="translate(0 75)"/>
</clipPath>
<clipPath id="clip1">
<rect width="77" height="134" fill="white" transform="translate(109)"/>
</clipPath>
</defs>
</svg>
