<svg width="356" height="327" viewBox="0 0 356 327" fill="none" xmlns="http://www.w3.org/2000/svg">
<g filter="url(#filter0_d)">
<rect x="28" y="24" width="300" height="271" fill="white"/>
</g>
<path fill-rule="evenodd" clip-rule="evenodd" d="M186.692 67.1204C209.486 70.9416 227.001 85.2682 242.304 102.701C259.087 121.82 276.329 142.151 274.919 167.628C273.189 198.867 261.552 231.858 234.319 246.928C205.817 262.7 170.813 256.013 141.747 241.321C113.333 226.959 91.672 202.018 84.0068 170.951C76.1522 139.116 78.7427 102.379 101.73 79.1349C122.961 57.668 157.012 62.1449 186.692 67.1204Z" fill="url(#paint0_linear)"/>
<path fill-rule="evenodd" clip-rule="evenodd" d="M186.692 70.1204C209.486 73.9416 227.001 88.2682 242.304 105.701C259.087 124.82 276.329 145.151 274.919 170.628C273.189 201.867 261.552 234.858 234.319 249.928C205.817 265.7 170.813 259.013 141.747 244.321C113.333 229.959 91.672 205.018 84.0068 173.951C76.1522 142.116 78.7427 105.379 101.73 82.1349C122.961 60.668 157.012 65.1449 186.692 70.1204Z" fill="url(#paint1_linear)"/>
<g clip-path="url(#clip0)">
<rect x="155" y="201" width="14" height="89" fill="white"/>
<rect x="184" y="195" width="14" height="89" fill="white"/>
<rect x="91" y="185" width="14" height="61" fill="white"/>
<rect x="121" y="171" width="14" height="89" fill="white"/>
<path d="M113.6 245.138C109.573 244.843 108.727 244.765 105.927 244.427C104.86 244.299 103.272 244.132 102.399 244.057C101.526 243.982 100.415 243.828 99.9297 243.716C91.4653 243.486 82.7528 241.965 75.2353 240.57C71.1526 240.065 69.2313 239.193 68.3624 237.451C67.8767 236.477 67.8779 236.309 68.3741 235.761C69.7269 234.858 73.0561 236.434 74.6321 236.62C75.7556 236.746 76.8557 236.886 77.0766 236.932C77.5407 237.028 77.5578 236.571 77.225 232.958C76.7544 227.849 76.7403 227.444 76.1013 200.679C75.8163 188.74 75.5463 144.625 75.7533 143.801C75.9183 143.143 76.195 143 77.3039 143C79.009 143 79.7146 143.751 80.1446 146.023C80.5454 148.141 80.861 157.357 81.0561 172.633C81.1366 178.939 81.4622 188.623 81.7796 194.153C82.0971 199.683 82.3321 204.524 82.3019 204.912C82.2717 205.301 82.2347 205.777 82.2197 205.971C82.0436 208.245 82.932 228.731 83.3824 232.782C83.9477 237.867 83.9768 237.954 85.0573 237.829C85.573 237.77 85.969 237.562 85.9373 237.368C85.9055 237.174 85.7838 235.031 85.6666 232.606C85.5495 230.18 85.3636 227.196 85.2534 225.974C84.8605 221.615 85.033 207.759 85.5159 204.891C85.8306 203.021 85.9885 198.802 85.9911 192.197C85.9945 183.208 85.936 182.214 85.3508 181.321C84.131 179.459 84.1757 179.451 95.5518 179.396C102.663 178.831 105.29 179.078 109.703 179.508C112.669 179.786 113.304 180.204 113.324 181.894C113.335 182.849 113.007 183.022 111.307 182.959C111.534 188.423 111.663 191.747 111.626 197.812C111.785 198.807 111.903 200.811 111.888 202.267C111.849 206.088 112.193 219.102 112.447 223.433C112.055 227.971 113.325 233.643 113.148 237.555C112.978 241.063 112.77 240.786 115.628 240.86L117.039 240.896L116.946 238.956C116.894 237.888 116.795 222.251 116.726 204.207C116.656 186.162 116.484 170.661 116.344 169.76C115.925 166.491 118.893 166.176 120.71 166.1C125.802 165.802 127.415 165.776 130.823 165.679C138.375 165.456 139.154 165.634 139.025 167.549C138.983 168.176 139.127 168.904 139.346 169.167C140.326 170.348 140.912 176.278 140.944 185.333C140.984 196.826 140.96 200.381 140.83 201.914C140.643 204.132 140.688 209.385 140.946 215.496C141.333 223.111 141.789 231.018 142.093 238.336C142.217 239.936 142.398 241.325 142.496 241.423C142.594 241.521 143.471 241.601 144.445 241.601H146.216L146.014 231.724C145.903 226.291 145.72 220.893 145.607 219.729C145.378 217.384 145.306 213.123 145.291 210.449C145.237 207.594 148.688 208.679 150.112 208.477C151.929 208.211 155.945 207.943 161.067 207.746C165.963 207.253 167.204 206.911 167.406 209.175C167.297 210.762 167.149 210.105 167.375 213.564C167.508 215.597 167.752 218.927 167.917 220.964C168.205 224.516 168.23 229.965 167.995 237.897L167.885 241.601L170.155 241.519C171.404 241.473 172.862 241.423 173.396 241.407C173.929 241.391 174.381 241.19 174.401 240.96C174.466 240.185 174.46 234.576 174.388 229.431C174.324 224.824 173.57 213.172 173.132 210.028C173.037 209.349 172.803 206.729 172.612 204.207C172.42 201.685 172.084 197.954 171.865 195.917C171.385 191.472 171.638 190.483 173.337 190.143C174.141 189.982 174.664 190.08 175.097 190.472C175.549 190.881 176.124 190.976 177.245 190.828C178.087 190.716 181.474 190.54 184.773 190.436C188.071 190.332 192.319 190.178 194.212 190.093C198.213 190.228 199.512 189.203 199.579 192.742C199.579 192.742 199.439 199.819 199.469 201.208C199.492 202.469 199.731 208.069 200 213.651C200.329 220.475 200.373 224.016 200.137 224.458C199.754 225.172 199.983 229.299 200.501 231.018C200.676 231.6 200.905 233.426 201.009 235.075C201.113 236.724 201.253 238.391 201.319 238.779C201.385 239.167 201.46 239.661 201.485 239.876C201.515 240.144 202.731 240.233 205.322 240.158C207.408 240.098 211.921 239.965 215.352 239.863L221.589 239.678L222.496 240.755C223.483 241.928 223.65 243.086 222.961 243.975C222.584 244.461 221.187 244.576 213.348 244.768C202.575 245.031 195.492 245.279 193.768 245.453C193.089 245.522 189.359 245.677 185.478 245.798C181.598 245.919 176.915 246.106 175.071 246.214C154.449 246.554 132.738 246.559 113.6 245.137L113.6 245.138ZM138.46 237.544C138.405 235.313 138.207 231.106 138.021 228.196C137.483 219.814 137.258 209.447 137.194 190.096C137.147 175.996 137.029 171.732 136.647 170.383L136.159 168.663L132.244 168.895C126.094 169.26 120.361 169.721 120.244 169.86C120.185 169.93 120.244 172.448 120.374 175.456C120.504 178.463 120.478 181.4 120.315 181.982C120.153 182.564 120.106 184.152 120.21 185.51C120.556 190 120.35 207.666 119.884 213.556C119.753 215.205 119.614 220.631 119.573 225.613C119.567 232.002 119.907 234.912 120.115 238.964C120.158 239.959 120.323 240.854 120.481 240.952C126.381 241.385 133.075 241.863 138.559 241.601L138.46 237.544ZM164.488 232.987C164.488 228.136 164.335 222.613 164.148 220.713C163.962 218.814 163.709 215.863 163.586 214.157L163.364 211.054L161.545 211.102C160.544 211.129 158.059 211.316 156.021 211.517C153.984 211.719 151.54 211.869 150.59 211.851L148.862 211.818L149.116 215.95C149.255 218.223 149.413 220.479 149.465 220.964C149.518 221.449 149.586 226.24 149.616 231.61C149.667 240.6 149.72 241.383 150.289 241.499C150.628 241.568 153.962 241.666 157.697 241.716L164.488 241.806V232.987V232.987ZM187.595 240.852C189.147 240.724 191.528 240.577 192.887 240.526C194.245 240.475 195.73 240.418 196.187 240.4C197.004 240.367 197.014 240.323 196.803 237.633C196.608 235.144 196.459 232.093 196.058 222.375C195.982 220.532 195.759 216.801 195.561 214.085C195.364 211.368 195.115 206.844 195.007 204.031C194.899 201.217 194.722 198.218 194.614 197.367C194.591 196.259 195.543 193.502 193.609 193.661C187.944 193.92 176.758 194.391 176.707 195.211C176.545 196.044 176.282 196.684 176.332 201.525C176.367 204.998 176.497 208.003 176.621 208.202C176.744 208.402 177.09 211.553 177.39 215.205C177.988 222.5 178.118 231.072 177.719 236.896C177.577 238.965 177.566 240.827 177.695 241.035C177.93 241.416 181.612 241.348 187.595 240.852H187.595ZM108.687 235.639C108.556 233.486 108.263 230.215 108.036 228.372C107.461 223.713 107.09 200.118 107.505 194.682C107.594 193.518 107.48 190.285 107.252 187.498L106.837 182.431L103.295 182.694C101.347 182.839 99.1977 182.929 98.5186 182.894C94.8963 182.708 89.5797 182.842 89.2944 183.128C89.0936 183.328 89.113 183.837 89.3447 184.447C89.8075 185.664 89.9681 197.061 89.5635 199.974C89.4018 201.138 89.2058 203.043 89.1279 204.207C89.05 205.371 88.9291 206.959 88.8592 207.735C88.5606 211.049 88.6417 229.131 88.9662 231.603C89.1613 233.089 89.2396 235.073 89.1403 236.013C89.0411 236.952 89.088 237.906 89.2446 238.133C89.4011 238.36 90.7978 238.641 92.3482 238.758C93.8987 238.874 95.6435 239.045 96.2256 239.138C96.8077 239.231 99.82 239.555 102.92 239.858C109.917 240.645 109.079 241.811 108.687 235.639H108.687Z" fill="#1C2541"/>
</g>
<ellipse cx="248.5" cy="115.5" rx="51.5" ry="52.5" fill="white"/>
<path d="M224.723 156.29C222.311 156.12 215.188 153.919 214.751 153.208C214.63 153.012 214.417 152.851 214.277 152.851C214.136 152.851 213.097 152.419 211.968 151.891C210.838 151.363 209.786 150.931 209.63 150.931C202.007 147.147 194.216 138.908 190.893 132.341C189.77 130.323 188.743 128.599 187.667 126.6C187.061 125.475 186.263 123.579 186.263 123.265C186.263 123.08 185.963 121.977 185.596 120.815C184.109 116.106 183.598 109.707 184.331 104.987C185.329 98.5638 185.506 97.7557 186.316 95.9308C188.853 87.2617 195.212 80.0494 199.636 74.8223C203.223 72.2666 206.685 69.4576 210.093 67.5371C218.18 63.8078 227.339 62.3784 236.557 63.2455C250.329 64.7249 255.429 66.5879 265.426 73.5948C269.641 76.81 273.246 81.1568 275.316 85.6061C278.164 91.6813 279.206 95.0263 279.679 101.737C280.025 105.855 280.102 109.5 279.857 111.021C277.656 124.151 277.992 132.531 264.649 147.273C264.22 147.549 263.654 148.039 263.391 148.364C258.77 153.032 256.767 152.935 251.234 155.338C241.813 157.788 233.229 157.001 224.723 156.29V156.29ZM255.581 149.662C256.008 149.304 256.441 149.009 256.542 149.007C256.644 149.005 257.407 148.39 258.238 147.639C259.069 146.889 259.842 146.274 259.955 146.272C260.068 146.269 260.161 146.157 260.161 146.021C260.161 145.885 259.05 146.317 257.692 146.981C256.334 147.645 255.061 148.188 254.863 148.188C254.664 148.188 254.385 148.286 254.241 148.406C253.757 148.811 252.546 149.389 250.546 149.689C250.168 149.746 249.489 149.863 249.035 149.949C242.88 151.194 237.714 151.256 232.512 151.017C228.408 150.257 223.868 150.176 213.508 145.917C213.062 145.551 212.646 146.087 212.64 147.038C212.637 147.528 212.928 147.802 213.941 148.259C214.658 148.583 215.38 148.822 215.545 148.79C215.709 148.759 216.069 148.981 216.344 149.284C216.738 149.72 218.17 150.325 219.229 150.505C219.304 150.517 219.49 150.602 219.641 150.692C220.563 151.241 228.906 153.074 234.53 153.963C243.275 153.928 251.1 152.308 255.581 149.662V149.662ZM250.684 145.712C251.137 145.528 251.859 145.345 252.288 145.304C252.717 145.264 253.206 145.094 253.373 144.926C253.541 144.759 253.87 144.62 254.104 144.618C260.729 142.08 266.75 136.463 268.266 134.847C271.664 130.936 274.27 123.949 274.825 119.524C274.899 118.921 275.044 117.789 275.147 117.009L275.335 115.591L271.938 115.555C270.069 115.536 267.798 115.474 266.892 115.42C265.985 115.365 263.204 115.235 260.711 115.132C253.387 115.093 244.85 114.061 239.146 113.789C238.239 113.746 237.122 113.62 236.663 113.509C235.93 113.332 235.78 113.401 235.427 114.084C235.206 114.512 234.672 115.232 234.241 115.684C233.51 116.451 231.537 118.911 229.943 121.043C226.179 124.952 223.498 129.397 220.456 133.376C219.934 134.055 219.179 135.104 218.778 135.708C218.377 136.311 217.476 137.484 216.776 138.313C215.237 140.137 214.009 141.78 214.009 142.016C214.009 142.291 217.796 143.922 220.053 144.618C221.186 144.967 222.361 145.36 222.663 145.491C232.327 148.022 241.704 149.287 250.684 145.712V145.712ZM209.889 145.427C209.889 144.703 209.408 143.799 209.023 143.799C208.86 143.799 208.124 143.358 207.388 142.818C206.652 142.279 205.832 141.882 205.566 141.936C205.264 141.998 204.898 141.741 204.595 141.255C204.327 140.826 203.741 140.267 203.292 140.012C202.842 139.757 202.474 139.459 202.473 139.351C202.473 139.243 202.07 138.748 201.579 138.252C199.989 136.644 197.252 133.472 197.252 133.237C197.252 133.111 197.069 132.806 196.846 132.56C196.622 132.313 195.805 131.069 195.031 129.795C192.518 125.663 191.762 124.32 191.759 123.979C191.759 123.864 191.525 123.247 191.241 122.607C189.797 119.358 188.992 115.519 188.553 109.787C188.366 107.343 188.369 107.244 188.749 103.204C189.137 99.081 189.233 98.3139 189.444 97.6521C189.56 97.2856 189.517 97.1635 189.315 97.2882C189.147 97.3914 189.011 97.7525 189.011 98.0906C189.011 98.4287 188.871 98.8448 188.7 99.0154C188.529 99.1859 188.341 100.167 188.282 101.196C188.222 102.225 188.053 103.684 187.905 104.438C187.514 106.429 187.777 111.886 188.447 115.684C189.035 119.021 190.272 123.289 190.7 123.456C190.828 123.506 190.934 123.725 190.934 123.941C190.934 124.359 193.592 129.574 193.925 129.809C194.033 129.885 194.323 130.379 194.569 130.907C195.006 131.844 199.871 138.032 201.695 139.97C202.198 140.505 203.721 141.808 205.081 142.867C209.475 146.288 209.889 146.508 209.889 145.427V145.427ZM212.07 139.752C212.439 139.187 213.066 138.355 213.464 137.902C214.483 136.743 217.855 132.039 217.855 131.777C220.393 128.707 222.573 125.836 225.346 122.294C226.067 121.374 227.048 120.066 227.526 119.387C228.004 118.708 228.471 118.091 228.563 118.016C228.655 117.94 229.65 116.78 230.775 115.437L232.819 112.995L232.856 111.15C232.875 110.135 232.795 108.641 232.676 107.831C232.084 103.781 231.866 80.0717 232.395 77.2461C232.595 76.1748 232.569 68.7991 232.36 67.4082C229.123 66.044 219.256 67.8116 215.383 70.2883C213.494 71.2388 211.77 72.4294 210.026 73.4342C206.981 75.1812 202.093 79.9536 201.216 82.0357C201.03 82.4781 200.739 82.9256 200.569 83.0301C200.289 83.2034 199.696 84.2374 197.828 87.8133C194.469 94.2411 192.866 100.449 192.754 107.455C192.695 111.096 192.941 113.257 193.941 117.878C194.347 119.76 195.501 122.786 196.503 124.599C196.962 125.428 197.642 126.663 198.016 127.342C198.389 128.021 198.911 128.823 199.175 129.125C199.439 129.426 199.814 129.982 200.007 130.359C201.303 132.89 207.67 139.381 208.894 139.42C209.064 139.426 209.573 139.734 210.026 140.105C210.479 140.476 210.974 140.779 211.125 140.779C211.276 140.779 211.701 140.316 212.07 139.752H212.07ZM275.943 110.754C276.037 109.543 276.18 107.983 276.262 107.287C276.39 106.197 276.337 106.002 275.879 105.883C275.587 105.806 275.116 105.874 274.831 106.033C274.547 106.192 274.066 106.36 273.762 106.408C272.272 106.639 269.175 107.025 267.578 107.178C266.596 107.272 265.607 107.421 265.381 107.508C265.154 107.595 264.49 107.704 263.906 107.75C263.321 107.795 262.641 107.919 262.395 108.023C261.911 108.229 261.329 108.321 259.2 108.53C258.444 108.604 257.146 108.797 256.315 108.96C255.484 109.122 253.955 109.376 252.918 109.524C251.88 109.673 250.892 109.881 250.72 109.988C250.27 110.27 249.833 110.34 247.426 110.515C244.914 110.699 243.891 110.932 243.751 111.353C243.681 111.562 243.948 111.588 244.612 111.439C245.141 111.32 245.62 111.268 245.675 111.324C245.843 111.49 248.073 111.742 250.271 111.843C251.405 111.894 253.012 112.006 253.843 112.091C255.192 112.228 257.364 112.345 264.652 112.67C265.837 112.723 266.848 112.806 266.897 112.855C266.946 112.904 268.963 112.947 271.38 112.95L275.773 112.955L275.943 110.754V110.754ZM242.099 108.578C242.363 108.575 242.58 108.506 242.58 108.425C242.58 108.344 242.919 108.267 243.335 108.253C243.75 108.239 244.585 108.133 245.189 108.017C246.623 107.743 247.318 107.646 249.31 107.443C250.217 107.351 251.205 107.172 251.508 107.046C251.81 106.921 253.355 106.678 254.942 106.506C256.528 106.335 258.197 106.09 258.65 105.963C259.563 105.707 265.4 104.762 268.815 104.318C271.718 103.941 272.342 103.845 274.396 103.462L276.131 103.139L276.028 100.634C275.927 98.1752 275.625 96.1374 274.676 93.7199C274.056 91.6374 272.993 89.7964 271.521 87.7256C271.292 87.0072 270.456 87.4301 268.968 88.5586C268.228 89.1194 267.455 89.7057 267.249 89.8615C267.044 90.0173 266.509 90.4842 266.061 90.8991C265.613 91.3139 265.062 91.6534 264.837 91.6534C259.257 95.5514 255.322 98.6113 247.57 103.821C247.52 103.934 247.365 104.027 247.225 104.027C246.921 104.027 243.545 106.325 242.58 107.189C242.202 107.527 241.491 108.006 241 108.254C239.909 108.804 239.846 109.042 240.863 108.779C241.278 108.671 241.834 108.581 242.099 108.578V108.578ZM239.558 105.637C241.295 104.485 242.964 103.343 243.266 103.099C250.863 97.8913 257.723 93.5822 265.014 88.1826C266.449 87.1206 267.856 85.9888 268.141 85.6675C268.425 85.3462 268.766 85.1499 268.898 85.2313C269.03 85.3128 269.207 85.2008 269.291 84.9826C269.527 84.367 267.585 81.5697 265.442 79.4396C263.356 77.3658 260.593 75.2848 258.492 74.2049C254.297 72.1793 250.426 69.734 246.7 69.1647C245.567 68.9938 244.516 68.7581 244.365 68.6409C244.002 68.3594 241.51 67.8907 239.283 67.6851C238.301 67.5944 236.899 67.4544 236.167 67.374C234.945 67.2396 235.071 67.3485 235.226 67.8372C236.869 76.0468 235.607 83.7809 235.604 90.0376C235.602 99.5305 235.901 107.964 236.233 107.807C236.324 107.765 237.82 106.788 239.558 105.637V105.637Z" fill="#1C2541"/>
<defs>
<filter id="filter0_d" x="0" y="0" width="356" height="327" filterUnits="userSpaceOnUse" color-interpolation-filters="sRGB">
<feFlood flood-opacity="0" result="BackgroundImageFix"/>
<feColorMatrix in="SourceAlpha" type="matrix" values="0 0 0 0 0 0 0 0 0 0 0 0 0 0 0 0 0 0 127 0"/>
<feOffset dy="4"/>
<feGaussianBlur stdDeviation="14"/>
<feColorMatrix type="matrix" values="0 0 0 0 0 0 0 0 0 0 0 0 0 0 0 0 0 0 0.06 0"/>
<feBlend mode="normal" in2="BackgroundImageFix" result="effect1_dropShadow"/>
<feBlend mode="normal" in="SourceGraphic" in2="effect1_dropShadow" result="shape"/>
</filter>
<linearGradient id="paint0_linear" x1="173.023" y1="82.101" x2="266.978" y2="244.459" gradientUnits="userSpaceOnUse">
<stop stop-color="#7BDFF2"/>
<stop offset="1" stop-color="#378CFF"/>
</linearGradient>
<linearGradient id="paint1_linear" x1="173.023" y1="85.101" x2="266.978" y2="247.459" gradientUnits="userSpaceOnUse">
<stop stop-color="#7BDFF2"/>
<stop offset="1" stop-color="#378CFF"/>
</linearGradient>
<clipPath id="clip0">
<rect width="155.379" height="103.402" fill="white" transform="translate(68 143)"/>
</clipPath>
</defs>
</svg>
