<svg width="356" height="326" viewBox="0 0 356 326" fill="none" xmlns="http://www.w3.org/2000/svg">
<g filter="url(#filter0_d)">
<rect x="28" y="24" width="300" height="270" fill="white"/>
</g>
<path fill-rule="evenodd" clip-rule="evenodd" d="M177.19 74.6257C207.249 75.4054 242.199 64.6168 262.003 87.1531C282.262 110.207 272.339 144.731 264.924 174.465C257.756 203.206 249.646 236.272 222.059 247.321C195.48 257.965 170.428 234.218 144.162 222.829C115.499 210.401 78.0415 208.571 66.2194 179.747C53.0037 147.525 61.3274 106.592 86.6498 82.6046C109.748 60.7243 145.324 73.7991 177.19 74.6257Z" fill="url(#paint0_linear)"/>
<ellipse cx="100" cy="161.5" rx="53" ry="58.5" fill="white"/>
<ellipse cx="246" cy="104.5" rx="44" ry="33.5" fill="white"/>
<ellipse cx="235" cy="227.5" rx="44" ry="55.5" fill="white"/>
<g clip-path="url(#clip0)">
<path d="M70.5952 193.909C57.8472 183.42 54.2019 176.111 52.6081 161.025C50.9805 148.155 54.7939 137.562 59.3743 127.565C63.4388 117.444 72.5462 110.592 80.4019 105.4C99.5031 94.0098 137.516 92.3321 150.27 112.214C152.87 116.267 155.014 116.552 159.654 126.854C159.654 127.985 159.972 128.089 161.486 127.455C163.634 127.06 166.861 127.004 168 128.069C171.359 131.401 166.873 133.3 165.712 133.923C164.814 134.404 162.789 135.455 162.703 135.596C162.616 135.737 162.748 136.746 162.997 137.838C163.645 141.472 163.805 154.174 161.904 163C157.396 183.931 143.865 204.164 119.812 206.123C101.257 208.781 85.2103 205.588 70.5952 193.909ZM150.27 184C157.459 175.295 157.859 158.656 155.459 143.862C154.894 142.511 155.518 140.489 154.673 139.272C154.314 138.778 154.184 138.792 151.949 139.567C148.491 140.7 145.303 140.159 143.686 136.554C143.095 135.182 143.212 134.76 144.43 133.855C145.121 133.341 149.12 131.796 150.993 131.317C152.833 130.848 152.897 130.549 151.734 127.831C150.292 124.461 151.949 119.857 142 110.5C129.979 96.5 96.4872 100.766 79.8986 112.214C65.2295 123.044 57.0181 139.118 57.7256 164C58.6678 197.137 123.716 216.153 150.27 184ZM86.7305 181.469C78.3736 179.481 75.107 176.532 71.9462 170.035C71.5525 169.269 71.0125 166.564 70.8573 164.582C71.1883 159.947 76.1557 162.517 77.2977 165.037C80.1825 169.156 80.8873 175.354 86.0114 176.069C89.1603 176.493 93.6425 177.328 93.9942 177.556C97.6263 182.214 89.7898 181.987 86.7305 181.469ZM86.375 158.069C84.9432 154.894 82.5607 152.424 79.8986 150.098C72.529 146.102 65.579 135.638 75.8533 131.891C79.6977 130.133 80.883 132.426 83.3853 132.45C83.6431 132.44 84.6953 131.478 85.7238 130.312C88.8334 126.788 91.9128 125.982 95.9896 127.763C99.1301 129.377 102.058 131.708 101.388 138.458C99.9087 144.928 97.321 150.03 93.5322 155.176C92.3948 156.855 88.1316 159.877 86.375 158.069ZM88.4815 152.288C90.2526 149.343 93.8147 142.205 94.5864 141.059C96.9478 137.55 96.6958 133.198 93.7277 132.73C92.5245 132.084 88.1594 134.333 88.1594 136.358C88.0936 139.017 86.3661 138.796 85.0356 138.681C82.1614 138.636 80.7767 135.882 78.8556 137.363C76.3193 139.596 81.2248 144.402 82.5314 145.585C86.1316 148.797 85.7394 149.976 88.4815 152.288ZM124.547 143.069C122.058 137.639 116.828 131.366 116.792 125.819C116.792 123.002 118.264 120.561 120.388 119.857C122.057 119.507 124.333 119.471 125.436 120.511C126.434 121.47 127.262 121.337 128.809 119.967C132.235 117.284 134.761 116.787 137.484 118.655C144.119 124.165 143.242 128.277 139.344 134.429C136.716 138.301 127.451 149.535 124.547 143.069ZM135.776 125.645C133.504 120.429 132.152 129.803 129.979 130.271C127.618 130.744 125.6 130.082 124.997 128.634C124.218 125.96 122.529 124.64 122.991 126.916C123.703 129.103 126.888 136.915 127.75 137.084C131.474 134.885 135.659 130.335 135.776 125.645Z" fill="#1C2541"/>
</g>
<path d="M206.299 252.94C197.148 247.595 193.245 238.182 191.495 230.756C190.483 226.458 190.973 223.489 190.273 219.036C189.79 221.89 190.18 223.045 188.99 226.369C187.03 230.444 181.297 237.241 177.276 233.204C173.488 229.554 174.91 227.681 178.031 224.703C180.834 222.051 184.228 219.093 185.149 218.502C186.272 217.677 188.622 215.87 189.646 217.414C189.955 217.91 190.536 217.943 190.662 217.471C191.315 209.073 194.391 202.003 198.423 195.306C204.369 187.961 213.532 178.971 226.604 180.096C240.701 180.855 255.149 194.543 257.701 199.467C259.797 202.854 262.161 207.221 262.213 211.302C262.215 211.971 262.674 212.238 263.824 212.239C264.303 212.239 265.48 212.278 266.441 212.324C270.713 213.081 269.232 216.392 266.578 216.528C265.129 216.578 263.724 216.823 262.314 217.123L262.08 218.07C261.923 221.275 261.081 224.848 261.024 227.819C259.046 243.731 247.801 261.366 225.272 259.916C218.62 259.488 212.253 256.418 206.299 252.94V252.94ZM248.476 243.373C249.428 242.263 249.574 241.745 248.873 241.96C248.627 242.035 247.891 242.228 247.236 242.389C241.873 244.618 236.189 240.735 231.861 241.529C224.741 242.837 221.508 248.287 216.844 252.292C216.386 252.691 216.326 252.841 216.507 253.135C216.627 253.333 217.029 253.572 217.399 253.668C217.77 253.763 218.812 254.058 219.715 254.323C229.703 255.555 242.364 250.377 248.476 243.373V243.373ZM214.043 247.484C219.312 242.296 225.164 236.454 231.716 236.769C236.696 236.852 246.896 240.786 250.231 234.676C250.714 233.74 250.854 232.136 250.549 231.036C250.397 230.49 250.184 229.685 250.076 229.247C239.148 217.868 204.004 229.804 211.607 247.797C212.181 248.923 212.59 248.871 214.043 247.484H214.043ZM207.459 248.054C207.459 247.958 207.246 247.31 206.986 246.613C204.59 239.428 208.666 233.806 212.575 228.795C223.279 217.832 249.833 216.536 253.807 227.892C254.217 228.431 254.474 229.023 254.718 229.645C255.679 224.982 256.179 223.705 256.429 217.521C256.37 217.462 255.662 217.513 254.854 217.633C252.732 217.856 249.523 217.103 249.518 214.837C249.518 213.411 249.007 213.623 254.938 212.587C256.636 212.29 256.767 212.094 256.456 210.307C255.748 204.61 252.493 199.416 249.368 196.383C244.299 190.964 236.611 186.596 229.689 185.081C220.115 183.891 209.988 188.974 204.033 197.544C197.23 208.222 194.731 214.328 196.548 230.367C197.765 236.454 200.535 243.025 207.459 248.054V248.054ZM198.421 225.909C196.927 221.523 200.664 219.248 202.155 216.113C203.828 213.114 205.567 210.711 208.063 212.395C210.055 213.905 209.354 220.02 209.254 222.092C209.078 225.964 208.631 227.224 207.062 228.272C203.822 230.852 199.7 229.42 198.421 225.909V225.909ZM203.873 225.679C204.941 225.004 205.354 223.642 205.578 220.054C205.692 218.232 205.669 218.003 205.361 217.884C204.063 218.949 201.612 220.862 201.04 222.483C200.529 224.107 200.606 224.755 201.417 225.64C202.21 226.504 202.56 226.51 203.873 225.679V225.679ZM208.897 209.818C207.001 206.605 208.723 205.317 211.113 203.876C214.424 202.165 219.015 202.636 221.148 206.309C221.811 208.421 219.985 208.524 218.371 207.849C217.88 207.613 217.323 207.345 217.133 207.253C216.146 206.773 213.696 207.452 212.716 208.477C211.924 209.159 210.236 211.636 208.897 209.818V209.818ZM240.312 202.586C241.742 201.963 241.99 201.918 243.946 201.926C245.34 201.932 246.312 202.037 246.839 202.24C250.468 203.219 250.851 207.223 246.939 205.404C245.649 205.4 244.586 203.775 241.978 206.092C238.217 209.434 236.155 204.452 240.312 202.586V202.586ZM183.284 227.436C184.39 225.742 185.608 223.555 185.624 223.235C185.088 222.547 184.17 223.588 183.91 223.898C182.2 226.094 178.43 228.294 178.963 230.241C179.772 231.352 183.122 227.678 183.284 227.436ZM183.139 249.23C179.407 247.953 179.44 244.837 181.061 241.742C182.931 238.281 183.302 237.723 184.635 236.373C186.418 234.259 187.437 234.881 188.816 237.323C190.08 239.755 189.399 246.074 187.68 247.874C186.422 249.191 185.222 249.55 183.139 249.23ZM185.228 243.428C185.348 242.867 185.405 242.366 185.354 242.315C185.208 242.169 184.644 243.658 184.644 244.191C184.644 244.982 184.992 244.527 185.228 243.428ZM284.236 218.485C279.31 217.569 276.525 213.348 275.24 210.395C274.718 207.232 279.001 208.207 280.944 208.854C282.496 209.393 285.118 209.92 286.344 210.832C286.657 211.074 287.306 211.559 287.786 211.911C290.763 213.909 290.932 217.515 287.1 218.229C285.32 218.537 284.779 218.585 284.236 218.485V218.485ZM284.659 214.209C286.678 213.601 282.993 212.432 282.697 212.323C280.757 211.611 279.474 211.301 279.474 211.545C279.474 212.009 280.175 212.851 281.015 213.396C282.691 214.484 283.294 214.619 284.659 214.209ZM267.911 202.018C264.977 201.112 262.206 198.986 261.415 197.032C261.182 196.458 261.022 195.792 261.058 195.552C261.64 193.828 265.047 195.319 267.75 195.574C271.215 195.896 274.771 197.458 277.483 199.289C278.849 200.214 279.278 200.634 279.785 201.539C282.599 208.504 270.256 202.747 267.911 202.018V202.018Z" fill="#1C2541"/>
<path d="M232.278 142.162C231.249 141.025 230.036 138.754 229.567 137.089C229.432 136.612 229.218 136.12 229.09 135.996C222.153 134.492 218.447 133.685 212.351 126.94C199.763 116.329 198.545 99.9847 204.305 85.9231C204.542 85.3703 204.736 84.764 204.736 84.5757C206.669 79.6599 211.072 74.3246 214.048 71.0739C216.848 68.0154 219.959 65.1932 223.413 63.5393C240.104 52.8052 268.248 60.0921 276.494 75.614C278.493 79.3761 280.222 82.8061 280.328 87.8731C280.334 88.5863 280.409 89.2963 280.495 89.4508C280.703 89.8203 281.789 89.7757 284.746 89.2765C289.861 86.8451 291.998 90.5643 288.484 92.5332C286.796 94.2852 283.776 93.8487 281.209 94.4797C279.871 103.204 277.277 110.752 272.777 117.392C267.162 124.853 257.044 132.884 248.462 132.587C246.417 132.4 245.817 132.64 245.661 133.707C245.379 135.628 245.145 136.58 244.508 138.397C241.955 145.348 236.585 146.904 232.278 142.162ZM237.651 138.61C238.438 137.625 238.735 136.726 239.095 135.489L238.615 135.113C238.351 134.906 237.718 134.259 237.207 133.676C236.363 132.713 236.22 132.41 235.646 130.379C235.053 128.278 235.017 127.987 235.047 125.602C235.083 122.67 235.073 122.657 233.423 123.45C232.422 123.932 232.368 124.016 232.807 124.394C233.034 124.59 233.114 125.049 233.143 126.334C232.421 129.623 234.948 142.466 237.651 138.61ZM228.647 126.262C228.647 125.756 228.139 125.76 227.24 126.273C226.742 126.557 225.851 126.953 225.259 127.152C221.069 127.32 221.659 124.968 224.553 122.935C236.464 115.915 250.381 114.564 263.788 114.691C266.753 114.737 269.802 115.084 269.802 114.691C273.29 108.603 274.257 102.622 274.446 95.9038V95.2103L273.45 95.2104C272.052 95.0678 269.869 93.8852 269.802 92.0139C270.307 89.7311 271.536 90.914 272.975 90.4818C273.43 90.3399 275.041 90.2377 275.221 90.2485C276.659 87.4509 275.298 78.0086 271.5 73.9479C253.939 56.5191 222.606 61.3985 211.423 80.976C208.315 85.9994 205.662 91.1161 204.736 97.2512C204.079 102.057 207.164 107.34 209.076 111.851C209.42 112.665 209.702 113.395 209.702 113.475C209.702 113.656 210.951 115.779 211.423 116.4C211.618 116.656 211.869 117.042 211.981 117.258C213.659 120.474 218.346 125.333 221.198 126.811C222.624 127.533 226.857 130.358 228.18 130.359C228.308 129.193 228.615 126.976 228.647 126.262ZM219.007 97.2512C220.22 95.7241 223.127 91.8963 222.012 91.6589C221.149 91.4774 220.615 90.5401 219.76 90.3083C217.532 89.7047 218.143 86.8538 219.87 86.9095C221.938 86.9761 223.657 88.6993 225.377 88.8981C227.742 87.4166 230.799 79.8085 232.912 80.976C233.829 81.3943 235.745 82.4012 234.706 83.8607C233.41 85.5237 232.546 87.1791 231.231 88.9996C230.926 89.4175 230.577 89.9608 230.454 90.207C230.167 90.7837 230.322 90.8999 232.132 91.4674C234.812 92.3079 236.558 93.1613 237.265 93.9765C238.302 95.3187 237.191 97.0794 235.752 96.4144C233.401 95.7738 230.338 94.1914 228.098 94.4686C226.927 94.9154 224.419 97.4925 223.618 99.2621C223.238 100.13 222.339 100.774 221.227 100.976C219.435 101.341 217.816 98.4632 219.007 97.2512ZM250.204 91.3635C250.781 90.488 252.106 88.7657 252.428 88.3287C251.388 87.7733 249.655 86.4103 248.183 85.6751C244.968 84.069 245.522 81.2513 248.172 81.5309C250.192 82.0007 252.378 83.2645 254.335 84.3513C254.837 84.6326 255.05 84.4995 255.506 83.6184C256.809 81.3761 259.002 78.481 260.992 77.3879C264.539 76.1345 264.745 79.3918 263.22 81.7172C262.598 82.8767 260.159 85.1042 260.1 86.1628C261.677 87.2019 262.817 87.3059 263.955 88.5241C266.888 89.9669 263.918 92.1556 261.714 91.2448C260.841 90.8747 259.001 90.2101 258.089 90.1397C256.949 90.3113 254.409 93.4706 254.112 95.2239C253.938 96.3575 253.914 96.3906 252.941 96.8582C248.078 98.3627 249.021 93.1587 250.204 91.3635ZM248.952 127.703C254.494 126.568 258.17 123.524 262.073 120.153C263.327 119.072 266.197 120.075 266 119.848C262.005 120.003 254.982 119.257 249.311 119.848C247.969 120.002 247.469 120.162 247.223 121.052C246.983 121.917 246.505 125.015 246.274 127.198C246.171 128.172 246.588 128.25 248.952 127.703ZM241.339 122.455C241.339 121.666 241.2 121.517 240.824 121.9C240.584 122.143 240.656 124.913 240.872 125.162C241.11 125.437 241.339 123.232 241.339 122.455Z" fill="#1C2541"/>
<defs>
<filter id="filter0_d" x="0" y="0" width="356" height="326" filterUnits="userSpaceOnUse" color-interpolation-filters="sRGB">
<feFlood flood-opacity="0" result="BackgroundImageFix"/>
<feColorMatrix in="SourceAlpha" type="matrix" values="0 0 0 0 0 0 0 0 0 0 0 0 0 0 0 0 0 0 127 0"/>
<feOffset dy="4"/>
<feGaussianBlur stdDeviation="14"/>
<feColorMatrix type="matrix" values="0 0 0 0 0 0 0 0 0 0 0 0 0 0 0 0 0 0 0.06 0"/>
<feBlend mode="normal" in2="BackgroundImageFix" result="effect1_dropShadow"/>
<feBlend mode="normal" in="SourceGraphic" in2="effect1_dropShadow" result="shape"/>
</filter>
<linearGradient id="paint0_linear" x1="167" y1="70" x2="167" y2="250" gradientUnits="userSpaceOnUse">
<stop stop-color="#FFD6BA"/>
<stop offset="1" stop-color="#F7D6E0"/>
</linearGradient>
<clipPath id="clip0">
<rect width="117" height="110" fill="white" transform="translate(50 97)"/>
</clipPath>
</defs>
</svg>
