<svg width="139" height="137" viewBox="0 0 139 137" fill="none" xmlns="http://www.w3.org/2000/svg">
<path fill-rule="evenodd" clip-rule="evenodd" d="M55.9471 3.91177C66.9608 5.54915 76.2829 10.7804 86.64 14.8745C101.552 20.769 120.625 20.0137 129.87 33.1331C139.674 47.0448 142.004 67.4875 134.476 82.7557C127.108 97.7002 106.606 98.6969 92.8916 108.135C79.7307 117.193 71.9082 136.355 55.9471 136.8C39.9885 137.245 27.9072 122.346 17.4773 110.238C8.85695 100.23 5.26607 87.5279 2.39229 74.6267C-0.21409 62.926 -0.852454 51.2534 1.73077 39.5476C4.56174 26.719 6.87009 11.853 17.8355 4.64552C28.7256 -2.51243 43.0632 1.99637 55.9471 3.91177Z" fill="url(#paint0_linear)"/>
<defs>
<linearGradient id="paint0_linear" x1="66.3196" y1="14.2084" x2="132.232" y2="129.239" gradientUnits="userSpaceOnUse">
<stop stop-color="#7BDFF2"/>
<stop offset="1" stop-color="#378CFF"/>
</linearGradient>
</defs>
</svg>
