<svg width="356" height="326" viewBox="0 0 356 326" fill="none" xmlns="http://www.w3.org/2000/svg">
<g filter="url(#filter0_d)">
<rect x="28" y="24" width="300" height="270" fill="white"/>
</g>
<path fill-rule="evenodd" clip-rule="evenodd" d="M156.994 66.2301C186.313 63.1535 208.156 91.5229 224.761 115.796C239.557 137.423 247.035 163.282 240.781 188.703C234.648 213.635 216.465 233.545 193.122 244.402C170.145 255.087 143.084 256.586 120.821 244.494C99.6951 233.02 88.675 209.678 85.4459 185.92C82.5749 164.797 94.0891 146.672 105.036 128.359C119.602 103.992 128.687 69.2004 156.994 66.2301Z" fill="url(#paint0_linear)"/>
<path d="M324.5 205.5C324.528 217.651 304.231 221.102 250.114 221.226C195.997 221.351 152.104 211.601 152.076 199.451C152.048 187.3 195.896 177.349 250.013 177.225C304.13 177.101 324.472 193.349 324.5 205.5Z" fill="white"/>
<path d="M154.698 122.459C151.274 137.256 118.837 142.386 82.2486 133.917C45.6605 125.449 31.575 110.297 34.9998 95.5C38.4245 80.7033 58.0627 71.8651 94.6508 80.3336C131.239 88.8022 158.123 107.662 154.698 122.459Z" fill="white"/>
<ellipse cx="183" cy="111" rx="5" ry="9" fill="white"/>
<g clip-path="url(#clip0)">
<path d="M225.47 238.877C196.931 239.714 164.676 236.086 136.831 233.783C119.305 232.279 118.8 225.54 120.815 218.182C121.652 215.124 132.639 208.192 134.605 210.229C135.091 210.732 135.773 212.422 131.151 214.121C124.038 216.738 121.213 222.77 124.916 225.627C129.28 228.993 135.488 230.326 170.094 232.862C229.899 237.244 294.266 233.999 305.896 226.014C314.265 220.269 311.523 214.371 299.603 212.485C289.818 210.935 289.613 208.581 299.367 209.77C308.458 210.878 311.977 212.673 313.318 216.888C316.114 225.679 310.561 231.069 292.034 235.211C259.346 238.408 251.117 238.301 225.47 238.877V238.877ZM263.961 225.507C263.456 224.401 260.909 222.665 258.334 221.711C253.167 219.796 253.087 217.097 257.111 216.909C260.057 216.772 268.252 222.673 268.404 225.042C268.55 227.32 265.033 227.859 263.961 225.507ZM198.632 225.813C191.482 230.8 185.354 229.056 178.107 225.888C175.422 224.702 173.183 223.078 173.132 222.279C173.08 221.48 170.759 220.974 167.973 221.155C159.894 221.68 146.877 219.24 144.025 216.448C141.581 214.056 141.757 213.404 144.025 210.53C145.362 208.832 150.311 203.409 156.635 198.536C162.49 194.024 168.312 191.463 177.21 190.059C183.427 186.405 191.275 185.943 192.301 184.56C196.477 178.928 207.003 176.986 211.368 177.839C213.158 178.188 216.451 181.645 218.295 184.261C221.685 189.067 225.228 187.772 228.617 183.885C232.273 179.692 243.378 185.015 244.953 190.943C246.574 197.042 248.068 196.217 257.052 194.391C265.976 192.578 272.629 194.785 273.712 197.468C274.105 198.444 272.68 200.046 270.545 201.027C267.323 202.507 266.996 203.167 268.625 204.905C271.296 207.753 275.143 207.272 281.487 203.296C286.729 200.009 294.918 198.35 295.084 200.54C295.131 201.155 293.266 203.466 290.939 205.677C287.119 209.306 286.873 210.155 288.405 214.433C289.337 217.038 289.557 219.559 288.892 220.035C286.096 222.039 266.601 220.049 266.454 217.737C266.296 215.272 271.286 214.483 274.7 216.433C278.755 218.749 284.355 218.846 284.211 216.598C284.036 213.865 277.861 209.522 274.464 209.743C272.621 209.863 268.43 208.728 265.15 207.221C260.339 205.011 258.525 204.84 255.759 206.334C250.144 209.366 248.057 208.853 247.751 204.365C245.434 199.047 242.96 197.654 240.435 197.262C231.626 197.182 217.921 202.344 217.813 200.641C217.785 200.202 218.731 198.119 219.916 196.011C222.021 192.268 221.98 192.186 218.104 192.438C215.922 192.58 212.932 192.143 211.459 191.467C207.896 189.833 199.211 192.17 194.214 196.422C188.428 201.344 186.476 200.604 187.071 194.407C187.612 188.766 186.638 189.203 181.083 191.755C178.934 192.742 177.001 195.393 176.209 198.437C174.607 204.598 168.777 213.275 167.181 211.873C166.542 211.312 167.618 208.173 169.573 204.898C174.214 197.125 174.036 194.963 168.89 196.566C160.258 199.255 147.756 210.18 149.183 213.787C150.086 216.067 161.241 217.83 169.684 217.439C174.52 217.215 177.165 216.625 180.281 213.616C185.293 208.777 191.597 208.057 195.5 211.878C198.885 215.192 206.562 215.168 207.591 211.842C208.48 208.965 211.539 208.727 216.768 211.128C219.003 212.154 222.02 213.284 223.473 213.64C227.65 214.664 226.9 217.793 222.665 217.01C216.117 215.798 216.716 221.087 223.31 222.7C225.372 223.205 226.666 222.906 226.604 221.939C226.548 221.064 227.543 220.28 228.815 220.197C230.364 220.097 230.904 218.949 230.45 216.721C229.837 213.713 230.408 213.341 236.422 212.82C240.079 212.504 244.204 211.658 245.588 210.941C249.19 209.075 252.622 210.567 252.848 214.096C253.074 217.628 250.85 218.287 249.404 215.115C247.897 211.81 245.315 212.694 245.949 216.298C246.255 218.041 245.692 219.818 244.698 220.248C243.704 220.678 242.823 219.967 242.739 218.668C242.496 214.869 234.962 216.768 232.824 221.594C230.32 227.245 222.128 228.488 217.892 224.124C216.733 228.285 205.716 231.901 198.635 225.812L198.632 225.813ZM213.159 224.382C214.212 223.61 214.755 221.732 214.365 220.208C213.829 218.108 212.133 217.426 207.352 217.388C201.802 217.342 201.071 217.71 201.246 220.453C201.526 224.824 209.137 227.334 213.159 224.382V224.382ZM196.55 221.715C199.094 218.867 192.854 212.051 187.991 212.367C184.055 212.622 178.784 217.719 178.997 221.063C179.304 225.858 192.416 226.345 196.55 221.715ZM215.306 214.051C213.842 212.753 212.18 212.224 211.613 212.875C211.045 213.525 211.598 214.618 212.847 215.303C216.596 217.365 218.153 216.573 215.306 214.051V214.051ZM255.784 201.971C255.229 201.183 254.148 200.58 253.382 200.63C252.616 200.679 252.032 201.391 252.085 202.212C252.138 203.032 253.218 203.635 254.487 203.553C255.756 203.471 256.34 202.759 255.784 201.971V201.971ZM265.951 198.315C265.396 197.528 263.649 196.967 262.069 197.07C260.49 197.173 259.24 197.928 259.293 198.748C259.346 199.568 261.092 200.129 263.175 199.993C265.322 199.854 266.524 199.127 265.951 198.315ZM242.567 192.781C243.623 191.662 236.219 186.768 233.716 186.931C229.946 186.016 227.619 190.168 224.365 195.428C223.301 197.704 226.605 195.742 233.038 194.805C237.896 194.097 242.184 193.186 242.567 192.781ZM206.393 188.123C215.611 185.875 215.663 185.833 212.457 183.267C208.514 180.112 201.049 181.565 195.515 186.566C191.348 190.331 190.743 193.623 194.576 191.672C195.962 190.967 201.279 189.37 206.393 188.123V188.123ZM235.298 226.266C233.471 224.648 233.933 221.715 236.178 220.675C239.069 219.336 242.862 220.637 243.015 223.019C243.195 225.842 237.517 228.232 235.298 226.266ZM246.927 225.115C245.168 222.621 249.136 221.507 251.696 223.775C254.045 225.856 253.995 226.05 251.056 226.241C249.302 226.355 247.444 225.848 246.927 225.115ZM158.158 207.011C157.657 206.3 158.185 204.824 159.332 203.732C161.028 202.117 161.445 202.181 161.566 204.077C161.745 206.862 159.448 208.839 158.158 207.011V207.011ZM214.026 158.627C213.583 154.746 212.898 149.249 212.502 146.413C211.928 142.296 212.362 141.1 214.658 140.484C217.139 139.818 217.285 140.055 215.727 142.217C214.271 144.237 214.354 146.133 216.157 152.01C218.258 158.862 218.105 165.486 215.841 165.623C215.285 165.657 214.469 162.508 214.026 158.627V158.627ZM203.556 163.644C203.503 162.804 204.098 161.658 204.879 161.098C207.322 159.348 206.081 154.249 201.475 147.108C197.187 140.462 197.115 140.095 199.323 136.169C200.58 133.935 202.335 132.059 203.223 132.002C204.168 131.94 203.916 133.539 202.615 135.851C200.491 139.629 200.59 140.156 204.828 147.627C208.338 153.815 209.038 156.316 208.179 159.605C207.111 163.694 203.747 166.633 203.556 163.644V163.644Z" fill="#1C2541"/>
</g>
<path d="M162.573 148.454C158.825 146.145 163.25 143.021 167.555 144.935C170.996 146.466 171 146.498 167.907 148.148C166.009 149.161 163.915 149.281 162.573 148.454ZM108.858 141.699C106.745 140.555 99.6365 137.869 93.0611 135.73C86.4858 133.591 76.8986 129.041 71.7564 125.619C66.6141 122.196 62.1458 119.396 61.8268 119.396C60.2661 119.396 52 109.478 52 107.605C52 103.487 56.6942 96.4567 60.8877 94.2954C63.8588 92.7641 73.2553 91.8684 92.5376 91.2785C132.798 90.0471 141.326 92.5391 143.147 106.067C143.94 111.964 146.525 115.479 152.713 119.074C153.743 119.672 155.07 122.4 155.662 125.136C156.573 129.344 156.059 130.789 152.328 134.508C144.261 142.548 118.343 146.835 108.858 141.699V141.699ZM136.505 137.798C137.266 136.571 138.331 136.008 138.871 136.546C140.132 137.804 149.228 134.731 150.71 132.547C153.626 128.25 151.848 122.685 146.508 119.396C142.826 117.128 141.129 114.946 141.129 112.478C141.129 107.831 138.376 100.628 136.051 99.1966C133.315 97.5114 126.863 99.429 123.899 102.808C122.1 104.858 121.554 107.23 122.17 110.304C122.989 114.384 122.627 114.89 118.271 115.758C114.488 116.512 113.468 117.498 113.468 120.402C113.468 122.43 112.52 126.352 111.36 129.118C109.167 134.349 110.352 138.038 114.682 139.462C119.719 141.118 135.177 139.94 136.505 137.798V137.798ZM113.699 134.789C114.359 132.814 116.467 132.46 116.657 134.291C116.72 134.902 115.942 135.677 114.928 136.014C113.914 136.351 113.361 135.8 113.699 134.789V134.789ZM124.994 134.712C125.516 133.87 126.594 133.181 127.389 133.181C128.185 133.181 128.835 133.87 128.835 134.712C128.835 135.555 127.757 136.244 126.44 136.244C125.122 136.244 124.471 135.555 124.994 134.712V134.712ZM121.152 126.336C121.152 124.97 122.053 124.432 123.448 124.965C124.711 125.448 125.362 126.461 124.894 127.215C123.553 129.377 121.152 128.814 121.152 126.336ZM106.573 134.744C106.061 133.919 106.335 130.645 107.18 127.468C108.026 124.292 109.109 119.798 109.586 117.481C110.244 114.288 111.351 113.269 114.163 113.269C117.28 113.269 117.852 112.544 117.743 108.728C117.594 103.491 120.143 99.8833 125.699 97.4683C129.482 95.8241 129.412 95.7535 123.457 95.2091C113.79 94.3256 106.663 97.2541 99.932 104.876C94.1155 111.462 90.4177 113.513 90.4177 110.152C90.4177 107.565 95.225 100.504 99.4988 96.8119C103.426 93.4196 103.434 93.3732 100.053 93.3657C95.7041 93.3502 84.7906 97.572 79.222 101.413C73.814 105.143 69.5484 104.008 71.9772 99.4847C74.3093 95.1415 70.5745 93.95 64.4779 97.0923C59.6302 99.5909 56.6101 103.673 56.6101 107.726C56.6101 109 60.4135 112.559 65.062 115.634C69.7105 118.709 73.5139 121.721 73.5139 122.326C73.5139 125.055 97.9355 135.859 104.723 136.132C106.252 136.193 107.084 135.569 106.573 134.744V134.744ZM106.791 95.3824C105.744 94.3383 99.8206 98.3325 98.9103 100.697C98.4597 101.867 100.127 101.319 102.811 99.414C105.389 97.5843 107.18 95.7701 106.791 95.3824V95.3824ZM178.317 132.874C175.233 129.8 176.245 128.196 180.583 129.282C184.185 130.183 184.447 130.014 182.7 127.916C181.044 125.927 181.096 125.523 183.012 125.523C184.28 125.523 186.117 126.483 187.095 127.658C188.468 129.306 188.311 130.353 186.405 132.253C183.467 135.181 180.834 135.383 178.317 132.874V132.874ZM168.263 116.919C163.31 112.342 164.012 110.958 172.823 107.932C177.365 106.372 179.294 106.308 180.953 107.663C182.706 109.095 181.983 109.589 177.232 110.206C170.736 111.05 168.98 113.312 172.537 116.255C174.413 117.806 175.316 117.704 177.308 115.719C180.282 112.756 182.62 112.554 182.62 115.261C182.62 121.659 174.416 122.606 168.263 116.919V116.919Z" fill="#1C2541"/>
<defs>
<filter id="filter0_d" x="0" y="0" width="356" height="326" filterUnits="userSpaceOnUse" color-interpolation-filters="sRGB">
<feFlood flood-opacity="0" result="BackgroundImageFix"/>
<feColorMatrix in="SourceAlpha" type="matrix" values="0 0 0 0 0 0 0 0 0 0 0 0 0 0 0 0 0 0 127 0"/>
<feOffset dy="4"/>
<feGaussianBlur stdDeviation="14"/>
<feColorMatrix type="matrix" values="0 0 0 0 0 0 0 0 0 0 0 0 0 0 0 0 0 0 0.06 0"/>
<feBlend mode="normal" in2="BackgroundImageFix" result="effect1_dropShadow"/>
<feBlend mode="normal" in="SourceGraphic" in2="effect1_dropShadow" result="shape"/>
</filter>
<linearGradient id="paint0_linear" x1="214.609" y1="73.3047" x2="104.927" y2="237.081" gradientUnits="userSpaceOnUse">
<stop stop-color="#7BDFF2"/>
<stop offset="0.684269" stop-color="#B2F7EF"/>
</linearGradient>
<clipPath id="clip0">
<rect width="194" height="107" fill="white" transform="translate(120 132)"/>
</clipPath>
</defs>
</svg>
