<svg width="24" height="24" viewBox="0 0 24 24" fill="none" xmlns="http://www.w3.org/2000/svg">
<g clip-path="url(#clip0)">
<path d="M4.1612 23.2275C2.28256 22.6691 0.976947 22.3444 0.613274 20.2557C0.199185 17.8775 -0.388792 8.00508 0.359065 3.71034C0.628204 2.16481 1.52992 0.682981 3.99132 0.503536C6.02013 0.355657 9.65048 0.0530088 13.8446 0C22.5653 0.211865 24.1572 1.00968 23.9457 6.24894C23.812 9.56062 24.421 15.3792 23.3549 20.0481C22.6706 23.0442 20.8457 23.9155 15.7526 23.6782C12.1076 23.5923 7.1407 24.1277 4.16118 23.2275H4.1612ZM15.706 22.1449C20.2449 21.9516 21.0417 21.0713 21.5474 18.4443C22.0208 15.9853 22.1719 9.49286 22.2753 8.12057C22.7219 2.18233 19.5566 2.15049 17.653 1.86135C13.0093 1.24444 10.7082 1.85281 6.00211 2.21918C4.32726 2.37217 3.13825 2.59349 2.47614 4.07662C1.86372 5.44831 1.75044 16.3947 2.45907 18.5282C3.05334 20.3172 2.91207 20.9504 6.54634 21.6943C10.0296 22.4313 12.645 22.2754 15.706 22.1449H15.706ZM9.71265 17.4847C7.83354 16.4521 6.42427 13.173 6.79554 10.6974C6.94748 9.68369 7.25944 9.07775 8.09675 8.16926C9.78026 6.3429 11.7022 6.10521 14.3353 7.39756C15.6273 7.82868 16.0769 8.88087 16.7476 9.72882C18.3611 11.7581 18.386 13.7821 16.8189 15.5422C14.9863 17.6007 11.6055 18.5249 9.71266 17.4847H9.71265ZM13.878 15.4046C15.3665 14.6193 16.42 12.9791 16.2019 11.7867C15.1364 8.45852 11.7013 7.17129 9.64896 9.14552C8.54832 10.2461 8.54642 10.2515 8.65436 12.1124C8.75958 13.9278 8.92776 14.3104 10.2153 15.6631C10.7694 16.2454 12.5184 16.1218 13.878 15.4046V15.4046ZM16.9724 6.64499C16.1413 6.33074 15.8134 4.63332 16.4484 3.93169C16.9541 3.37271 17.872 3.55707 18.5115 4.03349C19.5917 4.83829 19.3885 5.45569 18.613 6.16423C17.8479 6.82133 17.6173 6.88896 16.9724 6.64499H16.9724Z" fill="#5E6472"/>
</g>
<defs>
<clipPath id="clip0">
<rect width="24" height="23.759" fill="white"/>
</clipPath>
</defs>
</svg>
