<svg width="198" height="71" viewBox="0 0 198 71" fill="none" xmlns="http://www.w3.org/2000/svg">
<path d="M93.2024 35.8628C93.1666 36.3105 92.9878 36.7044 92.6659 37.0447C92.3619 37.367 91.9775 37.6446 91.5126 37.8774C91.0655 38.0923 90.5827 38.2534 90.0642 38.3609C89.5635 38.4683 89.1075 38.522 88.6962 38.522C87.4803 38.522 86.3895 38.2355 85.4239 37.6625C84.4583 37.0715 83.6358 36.3194 82.9563 35.4061C82.2768 34.4749 81.7404 33.4453 81.347 32.3171C80.9715 31.2247 80.7569 30.1503 80.7032 29.0937C80.739 30.1861 80.9446 31.2874 81.3201 32.3977C81.7135 33.5437 82.25 34.5824 82.9295 35.5136C83.609 36.4448 84.4405 37.2058 85.4239 37.7968C86.4074 38.3698 87.5161 38.6563 88.7499 38.6563C89.4294 38.6563 90.091 38.5489 90.7347 38.334C91.3785 38.1191 91.9775 37.8236 92.5318 37.4476C92.1205 38.0744 91.5752 38.522 90.8957 38.7907C90.2162 39.0593 89.5188 39.1936 88.8035 39.1936C87.9989 39.1936 87.2568 39.0772 86.5773 38.8444C85.8978 38.6295 85.2362 38.2803 84.5924 37.7968L84.4852 37.367C83.752 36.9193 83.1172 36.3642 82.5808 35.7016C82.0622 35.039 81.6331 34.3227 81.2933 33.5527C80.9715 32.7827 80.7301 31.9768 80.5691 31.1352C80.4261 30.2935 80.3545 29.4519 80.3545 28.6102C80.3545 27.7148 80.435 26.8284 80.5959 25.9509C80.7748 25.0556 81.0162 24.1781 81.3201 23.3185C81.2486 23.3185 81.2129 23.2917 81.2129 23.238C80.8373 24.0617 80.5602 24.9123 80.3814 25.7898C80.2026 26.6672 80.1131 27.5626 80.1131 28.4759C80.1131 30.2129 80.4529 31.8873 81.1324 33.499C81.8119 35.0927 82.8222 36.4448 84.1633 37.555C83.4659 37.0178 82.849 36.4 82.3126 35.7016C81.794 35.0032 81.3648 34.26 81.0251 33.4721C80.6854 32.6663 80.4261 31.8336 80.2473 30.974C80.0863 30.1145 80.0059 29.2459 80.0059 28.3685C80.0059 27.1866 80.1668 25.9868 80.4887 24.769C80.8284 23.5334 81.3291 22.4142 81.9907 21.4114C82.6702 20.4086 83.5106 19.5938 84.512 18.967C85.5133 18.3223 86.6846 18 88.0257 18C88.6337 18 89.2059 18.0985 89.7423 18.2955C90.2966 18.4925 90.8152 18.7521 91.298 19.0745C91.7808 19.3968 92.2278 19.7639 92.6391 20.1758C93.0683 20.5876 93.4706 21.0085 93.8461 21.4382L93.2828 21.9218C93.0325 21.8322 92.7911 21.6979 92.5586 21.5188C92.3441 21.3218 92.1474 21.1249 91.9685 20.9279L91.8076 21.1159C92.0401 21.3845 92.2546 21.6979 92.4513 22.0561C92.648 22.3963 92.7464 22.7545 92.7464 23.1305L92.4513 23.614C92.2189 23.5961 91.9238 23.4618 91.5662 23.2111C91.2265 22.9425 90.842 22.6649 90.4129 22.3784C90.0016 22.074 89.5724 21.7964 89.1254 21.5457C88.6962 21.295 88.276 21.1696 87.8648 21.1696C87.3283 21.1696 86.8455 21.3039 86.4164 21.5726C86.0051 21.8412 85.6296 22.1904 85.2898 22.6201C84.9501 23.0499 84.655 23.5424 84.4047 24.0975C84.1722 24.6527 83.9755 25.2167 83.8146 25.7898C83.6716 26.3628 83.5553 26.9269 83.4659 27.482C83.3944 28.0193 83.3586 28.4938 83.3586 28.9057C83.3586 29.6041 83.4659 30.3741 83.6805 31.2158C83.913 32.0574 84.2438 32.8454 84.6729 33.5796C85.12 34.2959 85.6653 34.8958 86.3091 35.3793C86.9528 35.8628 87.6859 36.1045 88.5085 36.1045C88.884 36.1045 89.2684 36.0687 89.6618 35.9971C90.0731 35.9075 90.4397 35.7643 90.7615 35.5673L90.9761 35.809C90.2966 36.3284 89.5188 36.588 88.6426 36.588C87.7843 36.588 86.9975 36.3821 86.2822 35.9702C86.622 36.203 86.9975 36.3731 87.4088 36.4806C87.8558 36.6059 88.3028 36.6686 88.7499 36.6686C89.5724 36.6686 90.3413 36.4358 91.0566 35.9702L91.298 36.3194C91.4768 36.1224 91.7003 35.9344 91.9685 35.7553C92.2368 35.5583 92.5139 35.4419 92.8 35.4061L93.2024 35.8628ZM82.9563 30.4636C83.0457 31.5023 83.3497 32.4962 83.8683 33.4453C84.3868 34.3764 85.0663 35.1286 85.9067 35.7016C85.0663 35.1107 84.4047 34.3496 83.9219 33.4184C83.4212 32.4693 83.0993 31.4844 82.9563 30.4636Z" fill="#1C2541"/>
<path d="M101.804 22.5396C101.822 22.6291 101.921 22.6739 102.099 22.6739H102.153C102.26 22.6739 102.332 22.6828 102.368 22.7007C103.297 22.9872 104.218 23.4081 105.13 23.9632C106.06 24.5004 106.892 25.1541 107.625 25.9241C108.376 26.6762 108.975 27.5358 109.422 28.5028C109.887 29.4698 110.119 30.5084 110.119 31.6187C110.119 32.5857 109.931 33.5169 109.556 34.4123C109.18 35.3076 108.662 36.0866 108 36.7492C108.68 36.1582 109.216 35.424 109.61 34.5466C110.021 33.6512 110.226 32.6931 110.226 31.6724C110.226 30.5263 109.985 29.4608 109.502 28.4759C109.019 27.4731 108.403 26.5777 107.652 25.7898C106.901 25.0018 106.06 24.3303 105.13 23.7752C104.218 23.2021 103.324 22.7634 102.448 22.459C103.128 22.459 103.816 22.6112 104.513 22.9156C105.229 23.22 105.908 23.623 106.552 24.1244C107.196 24.6079 107.786 25.172 108.322 25.8166C108.876 26.4434 109.341 27.0881 109.717 27.7507L109.529 28.0193C109.887 28.5565 110.155 29.1385 110.334 29.7653C110.53 30.392 110.629 31.0367 110.629 31.6993C110.629 32.9707 110.352 34.0899 109.797 35.0569C109.261 36.006 108.572 36.8029 107.732 37.4476C106.909 38.0744 105.998 38.5489 104.996 38.8712C104.013 39.1936 103.083 39.3547 102.207 39.3547C101.706 39.3547 101.196 39.301 100.678 39.1936C100.177 39.0861 99.6675 38.9071 99.1489 38.6563V38.8175C99.6496 39.104 100.159 39.301 100.678 39.4085C101.214 39.5159 101.742 39.5696 102.26 39.5696C103.548 39.5696 104.808 39.2831 106.042 38.7101C107.294 38.1549 108.349 37.367 109.207 36.3463C108.385 37.4028 107.357 38.2266 106.123 38.8175C104.907 39.4085 103.637 39.7039 102.314 39.7039C100.955 39.7039 99.8552 39.4353 99.0148 38.8981C98.1744 38.3788 97.5128 37.7341 97.03 36.9641C96.5651 36.1941 96.2521 35.3793 96.0912 34.5197C95.9303 33.6601 95.8498 32.8901 95.8498 32.2096C95.8498 31.2963 95.966 30.401 96.1985 29.5235C96.4488 28.646 96.8243 27.8402 97.325 27.106C97.8257 26.3718 98.4694 25.745 99.2562 25.2257C100.043 24.6885 100.991 24.3124 102.099 24.0975L101.322 23.9095C100.946 23.82 100.678 23.7125 100.517 23.5872C100.356 23.4618 100.275 23.3544 100.275 23.2648C100.275 23.1216 100.427 22.9693 100.731 22.8082C101.053 22.6291 101.411 22.5396 101.804 22.5396ZM100.597 25.9241C101.08 25.745 101.545 25.6555 101.992 25.6555C102.439 25.6555 102.779 25.7271 103.011 25.8704C103.262 25.9957 103.387 26.13 103.387 26.2733C103.387 26.3628 103.28 26.4613 103.065 26.5688C102.868 26.6762 102.609 26.8284 102.287 27.0254C101.983 27.2045 101.643 27.4373 101.268 27.7238C100.91 28.0103 100.57 28.3774 100.249 28.8251C99.9446 29.2549 99.6854 29.7832 99.4708 30.4099C99.2741 31.0367 99.1757 31.7709 99.1757 32.6126C99.1757 33.8482 99.4529 34.7794 100.007 35.4061C100.562 36.0329 101.33 36.3463 102.314 36.3463C102.94 36.3463 103.575 36.2388 104.218 36.0239C104.88 35.809 105.47 35.5046 105.989 35.1107C106.525 34.7167 106.954 34.2332 107.276 33.6601C107.616 33.0871 107.786 32.4424 107.786 31.7261C107.786 31.1889 107.687 30.6517 107.491 30.1145C107.312 29.5772 107.053 29.0669 106.713 28.5834C106.391 28.0819 105.998 27.6163 105.533 27.1866C105.086 26.7568 104.594 26.3897 104.057 26.0853C103.539 25.7987 103.11 25.5838 102.77 25.4406C102.448 25.2794 102.216 25.1272 102.073 24.9839C101.929 25.0556 101.724 25.1451 101.456 25.2526C101.205 25.3421 100.866 25.4854 100.436 25.6823L100.597 25.9241ZM102.394 24.6616C103.217 24.9302 104.004 25.3331 104.755 25.8704C105.398 26.3539 105.989 26.8821 106.525 27.4552C106.006 26.8463 105.443 26.3001 104.835 25.8166C104.138 25.2436 103.36 24.7959 102.502 24.4736L102.394 24.6616ZM107.598 33.8213C107.33 34.3944 106.954 34.9047 106.471 35.3524C106.793 35.1375 107.061 34.8779 107.276 34.5734C107.508 34.269 107.696 33.9646 107.839 33.6601C107.982 33.3557 108.09 33.0781 108.161 32.8274C108.215 32.5946 108.26 32.4066 108.295 32.2634C108.099 32.729 107.866 33.2483 107.598 33.8213ZM109.395 36.1314C109.377 36.1672 109.35 36.203 109.315 36.2388C109.297 36.2567 109.279 36.2657 109.261 36.2657C109.243 36.2657 109.288 36.1762 109.395 35.9971C109.502 35.8001 109.627 35.5763 109.77 35.3255C109.931 35.0569 110.083 34.7794 110.226 34.4928C110.352 34.278 110.441 34.0899 110.495 33.9288C110.244 34.6988 109.878 35.433 109.395 36.1314ZM110.897 31.7799C110.897 32.0664 110.879 32.3529 110.843 32.6394C110.808 32.908 110.745 33.1587 110.656 33.3915C110.781 32.9438 110.843 32.4424 110.843 31.8873C110.843 31.4754 110.808 31.0725 110.736 30.6785C110.682 30.3383 110.611 30.007 110.522 29.6847C110.611 30.007 110.691 30.3293 110.763 30.6517C110.852 31.0098 110.897 31.3859 110.897 31.7799ZM102.394 24.2318L102.153 24.1244C102.135 24.1602 102.108 24.196 102.073 24.2318C102.037 24.2676 102.019 24.3035 102.019 24.3393C102.019 24.3751 102.037 24.4288 102.073 24.5004C102.126 24.5542 102.171 24.5989 102.207 24.6347L102.394 24.2318ZM106.686 27.6432C106.632 27.5716 106.579 27.5089 106.525 27.4552C106.579 27.5268 106.632 27.5895 106.686 27.6432Z" fill="#1C2541"/>
<path d="M126.041 37.2864C125.255 37.6088 124.441 37.8595 123.601 38.0385C122.778 38.2176 121.938 38.3072 121.079 38.3072C120.293 38.3072 119.524 38.2176 118.773 38.0385C118.022 37.8595 117.333 37.5729 116.707 37.179C116.082 36.785 115.527 36.2746 115.044 35.6479C114.579 35.0032 114.222 34.2332 113.972 33.3378C114.025 34.1257 114.24 34.8062 114.615 35.3793C114.991 35.9344 115.456 36.4179 116.01 36.8298C116.582 37.2237 117.208 37.5461 117.888 37.7968C118.567 38.0475 119.22 38.2534 119.846 38.4146C119.935 38.4325 120.06 38.4415 120.221 38.4415C121.276 38.4415 122.233 38.3519 123.091 38.1728C123.949 37.9938 124.826 37.8057 125.72 37.6088C125.434 37.8416 125.085 38.0475 124.674 38.2266C124.28 38.3877 123.842 38.531 123.359 38.6563C122.894 38.7638 122.403 38.8444 121.884 38.8981C121.365 38.9697 120.847 39.0055 120.328 39.0055H120.033C119.944 39.0055 119.855 38.9966 119.765 38.9787L119.577 38.6295C118.934 38.5579 118.263 38.3967 117.566 38.146C116.868 37.8953 116.225 37.5461 115.634 37.0984C115.062 36.6328 114.579 36.0687 114.186 35.4061C113.811 34.7435 113.623 33.9735 113.623 33.0961C113.623 32.3618 113.721 31.6455 113.918 30.9472C114.115 30.2488 114.374 29.5683 114.696 28.9057C114.678 28.9236 114.651 28.9326 114.615 28.9326C114.562 28.9326 114.535 28.8967 114.535 28.8251C114.213 29.4698 113.936 30.1413 113.703 30.8397C113.489 31.5202 113.381 32.2634 113.381 33.0692C113.381 33.9288 113.578 34.6898 113.972 35.3524C114.365 36.015 114.83 36.5791 115.366 37.0447C115.921 37.4924 116.484 37.8595 117.056 38.146C117.575 38.3967 118.004 38.5758 118.344 38.6832C117.789 38.522 117.226 38.2892 116.654 37.9848C116.046 37.6625 115.491 37.2596 114.991 36.7761C114.508 36.2746 114.106 35.7016 113.784 35.0569C113.462 34.3944 113.301 33.6691 113.301 32.8812C113.301 31.753 113.507 30.6964 113.918 29.7115C114.329 28.7266 114.875 27.876 115.554 27.1597C116.234 26.4255 117.011 25.8525 117.888 25.4406C118.782 25.0108 119.703 24.7959 120.65 24.7959C120.811 24.7601 121.008 24.7422 121.24 24.7422C121.491 24.7243 121.696 24.7153 121.857 24.7153C122.429 24.8407 123.002 24.9929 123.574 25.172C124.164 25.351 124.745 25.6018 125.317 25.9241C125.246 25.9599 125.192 26.0136 125.156 26.0853C125.138 26.139 125.121 26.2106 125.103 26.3001C125.085 26.3718 125.049 26.4345 124.995 26.4882C124.96 26.5419 124.888 26.5688 124.781 26.5688C124.691 26.5688 124.557 26.5419 124.379 26.4882C124.2 26.4345 123.949 26.3539 123.627 26.2464C123.574 26.3001 123.547 26.3807 123.547 26.4882C123.976 26.7031 124.271 26.9538 124.432 27.2403C124.593 27.5089 124.674 27.7686 124.674 28.0193C124.674 28.1446 124.539 28.2521 124.271 28.3416C124.039 28.3416 123.672 28.2968 123.172 28.2073C122.689 28.1178 122.143 28.073 121.535 28.073C121.267 28.073 120.972 28.0909 120.65 28.1267C120.328 28.1446 120.007 28.1983 119.685 28.2879C119.363 28.3595 119.059 28.4759 118.773 28.6371C118.487 28.7803 118.254 28.9773 118.075 29.228C117.861 29.5145 117.664 29.8369 117.485 30.195C117.306 30.5532 117.145 30.9203 117.002 31.2963C116.859 31.6545 116.743 32.0037 116.654 32.3439C116.582 32.6842 116.546 32.9886 116.546 33.2572C116.546 33.5079 116.663 33.7945 116.895 34.1168C117.128 34.4212 117.423 34.7167 117.78 35.0032C118.156 35.2718 118.576 35.5046 119.041 35.7016C119.524 35.8986 120.007 35.9971 120.489 35.9971C120.722 35.9971 120.999 35.9613 121.321 35.8896C121.661 35.818 122 35.7374 122.34 35.6479C122.698 35.5404 123.046 35.4509 123.386 35.3793C123.726 35.3076 124.012 35.2718 124.244 35.2718C124.459 35.2718 124.593 35.2987 124.647 35.3524C124.718 35.3882 124.754 35.4688 124.754 35.5942C124.343 35.7374 123.914 35.8807 123.467 36.0239C123.18 36.1135 122.903 36.203 122.635 36.2926L123.467 36.0777C123.896 35.9523 124.325 35.818 124.754 35.6747C124.754 35.7643 124.754 35.8449 124.754 35.9165C124.772 35.9881 124.826 36.0687 124.915 36.1582L125.183 36.0508C125.326 35.9971 125.478 35.9254 125.639 35.8359C125.997 35.8359 126.238 35.8717 126.363 35.9434C126.506 36.015 126.578 36.1224 126.578 36.2657C126.578 36.3552 126.56 36.4358 126.524 36.5074C126.506 36.5612 126.471 36.6238 126.417 36.6955C126.381 36.7492 126.328 36.8208 126.256 36.9104C126.185 36.9999 126.113 37.1253 126.041 37.2864ZM116.305 34.0631C116.448 34.3854 116.663 34.6988 116.949 35.0032C117.235 35.2897 117.557 35.5494 117.914 35.7822C118.29 35.9971 118.683 36.1762 119.095 36.3194C119.488 36.4627 119.881 36.5433 120.275 36.5612C119.917 36.5254 119.542 36.4358 119.148 36.2926C118.737 36.1493 118.344 35.9702 117.968 35.7553C117.61 35.5225 117.28 35.2629 116.976 34.9763C116.689 34.6898 116.466 34.3854 116.305 34.0631Z" fill="#1C2541"/>
<path d="M134.415 22.5396C134.433 22.6291 134.531 22.6739 134.71 22.6739H134.764C134.871 22.6739 134.943 22.6828 134.979 22.7007C135.908 22.9872 136.829 23.4081 137.741 23.9632C138.671 24.5004 139.503 25.1541 140.236 25.9241C140.987 26.6762 141.586 27.5358 142.033 28.5028C142.498 29.4698 142.73 30.5084 142.73 31.6187C142.73 32.5857 142.542 33.5169 142.167 34.4123C141.791 35.3076 141.273 36.0866 140.611 36.7492C141.291 36.1582 141.827 35.424 142.22 34.5466C142.632 33.6512 142.837 32.6931 142.837 31.6724C142.837 30.5263 142.596 29.4608 142.113 28.4759C141.63 27.4731 141.013 26.5777 140.262 25.7898C139.511 25.0018 138.671 24.3303 137.741 23.7752C136.829 23.2021 135.935 22.7634 135.059 22.459C135.738 22.459 136.427 22.6112 137.124 22.9156C137.84 23.22 138.519 23.623 139.163 24.1244C139.806 24.6079 140.397 25.172 140.933 25.8166C141.487 26.4434 141.952 27.0881 142.328 27.7507L142.14 28.0193C142.498 28.5565 142.766 29.1385 142.945 29.7653C143.141 30.392 143.24 31.0367 143.24 31.6993C143.24 32.9707 142.963 34.0899 142.408 35.0569C141.872 36.006 141.183 36.8029 140.343 37.4476C139.52 38.0744 138.608 38.5489 137.607 38.8712C136.624 39.1936 135.694 39.3547 134.818 39.3547C134.317 39.3547 133.807 39.301 133.289 39.1936C132.788 39.0861 132.278 38.9071 131.76 38.6563V38.8175C132.261 39.104 132.77 39.301 133.289 39.4085C133.825 39.5159 134.353 39.5696 134.871 39.5696C136.159 39.5696 137.419 39.2831 138.653 38.7101C139.905 38.1549 140.96 37.367 141.818 36.3463C140.996 37.4028 139.967 38.2266 138.734 38.8175C137.518 39.4085 136.248 39.7039 134.925 39.7039C133.566 39.7039 132.466 39.4353 131.626 38.8981C130.785 38.3788 130.124 37.7341 129.641 36.9641C129.176 36.1941 128.863 35.3793 128.702 34.5197C128.541 33.6601 128.461 32.8901 128.461 32.2096C128.461 31.2963 128.577 30.401 128.809 29.5235C129.06 28.646 129.435 27.8402 129.936 27.106C130.437 26.3718 131.08 25.745 131.867 25.2257C132.654 24.6885 133.602 24.3124 134.71 24.0975L133.932 23.9095C133.557 23.82 133.289 23.7125 133.128 23.5872C132.967 23.4618 132.886 23.3544 132.886 23.2648C132.886 23.1216 133.038 22.9693 133.342 22.8082C133.664 22.6291 134.022 22.5396 134.415 22.5396ZM133.208 25.9241C133.691 25.745 134.156 25.6555 134.603 25.6555C135.05 25.6555 135.39 25.7271 135.622 25.8704C135.873 25.9957 135.998 26.13 135.998 26.2733C135.998 26.3628 135.89 26.4613 135.676 26.5688C135.479 26.6762 135.22 26.8284 134.898 27.0254C134.594 27.2045 134.254 27.4373 133.879 27.7238C133.521 28.0103 133.181 28.3774 132.86 28.8251C132.556 29.2549 132.296 29.7832 132.082 30.4099C131.885 31.0367 131.787 31.7709 131.787 32.6126C131.787 33.8482 132.064 34.7794 132.618 35.4061C133.172 36.0329 133.941 36.3463 134.925 36.3463C135.551 36.3463 136.186 36.2388 136.829 36.0239C137.491 35.809 138.081 35.5046 138.599 35.1107C139.136 34.7167 139.565 34.2332 139.887 33.6601C140.227 33.0871 140.397 32.4424 140.397 31.7261C140.397 31.1889 140.298 30.6517 140.102 30.1145C139.923 29.5772 139.663 29.0669 139.324 28.5834C139.002 28.0819 138.608 27.6163 138.144 27.1866C137.696 26.7568 137.205 26.3897 136.668 26.0853C136.15 25.7987 135.721 25.5838 135.381 25.4406C135.059 25.2794 134.827 25.1272 134.683 24.9839C134.54 25.0556 134.335 25.1451 134.067 25.2526C133.816 25.3421 133.476 25.4854 133.047 25.6823L133.208 25.9241ZM135.005 24.6616C135.828 24.9302 136.615 25.3331 137.366 25.8704C138.009 26.3539 138.6 26.8821 139.136 27.4552C138.617 26.8463 138.054 26.3001 137.446 25.8166C136.749 25.2436 135.971 24.7959 135.113 24.4736L135.005 24.6616ZM140.209 33.8213C139.941 34.3944 139.565 34.9047 139.082 35.3524C139.404 35.1375 139.672 34.8779 139.887 34.5734C140.119 34.269 140.307 33.9646 140.45 33.6601C140.593 33.3557 140.701 33.0781 140.772 32.8274C140.826 32.5946 140.87 32.4066 140.906 32.2634C140.71 32.729 140.477 33.2483 140.209 33.8213ZM142.006 36.1314C141.988 36.1672 141.961 36.203 141.925 36.2388C141.908 36.2567 141.89 36.2657 141.872 36.2657C141.854 36.2657 141.899 36.1762 142.006 35.9971C142.113 35.8001 142.238 35.5763 142.381 35.3255C142.542 35.0569 142.694 34.7794 142.837 34.4928C142.963 34.278 143.052 34.0899 143.106 33.9288C142.855 34.6988 142.489 35.433 142.006 36.1314ZM143.508 31.7799C143.508 32.0664 143.49 32.3529 143.454 32.6394C143.419 32.908 143.356 33.1587 143.267 33.3915C143.392 32.9438 143.454 32.4424 143.454 31.8873C143.454 31.4754 143.419 31.0725 143.347 30.6785C143.293 30.3383 143.222 30.007 143.132 29.6847C143.222 30.007 143.302 30.3293 143.374 30.6517C143.463 31.0098 143.508 31.3859 143.508 31.7799ZM135.005 24.2318L134.764 24.1244C134.746 24.1602 134.719 24.196 134.683 24.2318C134.648 24.2676 134.63 24.3035 134.63 24.3393C134.63 24.3751 134.648 24.4288 134.683 24.5004C134.737 24.5542 134.782 24.5989 134.818 24.6347L135.005 24.2318ZM139.297 27.6432C139.243 27.5716 139.19 27.5089 139.136 27.4552C139.19 27.5268 139.243 27.5895 139.297 27.6432Z" fill="#1C2541"/>
<g clip-path="url(#clip0)">
<path d="M29.6059 69.9131C28.2942 68.6169 20.8006 66.9254 19.9767 67.7396C18.8706 68.8327 17.8234 68.6046 18.301 67.3746C18.7733 66.1584 10.8016 58.0767 9.1052 58.0518C8.47768 58.0425 8.26217 57.5745 8.54735 56.84C8.80294 56.1818 8.6566 54.3388 8.22215 52.7444C7.53451 50.2208 7.14911 49.8455 5.24513 49.8455C2.20349 49.8455 1.65514 48.5048 4.57961 48.2183C6.48494 48.0316 7.02182 47.6047 7.2154 46.1223C7.34908 45.0983 7.61572 43.3935 7.80789 42.3337C8.11666 40.6307 7.83381 40.3278 5.37479 39.7274C3.84442 39.3537 2.71097 38.7129 2.85603 38.3033C3.00108 37.8938 3.34651 37.6166 3.62362 37.6874C8.31694 38.8866 7.88456 39.2462 9.27662 32.9857C10.7133 26.5247 12.7407 23.3428 16.7959 21.1847C19.0719 19.9734 19.4303 19.4499 19.075 17.8555C18.0847 13.4111 18.6897 13.6657 9.19697 13.6988C-1.54122 13.7362 -2.11743 13.1003 3.56597 7.4839C8.54277 2.5658 12.725 0.557968 18.9058 0.119503C23.3141 -0.193211 24.4202 0.0162097 28.1116 1.86342C30.4192 3.01805 32.4727 4.389 32.675 4.90996C33.1418 6.11201 29.3283 8.82391 24.4539 10.7563C20.7235 12.2352 20.6864 12.2824 20.942 15.2243C21.2943 19.2779 21.5341 19.5027 25.0985 19.12C29.5889 18.6379 41.3274 20.6145 44.3135 22.3556C45.7166 23.1737 46.9302 23.7456 47.0103 23.6266C48.7231 21.0818 50.4424 17.4151 50.4424 16.3075C50.4424 15.4394 51.1105 14.714 52.1379 14.4663C54.0415 14.0075 69.0767 15.1411 69.7366 15.7932C69.9702 16.024 70.3375 17.5111 70.5529 19.0978C71.0525 22.7784 69.4202 24.5063 66.7687 23.104C65.8296 22.6073 62.9205 22.1379 60.3041 22.0609C55.9207 21.932 55.4239 22.0806 53.9806 23.9651L52.4142 26.0094L54.3052 28.0607C57.7941 31.8454 58.6665 33.9769 59.1546 39.9093C59.4188 43.1217 60.0235 45.988 60.4983 46.279C61.0996 46.6475 60.9656 47.0995 60.0566 47.7683C59.3389 48.2964 58.5313 49.837 58.2619 51.1918C57.844 53.2931 58.0086 53.7162 59.3821 54.0711C60.2676 54.3 60.9921 54.7896 60.9921 55.1592C60.9921 55.5288 60.1722 55.6278 59.1701 55.3793C56.9276 54.8231 55.0339 57.4428 56.4551 59.1351C57.0358 59.8265 57.052 60.2881 56.5074 60.6207C56.0728 60.8862 55.7173 60.8576 55.7173 60.5572C55.7173 59.6943 51.9527 63.4168 51.922 64.31C51.9069 64.7506 50.2962 66.1163 48.3427 67.345C45.161 69.3462 44.1446 69.5839 38.5888 69.6265C35.1777 69.6527 32.1541 69.9039 31.8697 70.185C31.148 70.8982 30.5273 70.8237 29.6059 69.9131ZM41.9024 66.545C42.2043 65.7675 42.9185 65.5117 44.0222 65.7854C46.4752 66.3938 49.369 63.2077 48.2464 61.1346C47.1196 59.0541 47.2221 58.0368 48.5586 58.0368C49.2016 58.0368 49.6889 58.7056 49.6889 59.5882C49.6889 60.4994 50.0776 61.0107 50.6308 60.8272C51.1489 60.6554 51.5753 59.9323 51.5785 59.2203C51.5816 58.5083 52.175 57.5989 52.8972 57.1996C53.6193 56.8002 54.2102 55.7039 54.2102 54.7632C54.2102 53.8226 54.7625 51.9589 55.4375 50.6217C56.4705 48.5755 56.5003 48.0765 55.6259 47.4719C54.8226 46.9164 54.8006 46.6679 55.5289 46.3758C56.3402 46.0505 56.9618 40.9096 56.1898 40.9096C56.0353 40.9096 54.3498 41.5911 52.4443 42.4241C49.1884 43.8474 48.3319 43.893 38.217 43.1831C32.2975 42.7677 25.6259 41.8912 23.3913 41.2355C19.2291 40.014 13.5187 36.7533 13.5187 35.5981C13.5187 35.2429 13.2037 34.9524 12.8186 34.9524C11.9631 34.9524 9.75098 42.2253 9.75098 45.0378C9.75098 46.1583 10.3444 47.5202 11.0697 48.0643C11.875 48.6684 12.0217 49.0627 11.4465 49.0772C10.3935 49.1037 10.1943 51.9327 11.1415 53.4079C11.4799 53.9349 12.32 54.1498 13.0138 53.8867C14.3663 53.3738 14.7759 54.6626 13.5067 55.4378C12.404 56.1113 14.6459 59.5596 17.4797 61.5487C19.2562 62.7957 20.0769 62.9972 20.8375 62.3734C21.3911 61.9194 21.9207 61.6794 22.0143 61.8401C22.1079 62.0009 22.5515 62.7885 23.0001 63.5903C24.1659 65.6742 28.6254 66.7162 29.7682 65.1717C30.9079 63.6315 31.3465 63.6862 31.8069 65.4257C32.392 67.6369 41.1034 68.6027 41.9024 66.545V66.545ZM32.3573 59.2158C32.3573 58.5673 32.8942 58.0368 33.5504 58.0368C34.2067 58.0368 34.6093 58.4347 34.4453 58.9211C33.9795 60.3018 32.3573 60.5308 32.3573 59.2158ZM27.6477 51.9347C28.5572 51.036 29.5286 50.5252 29.8064 50.7997C30.5395 51.5242 28.6148 53.5688 27.1996 53.5688C26.2307 53.5688 26.3187 53.248 27.6477 51.9347ZM42.907 51.2909C42.907 49.9619 43.2209 49.2047 43.6605 49.4732C44.075 49.7264 44.4141 50.7514 44.4141 51.7511C44.4141 52.7509 44.075 53.5688 43.6605 53.5688C43.2461 53.5688 42.907 52.5438 42.907 51.2909ZM16.2196 51.4364C15.6415 50.5121 18.537 48.1116 19.5119 48.7071C19.9592 48.9803 20.1312 49.5139 19.8942 49.893C19.1625 51.0628 16.6468 52.1195 16.2196 51.4364ZM12.7652 46.2418C12.7652 45.125 16.6901 43.7458 17.5238 44.5696C18.0369 45.0767 17.6147 45.5742 16.2298 46.0946C13.7396 47.0301 12.7652 47.0715 12.7652 46.2418V46.2418ZM33.8644 40.1466C33.8644 39.0781 31.2169 38.2303 26.0757 37.6525C21.1848 37.1028 17.7103 35.6286 17.001 33.802C15.9055 30.981 16.5277 27.6179 18.4167 26.1495C20.4571 24.5635 20.8957 23.0379 19.3113 23.0379C17.5698 23.0379 14.3297 27.0711 14.1448 29.4689C13.7764 34.2471 18.4389 37.781 27.8361 39.8462C33.2193 41.0293 33.8644 41.0614 33.8644 40.1466ZM43.0781 33.1974L44.979 27.7191L41.051 26.4954C36.2871 25.0115 25.7 24.8454 23.7911 26.2247C22.7039 27.0103 22.6125 27.5419 23.2703 29.2518C23.7092 30.3926 24.0683 32.2721 24.0683 33.4286C24.0683 35.7235 24.3745 35.8406 33.1109 36.8853C35.3904 37.1578 37.764 37.662 38.3857 38.0056C40.597 39.2278 41.2 38.6099 43.0781 33.1973V33.1974ZM44.7908 38.1058C45.4366 37.637 46.8793 34.4819 51.4211 23.6067C52.0172 22.1794 52.0343 21.3344 51.4781 20.7848C50.5372 19.855 46.6684 26.6157 44.38 33.1885C42.4611 38.7001 42.5475 39.7345 44.7908 38.1058H44.7908ZM54.6179 37.8815C55.4289 36.5847 54.5053 36.3101 53.4717 37.5407C52.8774 38.2484 52.8202 38.6757 53.3199 38.6757C53.7606 38.6757 54.3447 38.3183 54.6179 37.8815ZM51.196 34.9701C51.196 33.4669 50.016 32.3021 49.4684 33.2647C49.2898 33.5786 48.9164 34.7745 48.6385 35.9222C48.1735 37.8428 48.2553 37.9445 49.6646 37.1992C50.5069 36.7537 51.196 35.7507 51.196 34.9701ZM53.1341 30.7035C52.0681 29.5675 51.196 29.0534 51.196 29.5612C51.196 30.069 51.4806 30.4844 51.8286 30.4844C52.1765 30.4844 52.8991 31.4059 53.4345 32.5322C53.9706 33.6603 54.557 34.1733 54.74 33.6745C54.9227 33.1765 54.2001 31.8395 53.1341 30.7035ZM21.1972 30.8568C20.8926 28.2784 19.9571 27.4071 19.3682 29.1532C18.8582 30.6649 19.667 33.4631 20.6139 33.4631C21.1887 33.4631 21.3958 32.5377 21.1972 30.8568ZM31.4394 23.0379C38.366 23.0379 39.4323 21.7794 32.7341 21.5097C24.9173 21.195 22.5612 21.481 22.5612 22.7452C22.5612 23.5304 22.971 23.7864 23.7532 23.4899C24.4088 23.2413 27.8675 23.0379 31.4394 23.0379ZM41.1958 23.3326C40.9454 23.0852 40.2955 23.0588 39.7515 23.2738C39.1504 23.5116 39.3289 23.688 40.2068 23.7237C41.0011 23.756 41.4462 23.5801 41.1958 23.3326V23.3326ZM64.3292 19.6337C66.1813 17.8035 65.7876 16.3373 63.4411 16.3258C62.3014 16.3201 60.6059 16.1136 59.6734 15.8666C58.1864 15.4728 57.9779 15.6968 57.9779 17.6889C57.9779 19.5951 58.311 20.0102 60.0501 20.2705C61.1899 20.4411 62.3525 20.6309 62.6337 20.6923C62.915 20.7537 63.6779 20.2773 64.3292 19.6337ZM68.5275 19.7308C68.5275 19.5501 68.1884 19.1953 67.774 18.9422C67.3595 18.6891 67.0205 18.8369 67.0205 19.2706C67.0205 19.7043 67.3595 20.0592 67.774 20.0592C68.1884 20.0592 68.5275 19.9114 68.5275 19.7308ZM9.75098 11.4659C9.75098 10.8353 10.4528 8.95976 11.3106 7.29814C12.1685 5.63651 12.6927 4.10153 12.4757 3.88706C12.0317 3.44832 7.13873 7.12818 4.88289 9.59736C3.62409 10.9752 3.56841 11.3158 4.50612 11.902C6.33111 13.0427 9.75098 12.7584 9.75098 11.4659ZM18.7935 10.8145C20.2441 10.2975 21.5408 9.31668 21.675 8.63496C22.0057 6.95557 17.7321 2.80976 16.2497 3.37189C15.0888 3.8121 12.0116 9.34059 12.0116 10.986C12.0116 12.1122 15.3928 12.0267 18.7935 10.8146V10.8145ZM27.265 7.27132C29.9835 5.97107 29.8813 4.95074 26.8911 3.54166C23.931 2.14676 19.5471 1.1277 19.5471 1.83452C19.5471 2.11512 20.3948 3.34028 21.4309 4.55714C22.4671 5.77397 23.3148 7.28235 23.3148 7.9091C23.3148 9.06756 23.6088 9.02011 27.265 7.27132Z" fill="#1C2541"/>
</g>
<path d="M89.2268 57.2441L89.1732 57.1635C89.1732 56.9486 89.1285 56.7158 89.0391 56.4651C88.9675 56.2144 88.8781 55.9637 88.7708 55.713C88.6636 55.4623 88.5384 55.2205 88.3953 54.9877C88.2702 54.737 88.1539 54.5042 88.0466 54.2893L87.8589 54.1819C88.0914 54.737 88.3328 55.2384 88.5831 55.6861C88.8334 56.1338 88.9586 56.6084 88.9586 57.1098L89.0927 57.271L88.8513 57.1635V57.0023C88.5294 56.3756 88.2165 55.6951 87.9125 54.9609C87.6264 54.2088 87.3314 53.5193 87.0274 52.8926C86.8486 54.0924 86.6251 55.2922 86.3569 56.492C86.0886 57.6918 85.7489 58.8558 85.3376 59.9839C84.98 60.951 84.5508 61.8821 84.0501 62.7775C83.5495 63.655 83.1293 64.5862 82.7895 65.5711L82.5749 65.4099L82.2799 65.4637C82.119 65.4278 82.0385 65.3204 82.0385 65.1413C82.0385 64.9981 82.0653 64.8279 82.119 64.631C82.1726 64.4161 82.2352 64.2012 82.3067 63.9863C82.3961 63.7714 82.4855 63.5655 82.5749 63.3685C82.6643 63.1536 82.7359 62.9835 82.7895 62.8581L82.5481 62.7775C82.4945 62.885 82.3604 63.1267 82.1458 63.5028C81.9491 63.8788 81.7256 64.2639 81.4752 64.6578C81.2428 65.0518 81.0103 65.4099 80.7778 65.7323C80.5454 66.0546 80.3666 66.2158 80.2414 66.2158C80.152 66.1621 80.0894 66.0815 80.0536 65.974C80.0179 65.8487 80 65.7412 80 65.6517C80 65.1324 80.1162 64.4608 80.3487 63.6371C80.599 62.8133 80.8851 61.9627 81.207 61.0853C81.5289 60.1899 81.8507 59.3214 82.1726 58.4797C82.5123 57.6381 82.7716 56.9307 82.9504 56.3577C83.1114 55.8563 83.2544 55.319 83.3796 54.746C83.5226 54.155 83.6389 53.5641 83.7283 52.9731C83.8356 52.3643 83.925 51.7644 83.9965 51.1734C84.068 50.5825 84.1306 50.0184 84.1843 49.4812C84.4882 49.2484 84.8995 49.0514 85.4181 48.8902C85.9545 48.7291 86.4463 48.5589 86.8933 48.3799C87.8589 49.1678 88.6904 50.0721 89.3878 51.0929C90.0851 52.1136 90.6931 53.2686 91.2117 54.558C91.5335 54.0745 91.8286 53.5372 92.0968 52.9463C92.3829 52.3553 92.6422 51.7465 92.8746 51.1197C93.1071 50.475 93.3306 49.8393 93.5452 49.2126C93.7598 48.5858 93.9743 48.0038 94.1889 47.4666C94.636 47.3233 95.1009 47.2159 95.5837 47.1442C96.0844 47.0726 96.5761 46.992 97.0589 46.9025C97.5417 47.9053 97.9977 48.8634 98.4268 49.7766C98.856 50.6899 99.2494 51.6122 99.607 52.5434C99.9825 53.4566 100.313 54.3968 100.599 55.3638C100.903 56.3308 101.172 57.3694 101.404 58.4797C101.511 59.0528 101.645 59.6348 101.806 60.2257C101.967 60.7987 102.11 61.3807 102.236 61.9717C102.379 62.5626 102.495 63.1536 102.584 63.7445C102.692 64.3355 102.745 64.9264 102.745 65.5174C102.745 65.5711 102.718 65.6427 102.665 65.7323C102.629 65.8218 102.54 65.8755 102.397 65.8934C102.11 64.2101 101.797 62.5447 101.458 60.8972C101.118 59.2856 100.698 57.6828 100.197 56.0891C100.644 57.6828 101.029 59.2676 101.35 60.8435C101.69 62.4731 101.985 64.1295 102.236 65.8129L101.86 66.0277C101.896 66.2426 101.941 66.4665 101.994 66.6993C102.048 66.9321 102.075 67.1559 102.075 67.3708C102.075 67.4245 102.066 67.532 102.048 67.6931C102.048 67.8722 102.03 68.0513 101.994 68.2304C101.976 68.4094 101.932 68.5617 101.86 68.687C101.806 68.8303 101.726 68.9019 101.619 68.9019C101.511 68.9019 101.395 68.8303 101.27 68.687C101.163 68.5617 101.055 68.4005 100.948 68.2035C100.859 68.0244 100.769 67.8454 100.68 67.6663C100.608 67.5051 100.555 67.3798 100.519 67.2902C100.412 66.1083 100.224 64.7921 99.9557 63.3416C99.7053 61.8732 99.4014 60.3958 99.0437 58.9095C98.6861 57.4053 98.2748 55.9547 97.8099 54.558C97.3629 53.1433 96.889 51.8987 96.3883 50.8242L96.3615 50.9585C96.9337 52.1763 97.4255 53.4298 97.8367 54.7191C98.248 55.9906 98.6056 57.2889 98.9096 58.614C99.2136 59.9213 99.4729 61.2464 99.6875 62.5895C99.902 63.9147 100.09 65.2309 100.251 66.5381C99.8752 65.7144 99.5712 64.8817 99.3388 64.04C99.1242 63.1804 98.9275 62.3298 98.7487 61.4882C98.5878 60.6286 98.4179 59.7691 98.2391 58.9095C98.0781 58.0499 97.8725 57.1814 97.6222 56.3039L97.8099 55.7667C97.5596 55.0325 97.3003 54.3073 97.0321 53.591C96.7817 52.8747 96.4867 52.1763 96.1469 51.4958L96.0397 51.7644C95.843 52.3016 95.5926 52.9284 95.2886 53.6447C94.9846 54.361 94.627 55.0594 94.2157 55.7399C93.8045 56.4203 93.3396 57.0292 92.821 57.5664C92.3203 58.1037 91.766 58.4618 91.158 58.6409C90.7825 58.4081 90.3981 58.1932 90.0047 57.9962C89.6292 57.7813 89.2447 57.5664 88.8513 57.3515V57.1904L89.9242 57.7813C90.2818 57.9783 90.6395 58.1842 90.9971 58.3991L91.2117 58.3454C91.9806 57.8977 92.5975 57.45 93.0624 57.0023C93.5452 56.5547 93.9565 56.0622 94.2962 55.525C94.636 54.9877 94.931 54.3878 95.1813 53.7253C95.4496 53.0448 95.7535 52.2747 96.0933 51.4152L95.986 51.1734L95.8787 51.4152L95.4227 52.4628C95.2439 52.8926 95.0204 53.3582 94.7522 53.8596C94.5018 54.3431 94.2157 54.8445 93.8939 55.3638C93.5899 55.8652 93.277 56.3308 92.9551 56.7606C92.6332 57.1725 92.3024 57.5127 91.9627 57.7813C91.6229 58.032 91.3011 58.1574 90.9971 58.1574L89.2268 57.2441ZM98.4536 50.7437C98.4179 50.6362 98.3553 50.4929 98.2659 50.3139C98.1765 50.1169 98.0781 49.9199 97.9708 49.7229C97.8814 49.5259 97.792 49.3379 97.7026 49.1588C97.6132 48.9619 97.5417 48.8186 97.488 48.7291L97.7831 49.5618L98.3732 50.7974L98.4536 50.7437ZM95.6373 50.8511L94.7254 53.2686C94.9042 52.8926 95.0651 52.5165 95.2082 52.1404C95.3691 51.7644 95.5211 51.3883 95.6641 51.0123L95.6373 50.8511ZM94.9399 48.3799L95.2886 49.2663L95.4227 49.2394L95.1009 48.3799H94.9399ZM84.4525 49.8304L84.3988 50.6362C84.3988 50.8153 84.381 51.057 84.3452 51.3615L84.6402 49.7766L84.4525 49.8304ZM93.6257 50.3945L94.323 48.7291H94.2157L93.6257 50.3945ZM97.4076 48.5679L96.7907 47.5472L96.8443 47.8426L97.4076 48.5679ZM96.2542 50.5288L96.2006 50.6362L96.3079 50.8511L96.3347 50.7168L96.2542 50.5288Z" fill="#1C2541"/>
<path d="M114.183 60.1988C113.7 60.1988 113.334 60.1899 113.083 60.172C112.851 60.1541 112.636 60.1451 112.44 60.1451C111.903 60.1451 111.429 60.172 111.018 60.2257C110.607 60.2794 110.258 60.3869 109.972 60.548C109.686 60.7092 109.471 60.942 109.328 61.2464C109.185 61.5509 109.114 61.9538 109.114 62.4552C109.114 63.1894 109.194 63.7356 109.355 64.0937C109.534 64.434 109.775 64.6847 110.079 64.8458C110.401 64.9891 110.786 65.0786 111.233 65.1145C111.68 65.1503 112.18 65.2309 112.735 65.3562C113.057 65.392 113.379 65.4189 113.7 65.4368C114.022 65.4368 114.344 65.4368 114.666 65.4368H116.597C115.703 65.3831 114.809 65.3562 113.915 65.3562C113.039 65.3383 112.243 65.2577 111.528 65.1145C110.83 64.9712 110.258 64.7205 109.811 64.3623C109.382 64.0042 109.167 63.458 109.167 62.7238C109.167 62.1329 109.239 61.6852 109.382 61.3807C109.543 61.0584 109.749 60.8256 109.999 60.6823C110.267 60.5212 110.58 60.4316 110.938 60.4137C111.295 60.3779 111.68 60.36 112.091 60.36C112.592 60.36 113.101 60.3869 113.62 60.4406C113.209 60.5659 112.788 60.6644 112.359 60.7361C111.948 60.7898 111.564 60.8525 111.206 60.9241C110.848 60.9778 110.535 61.0584 110.267 61.1658C110.017 61.2554 109.847 61.3897 109.758 61.5688V62.7775L109.543 62.885C109.614 63.3327 109.677 63.6729 109.731 63.9057C109.802 64.1206 109.981 64.2907 110.267 64.4161C110.553 64.5235 111.009 64.6131 111.635 64.6847C112.279 64.7563 113.209 64.8727 114.425 65.0339H116.356C116.696 65.0339 116.892 65.0249 116.946 65.007C117.017 64.9712 117.062 64.9533 117.08 64.9533L116.839 63.5028C116.803 63.1446 116.758 62.8223 116.704 62.5358C116.651 62.2493 116.579 61.9448 116.49 61.6225C116.472 61.6762 116.418 61.7031 116.329 61.7031C116.418 62.0075 116.49 62.3298 116.544 62.6701C116.615 63.0103 116.669 63.3327 116.704 63.6371C116.758 63.9415 116.794 64.2012 116.812 64.4161C116.847 64.631 116.883 64.7563 116.919 64.7921L116.758 64.8458C116.722 64.8638 116.669 64.8727 116.597 64.8727H116.436C116.311 64.8727 116.168 64.8638 116.007 64.8458C115.846 64.81 115.641 64.7921 115.39 64.7921H114.505C113.808 64.7921 113.164 64.7563 112.574 64.6847C112.02 64.6131 111.537 64.5235 111.125 64.4161C111.537 64.5056 112.037 64.5772 112.627 64.631C113.253 64.7026 113.834 64.7384 114.371 64.7384C114.603 64.7384 114.845 64.7384 115.095 64.7384C115.363 64.7205 115.649 64.7115 115.953 64.7115H116.839C116.785 64.6578 116.722 64.631 116.651 64.631H116.597C116.526 63.3953 116.365 62.2134 116.114 61.0853C115.864 59.9571 115.462 58.9722 114.907 58.1305C114.353 57.271 113.629 56.5905 112.735 56.0891C111.841 55.5697 110.723 55.3101 109.382 55.3101C109.006 55.3101 108.631 55.3369 108.255 55.3907C107.88 55.4444 107.496 55.516 107.102 55.6056C107.138 55.5697 107.156 55.5339 107.156 55.4981C107.156 55.4086 107.12 55.328 107.048 55.2564C106.977 55.1668 106.941 55.0773 106.941 54.9877C106.941 54.8803 107.048 54.7818 107.263 54.6923C107.496 54.5848 107.978 54.4863 108.711 54.3968C108.676 54.361 108.649 54.3073 108.631 54.2356C108.631 54.164 108.631 54.1103 108.631 54.0745C107.665 54.0745 106.914 54.0565 106.378 54.0207C105.841 53.967 105.573 53.8327 105.573 53.6178C105.573 53.5283 105.681 53.4029 105.895 53.2418C106.128 53.0806 106.449 52.9284 106.861 52.7851C107.272 52.6239 107.764 52.4896 108.336 52.3822C108.926 52.2568 109.579 52.1942 110.294 52.1942C111.671 52.1942 112.851 52.4091 113.834 52.8388C114.818 53.2507 115.641 53.8058 116.302 54.5042C116.982 55.1847 117.527 55.9637 117.938 56.8412C118.367 57.7186 118.707 58.6051 118.958 59.5004C119.226 60.3779 119.422 61.2375 119.548 62.0791C119.673 62.9029 119.789 63.6192 119.896 64.228C119.896 64.3355 119.896 64.4429 119.896 64.5504C119.914 64.6578 119.923 64.7832 119.923 64.9264C119.923 65.4458 119.825 65.9024 119.628 66.2964C119.449 66.6724 119.19 66.9858 118.85 67.2365C118.528 67.5051 118.144 67.7021 117.697 67.8275C117.268 67.9707 116.803 68.0423 116.302 68.0423C115.909 68.0423 115.399 68.0334 114.773 68.0155C114.147 67.9976 113.548 67.9439 112.976 67.8543C112.601 67.7648 112.189 67.6931 111.742 67.6394C111.295 67.6036 110.839 67.532 110.374 67.4245C109.91 67.3171 109.454 67.1649 109.006 66.9679C108.577 66.7709 108.184 66.4754 107.826 66.0815C107.487 65.6696 107.209 65.1413 106.995 64.4967C106.798 63.852 106.7 63.0372 106.7 62.0523C106.7 61.1211 106.914 60.3779 107.344 59.8228C107.773 59.2497 108.282 58.811 108.872 58.5066C109.48 58.1842 110.097 57.9783 110.723 57.8888C111.349 57.7813 111.859 57.7276 112.252 57.7276C112.753 57.7276 113.083 57.7634 113.244 57.835C113.405 57.9067 113.486 57.9783 113.486 58.0499C113.486 58.1037 113.477 58.1484 113.459 58.1842C113.012 58.1842 112.44 58.2021 111.742 58.238C111.045 58.2738 110.365 58.3902 109.704 58.5872C109.06 58.7841 108.506 59.0886 108.041 59.5004C107.576 59.8944 107.344 60.4585 107.344 61.1927C107.504 60.5301 107.773 60.0108 108.148 59.6348C108.542 59.2408 108.989 58.9543 109.489 58.7752C109.99 58.5782 110.5 58.4618 111.018 58.426C111.555 58.3723 112.037 58.3454 112.467 58.3454H113.379C113.307 58.417 113.271 58.4887 113.271 58.5603C113.271 58.6319 113.307 58.6946 113.379 58.7483H114.425C114.711 58.802 114.916 58.9005 115.041 59.0438C115.167 59.1692 115.229 59.2856 115.229 59.393C115.229 59.5542 115.149 59.6974 114.988 59.8228C114.827 59.9481 114.559 60.0735 114.183 60.1988ZM109.677 66.6993C110.178 66.8963 110.687 67.0485 111.206 67.1559C111.742 67.2634 112.27 67.335 112.788 67.3708C113.307 67.4245 113.79 67.4514 114.237 67.4514C113.879 67.4156 113.522 67.3529 113.164 67.2634C112.788 67.1738 112.458 67.0932 112.172 67.0216C111.868 66.95 111.564 66.9052 111.26 66.8873C110.973 66.8515 110.669 66.8067 110.348 66.753C110.044 66.6993 109.731 66.6187 109.409 66.5112C109.087 66.3859 108.765 66.2068 108.443 65.974C108.783 66.2785 109.194 66.5202 109.677 66.6993ZM109.945 63.8788C109.927 63.8609 109.981 63.9147 110.106 64.04C110.213 64.1475 110.357 64.228 110.535 64.2818C110.446 64.2459 110.312 64.2012 110.133 64.1475C109.936 64.0758 109.838 63.9684 109.838 63.8251L109.945 63.8788ZM110.616 64.2818C110.598 64.2818 110.571 64.2818 110.535 64.2818C110.553 64.2818 110.58 64.2818 110.616 64.2818Z" fill="#1C2541"/>
<path d="M132.977 53.8058C132.816 53.8058 132.593 53.8327 132.307 53.8864C132.038 53.9402 131.761 54.0028 131.475 54.0745C131.207 54.1461 130.957 54.2177 130.724 54.2893C130.509 54.361 130.375 54.4147 130.322 54.4505C130.787 54.3789 131.216 54.2983 131.609 54.2088C132.003 54.1013 132.432 54.0476 132.897 54.0476C132.807 54.2088 132.691 54.3341 132.548 54.4237C132.405 54.5132 132.244 54.5848 132.065 54.6385C131.904 54.6744 131.725 54.7102 131.529 54.746C131.332 54.7639 131.126 54.7997 130.912 54.8534L130.724 54.6117C130.384 54.737 130.125 54.8176 129.946 54.8534C129.767 54.8713 129.58 54.8803 129.383 54.8803C129.168 54.8803 128.945 54.8803 128.712 54.8803C128.498 54.8624 128.256 54.8534 127.988 54.8534C127.988 54.943 127.979 55.0146 127.961 55.0683C128.373 55.0683 128.721 55.0683 129.007 55.0683C129.294 55.0504 129.642 55.0146 130.054 54.9609C129.66 55.0325 129.311 55.0862 129.007 55.122C128.721 55.1579 128.373 55.1758 127.961 55.1758C127.89 55.5876 127.827 55.9906 127.774 56.3845C127.72 56.7785 127.693 57.1635 127.693 57.5396C127.693 57.7545 127.702 58.0052 127.72 58.2917C127.738 58.5782 127.756 58.8737 127.774 59.1781C127.809 59.4646 127.836 59.7422 127.854 60.0108C127.872 60.2615 127.881 60.4495 127.881 60.5749V62.1866C127.97 62.5447 128.23 62.8133 128.659 62.9924C129.088 63.1715 129.705 63.261 130.509 63.261H131.368C131.672 63.261 131.877 63.2968 131.985 63.3685C132.11 63.4222 132.172 63.5028 132.172 63.6102C132.172 63.6998 132.101 63.7535 131.958 63.7714C131.815 63.7714 131.672 63.7714 131.529 63.7714C131.01 63.7714 130.465 63.7356 129.893 63.6639C129.356 63.5923 128.829 63.5117 128.31 63.4222C128.829 63.5476 129.374 63.6639 129.946 63.7714C130.536 63.8609 131.109 63.9057 131.663 63.9057H131.904C131.976 63.9057 132.056 63.8967 132.146 63.8788C132.146 63.9684 132.146 64.049 132.146 64.1206C132.164 64.1922 132.19 64.2728 132.226 64.3623L132.441 64.3086C132.494 64.2907 132.557 64.2818 132.628 64.2818C132.7 64.2639 132.754 64.237 132.789 64.2012C133.362 64.2549 133.648 64.4519 133.648 64.7921C133.648 64.9891 133.594 65.1503 133.487 65.2756C133.379 65.401 133.245 65.4995 133.084 65.5711C132.923 65.6427 132.745 65.6965 132.548 65.7323C132.351 65.7502 132.164 65.7591 131.985 65.7591C131.359 65.7591 130.742 65.7233 130.134 65.6517C129.544 65.5621 128.963 65.4726 128.391 65.3831C128.891 65.5621 129.526 65.7054 130.295 65.8129C131.064 65.9203 131.842 65.974 132.628 65.974C132.432 66.0994 132.199 66.1979 131.931 66.2695C131.663 66.3411 131.386 66.3769 131.1 66.3769L129.168 66.1352C128.918 66.0994 128.721 66.0636 128.578 66.0277C128.453 65.9919 128.328 65.9561 128.203 65.9203C128.078 65.8666 127.935 65.8129 127.774 65.7591C127.631 65.7054 127.425 65.6427 127.157 65.5711V65.2756C126.692 65.1503 126.316 64.9354 126.03 64.631C125.744 64.3265 125.521 63.9952 125.36 63.6371C125.199 63.2789 125.091 62.9208 125.038 62.5626C124.984 62.1866 124.957 61.8553 124.957 61.5688C124.957 61.2643 124.957 60.9868 124.957 60.7361C124.975 60.4675 124.984 60.1988 124.984 59.9302C124.984 59.7332 124.975 59.4825 124.957 59.1781C124.957 58.8737 124.948 58.5513 124.93 58.2111C124.913 57.8709 124.895 57.5217 124.877 57.1635C124.877 56.8054 124.877 56.4651 124.877 56.1428C124.877 55.9458 124.877 55.7578 124.877 55.5787C124.895 55.3996 124.913 55.2384 124.93 55.0952H124.662C124.644 55.2205 124.635 55.3638 124.635 55.525V56.0085C124.635 56.5278 124.644 57.0471 124.662 57.5664C124.68 58.0678 124.689 58.5334 124.689 58.9632C124.707 59.393 124.725 59.7691 124.743 60.0914C124.761 60.3958 124.77 60.6197 124.77 60.7629V62.0523C124.716 61.5688 124.662 60.8793 124.609 59.9839C124.555 58.9453 124.528 57.7992 124.528 56.5457V56.0622C124.528 55.8652 124.528 55.6772 124.528 55.4981C124.546 55.319 124.573 55.1847 124.609 55.0952L123.697 55.0415C123.5 54.9161 123.303 54.8176 123.107 54.746C122.91 54.6744 122.731 54.6385 122.57 54.6385V54.1013C122.57 53.9939 122.579 53.9043 122.597 53.8327C122.633 53.7432 122.722 53.6984 122.865 53.6984C122.901 53.6984 122.99 53.7163 123.133 53.7521V53.4298C122.937 53.3223 122.776 53.1791 122.651 53C122.525 52.803 122.463 52.606 122.463 52.4091C122.463 51.9435 122.794 51.7107 123.455 51.7107C123.706 51.7107 123.965 51.7286 124.233 51.7644C124.501 51.8002 124.778 51.8271 125.065 51.845C125.136 51.451 125.199 51.1018 125.252 50.7974C125.306 50.475 125.36 50.1706 125.413 49.8841C125.467 49.5797 125.529 49.2842 125.601 48.9977C125.673 48.6932 125.762 48.3799 125.869 48.0575C126.03 47.6994 126.155 47.3144 126.245 46.9025C126.334 46.4727 126.397 46.0519 126.433 45.64L126.996 45.6669C127.085 45.6669 127.157 45.6937 127.21 45.7474C127.282 45.8012 127.318 45.9265 127.318 46.1235C127.318 46.2847 127.291 46.4996 127.237 46.7682L127.559 46.8488C127.702 46.3653 127.872 45.9713 128.069 45.6669C128.283 45.3624 128.489 45.2102 128.686 45.2102C128.99 45.2102 129.177 45.5952 129.249 46.3653V46.8488C129.249 47.3144 129.213 47.7531 129.142 48.165C129.088 48.5589 129.016 48.9529 128.927 49.3469C128.838 49.7408 128.748 50.1437 128.659 50.5556C128.569 50.9675 128.489 51.4152 128.417 51.8987C128.811 51.9524 129.195 51.9793 129.571 51.9793C129.75 51.9793 129.928 51.9793 130.107 51.9793C130.286 51.9614 130.465 51.9524 130.644 51.9524C130.822 51.9524 131.01 51.8808 131.207 51.7375C131.404 51.5943 131.582 51.5226 131.743 51.5226C131.886 51.5226 131.994 51.5674 132.065 51.6569C132.137 51.7465 132.172 51.845 132.172 51.9524C131.851 52.042 131.529 52.1404 131.207 52.2479C130.903 52.3374 130.608 52.427 130.322 52.5165C130.608 52.4807 130.912 52.418 131.234 52.3285C131.556 52.221 131.895 52.1225 132.253 52.033C132.253 52.1225 132.253 52.2031 132.253 52.2747C132.271 52.3464 132.298 52.427 132.333 52.5165C132.369 52.5165 132.414 52.5075 132.467 52.4896C132.575 52.4538 132.637 52.4359 132.655 52.4359C132.834 52.5255 132.95 52.6419 133.004 52.7851C133.058 52.9105 133.084 53.0537 133.084 53.2149C133.084 53.3402 133.067 53.4566 133.031 53.5641C132.995 53.6536 132.977 53.7342 132.977 53.8058ZM125.869 63.7177C125.619 63.2342 125.485 62.7596 125.467 62.294C125.449 61.8284 125.422 61.3897 125.386 60.9778L125.145 56.8949L125.065 57.3784C125.065 58.5782 125.1 59.6706 125.172 60.6555C125.261 61.6225 125.386 62.3746 125.547 62.9118C125.547 63.073 125.538 63.1804 125.521 63.2342C125.521 63.2879 125.521 63.3327 125.521 63.3685C125.521 63.4043 125.538 63.4491 125.574 63.5028C125.628 63.5565 125.726 63.6281 125.869 63.7177ZM127.398 62.2672C127.362 62.1239 127.344 61.9717 127.344 61.8105V60.4943C127.327 60.6734 127.309 60.8525 127.291 61.0315C127.273 61.1927 127.264 61.3628 127.264 61.5419C127.264 62.0075 127.291 62.3657 127.344 62.6164C127.398 62.8312 127.505 63.0103 127.666 63.1536C127.577 63.0461 127.514 62.9297 127.479 62.8044C127.461 62.6611 127.434 62.4821 127.398 62.2672Z" fill="#1C2541"/>
<path d="M145.414 67.72C144.735 67.9528 144.216 68.0782 143.858 68.0961C143.501 68.1319 143.188 68.1587 142.92 68.1767C141.918 68.1767 141.015 67.9886 140.211 67.6126C139.406 67.2365 138.717 66.7261 138.145 66.0815C137.573 65.4368 137.126 64.6847 136.804 63.8251C136.5 62.9476 136.348 62.0165 136.348 61.0315C136.348 60.4585 136.402 59.8675 136.509 59.2587C136.616 58.6319 136.777 58.0231 136.992 57.4321C137.206 56.8233 137.484 56.2592 137.823 55.7399C138.145 55.2205 138.53 54.7549 138.977 54.3431C138.512 54.7191 138.118 55.1668 137.797 55.6861C137.457 56.2055 137.171 56.7695 136.938 57.3784C136.706 57.9693 136.536 58.5872 136.429 59.2318C136.321 59.8586 136.268 60.4675 136.268 61.0584C136.268 61.8105 136.384 62.6164 136.616 63.4759C136.867 64.3176 137.26 65.1055 137.797 65.8397C138.333 66.556 139.021 67.1559 139.862 67.6394C140.72 68.1229 141.757 68.3647 142.973 68.3647C143.545 68.3647 144.144 68.2841 144.77 68.1229C144.091 68.5706 143.331 68.7945 142.49 68.7945C141.811 68.7945 141.167 68.687 140.559 68.4721C139.969 68.2751 139.415 67.9886 138.896 67.6126C138.396 67.2544 137.94 66.8246 137.528 66.3232C137.117 65.8218 136.768 65.2846 136.482 64.7115L136.724 64.4967C136.42 63.8878 136.196 63.2789 136.053 62.6701C135.928 62.0612 135.865 61.4434 135.865 60.8166C135.865 59.9034 135.99 59.0259 136.241 58.1842C136.509 57.3426 136.858 56.5457 137.287 55.7936L137.931 54.9072C138.038 54.7102 138.19 54.5132 138.387 54.3162C138.601 54.1192 138.834 53.9312 139.084 53.7521C139.334 53.5551 139.594 53.385 139.862 53.2418C140.148 53.0806 140.416 52.9373 140.666 52.812C141.31 52.4896 141.954 52.2031 142.598 51.9524C143.241 51.6838 143.992 51.4868 144.851 51.3615L144.743 51.2809C143.098 51.442 141.704 51.845 140.559 52.4896C139.415 53.1164 138.485 53.8864 137.77 54.7997C137.054 55.713 136.536 56.7158 136.214 57.8082C135.892 58.8826 135.731 59.9392 135.731 60.9778C135.731 61.533 135.776 62.097 135.865 62.6701C135.973 63.2252 136.125 63.7803 136.321 64.3355C135.874 63.261 135.651 62.1239 135.651 60.9241C135.651 59.7422 135.847 58.5693 136.241 57.4053C136.634 56.2413 137.251 55.1668 138.092 54.1819C139.164 53.197 140.336 52.4449 141.605 51.9255C142.875 51.3883 144.1 51.1197 145.28 51.1197C145.655 51.1197 146.04 51.1824 146.433 51.3077C146.827 51.4331 147.184 51.6301 147.506 51.8987C147.828 52.1494 148.087 52.4807 148.284 52.8926C148.499 53.3044 148.606 53.8058 148.606 54.3968C148.606 54.8803 148.49 55.4712 148.257 56.1696C148.025 56.868 147.676 57.5485 147.211 58.2111C146.764 58.8558 146.201 59.4109 145.521 59.8765C144.842 60.3242 144.055 60.548 143.161 60.548H142.276C141.614 60.4048 141.006 60.2436 140.452 60.0645C139.915 59.8675 139.406 59.7153 138.923 59.6079C138.852 59.8944 138.807 60.172 138.789 60.4406C138.789 60.6913 138.789 60.942 138.789 61.1927C138.789 61.712 138.843 62.2224 138.95 62.7238C139.075 63.2073 139.263 63.655 139.513 64.0669C139.763 64.4787 140.076 64.8279 140.452 65.1145C140.845 65.3831 141.319 65.5532 141.873 65.6248C142.213 65.6965 142.508 65.7412 142.759 65.7591C143.009 65.7591 143.215 65.7681 143.376 65.786C143.554 65.786 143.68 65.8129 143.751 65.8666C143.84 65.9024 143.885 65.983 143.885 66.1083C143.706 66.1621 143.519 66.1979 143.322 66.2158C143.143 66.2337 142.955 66.2426 142.759 66.2426C142.133 66.2426 141.569 66.1441 141.069 65.9472C140.568 65.7323 140.139 65.4905 139.781 65.2219C140.193 65.6338 140.684 65.9293 141.257 66.1083C141.829 66.2695 142.392 66.3501 142.946 66.3501C143.25 66.3501 143.563 66.3232 143.885 66.2695C143.849 66.3769 143.832 66.4396 143.832 66.4575C143.832 66.565 143.876 66.6366 143.966 66.6724C144.037 66.6545 144.162 66.6097 144.341 66.5381C144.52 66.4486 144.699 66.368 144.878 66.2964C145.074 66.2068 145.262 66.1352 145.441 66.0815C145.62 66.0098 145.745 65.974 145.816 65.974C145.906 65.974 145.986 65.9919 146.058 66.0277C146.129 66.0457 146.165 66.1441 146.165 66.3232C146.165 66.5023 146.102 66.7172 145.977 66.9679C145.852 67.2186 145.664 67.4693 145.414 67.72ZM141.713 57.0829L142.303 57.1904C142.499 57.2262 142.678 57.2441 142.839 57.2441C143.018 57.2441 143.224 57.1904 143.456 57.0829C143.706 56.9576 143.948 56.7875 144.18 56.5726C144.431 56.3577 144.645 56.0891 144.824 55.7667C145.021 55.4444 145.164 55.0773 145.253 54.6654L145.307 54.5042C145.056 54.5042 144.681 54.5669 144.18 54.6923C143.68 54.8176 143.161 54.9877 142.625 55.2026C142.088 55.3996 141.587 55.6414 141.122 55.9279C140.658 56.1965 140.336 56.492 140.157 56.8143C140.425 56.868 140.684 56.9218 140.935 56.9755C141.203 57.0113 141.462 57.0471 141.713 57.0829ZM140.479 59.0707C140.514 59.0348 140.532 58.9811 140.532 58.9095C140.55 58.8379 140.559 58.7841 140.559 58.7483L139.299 58.2917L139.164 58.6677L140.479 59.0707ZM139.728 65.1682C139.603 65.0249 139.477 64.8817 139.352 64.7384C139.245 64.613 139.156 64.4877 139.084 64.3623C139.245 64.6668 139.459 64.9354 139.728 65.1682Z" fill="#1C2541"/>
<path d="M155.667 67.532C155.488 67.5678 155.291 67.5857 155.076 67.5857H154.299C153.834 67.5857 153.503 67.6394 153.306 67.7469C153.127 67.8543 153.02 67.908 152.984 67.908L152.877 67.4245V66.941L152.743 64.4161C152.707 63.9326 152.609 63.4132 152.448 62.8581C152.287 62.303 152.162 61.7389 152.072 61.1658C152.019 60.7898 151.974 60.4316 151.938 60.0914L151.831 59.0438C151.795 58.6857 151.751 58.3185 151.697 57.9425C151.661 57.5664 151.599 57.1635 151.509 56.7337C151.509 56.6263 151.509 56.5188 151.509 56.4114C151.527 56.3039 151.536 56.1965 151.536 56.0891C151.536 55.5339 151.491 54.9877 151.402 54.4505C151.312 53.9133 151.187 53.385 151.026 52.8657C151.152 52.812 151.268 52.7672 151.375 52.7314C151.482 52.6777 151.581 52.6508 151.67 52.6508C151.759 52.6508 151.858 52.7583 151.965 52.9731C152.072 53.1701 152.189 53.591 152.314 54.2356C152.35 54.2356 152.403 54.2267 152.475 54.2088C152.546 54.1729 152.6 54.155 152.636 54.155C152.618 53.8506 152.573 53.5283 152.502 53.188C152.43 52.8299 152.358 52.4896 152.287 52.1673C152.215 51.845 152.144 51.5584 152.072 51.3077C152.019 51.0391 151.992 50.8242 151.992 50.6631C151.992 50.6273 151.992 50.5825 151.992 50.5288C152.01 50.475 152.055 50.4482 152.126 50.4482C152.215 50.4482 152.332 50.5467 152.475 50.7437C152.618 50.9406 152.77 51.1913 152.931 51.4958C153.092 51.8002 153.244 52.1315 153.387 52.4896C153.548 52.8299 153.691 53.1522 153.816 53.4566C154.299 52.5434 154.844 51.8539 155.452 51.3883C156.078 50.9048 156.891 50.6631 157.893 50.6631C158.626 50.6631 159.225 50.7526 159.69 50.9317C160.155 51.0928 160.512 51.2809 160.763 51.4958C161.031 51.6928 161.21 51.8808 161.299 52.0599L161.46 52.3285C161.46 52.4359 161.407 52.5075 161.299 52.5434C160.834 52.0957 160.307 51.7554 159.717 51.5226C159.127 51.2898 158.519 51.1734 157.893 51.1734C157.285 51.1734 156.829 51.254 156.525 51.4152C156.239 51.5584 155.935 51.7375 155.613 51.9524C155.953 51.7375 156.266 51.5674 156.552 51.442C156.856 51.3167 157.294 51.254 157.866 51.254C158.492 51.254 159.091 51.3794 159.663 51.6301C160.235 51.8629 160.727 52.1673 161.138 52.5434C161.049 52.5792 160.968 52.6239 160.897 52.6777C160.843 52.7135 160.816 52.7762 160.816 52.8657C160.906 52.8657 161.004 52.9284 161.111 53.0537C161.219 53.1612 161.317 53.2955 161.407 53.4566C161.496 53.6178 161.567 53.7879 161.621 53.967C161.693 54.1282 161.728 54.2625 161.728 54.3699C161.728 54.6744 161.612 54.8266 161.38 54.8266C161.201 54.8266 160.986 54.7639 160.736 54.6385C160.682 54.6206 160.566 54.5221 160.387 54.3431C160.226 54.164 160.021 53.9849 159.77 53.8058C159.52 53.6089 159.234 53.4298 158.912 53.2686C158.59 53.1074 158.233 53.0269 157.839 53.0269C157.517 53.0269 157.231 53.0985 156.981 53.2418C156.748 53.3671 156.534 53.5462 156.337 53.779C156.14 53.9939 155.962 54.2446 155.801 54.5311L155.452 55.1758C155.72 54.6923 156.015 54.2535 156.337 53.8596C156.695 53.394 157.142 53.1612 157.678 53.1612C158.143 53.1612 158.572 53.2686 158.966 53.4835C159.359 53.6805 159.681 53.9312 159.931 54.2356C159.627 54.1103 159.27 53.9849 158.858 53.8596C158.447 53.7342 158.054 53.6715 157.678 53.6715C157.482 53.6715 157.312 53.7163 157.169 53.8058C157.026 53.8954 156.9 54.0118 156.793 54.155C156.704 54.2804 156.614 54.4237 156.525 54.5848C156.453 54.746 156.373 54.8982 156.283 55.0415L155.935 55.0952C155.631 55.6145 155.38 56.2234 155.184 56.9218C155.005 57.6022 154.916 58.3185 154.916 59.0707C154.916 59.5184 154.933 59.9213 154.969 60.2794C155.023 60.6376 155.094 61.0047 155.184 61.3807L155.506 62.2134L155.452 61.4345C155.416 60.8256 155.38 60.2884 155.345 59.8228C155.309 59.3393 155.291 58.811 155.291 58.238C155.327 57.7186 155.398 57.2262 155.506 56.7606C155.595 56.3666 155.729 55.9995 155.908 55.6593C155.693 56.0891 155.55 56.5815 155.479 57.1366C155.389 57.7455 155.345 58.3902 155.345 59.0707C155.345 59.6079 155.372 60.1183 155.425 60.6018C155.479 61.0853 155.541 61.5688 155.613 62.0523C155.702 62.5358 155.792 63.0372 155.881 63.5565C155.971 64.0579 156.042 64.6131 156.096 65.2219L156.176 65.7323L156.337 67.2634L155.667 67.532Z" fill="#1C2541"/>
<path d="M163.773 65.8397C163.844 65.3383 163.907 64.7563 163.96 64.0937C164.032 63.4132 164.095 62.7328 164.148 62.0523C164.202 61.3718 164.256 60.7092 164.309 60.0645C164.363 59.402 164.416 58.8289 164.47 58.3454C164.381 58.8289 164.3 59.384 164.229 60.0108C164.157 60.6376 164.086 61.2822 164.014 61.9448C163.943 62.6074 163.871 63.27 163.8 63.9326C163.728 64.5772 163.665 65.1592 163.612 65.6785C163.344 65.4995 163.209 65.2577 163.209 64.9533C163.209 64.5951 163.218 64.2997 163.236 64.0669C163.254 63.8162 163.281 63.5296 163.317 63.2073L163.612 62.9387C163.594 62.8492 163.585 62.7686 163.585 62.6969V62.4283C163.585 62.0165 163.63 61.5509 163.719 61.0315C163.808 60.4943 163.907 59.9571 164.014 59.4199C164.139 58.8647 164.247 58.3365 164.336 57.835C164.425 57.3157 164.47 56.868 164.47 56.492L164.148 56.4114C164.112 56.8412 164.059 57.3336 163.987 57.8888C163.916 58.426 163.835 58.9901 163.746 59.581C163.674 60.1541 163.603 60.7271 163.531 61.3002C163.496 61.6046 163.46 61.8911 163.424 62.1597C163.46 61.6583 163.505 61.1211 163.558 60.548C163.648 59.7243 163.737 58.9095 163.826 58.1037C163.934 57.2799 164.032 56.4741 164.121 55.6861C164.211 54.8982 164.3 54.1729 164.39 53.5104C164.39 53.2418 164.452 52.9552 164.577 52.6508C164.72 52.3285 164.819 51.9972 164.872 51.6569C164.98 51.6928 165.069 51.7107 165.141 51.7107H165.328C165.507 51.7107 165.623 51.7554 165.677 51.845C165.731 51.9166 165.758 52.024 165.758 52.1673V52.3016L165.999 52.3822C166.142 52.1136 166.312 51.8987 166.509 51.7375C166.705 51.5764 166.902 51.4958 167.099 51.4958C167.528 51.4958 167.742 51.9524 167.742 52.8657C167.742 53.3492 167.689 53.8685 167.581 54.4237C167.492 54.9609 167.447 55.4892 167.447 56.0085V56.3577C167.447 56.9307 167.385 57.5575 167.26 58.238C167.134 58.9005 166.991 59.581 166.83 60.2794C166.687 60.9599 166.553 61.6225 166.428 62.2672C166.303 62.9118 166.24 63.5028 166.24 64.04C166.24 64.1654 166.249 64.2997 166.267 64.4429C166.285 64.5862 166.294 64.7205 166.294 64.8458C166.294 65.1145 166.24 65.2846 166.133 65.3562C166.044 65.4099 165.927 65.4368 165.784 65.4368C165.784 65.204 165.775 64.9175 165.758 64.5772C165.74 64.237 165.731 63.9326 165.731 63.6639C165.695 63.8609 165.677 64.1295 165.677 64.4698C165.677 64.81 165.659 65.1324 165.623 65.4368H165.221V65.7591C165.06 66.0457 164.846 66.1889 164.577 66.1889C164.452 66.1889 164.309 66.1531 164.148 66.0815C163.987 66.0098 163.862 65.9293 163.773 65.8397ZM169.298 45.2102C168.994 45.3893 168.717 45.6221 168.467 45.9086C168.216 46.1951 167.957 46.4727 167.689 46.7413C167.85 46.6339 167.993 46.5175 168.118 46.3921C168.243 46.2668 168.368 46.1414 168.493 46.0161C168.636 45.8907 168.78 45.7654 168.923 45.64C169.084 45.5146 169.262 45.3982 169.459 45.2908C169.513 45.3624 169.557 45.4251 169.593 45.4788C169.647 45.5326 169.674 45.5863 169.674 45.64L169.057 46.2578C169.057 46.222 169.021 46.1862 168.949 46.1504C168.896 46.1146 168.851 46.0966 168.815 46.0966C168.762 46.2757 168.672 46.419 168.547 46.5264C168.422 46.6339 168.297 46.7324 168.172 46.8219C168.046 46.9114 167.921 47.0099 167.796 47.1174C167.671 47.2248 167.581 47.3681 167.528 47.5472V47.6009C167.528 47.6188 167.555 47.6277 167.608 47.6277L168.949 46.3653L168.44 46.8756C168.189 47.1263 167.921 47.386 167.635 47.6546C167.367 47.9053 167.108 48.1291 166.857 48.3261C166.625 48.5231 166.482 48.6216 166.428 48.6216L166.401 48.5947C166.276 48.5589 166.142 48.541 165.999 48.541C165.874 48.541 165.74 48.5321 165.597 48.5142C165.597 48.3709 165.57 48.2187 165.516 48.0575C165.48 47.8964 165.463 47.771 165.463 47.6815C165.463 47.5919 165.507 47.5472 165.597 47.5472C165.597 47.4934 165.561 47.4128 165.489 47.3054C165.436 47.1801 165.373 47.0457 165.302 46.9025C165.23 46.7413 165.159 46.5801 165.087 46.419C165.033 46.2399 165.007 46.0608 165.007 45.8818C165.007 45.7027 165.078 45.5326 165.221 45.3714C165.382 45.1923 165.561 45.0401 165.758 44.9147C165.972 44.7894 166.178 44.6819 166.374 44.5924C166.571 44.5029 166.714 44.4402 166.804 44.4044C166.875 44.4044 166.902 44.3686 166.884 44.2969C166.866 44.2074 166.893 44.1626 166.965 44.1626L167.447 44.3238C167.412 44.4133 167.295 44.5655 167.099 44.7804C166.92 44.9774 166.786 45.1207 166.696 45.2102C166.822 45.1207 166.965 44.9864 167.125 44.8073C167.304 44.6282 167.438 44.4939 167.528 44.4044C167.617 44.4402 167.698 44.476 167.769 44.5118C167.841 44.5476 167.894 44.5655 167.93 44.5655L168.011 44.485C168.136 44.485 168.27 44.5118 168.413 44.5655C168.574 44.6193 168.717 44.6819 168.842 44.7536C168.967 44.8252 169.075 44.9058 169.164 44.9953C169.253 45.0849 169.298 45.1565 169.298 45.2102ZM163.37 62.8044C163.388 62.6074 163.406 62.4104 163.424 62.2134C163.406 62.4283 163.388 62.6253 163.37 62.8044Z" fill="#1C2541"/>
<path d="M181.239 60.1988C180.756 60.1988 180.389 60.1899 180.139 60.172C179.906 60.1541 179.692 60.1451 179.495 60.1451C178.959 60.1451 178.485 60.172 178.074 60.2257C177.662 60.2794 177.314 60.3869 177.027 60.548C176.741 60.7092 176.527 60.942 176.384 61.2464C176.241 61.5509 176.169 61.9538 176.169 62.4552C176.169 63.1894 176.25 63.7356 176.411 64.0937C176.589 64.434 176.831 64.6847 177.135 64.8458C177.457 64.9891 177.841 65.0786 178.288 65.1145C178.735 65.1503 179.236 65.2309 179.79 65.3562C180.112 65.392 180.434 65.4189 180.756 65.4368C181.078 65.4368 181.4 65.4368 181.721 65.4368H183.653C182.758 65.3831 181.864 65.3562 180.97 65.3562C180.094 65.3383 179.298 65.2577 178.583 65.1145C177.886 64.9712 177.314 64.7205 176.867 64.3623C176.437 64.0042 176.223 63.458 176.223 62.7238C176.223 62.1329 176.294 61.6852 176.437 61.3807C176.598 61.0584 176.804 60.8256 177.054 60.6823C177.323 60.5212 177.635 60.4316 177.993 60.4137C178.351 60.3779 178.735 60.36 179.146 60.36C179.647 60.36 180.157 60.3869 180.675 60.4406C180.264 60.5659 179.844 60.6644 179.415 60.7361C179.003 60.7898 178.619 60.8525 178.261 60.9241C177.904 60.9778 177.591 61.0584 177.323 61.1658C177.072 61.2554 176.902 61.3897 176.813 61.5688V62.7775L176.598 62.885C176.67 63.3327 176.732 63.6729 176.786 63.9057C176.858 64.1206 177.036 64.2907 177.323 64.4161C177.609 64.5235 178.065 64.6131 178.69 64.6847C179.334 64.7563 180.264 64.8727 181.48 65.0339H183.411C183.751 65.0339 183.948 65.0249 184.001 65.007C184.073 64.9712 184.117 64.9533 184.135 64.9533L183.894 63.5028C183.858 63.1446 183.813 62.8223 183.76 62.5358C183.706 62.2493 183.635 61.9448 183.545 61.6225C183.527 61.6762 183.474 61.7031 183.384 61.7031C183.474 62.0075 183.545 62.3298 183.599 62.6701C183.67 63.0103 183.724 63.3327 183.76 63.6371C183.813 63.9415 183.849 64.2012 183.867 64.4161C183.903 64.631 183.939 64.7563 183.974 64.7921L183.813 64.8458C183.778 64.8638 183.724 64.8727 183.653 64.8727H183.492C183.366 64.8727 183.223 64.8638 183.062 64.8458C182.902 64.81 182.696 64.7921 182.446 64.7921H181.56C180.863 64.7921 180.219 64.7563 179.629 64.6847C179.075 64.6131 178.592 64.5235 178.181 64.4161C178.592 64.5056 179.093 64.5772 179.683 64.631C180.309 64.7026 180.89 64.7384 181.426 64.7384C181.659 64.7384 181.9 64.7384 182.151 64.7384C182.419 64.7205 182.705 64.7115 183.009 64.7115H183.894C183.84 64.6578 183.778 64.631 183.706 64.631H183.653C183.581 63.3953 183.42 62.2134 183.17 61.0853C182.919 59.9571 182.517 58.9722 181.963 58.1305C181.408 57.271 180.684 56.5905 179.79 56.0891C178.896 55.5697 177.779 55.3101 176.437 55.3101C176.062 55.3101 175.686 55.3369 175.311 55.3907C174.935 55.4444 174.551 55.516 174.158 55.6056C174.193 55.5697 174.211 55.5339 174.211 55.4981C174.211 55.4086 174.175 55.328 174.104 55.2564C174.032 55.1668 173.997 55.0773 173.997 54.9877C173.997 54.8803 174.104 54.7818 174.318 54.6923C174.551 54.5848 175.034 54.4863 175.767 54.3968C175.731 54.361 175.704 54.3073 175.686 54.2356C175.686 54.164 175.686 54.1103 175.686 54.0745C174.721 54.0745 173.97 54.0565 173.433 54.0207C172.897 53.967 172.629 53.8327 172.629 53.6178C172.629 53.5283 172.736 53.4029 172.951 53.2418C173.183 53.0806 173.505 52.9284 173.916 52.7851C174.327 52.6239 174.819 52.4896 175.391 52.3822C175.981 52.2568 176.634 52.1942 177.349 52.1942C178.726 52.1942 179.906 52.4091 180.89 52.8388C181.873 53.2507 182.696 53.8058 183.358 54.5042C184.037 55.1847 184.582 55.9637 184.994 56.8412C185.423 57.7186 185.763 58.6051 186.013 59.5004C186.281 60.3779 186.478 61.2375 186.603 62.0791C186.728 62.9029 186.844 63.6192 186.952 64.228C186.952 64.3355 186.952 64.4429 186.952 64.5504C186.97 64.6578 186.979 64.7832 186.979 64.9264C186.979 65.4458 186.88 65.9024 186.683 66.2964C186.505 66.6724 186.245 66.9858 185.906 67.2365C185.584 67.5051 185.199 67.7021 184.752 67.8275C184.323 67.9707 183.858 68.0423 183.358 68.0423C182.964 68.0423 182.455 68.0334 181.829 68.0155C181.203 67.9976 180.604 67.9439 180.032 67.8543C179.656 67.7648 179.245 67.6931 178.798 67.6394C178.351 67.6036 177.895 67.532 177.43 67.4245C176.965 67.3171 176.509 67.1649 176.062 66.9679C175.633 66.7709 175.239 66.4754 174.882 66.0815C174.542 65.6696 174.265 65.1413 174.05 64.4967C173.854 63.852 173.755 63.0372 173.755 62.0523C173.755 61.1211 173.97 60.3779 174.399 59.8228C174.828 59.2497 175.338 58.811 175.928 58.5066C176.536 58.1842 177.153 57.9783 177.779 57.8888C178.404 57.7813 178.914 57.7276 179.307 57.7276C179.808 57.7276 180.139 57.7634 180.3 57.835C180.461 57.9067 180.541 57.9783 180.541 58.0499C180.541 58.1037 180.532 58.1484 180.514 58.1842C180.067 58.1842 179.495 58.2021 178.798 58.238C178.1 58.2738 177.421 58.3902 176.759 58.5872C176.116 58.7841 175.561 59.0886 175.096 59.5004C174.631 59.8944 174.399 60.4585 174.399 61.1927C174.56 60.5301 174.828 60.0108 175.204 59.6348C175.597 59.2408 176.044 58.9543 176.545 58.7752C177.045 58.5782 177.555 58.4618 178.074 58.426C178.61 58.3723 179.093 58.3454 179.522 58.3454H180.434C180.362 58.417 180.327 58.4887 180.327 58.5603C180.327 58.6319 180.362 58.6946 180.434 58.7483H181.48C181.766 58.802 181.972 58.9005 182.097 59.0438C182.222 59.1692 182.285 59.2856 182.285 59.393C182.285 59.5542 182.204 59.6974 182.043 59.8228C181.882 59.9481 181.614 60.0735 181.239 60.1988ZM176.732 66.6993C177.233 66.8963 177.743 67.0485 178.261 67.1559C178.798 67.2634 179.325 67.335 179.844 67.3708C180.362 67.4245 180.845 67.4514 181.292 67.4514C180.935 67.4156 180.577 67.3529 180.219 67.2634C179.844 67.1738 179.513 67.0932 179.227 67.0216C178.923 66.95 178.619 66.9052 178.315 66.8873C178.029 66.8515 177.725 66.8067 177.403 66.753C177.099 66.6993 176.786 66.6187 176.464 66.5112C176.142 66.3859 175.82 66.2068 175.499 65.974C175.838 66.2785 176.25 66.5202 176.732 66.6993ZM177.001 63.8788C176.983 63.8609 177.036 63.9147 177.162 64.04C177.269 64.1475 177.412 64.228 177.591 64.2818C177.501 64.2459 177.367 64.2012 177.188 64.1475C176.992 64.0758 176.893 63.9684 176.893 63.8251L177.001 63.8788ZM177.671 64.2818C177.653 64.2818 177.627 64.2818 177.591 64.2818C177.609 64.2818 177.635 64.2818 177.671 64.2818Z" fill="#1C2541"/>
<path d="M197.163 64.9533C197.055 64.9533 196.948 65.007 196.841 65.1145C196.465 65.2577 196.072 65.3831 195.661 65.4905C195.267 65.5801 194.856 65.6248 194.427 65.6248C193.211 65.6248 192.299 65.2756 191.691 64.5772C191.083 63.8609 190.779 62.8312 190.779 61.4882C190.779 60.8435 190.806 60.1988 190.859 59.5542C190.913 58.9274 190.949 58.3454 190.967 57.8082C190.913 58.3633 190.85 58.9184 190.779 59.4736C190.689 60.0645 190.645 60.6823 190.645 61.327C190.645 61.6494 190.672 62.0612 190.725 62.5626C190.797 63.064 190.958 63.5565 191.208 64.04C191.458 64.5056 191.843 64.9175 192.361 65.2756C192.88 65.6159 193.595 65.786 194.507 65.786C194.936 65.786 195.348 65.7412 195.741 65.6517C196.152 65.5442 196.546 65.4189 196.921 65.2756C196.671 65.5801 196.331 65.8218 195.902 66.0009C195.491 66.18 194.999 66.2695 194.427 66.2695C193.694 66.2695 192.978 66.1173 192.281 65.8129C191.601 65.5084 191.083 64.9981 190.725 64.2818L190.886 63.9863C190.564 63.4132 190.385 62.9029 190.35 62.4552C190.314 61.9896 190.278 61.533 190.242 61.0853L190.698 56.3845C190.788 55.5787 190.85 54.7729 190.886 53.967L190.806 53.9133C190.663 54.7549 190.546 55.5608 190.457 56.3308C190.368 57.0829 190.296 57.8261 190.242 58.5603V57.8619C190.35 57.0382 190.448 56.2323 190.537 55.4444C190.627 54.6385 190.743 53.8238 190.886 53C191.029 52.1763 191.208 51.3167 191.423 50.4213C191.655 49.5259 191.959 48.5679 192.335 47.5472C192.835 46.8667 193.13 46.1951 193.22 45.5326C193.273 45.5326 193.327 45.5415 193.381 45.5594C193.434 45.5773 193.542 45.5863 193.702 45.5863C193.81 45.5863 193.899 45.6131 193.971 45.6669C194.06 45.7027 194.105 45.7922 194.105 45.9355C194.105 46.0966 194.051 46.3384 193.944 46.6607C193.98 46.6607 194.033 46.6786 194.105 46.7145C194.176 46.7324 194.23 46.7413 194.266 46.7413C194.516 46.3115 194.74 45.9444 194.936 45.64C195.151 45.3356 195.357 45.1834 195.553 45.1834C195.678 45.1834 195.786 45.2639 195.875 45.4251C195.982 45.5684 196.036 45.8101 196.036 46.1504C196 46.795 195.893 47.4039 195.714 47.9769C195.553 48.55 195.374 49.1051 195.178 49.6423C194.981 50.1796 194.784 50.7257 194.588 51.2809C194.409 51.836 194.275 52.418 194.185 53.0269C194.078 53.7253 193.971 54.4416 193.863 55.1758C193.756 55.8921 193.658 56.6084 193.568 57.3247C193.479 58.041 193.39 58.7304 193.3 59.393C193.229 60.0556 193.175 60.6734 193.139 61.2464C193.139 61.7657 193.22 62.303 193.381 62.8581C193.47 63.0014 193.55 63.1088 193.622 63.1804C193.694 63.2342 193.819 63.261 193.998 63.261C194.212 63.261 194.445 63.2342 194.695 63.1804C194.963 63.1267 195.196 63.0999 195.392 63.0999C195.517 63.0999 195.607 63.1178 195.661 63.1536C195.714 63.1894 195.759 63.2521 195.795 63.3416C195.544 63.4849 195.276 63.5923 194.99 63.6639C194.704 63.7356 194.436 63.7714 194.185 63.7714H193.81C193.738 63.7714 193.676 63.7714 193.622 63.7714C193.819 63.8072 194.069 63.8251 194.373 63.8251C194.838 63.8251 195.312 63.7177 195.795 63.5028C195.795 63.6639 195.848 63.7983 195.956 63.9057C196.009 63.8878 196.134 63.8251 196.331 63.7177C196.528 63.6102 196.698 63.5565 196.841 63.5565C197.27 63.5565 197.484 63.7356 197.484 64.0937C197.484 64.1475 197.467 64.228 197.431 64.3355C197.395 64.4429 197.306 64.6489 197.163 64.9533ZM190.055 61.3539C190.055 61.2285 190.055 61.0674 190.055 60.8704C190.073 60.6734 190.09 60.4764 190.108 60.2794L190.162 59.6616C190.18 59.4467 190.198 59.2587 190.216 59.0975C190.198 59.3661 190.18 59.7064 190.162 60.1183C190.162 60.5122 190.162 60.8077 190.162 61.0047V62.0791C190.162 62.2224 190.162 62.3746 190.162 62.5358C190.18 62.6969 190.198 62.8492 190.216 62.9924C190.144 62.7059 190.099 62.4283 190.081 62.1597C190.064 61.8732 190.055 61.6046 190.055 61.3539ZM192.683 61.2464C192.683 60.8346 192.71 60.4316 192.764 60.0377C192.817 59.6437 192.862 59.2408 192.898 58.8289C192.808 59.2408 192.737 59.6437 192.683 60.0377C192.647 60.4316 192.612 60.8346 192.576 61.2464V61.6225C192.576 61.7478 192.585 61.8821 192.603 62.0254V61.8374C192.603 61.7478 192.612 61.6494 192.63 61.5419C192.647 61.4345 192.665 61.336 192.683 61.2464ZM190.216 59.0707C190.216 59.0348 190.216 59.008 190.216 58.9901C190.233 58.9722 190.242 58.9543 190.242 58.9364C190.242 59.008 190.233 59.0528 190.216 59.0707Z" fill="#1C2541"/>
<defs>
<clipPath id="clip0">
<rect width="71" height="71" fill="white"/>
</clipPath>
</defs>
</svg>
