<svg width="37" height="38" viewBox="0 0 37 38" fill="none" xmlns="http://www.w3.org/2000/svg">
<g clip-path="url(#clip0)">
<path d="M15.3344 36.5036C14.655 35.8346 10.7736 34.9615 10.3469 35.3817C9.77398 35.9459 9.23159 35.8282 9.47898 35.1934C9.72358 34.5657 5.59468 30.3944 4.71603 30.3816C4.391 30.3768 4.27938 30.1352 4.42709 29.7562C4.55947 29.4165 4.48367 28.4652 4.25865 27.6423C3.90249 26.3398 3.70287 26.1461 2.71671 26.1461C1.14129 26.1461 0.857277 25.4541 2.372 25.3062C3.35887 25.2099 3.63694 24.9895 3.73721 24.2244C3.80645 23.6959 3.94455 22.816 4.04409 22.269C4.20401 21.3901 4.05751 21.2337 2.78386 20.9238C1.99121 20.731 1.40415 20.4002 1.47928 20.1888C1.55441 19.9775 1.73332 19.8344 1.87685 19.871C4.30775 20.4899 4.0838 20.6755 4.80481 17.4443C5.54892 14.1095 6.59901 12.4673 8.69942 11.3534C9.87826 10.7282 10.0639 10.458 9.87988 9.63512C9.36693 7.34123 9.68029 7.47262 4.76356 7.48971C-0.798273 7.50903 -1.09672 7.1808 1.84699 4.28203C4.42472 1.74366 6.5909 0.70736 9.79223 0.481056C12.0755 0.319655 12.6484 0.427743 14.5604 1.38114C15.7556 1.97708 16.8192 2.68467 16.924 2.95355C17.1657 3.57396 15.1906 4.97365 12.6659 5.97104C10.7337 6.73432 10.7145 6.7587 10.8469 8.27708C11.0293 10.3692 11.1536 10.4853 12.9997 10.2878C15.3255 10.0389 21.4055 11.0591 22.9521 11.9577C23.6789 12.38 24.3074 12.6752 24.3489 12.6138C25.236 11.3003 26.1266 9.40784 26.1266 8.83617C26.1266 8.38811 26.4726 8.01368 27.0048 7.88586C27.9907 7.64906 35.7782 8.23414 36.12 8.57071C36.241 8.68983 36.4312 9.45737 36.5428 10.2763C36.8015 12.176 35.9561 13.0678 34.5828 12.344C34.0963 12.0877 32.5896 11.8454 31.2344 11.8056C28.964 11.7391 28.7067 11.8158 27.9592 12.7885L27.1479 13.8436L28.1273 14.9023C29.9344 16.8557 30.3862 17.9559 30.639 21.0178C30.7759 22.6757 31.0891 24.1551 31.335 24.3053C31.6465 24.4955 31.577 24.7288 31.1063 25.074C30.7345 25.3466 30.3162 26.1417 30.1767 26.841C29.9602 27.9255 30.0455 28.1439 30.7569 28.3271C31.2155 28.4452 31.5908 28.6979 31.5908 28.8886C31.5908 29.0794 31.1661 29.1305 30.6471 29.0022C29.4856 28.7152 28.5047 30.0673 29.2409 30.9407C29.5416 31.2976 29.55 31.5358 29.2679 31.7075C29.0429 31.8445 28.8587 31.8297 28.8587 31.6747C28.8587 31.2294 26.9088 33.1506 26.8929 33.6116C26.8851 33.839 26.0508 34.5439 25.039 35.1781C23.3911 36.211 22.8646 36.3337 19.987 36.3556C18.2202 36.3691 16.6542 36.4988 16.5069 36.6439C16.1331 37.012 15.8116 36.9735 15.3344 36.5036ZM21.7033 34.7652C21.8597 34.3639 22.2296 34.2319 22.8013 34.3731C24.0718 34.6872 25.5706 33.0427 24.9891 31.9727C24.4055 30.8989 24.4586 30.3738 25.1509 30.3738C25.4839 30.3738 25.7363 30.719 25.7363 31.1746C25.7363 31.6449 25.9376 31.9087 26.2242 31.8141C26.4925 31.7254 26.7134 31.3522 26.715 30.9847C26.7166 30.6172 27.024 30.1479 27.398 29.9417C27.7721 29.7356 28.0781 29.1698 28.0781 28.6843C28.0781 28.1988 28.3642 27.2369 28.7138 26.5467C29.2488 25.4906 29.2643 25.2331 28.8114 24.921C28.3953 24.6343 28.3839 24.506 28.7611 24.3553C29.1814 24.1874 29.5033 21.534 29.1035 21.534C29.0234 21.534 28.1504 21.8858 27.1635 22.3157C25.4771 23.0503 25.0335 23.0739 19.7945 22.7075C16.7285 22.493 13.2729 22.0407 12.1155 21.7022C9.95967 21.0718 7.002 19.3888 7.002 18.7926C7.002 18.6093 6.83882 18.4593 6.63939 18.4593C6.1963 18.4593 5.05051 22.2131 5.05051 23.6647C5.05051 24.243 5.35787 24.9459 5.73353 25.2267C6.15066 25.5386 6.22663 25.7421 5.92868 25.7495C5.38331 25.7632 5.28012 27.2234 5.77071 27.9847C5.94599 28.2568 6.38115 28.3677 6.74048 28.2319C7.44102 27.9672 7.65318 28.6324 6.9958 29.0324C6.42463 29.3801 7.58582 31.1598 9.0536 32.1865C9.97372 32.83 10.3988 32.9341 10.7927 32.6121C11.0795 32.3778 11.3538 32.2539 11.4023 32.3369C11.4508 32.4198 11.6805 32.8263 11.9129 33.2402C12.5167 34.3158 14.8265 34.8535 15.4184 34.0564C16.0087 33.2615 16.2359 33.2897 16.4743 34.1875C16.7774 35.3288 21.2894 35.8272 21.7033 34.7652V34.7652ZM16.7594 30.9824C16.7594 30.6477 17.0375 30.3738 17.3774 30.3738C17.7173 30.3738 17.9259 30.5792 17.8409 30.8302C17.5997 31.5429 16.7594 31.6611 16.7594 30.9824ZM14.3201 27.2244C14.7911 26.7605 15.2943 26.4969 15.4382 26.6386C15.8179 27.0125 14.821 28.0678 14.088 28.0678C13.5862 28.0678 13.6317 27.9022 14.3201 27.2244ZM22.2236 26.8921C22.2236 26.2062 22.3862 25.8154 22.6139 25.9539C22.8286 26.0846 23.0042 26.6137 23.0042 27.1296C23.0042 27.6456 22.8286 28.0678 22.6139 28.0678C22.3992 28.0678 22.2236 27.5387 22.2236 26.8921ZM8.40093 26.9672C8.1015 26.4901 9.60121 25.2512 10.1062 25.5585C10.3378 25.6995 10.4269 25.975 10.3042 26.1706C9.92521 26.7744 8.6222 27.3198 8.40093 26.9672ZM6.6117 24.2861C6.6117 23.7097 8.64461 22.9978 9.07641 23.423C9.34219 23.6848 9.12352 23.9416 8.40619 24.2101C7.11643 24.693 6.6117 24.7144 6.6117 24.2861V24.2861ZM17.54 21.1402C17.54 20.5887 16.1688 20.1511 13.5059 19.8529C10.9726 19.5692 9.173 18.8083 8.80563 17.8656C8.23824 16.4096 8.5605 14.6738 9.53893 13.9159C10.5957 13.0973 10.8229 12.3099 10.0022 12.3099C9.10028 12.3099 7.42205 14.3915 7.32629 15.6291C7.13547 18.0953 9.5504 19.9193 14.4177 20.9852C17.2059 21.5958 17.54 21.6124 17.54 21.1402ZM22.3122 17.5535L23.2968 14.726L21.2623 14.0944C18.7949 13.3285 13.3113 13.2428 12.3226 13.9547C11.7595 14.3602 11.7121 14.6346 12.0528 15.5171C12.2802 16.1059 12.4662 17.076 12.4662 17.6728C12.4662 18.8573 12.6248 18.9177 17.1497 19.4569C18.3304 19.5976 19.5598 19.8578 19.8818 20.0352C21.0272 20.666 21.3395 20.3471 22.3122 17.5535V17.5535ZM23.1994 20.0869C23.5338 19.8449 24.2811 18.2165 26.6335 12.6035C26.9422 11.8668 26.9511 11.4307 26.663 11.147C26.1757 10.6671 24.1718 14.1565 22.9866 17.5489C21.9927 20.3936 22.0374 20.9275 23.1994 20.0869H23.1994ZM28.2893 19.9711C28.7094 19.3018 28.2309 19.1601 27.6956 19.7952C27.3878 20.1605 27.3582 20.381 27.617 20.381C27.8452 20.381 28.1478 20.1965 28.2893 19.9711ZM26.5169 18.4685C26.5169 17.6926 25.9057 17.0914 25.6221 17.5883C25.5296 17.7503 25.3362 18.3675 25.1922 18.9599C24.9514 19.9511 24.9938 20.0037 25.7237 19.619C26.16 19.389 26.5169 18.8713 26.5169 18.4685ZM27.5207 16.2663C26.9686 15.68 26.5169 15.4147 26.5169 15.6768C26.5169 15.9388 26.6643 16.1533 26.8445 16.1533C27.0248 16.1533 27.399 16.6289 27.6763 17.2102C27.954 17.7924 28.2577 18.0572 28.3525 17.7998C28.4472 17.5427 28.0729 16.8527 27.5207 16.2663ZM10.979 16.3454C10.8213 15.0147 10.3368 14.565 10.0317 15.4662C9.7676 16.2464 10.1865 17.6906 10.677 17.6906C10.9747 17.6906 11.0819 17.213 10.979 16.3454ZM16.284 12.3099C19.8716 12.3099 20.4239 11.6604 16.9546 11.5212C12.9059 11.3587 11.6856 11.5063 11.6856 12.1588C11.6856 12.5641 11.8978 12.6962 12.3029 12.5432C12.6425 12.4149 14.434 12.3099 16.284 12.3099ZM21.3373 12.462C21.2076 12.3343 20.871 12.3207 20.5892 12.4316C20.2779 12.5544 20.3704 12.6454 20.8251 12.6639C21.2365 12.6806 21.467 12.5898 21.3373 12.462V12.462ZM33.3192 10.5529C34.2785 9.60826 34.0746 8.85151 32.8592 8.84557C32.2689 8.84267 31.3907 8.73605 30.9078 8.60857C30.1376 8.40533 30.0296 8.52098 30.0296 9.54914C30.0296 10.533 30.2021 10.7472 31.1029 10.8816C31.6932 10.9696 32.2954 11.0676 32.4411 11.0993C32.5867 11.1309 32.9819 10.8851 33.3192 10.5529ZM35.4938 10.603C35.4938 10.5097 35.3181 10.3266 35.1035 10.196C34.8888 10.0654 34.7132 10.1416 34.7132 10.3655C34.7132 10.5893 34.8888 10.7725 35.1035 10.7725C35.3181 10.7725 35.4938 10.6962 35.4938 10.603ZM5.05051 6.33727C5.05051 6.01177 5.41403 5.04377 5.85833 4.18616C6.30263 3.32854 6.57418 2.53629 6.46178 2.4256C6.23182 2.19915 3.6975 4.09844 2.52909 5.37285C1.87709 6.084 1.84825 6.25981 2.33394 6.56233C3.27919 7.15109 5.05051 7.00435 5.05051 6.33727ZM9.73408 6.00106C10.4854 5.7342 11.157 5.22798 11.2265 4.87613C11.3978 4.00935 9.18432 1.86958 8.41652 2.15971C7.81524 2.38691 6.2214 5.24033 6.2214 6.08959C6.2214 6.67084 7.97266 6.62671 9.73408 6.00113V6.00106ZM14.1219 4.17232C15.5299 3.50122 15.477 2.9746 13.9282 2.24733C12.395 1.52738 10.1244 1.00141 10.1244 1.36623C10.1244 1.51105 10.5635 2.14339 11.1001 2.77145C11.6368 3.39949 12.0759 4.17801 12.0759 4.50149C12.0759 5.09941 12.2282 5.07492 14.1219 4.17232Z" fill="#1C2541"/>
</g>
<defs>
<clipPath id="clip0">
<rect width="36.7744" height="36.6452" fill="white" transform="translate(0 0.419373)"/>
</clipPath>
</defs>
</svg>
