<svg width="16" height="16" viewBox="0 0 16 16" fill="none" xmlns="http://www.w3.org/2000/svg">
<g clip-path="url(#clip0)">
<path d="M3.99985 7.00021C3.44673 7.00021 2.99985 7.44708 2.99985 8.0002C2.99985 8.55333 3.44673 9.0002 3.99985 9.0002C4.55298 9.0002 4.99985 8.55333 4.99985 8.0002C4.99985 7.44708 4.54985 7.00021 3.99985 7.00021ZM13.0811 1.81584C11.2249 0.290838 8.79048 -0.312286 6.3936 0.156464C3.27798 0.762713 0.771728 3.25646 0.159227 6.36583C-0.362648 8.99708 0.412353 11.6252 2.27798 13.5721C3.7561 15.1158 5.7061 16.0033 7.52485 16.0033C7.79985 16.0033 8.07173 15.9846 8.34048 15.9408C9.09673 15.8252 9.73423 15.3564 10.0936 14.6564C10.478 13.9064 10.478 13.0096 10.0999 12.2627C9.90923 11.8877 9.92798 11.4439 10.1561 11.0752C10.3749 10.7065 10.7405 10.5002 11.1561 10.5002H13.4124C14.8624 10.5002 15.9999 9.38458 15.9999 7.95958C15.9936 5.57208 14.928 3.33146 13.0811 1.81584ZM13.4124 9.0002H11.1561C10.2217 9.0002 9.3686 9.48145 8.87485 10.2908C8.37485 11.1065 8.33423 12.0971 8.76235 12.9439C8.92173 13.2596 8.92173 13.6533 8.7561 13.9721C8.67485 14.1283 8.48423 14.4002 8.11235 14.4596C6.57173 14.7002 4.70923 13.9408 3.36235 12.5346C1.83735 10.944 1.2061 8.80333 1.6311 6.65958C2.12798 4.14083 4.1561 2.11896 6.6811 1.62834C8.63735 1.24396 10.6217 1.73771 12.128 2.97521C13.6311 4.20958 14.4936 6.02521 14.4999 7.9627C14.4999 8.54395 14.0217 9.0002 13.4124 9.0002ZM4.99985 4.00021C4.44673 4.00021 3.99985 4.44708 3.99985 5.00021C3.99985 5.55333 4.44673 6.00021 4.99985 6.00021C5.55298 6.00021 5.99985 5.55333 5.99985 5.00021C5.99985 4.44708 5.54985 4.00021 4.99985 4.00021ZM7.99985 2.99709C7.44673 2.99709 6.99985 3.44396 6.99985 3.99708C6.99985 4.55021 7.44673 4.99708 7.99985 4.99708C8.55298 4.99708 8.99985 4.55021 8.99985 3.99708C8.99985 3.44708 8.55298 2.99709 7.99985 2.99709ZM10.9999 4.00021C10.4467 4.00021 9.99985 4.44708 9.99985 5.00021C9.99985 5.55333 10.4467 6.00021 10.9999 6.00021C11.553 6.00021 11.9999 5.55333 11.9999 5.00021C11.9999 4.44708 11.553 4.00021 10.9999 4.00021Z" fill="#1C2541"/>
</g>
<defs>
<clipPath id="clip0">
<rect width="16" height="16" fill="white"/>
</clipPath>
</defs>
</svg>
