<svg width="356" height="326" viewBox="0 0 356 326" fill="none" xmlns="http://www.w3.org/2000/svg">
<g filter="url(#filter0_d)">
<rect x="28" y="24" width="300" height="270" fill="white"/>
</g>
<path fill-rule="evenodd" clip-rule="evenodd" d="M182.915 38.1975C217.166 36.4553 256.049 46.0136 273.249 75.8125C289.147 103.355 268.33 135.578 256.07 164.936C247.295 185.95 234.178 202.929 215.048 215.182C191.372 230.348 164.848 250.739 138.882 239.999C112.143 228.939 105.806 195.633 99.3427 167.324C92.8675 138.963 87.5797 108.849 103.369 84.4535C120.937 57.309 150.721 39.8351 182.915 38.1975Z" fill="url(#paint0_linear)"/>
<ellipse cx="166" cy="180.5" rx="38" ry="33.5" fill="white"/>
<ellipse cx="171" cy="103.5" rx="19" ry="16.5" fill="white"/>
<path d="M212 255C212 277.644 191.181 278.5 165.5 278.5C139.819 278.5 119 277.644 119 255C119 232.356 139.819 214 165.5 214C191.181 214 212 232.356 212 255Z" fill="white"/>
<path d="M196.552 262.091C195.972 261.537 195.552 260.234 195.066 257.486C194.693 255.378 194.241 253.469 194.062 253.244C193.883 253.02 193.641 252.402 193.525 251.872C193.408 251.342 192.606 248.566 191.742 245.703C187.861 232.844 187.011 230.995 183.93 228.711C182.767 227.848 181.249 226.956 180.557 226.727C179.866 226.499 179.124 226.179 178.908 226.017C177.547 224.993 165.723 224.658 163.363 225.577C162.803 225.795 161.567 226.059 160.615 226.163C158.709 226.372 155.291 227.079 154.369 227.457C154.045 227.589 153.592 227.738 153.361 227.788C153.13 227.837 151.965 228.332 150.771 228.886C149.577 229.441 148.374 229.894 148.096 229.894C147.629 229.894 145 231.313 144.554 231.806C144.446 231.925 143.67 232.368 142.829 232.79C140.895 233.761 135.327 239.081 134.939 240.328C134.778 240.846 134.226 242.185 133.711 243.304C133.197 244.424 132.776 245.482 132.776 245.655C132.776 245.828 132.499 246.515 132.16 247.181C131.822 247.847 131.654 248.565 131.788 248.778C131.921 248.99 131.668 249.545 131.225 250.012C130.782 250.479 130.42 251.085 130.42 251.359C130.42 252.176 128.483 252.449 127.755 251.734C127.193 251.182 127.178 250.831 127.623 248.696C128.456 244.701 129.69 240.623 130.746 238.377C131.294 237.211 131.754 236.155 131.769 236.031C131.818 235.593 137.051 230.801 138.534 229.835C142.88 227.005 144.548 226.039 145.088 226.039C145.417 226.039 145.796 225.862 145.932 225.647C146.068 225.431 146.343 225.355 146.544 225.477C146.745 225.599 146.91 225.515 146.91 225.29C146.91 225.066 147.224 224.882 147.608 224.882C147.991 224.882 148.654 224.644 149.08 224.353C149.506 224.062 150.429 223.701 151.13 223.551C151.832 223.401 152.406 223.119 152.406 222.924C152.406 222.728 153.025 222.569 153.78 222.569C154.566 222.569 155.155 222.376 155.155 222.119C155.155 221.871 155.271 221.783 155.413 221.923C155.555 222.062 155.875 222.011 156.123 221.808C156.371 221.606 157.536 221.355 158.711 221.25C160.922 221.054 162.811 220.765 162.811 220.624C162.811 220.208 176.427 220.015 177.096 220.421C177.839 220.872 181.98 221.766 182.333 221.551C182.501 221.45 182.638 221.555 182.638 221.784C182.638 222.014 183.035 222.374 183.521 222.584C184.007 222.794 184.934 223.308 185.582 223.725C187.31 224.84 188.443 225.268 189.665 225.268C190.263 225.268 190.884 225.398 191.046 225.557C191.208 225.716 191.723 225.879 192.191 225.919C192.659 225.958 193.837 226.177 194.809 226.405C195.78 226.633 197.017 226.906 197.557 227.012C198.097 227.119 199.349 227.387 200.339 227.609C202.64 228.125 210.886 228.995 211.789 228.817C212.167 228.742 212.476 228.337 212.476 227.916C212.476 227.471 212.652 227.257 212.896 227.405C213.126 227.545 213.211 227.925 213.085 228.249C212.886 228.757 213.195 228.801 215.302 228.567C216.648 228.417 217.929 228.186 218.149 228.053C218.368 227.919 218.816 227.767 219.144 227.715C220.376 227.517 222.116 227.125 222.684 226.918C223.008 226.8 223.604 226.668 224.008 226.625C224.412 226.582 224.907 226.259 225.107 225.907C225.308 225.555 225.79 225.268 226.179 225.268C227.014 225.268 230.418 221.759 230.995 220.303C231.746 218.409 232.498 212.744 232.306 210.423C232.117 208.136 231.962 206.004 231.494 199.242C231.237 195.521 231.057 193.751 230.751 191.916C230.645 191.28 230.273 188.33 229.924 185.361C229.075 178.129 229.065 178.038 228.737 175.002C228.444 172.281 228.423 172.242 224.844 167.512C224.196 166.656 222.881 164.731 221.922 163.233C220.963 161.736 220.116 160.572 220.04 160.647C219.964 160.722 218.872 159.807 217.614 158.613C215.406 156.519 215.096 156.027 214.664 153.937C214.554 153.407 214.278 152.225 214.052 151.31C213.825 150.395 213.74 149.486 213.863 149.291C214.215 148.73 218.164 147.722 220.305 147.645C222.549 147.564 222.321 148.013 223.284 141.792C223.645 139.459 224.099 137.386 224.294 137.184C224.488 136.983 224.647 136.424 224.647 135.943C224.647 134.363 227.633 129.741 229.254 128.812C230.459 128.121 232.446 127.99 233.157 128.555C233.81 129.073 233.455 130.485 232.107 132.731C231.467 133.798 230.86 135.117 230.759 135.662C230.659 136.207 230.402 136.859 230.19 137.111C229.691 137.701 228.182 143.22 228.203 144.376C228.212 144.863 227.862 147.17 227.426 149.503C226.99 151.836 226.629 153.918 226.623 154.13C226.617 154.342 227.117 155.095 227.734 155.804C229.207 157.497 229.359 157.073 229.359 151.266C229.359 147.362 229.459 146.642 230.077 146.093C230.472 145.742 231.075 145.455 231.418 145.455C231.761 145.455 232.109 145.257 232.191 145.015C232.366 144.498 234.463 146.279 234.463 146.945C234.463 147.544 235.725 147.496 236.607 146.863C237.214 146.427 237.503 146.428 238.407 146.87C239 147.161 239.65 147.611 239.853 147.872C240.65 148.895 241.139 152.685 240.934 156.25C240.724 159.913 240.724 159.913 241.712 157.985C242.256 156.925 242.702 155.764 242.704 155.405C242.708 155.047 242.884 154.646 243.1 154.515C243.316 154.384 243.493 153.512 243.493 152.578C243.493 151.334 243.683 150.779 244.203 150.506C245.218 149.973 246.908 150.242 247.865 151.089C249.085 152.17 248.69 155.632 246.961 159.008C245.682 161.506 242.17 165.525 240.299 166.631C239.108 167.335 236.472 167.818 236.198 167.381C236.082 167.197 235.698 167.046 235.345 167.046C234.991 167.046 234.251 166.642 233.699 166.149C232.663 165.222 229.781 164.144 229.014 164.397C228.775 164.475 229.277 165.321 230.13 166.275C231.093 167.353 231.687 168.405 231.698 169.051C231.707 169.624 231.957 170.231 232.253 170.401C233 170.828 233.931 174.358 234.267 178.035C234.637 182.086 234.668 182.334 235.435 187.289C235.797 189.621 236.166 192.311 236.257 193.265C236.348 194.219 236.507 195.607 236.611 196.349C236.715 197.092 236.903 199.694 237.028 202.133C237.153 204.572 237.44 207.868 237.665 209.459C238.136 212.785 238.116 215.244 237.601 217.17C237.402 217.913 237.237 218.867 237.234 219.291C237.225 220.535 236.986 221.761 236.696 222.046C236.547 222.192 236.426 222.55 236.426 222.842C236.426 223.692 234.967 225.295 231.762 227.966C230.617 228.921 229.475 229.769 229.225 229.853C228.975 229.936 228.328 230.293 227.788 230.645C227.249 230.998 226.542 231.266 226.218 231.24C225.894 231.215 225.166 231.415 224.599 231.685C224.033 231.956 223.449 232.059 223.302 231.914C223.155 231.77 222.911 231.846 222.761 232.084C222.611 232.322 221.958 232.611 221.31 232.725C220.662 232.84 219.691 233.036 219.151 233.161C218.611 233.287 217.677 233.411 217.076 233.436C216.474 233.462 215.888 233.632 215.772 233.815C215.657 233.998 215.379 234.036 215.155 233.9C214.93 233.764 213.132 233.653 211.158 233.654C209.184 233.655 205.979 233.42 204.035 233.132C202.092 232.843 200.217 232.695 199.87 232.802C199.523 232.909 199.018 232.736 198.749 232.417C198.371 231.97 198.079 231.933 197.466 232.255C197.006 232.497 196.569 232.526 196.427 232.325C196.116 231.882 192.838 230.93 192.561 231.202C192.446 231.315 192.751 232.238 193.237 233.253C193.724 234.269 194.384 235.967 194.703 237.027C195.023 238.088 195.387 239.121 195.513 239.324C195.638 239.527 195.782 240.048 195.832 240.481C195.963 241.625 197.914 248.844 198.336 249.751C199.257 251.73 199.906 255.533 199.688 257.672C199.337 261.105 199.336 261.109 198.316 262.015C197.361 262.864 197.361 262.864 196.552 262.091V262.091ZM235.486 155.976C235.577 153.602 235.486 152.381 235.224 152.467C234.996 152.541 234.743 154.443 234.642 156.834C234.505 160.08 234.566 160.9 234.905 160.344C235.147 159.944 235.409 157.979 235.486 155.976ZM160.259 214.43C158.423 214.282 156.215 213.886 155.351 213.55C154.487 213.214 153.425 212.889 152.992 212.828C152.558 212.767 151.767 212.418 151.236 212.052C150.704 211.686 149.877 211.387 149.398 211.387C148.918 211.387 148.406 211.196 148.259 210.962C148.112 210.728 147.439 210.289 146.764 209.986C146.088 209.683 145.006 209.106 144.358 208.704C143.71 208.302 142.946 207.961 142.661 207.945C142.114 207.915 139.358 205.488 136.393 202.423C135.419 201.415 134.426 200.591 134.187 200.591C133.948 200.591 133.508 200.027 133.208 199.338C132.909 198.649 132.38 197.738 132.033 197.314C129.449 194.158 128.492 189.004 129.275 182.469C129.465 180.879 129.647 178.97 129.679 178.228C129.71 177.486 129.959 176.358 130.231 175.722C131.406 172.972 131.418 173.003 128.964 172.425C125.136 171.523 122.89 168.595 125.21 167.528C126.613 166.883 128.779 166.92 130.812 167.625C131.731 167.943 132.638 168.203 132.83 168.203C133.022 168.203 133.574 167.379 134.057 166.372C134.54 165.364 135.156 164.311 135.426 164.031C135.696 163.751 135.916 163.353 135.916 163.147C135.916 162.692 136.33 162.193 140.124 158.061C141.241 156.844 143.837 155.423 149.347 153.011C150.147 152.661 150.913 152.199 151.048 151.985C151.525 151.226 158.697 148.138 160.544 147.895C161.575 147.76 162.531 147.481 162.668 147.275C162.81 147.061 165.118 146.911 168.025 146.927C174.511 146.962 179.102 148.028 180.65 149.859C180.928 150.189 181.294 150.375 181.463 150.272C182.105 149.882 187.675 155.739 189.494 158.717C190.516 160.392 192.131 162.854 193.081 164.189C194.031 165.524 194.809 166.876 194.809 167.192C194.809 167.509 195.018 168.256 195.273 168.853C195.528 169.45 195.783 170.199 195.84 170.517C196.845 176.126 196.684 180.256 195.133 188.638C194.493 192.097 193.978 193.678 192.792 195.822C191.956 197.334 191.007 198.787 190.684 199.05C190.362 199.313 190.097 199.699 190.097 199.908C190.097 200.332 188.668 202.187 187.161 203.718C186.617 204.271 186.171 204.922 186.171 205.164C186.171 205.406 185.9 205.604 185.57 205.604C185.239 205.604 184.808 205.994 184.613 206.471C184.418 206.948 184.247 207.214 184.233 207.062C184.219 206.91 182.616 207.981 180.67 209.442C174.958 213.73 169.163 215.146 160.259 214.43V214.43ZM171.643 208.808C177.308 207.192 185.562 199.609 188.645 193.189C190.71 188.887 191.656 176.067 190.29 170.889C189.332 167.256 186.165 161.798 183.325 158.883C182.947 158.496 182.638 158.037 182.638 157.865C182.638 156.96 175.901 152.217 174.098 151.852C172.578 151.545 163.596 151.865 161.24 152.31C158.85 152.762 154.317 154.22 153.838 154.691C153.646 154.879 153.269 154.951 153 154.85C152.732 154.749 151.914 155.018 151.183 155.449C150.452 155.879 149.015 156.673 147.989 157.212C146.964 157.75 146.124 158.362 146.124 158.57C146.124 158.779 145.874 158.949 145.567 158.949C144.187 158.949 138.272 166.901 138.272 168.756C138.272 169.077 138.872 169.486 139.654 169.698C143.024 170.612 144.17 171.635 144.155 173.716C144.149 174.651 143.895 175.089 142.929 175.83C142.393 176.241 142.049 176.188 140.88 175.51C140.108 175.063 139.293 174.807 139.07 174.943C138.847 175.078 138.665 175.027 138.665 174.829C138.665 174.463 136.318 173.85 136.024 174.138C135.936 174.225 135.44 175.808 134.922 177.656C133.682 182.084 133.434 189.662 134.464 191.686C134.831 192.408 135.131 193.188 135.132 193.421C135.132 193.653 135.574 194.348 136.113 194.964C136.653 195.58 137.094 196.209 137.094 196.362C137.094 196.515 138.752 198.333 140.778 200.402C143.249 202.925 144.626 204.063 144.96 203.86C145.251 203.684 145.638 203.789 145.89 204.115C146.411 204.788 149.265 206.54 149.265 206.187C149.265 206.049 149.776 206.294 150.4 206.73C151.024 207.166 151.863 207.581 152.265 207.652C152.667 207.723 153.629 208.051 154.404 208.382C156.498 209.274 157.026 209.385 160.451 209.655C162.176 209.79 163.632 209.944 163.685 209.997C163.92 210.228 169.685 209.367 171.643 208.808ZM166.54 198.646C165.353 198.292 163.498 197.54 162.418 196.974C160.205 195.814 156.332 191.957 156.332 190.913C156.332 190.535 156.176 190.131 155.985 190.015C155.794 189.899 155.556 189.26 155.457 188.595C155.286 187.452 155.394 187.331 157.39 186.434C158.553 185.911 159.766 185.582 160.085 185.702C160.836 185.985 165.383 184.855 166.148 184.195C166.472 183.915 167.267 183.558 167.915 183.402C168.562 183.245 171.124 182.076 173.608 180.803C176.091 179.53 178.755 178.18 179.527 177.803C180.3 177.426 181.161 176.847 181.44 176.516C182.14 175.688 183.553 175.762 184.391 176.671C184.97 177.299 185.04 177.805 184.806 179.659C184.651 180.887 184.276 182.476 183.974 183.191C183.671 183.906 183.423 184.82 183.423 185.221C183.423 185.986 183.301 186.285 181.92 188.908C181.451 189.798 181.067 190.796 181.067 191.125C181.067 191.454 180.846 191.723 180.576 191.724C180.307 191.724 179.589 192.496 178.983 193.439C176.923 196.641 173.326 199.034 170.323 199.199C169.43 199.249 167.728 199 166.54 198.646V198.646ZM172.681 193.811C174.618 192.388 177.604 188.091 177.388 187.04C177.36 186.903 177.654 186.448 178.041 186.028C178.428 185.608 178.699 185.113 178.644 184.927C178.59 184.742 178.765 184.2 179.035 183.722C179.506 182.887 179.021 182.437 178.515 183.24C178.382 183.453 177.863 183.626 177.362 183.626C176.862 183.626 176.232 183.886 175.963 184.204C175.694 184.522 175.253 184.783 174.982 184.783C174.711 184.783 174.269 185.043 174 185.361C173.731 185.679 173.273 185.939 172.981 185.939C172.69 185.939 171.519 186.353 170.379 186.859C169.24 187.364 166.982 188.155 165.363 188.616C160.373 190.036 160.541 189.791 163.007 192.043C164.749 193.634 165.622 194.122 167.522 194.567C170.204 195.194 170.95 195.084 172.681 193.811V193.811ZM172.61 165.781C171.622 164.947 171.591 164.816 172.019 163.256C172.267 162.351 172.364 161.283 172.235 160.882C171.864 159.734 173.484 158.178 175.052 158.178C177.046 158.178 177.996 159.329 177.682 161.363C177.543 162.262 177.188 163.272 176.893 163.607C176.597 163.942 176.356 164.388 176.356 164.6C176.356 165.112 174.656 166.661 174.095 166.661C173.851 166.661 173.183 166.265 172.61 165.781V165.781ZM150.688 165.693C149.899 165.117 149.937 164.566 150.956 161.841C151.317 160.879 151.956 160.082 152.657 159.721C153.275 159.402 153.89 158.995 154.024 158.816C154.343 158.386 156.336 160.507 156.32 161.259C156.313 161.579 156.054 162.17 155.744 162.573C155.434 162.975 155.256 163.426 155.35 163.574C155.619 164.003 153.486 165.768 152.406 166.01C151.845 166.136 151.11 166 150.688 165.693ZM165.363 135.791C164.607 135.4 163.788 135.145 163.542 135.226C163.288 135.309 163.17 135.093 163.268 134.725C163.466 133.982 161.6 132.731 160.296 132.731C159.844 132.731 159.455 132.514 159.432 132.249C159.272 130.388 159.316 128.105 159.531 127.041C159.674 126.334 159.612 125.682 159.391 125.547C159.136 125.393 159.152 125.214 159.437 125.041C159.679 124.894 160.085 123.802 160.339 122.614C160.718 120.838 160.703 120.34 160.252 119.806C159.686 119.136 156.456 117.017 154.161 115.809C153.443 115.43 152.135 114.355 151.256 113.419C149.762 111.828 149.662 111.579 149.724 109.596C149.76 108.43 149.909 107.216 150.054 106.897C150.2 106.579 150.701 105.538 151.168 104.584C151.634 103.63 152.015 102.694 152.015 102.504C152.014 102.314 153.083 101.159 154.39 99.9377C156.411 98.0497 157.971 97.0822 161.845 95.3152C162.841 94.8606 166.615 94.3989 168.504 94.5005C175.966 94.9016 182.652 99.3091 183.968 104.695C184.285 105.991 183.562 108.564 182.408 110.249C181.944 110.926 180.437 112.314 179.058 113.334C175.969 115.618 175.044 117.652 175.409 121.356C175.879 126.125 175.737 129.392 174.999 130.803C174.205 132.32 172.816 133.751 172.299 133.585C172.11 133.525 171.534 133.922 171.019 134.468C170.305 135.224 167.087 136.803 166.786 136.545C166.759 136.522 166.118 136.183 165.363 135.791H165.363ZM168.425 129.569C168.971 129.032 169.06 127.718 168.549 127.718C168.359 127.718 168.093 128.022 167.96 128.393C167.827 128.764 167.615 129.285 167.489 129.55C167.198 130.163 167.807 130.176 168.425 129.569V129.569ZM168.896 123.87C168.896 123.549 165.68 123.037 165.399 123.313C165.302 123.408 165.538 123.711 165.922 123.987C166.63 124.495 168.896 124.405 168.896 123.87V123.87ZM168.086 110.464C168.111 108.44 168.111 108.44 166.768 108.44C165.448 108.44 165.431 108.46 165.755 109.693C165.937 110.382 166.178 111.727 166.291 112.681C166.405 113.635 166.626 115.022 166.783 115.762C167.067 117.096 167.073 117.088 167.565 114.798C167.837 113.528 168.072 111.577 168.086 110.464ZM162.799 114.09C162.442 112.378 160.99 108.348 160.508 107.731C159.891 106.942 160.201 103.7 160.947 103.138C161.955 102.378 163.322 102.567 163.983 103.558C164.38 104.152 165.018 104.488 165.857 104.543C166.557 104.588 167.557 104.673 168.079 104.731C168.722 104.802 169.363 104.469 170.065 103.697C171.433 102.194 172.684 102.502 173.053 104.433C173.288 105.666 173.402 105.762 174.393 105.548C175.384 105.334 175.497 105.429 175.734 106.667C176.106 108.614 175.338 109.702 173.789 109.422C172.761 109.236 172.588 109.326 172.531 110.076C172.494 110.555 172.358 111.363 172.228 111.873C172 112.766 172.044 112.755 173.402 111.584C174.178 110.915 175.027 110.362 175.29 110.355C175.921 110.339 177.559 108.888 178.417 107.583C179.625 105.748 179.321 104.417 177.239 102.425C176.213 101.444 175.021 100.488 174.589 100.3C174.157 100.113 173.539 99.7979 173.215 99.6009C171.313 98.4441 166.38 97.3483 165.975 97.9925C165.829 98.2248 165.123 98.4149 164.406 98.4149C163.689 98.4149 162.889 98.6685 162.627 98.9784C162.365 99.2882 161.769 99.6594 161.303 99.8031C160.836 99.9468 160.076 100.431 159.613 100.878C159.149 101.326 158.233 102.187 157.577 102.791C156.032 104.215 154.242 108.533 154.576 110.029C154.8 111.028 156.392 112.681 157.131 112.681C157.296 112.681 158.553 113.355 159.925 114.178C161.296 115.002 162.561 115.592 162.735 115.491C162.91 115.39 162.939 114.759 162.799 114.09V114.09ZM188.263 121.871C185.851 120.658 185.408 118.531 187.413 117.788C188.455 117.402 188.913 117.44 190.26 118.026C191.142 118.41 192.069 118.97 192.32 119.269C193.016 120.1 192.508 121.786 191.416 122.275C190.167 122.834 190.18 122.836 188.263 121.871V121.871ZM135.671 119.326C135.429 119.17 135.112 118.507 134.967 117.851C134.646 116.397 135.495 115.538 137.091 115.702C137.683 115.763 138.413 115.572 138.713 115.278C139.496 114.509 141.706 114.14 142.075 114.718C142.831 115.901 142.584 116.955 141.243 118.272C140.053 119.441 139.618 119.621 137.991 119.615C136.958 119.612 135.914 119.482 135.671 119.326ZM140.863 102.251C139.17 101.011 137.88 99.4712 137.88 98.6905C137.88 97.377 140.175 96.6734 141.47 97.59C141.961 97.9377 143.077 98.5692 143.949 98.9933C145.278 99.6392 145.556 99.9785 145.663 101.082C145.757 102.045 145.598 102.506 145.075 102.795C143.791 103.503 142.312 103.312 140.863 102.251ZM192.906 101.986C192.009 101.148 191.275 100.268 191.275 100.03C191.275 99.2464 193.005 98.6498 195.552 98.5558C196.932 98.5048 198.563 98.259 199.176 98.0095C200.719 97.382 201.394 97.7509 201.708 99.392C202.044 101.152 201.409 101.85 198.839 102.543C194.745 103.648 194.678 103.641 192.906 101.986V101.986ZM180.773 89.8268C180.071 89.6114 179.497 89.2869 179.497 89.1055C179.497 88.9241 179.232 88.7757 178.908 88.7757C178.091 88.7757 178.154 87.1194 179.006 86.1598C181.069 83.8374 184.281 81.4498 185.342 81.4498C187.985 81.4498 187.883 83.486 185.083 86.6287C184.062 87.7744 182.962 89.0507 182.638 89.465C182.136 90.1065 181.859 90.1602 180.773 89.8268ZM158.001 87.3769C157.299 87.0329 156.725 86.4682 156.725 86.1218C156.725 85.7755 156.283 84.6774 155.744 83.6815C154.186 80.8078 154.568 79.522 156.98 79.522C158.545 79.522 159.932 81.1635 160.564 83.7632C161.492 87.5871 160.702 88.701 158.001 87.3769V87.3769Z" fill="#1C2541"/>
<defs>
<filter id="filter0_d" x="0" y="0" width="356" height="326" filterUnits="userSpaceOnUse" color-interpolation-filters="sRGB">
<feFlood flood-opacity="0" result="BackgroundImageFix"/>
<feColorMatrix in="SourceAlpha" type="matrix" values="0 0 0 0 0 0 0 0 0 0 0 0 0 0 0 0 0 0 127 0"/>
<feOffset dy="4"/>
<feGaussianBlur stdDeviation="14"/>
<feColorMatrix type="matrix" values="0 0 0 0 0 0 0 0 0 0 0 0 0 0 0 0 0 0 0.06 0"/>
<feBlend mode="normal" in2="BackgroundImageFix" result="effect1_dropShadow"/>
<feBlend mode="normal" in="SourceGraphic" in2="effect1_dropShadow" result="shape"/>
</filter>
<linearGradient id="paint0_linear" x1="186" y1="38" x2="186" y2="243" gradientUnits="userSpaceOnUse">
<stop stop-color="#FFD6BA"/>
<stop offset="1" stop-color="#F7D6E0"/>
</linearGradient>
</defs>
</svg>
