<svg width="891" height="372" viewBox="0 0 891 372" fill="none" xmlns="http://www.w3.org/2000/svg">
<path d="M716.265 79.9602C696.772 80.1699 667.261 102.884 663.378 124.69C659.495 146.495 674.328 199.403 674.328 199.403C674.328 199.403 664.155 242.315 650.798 266.847C637.441 291.378 637.13 325.695 635.655 350.856C637.441 383.774 806.66 367.559 806.298 354.728C805.936 341.896 803.243 345.055 801.923 306.755C800.603 268.455 792.06 254.687 792.06 254.687C792.06 254.687 790.896 240.428 790.973 229.385C791.051 218.343 778.626 159.984 777.15 130.63C775.674 101.276 735.757 79.7505 716.265 79.9602ZM558.956 87.7498C504.323 87.6284 511.98 112.885 513.834 150.264C511.191 191.027 556.146 209.593 594.033 193.079C631.92 176.565 638.189 91.918 570.732 88.1162C566.516 87.8787 562.598 87.7579 558.956 87.7498ZM118.395 109.315C97.9554 109.564 82.2247 125.193 70.1994 146.174C38.6487 243.415 157.511 217.279 163.795 184.013C171.914 141.028 154.421 116.354 128.811 110.474C125.21 109.647 121.74 109.275 118.395 109.315ZM295.324 112.651C294.721 112.639 294.113 112.642 293.504 112.657C268.428 113.301 238.629 136.746 232.638 164.826C226.235 239.138 330.908 247.869 330.019 161.08C329.665 126.562 314.033 113.009 295.324 112.651ZM436.405 134.608C411.814 134.94 383.676 155.961 373.84 196.882C377.603 269.471 475.554 265.195 478.194 189.1C479.473 152.242 459.504 134.296 436.405 134.608ZM552.681 220.073C493.087 220.063 489.868 310.92 489.546 327.395C493.992 346.596 605.913 369.155 606.044 340.226C606.558 227.598 620.896 224.808 557.069 220.234C555.573 220.126 554.111 220.073 552.681 220.073ZM136.721 239.896C111.508 240.056 83.097 253.541 79.9678 270.918C74.5556 300.976 99.2418 364.951 99.2418 364.951C157.062 387.346 188.612 360.675 188.612 360.675C188.612 360.675 185.048 306.559 175.742 264.503C171.816 246.76 155.119 239.78 136.721 239.896ZM295.65 243.384C292.772 243.384 289.661 243.667 286.299 244.247C229.703 254.006 234.016 236.65 224.519 355.328C288.345 379.861 330.06 357.824 330.06 357.824C329.683 305.848 338.822 243.351 295.65 243.384ZM425.24 264.922C423.234 264.901 421.212 264.979 419.184 265.142C379.384 268.35 375.687 306.248 368.559 353.829C364.856 374.49 467.252 372.041 470.284 354.316C481.815 286.909 455.325 265.216 425.24 264.922Z" fill="white"/>
<path d="M59.371 42.7424C57.5746 42.7169 55.1563 42.9167 51.8399 43.3065C41.3635 44.5377 40.6005 44.9961 35.4042 53.1889C29.1708 63.0186 27.6687 78.6645 32.7703 80.6223C34.9813 81.4708 33.5582 84.8591 26.1292 96.4232C4.91008 129.454 -5.19372 174.315 2.64378 200.706C9.27718 223.045 35.5064 254.542 52.8558 261.004L63.0429 264.799L65.3445 289.121C68.2664 319.993 68.7649 321.951 73.6978 321.951C76.9083 321.951 77.4918 321.052 76.7602 317.225C76.1545 314.056 76.7044 312.498 78.43 312.498C79.9612 312.498 81.029 314.603 81.0691 317.696C81.1805 326.483 86.0474 350.863 89.1833 358.346C92.098 365.301 96.9187 367.743 98.5112 363.072C98.9541 361.772 97.775 357.732 95.8901 354.092C91.9178 346.423 86.6775 320.881 86.6775 309.189C86.6775 303.05 87.3973 301.155 89.7325 301.155C92.8338 301.155 92.7794 299.223 89.361 288.073C88.2043 284.299 88.5071 283.711 91.0986 284.705C92.8259 285.368 94.2249 285.724 94.2065 285.497C94.1897 285.269 92.6104 279.061 90.6975 271.7L87.2203 258.315L93.3324 254.126C103.498 247.16 124.008 240.65 135.639 240.695C156.284 240.776 167.524 249.764 172.574 270.233C174.97 279.948 180.431 330.091 181.705 354.076C182.171 362.86 185.015 365.347 190.534 361.8C192.8 360.345 192.861 358.792 190.911 352.282C188.968 345.797 186.525 325.096 182.245 278.05C182.245 278.05 208.818 275.869 225.4 273.068C223.201 275.917 219.836 297.66 217.907 321.483C217.062 331.929 217.431 339.896 219.025 345.589C221.418 354.138 224.563 356.944 224.847 350.784C226.371 317.76 230.138 287.531 233.925 277.917C235.742 273.306 236.5 272.908 239.949 274.754C244.212 277.036 249.273 276.003 249.273 272.852C249.273 271.78 247.623 270.903 245.604 270.903C241.051 270.903 238.71 267.476 241.417 264.769C242.855 263.331 244.344 263.494 246.561 265.334C249.235 267.553 250.022 267.462 252.05 264.687C253.352 262.907 255.39 261.45 256.579 261.45C257.851 261.45 258.543 258.956 258.261 255.385C257.813 249.72 258.278 249.211 265.344 247.679C269.503 246.777 279.804 245.594 288.235 245.053C302.891 244.111 303.614 244.254 304.668 248.282C305.487 251.415 306.767 252.236 309.654 251.481C312.972 250.614 313.372 251.129 312.397 255.012C311.533 258.453 312.022 259.559 314.408 259.559C316.141 259.559 317.034 260.412 316.39 261.454C315.745 262.495 317.29 264.135 319.823 265.098C323.411 266.462 324.682 268.656 325.57 275.022C328.099 293.117 328.804 323.847 327.059 339.912C325.063 358.287 326.372 362.881 332.002 357.254C334.884 354.374 335.299 349.814 335.299 320.857L335.835 292.134L340.561 293.436C343.16 294.152 366.679 296.187 374.195 291.879C373.39 296.941 372.83 291.067 367.833 320.061C362.866 348.875 362.877 353.037 367.912 353.752C371.863 354.313 372.166 353.64 372.19 344.297C372.229 329.826 378.453 301.724 384.418 289.116C390.719 275.797 399.811 269.25 416.218 266.22C433.857 262.962 447.739 266.969 442.149 273.705C438.854 277.675 441.377 279.839 445.961 276.976C450.474 274.158 451.573 274.106 451.573 276.711C451.573 279.285 455.354 283.046 459.529 284.627C465.277 286.803 469.363 305.518 469.453 330.066L469.534 352.36L474.091 351.809C478.545 351.27 478.638 350.893 478.217 335.186C477.783 318.988 474.317 296.875 470.766 287.66C468.912 282.85 469.218 282.531 479.39 278.639C485.19 276.419 490.213 274.882 490.554 275.223C490.895 275.564 490.233 279.198 489.083 283.299C486.412 292.827 485.908 326.499 488.427 327.202C489.485 327.497 491.261 319.247 492.496 308.295C495.626 280.54 498.374 270.987 503.827 268.914C508.551 267.117 509.722 264.131 506.166 262.946C502.539 261.737 506.16 251.063 514.307 238.925C524.402 223.891 534.19 219.855 560.576 219.855C578.492 219.855 578.673 219.902 577.356 224.11C574.569 233.012 575.167 235.951 579.665 235.475C582.372 235.188 583.919 236.048 583.919 237.839C583.919 241.958 589.634 241.272 594.661 236.549C599.061 232.416 603.559 233.113 599.39 237.281C595.43 241.242 596.701 244.958 601.593 243.73C606.917 242.394 607.753 247.158 605.654 263.169C605.011 303.113 606.418 316.303 602.391 329.864C598.117 344.621 611.429 350.587 611.343 328.127C612.035 319.288 611.175 311.958 611.293 297.337C611.343 291.126 611.37 286.251 611.423 281.932C616.948 281.533 627.19 277.158 639.876 269.748C644.195 267.225 643.524 270.076 643.009 271.959C640.309 281.826 636.517 298.645 635.559 305.003C634.357 312.985 632.329 340.268 632.504 346.095C632.704 352.719 636.52 351.38 638.795 345.003C639.096 344.16 639.883 335.524 640.544 325.812C641.92 305.622 642.878 299.416 647.318 281.936C652.099 263.112 660.381 251.775 668.591 242.777C670.324 240.877 673.844 238.112 675.735 235.097C679.633 228.881 680.723 227.95 678.109 233.068C677.032 235.176 676.214 238.572 676.004 241.797C675.686 246.7 675.854 247.362 678.366 251.134C683.069 258.194 687.073 256.081 684.837 247.719C683.652 243.288 683.651 240.878 684.837 237.993L685.777 235.707L686.415 238.954C686.766 240.741 687.076 244.029 687.105 246.262C687.181 252.281 688.53 256.141 691.837 259.802C694.554 262.809 695.056 263.041 697.994 262.647C700.1 262.365 701.827 262.633 703.047 263.432C704.451 264.352 705.297 264.436 706.531 263.775C707.609 263.198 708.33 263.179 708.663 263.718C709.501 265.073 712.156 264.632 713.34 262.941C713.993 262.01 715.872 261.125 717.878 260.804C720.275 260.421 721.841 259.565 723.102 257.95L724.904 255.644L724.626 260.55C724.314 266.056 725.715 268.592 729.07 268.592C731.807 268.592 733.259 265.773 734.438 258.17C735.009 254.49 735.839 251.402 736.281 251.307C736.722 251.212 737.599 252.305 738.229 253.736C739.654 256.973 741.222 257.625 743.693 256.006C746.292 254.303 746.389 248.821 743.868 246.137L742.127 244.285L744.177 238.089C745.304 234.682 746.4 232.204 746.612 232.582C746.823 232.961 746.62 235.897 746.16 239.106C745.23 245.592 745.931 247.48 749.27 247.48C752.669 247.48 753.985 242.878 754.065 230.703C754.103 224.821 754.381 219.762 754.683 219.461C756.031 218.112 758.661 220.342 761.552 225.286C765.036 231.242 767.488 232.978 770.107 231.343C771.942 230.196 772.747 230.686 778.18 236.252C780.396 238.523 781.212 240.134 781.517 242.842C782.88 252.985 793.248 263.146 795.869 273.713C799.535 284.849 802.505 297.32 801.658 314.545C800.492 338.251 798.598 349.648 800.197 353.241C801.06 355.09 803.198 354.976 806.265 352.773C808.636 350.087 808.254 337.409 809.175 309.772C809.646 295.643 806.999 277.027 802.235 267.227C813.117 277.482 833.3 288.845 842.192 270.871C851.542 246.413 852.208 243.245 852.122 187.224C851.85 177.438 857.825 178.664 862.153 178.448C877.884 177.665 886.14 170.4 886.081 165.347C886.068 164.249 886.994 162.112 888.11 160.599C890.603 157.22 890.722 153.437 888.427 150.519C886.78 148.425 886.769 148.278 888.156 146.745C890.162 144.528 890.018 140.386 887.874 138.65C886.503 137.54 886.244 136.673 886.61 134.422C887.205 130.751 885.819 128.267 882.373 126.827C877.858 124.94 870.625 127.182 861.867 133.181C859.938 134.503 854.832 135.935 854.635 135.738C853.831 134.934 857.431 122.313 859.327 117.277C860.282 114.682 862.322 105.489 854.472 111.808C850.438 115.642 850.458 117.66 847.87 127.803C846.515 133.113 844.863 139.285 844.2 141.518C842.441 147.435 841.824 159.339 842.999 164.665C844.188 170.057 844.178 208.686 842.984 222.435C842.544 227.502 841.848 236.058 841.438 241.449C840.383 254.546 833.238 285.77 809.899 262.58C800.325 253.17 798.709 251.179 795.85 245.273C793.259 239.918 792.789 238.283 793.474 237.003C794.814 234.499 794.474 227.172 792.812 222.716C791.654 219.61 791.174 215.316 790.766 204.446C790.339 193.058 789.825 188.692 788.181 182.456C786.423 175.79 786.237 173.987 786.888 169.87C787.345 166.974 787.361 162 786.928 157.351C786.533 153.109 785.88 144.887 785.477 139.082C785.074 133.276 784.165 126.881 783.458 124.871C781.599 119.589 781.725 119.188 785.241 119.188C788.912 119.188 791.556 117.538 790.846 115.69C790.473 114.716 788.988 114.332 784.905 114.151L779.462 113.91L775.05 107.415C772.622 103.842 770.03 100.181 769.288 99.2792C768.546 98.3773 766.403 95.5838 764.526 93.0719C762.649 90.56 759.544 87.2289 757.624 85.6688C753.448 82.274 737.06 73.9422 732.8 73.0489C729.304 72.3154 721.996 73.275 718.959 74.8658C717.142 75.8179 716.399 75.7566 713.22 74.3938C707.892 72.1101 702.338 72.9902 693.499 77.5187C686.395 81.1586 680.967 85.6755 675.629 92.3925C674.032 94.4022 671.595 97.3257 670.214 98.8887C667.823 101.595 662.788 110.795 662.788 112.459C662.788 112.891 661.863 113.665 660.734 114.18C657.843 115.497 656.812 118.42 658.669 120.032C660.025 121.209 660.035 121.647 658.834 127.542L657.559 133.804H654.03C650.426 133.804 647.36 134.909 647.36 136.21C647.36 137.862 650.001 139.363 653.834 139.89L657.916 140.452L657.949 149.104C657.967 153.863 658.462 160.497 659.05 163.847C659.929 168.847 659.932 171.17 659.073 176.838C658.497 180.634 657.472 185.285 656.795 187.173C655.663 190.333 655.065 193.422 654.987 196.683C655.348 208.819 657.89 216.93 657.895 227.586C657.857 232.841 656.271 238.309 653.535 243.287C649.346 242.001 643.091 238.965 636.926 235.648C637.305 233.986 637.628 232.303 637.874 230.623C641.713 218.555 637.487 209.063 636.345 201.512C631.629 170.335 632.871 159.118 623.916 131.557C617.499 111.801 620.781 109.106 609.717 98.766C599.134 88.876 588.052 81.8579 567.919 81.9207C558.561 81.9497 545.8 83.6356 542.16 84.7736C538.52 85.9115 530.661 88.2037 524.696 89.8666C512.452 93.2795 508.309 98.5297 507.919 111.125C507.213 133.992 505.995 139.832 501.81 140.429C496.238 141.223 496.645 146.256 502.391 147.613C508.402 149.032 510.705 158.765 507.29 168.322C502.223 182.498 500.6 188.835 497.677 205.859C493.913 227.785 494.395 233.448 500.092 234.257C504.946 234.947 505.102 234.543 502.326 228.45C497.889 218.713 511.313 168.235 516.076 176.746C517.264 178.869 515.989 185.28 511.99 197.288C508.793 206.89 505.977 218.149 505.734 222.308C505.36 228.704 505.841 229.894 509.275 230.432C504.611 237.526 499.156 249.04 496.709 257.468C494.516 265.022 493.346 266.184 483.807 270.257C478.038 272.721 471.793 275.604 469.931 276.665C465.178 279.373 463.015 277.397 463.471 270.764C463.772 266.402 464.966 264.822 468.59 263.987C476.68 262.123 495.059 253.465 495.059 251.517C495.059 249.46 493.444 249.844 477.173 255.769C469.668 258.501 463.985 259.458 460.157 258.632C453.266 257.146 449.658 257.11 429.382 258.321C412.041 259.357 404.467 261.404 391.808 268.48C384.388 272.627 381.581 273.156 371.374 272.337C352.177 270.796 320.862 253.388 326.731 247.519C329.762 244.489 329.045 242.544 324.9 242.544C322.82 242.544 321.12 243.445 321.12 244.546C321.12 245.647 320.268 246.023 319.228 245.38C318.188 244.737 317.337 242.726 317.337 240.911C317.337 237.912 315.223 237.675 294.177 238.321C281.439 238.711 266.064 240.245 260.012 241.728C252.371 243.6 247.928 243.848 245.483 242.539C240.558 239.903 237.931 240.189 237.931 243.358C237.931 244.845 236.015 246.333 233.675 246.665C230.53 247.112 229.57 248.342 229.99 251.381C230.703 256.55 226.836 257.234 207.678 255.328C190.242 253.593 178.33 249.411 177.989 244.905C175.766 215.563 171.078 187.742 168.038 185.863C166.57 184.956 166.256 182.111 167.117 177.525C168.067 172.456 169.919 169.791 173.931 167.715C179.846 164.657 179.496 160.334 173.488 162.241C170.262 163.265 169.865 162.394 169.848 154.284C169.837 148.579 168.071 141.396 165.122 135.062C162.532 129.499 160.413 124.181 160.413 123.244C160.413 116.728 138.999 106.833 122.325 105.644C112.085 104.914 90.4979 112.507 79.9614 120.543C63.971 132.74 50.7557 165.129 56.1744 178.845C58.4745 184.668 63.0558 253.562 61.2622 255.355C59.4953 257.123 43.7282 246.385 36.3705 238.402C-6.9514 190.597 11.9005 134.619 41.0741 88.7386C42.1779 88.7386 44.675 90.3752 47.9714 91.5671C55.562 94.3118 73.0843 96.1769 75.6535 74.4372C79.1555 64.187 82.8706 68.5334 85.3423 56.5549C84.6898 55.9028 82.6958 55.3677 80.9106 55.3677C79.1253 55.3677 77.2196 53.6675 76.6757 51.5878C76.0138 49.0566 74.0969 47.8059 70.8769 47.8059C68.2319 47.8059 65.3388 46.5031 64.4473 44.9107C63.6324 43.454 62.3662 42.785 59.3723 42.7424H59.371ZM51.0717 82.5493C51.5308 82.5489 52.0502 82.5615 52.6325 82.5821C55.7528 82.6929 58.0254 83.6333 57.6821 84.6731C56.6831 87.6968 51.5484 87.9091 49.1553 85.0255C47.5773 83.1245 47.8566 82.5528 51.0717 82.5504V82.5493ZM715.32 84.3948C716.689 84.386 718.09 84.418 719.522 84.4911C726.161 84.8297 728.562 85.3733 735.459 88.1005C743.631 91.3325 748.842 94.2463 753.584 98.2369C756.644 100.811 765.095 112.382 765.095 113.995C765.095 114.793 764.035 115.128 761.508 115.128C759.535 115.128 753.984 115.199 753.308 115.459C752.498 115.77 751.659 115.119 750.846 113.547C748.484 108.979 734.844 105.35 723.585 106.294C716.722 106.869 713.614 108.386 711.9 111.997C710.759 114.402 711.777 114.953 708.488 115.404C702.297 116.253 703.884 116.221 702.573 112.138C700.576 105.917 698.518 104.956 687.49 105.094L678.226 105.21L679.64 102.745C680.419 101.389 682.816 98.3338 684.968 95.9576C691.832 88.3778 702.085 84.4791 715.32 84.3948V84.3948ZM576.544 89.0169C577.44 89.0248 576.958 91.3783 575.47 94.2539C571.463 102.004 570.731 116.164 574.301 116.892C576.359 117.311 577.914 114.253 579.973 105.73C581.533 99.2731 583.843 93.662 585.104 93.2602C586.753 92.7353 586.553 95.0083 584.395 101.342C581.651 109.381 581.651 110.416 584.383 113.148C587.115 115.879 587.55 115.688 589.346 110.965C590.429 108.117 591.314 104.992 591.314 104.02C591.314 103.048 592.075 102.252 593.005 102.252C593.977 102.252 594.032 105.202 593.133 109.185C591.862 114.82 592.433 117.821 596.182 125.219C601.386 135.488 606.373 154.722 606.405 164.643C606.433 174.609 600.619 182.439 589.111 187.918H589.118C583.57 190.559 576.479 193.116 573.36 193.602C550.013 197.953 519.236 179.018 513.177 147.873C520.233 148.553 522.072 141.01 513.239 140.502C513.348 139.334 513.803 138.292 513.803 136.288C513.803 130.248 521.187 112.453 525.201 108.821C528.881 105.491 528.934 105.536 527.816 111.127C526.979 115.312 527.466 117.135 529.64 117.97C531.818 118.805 533.648 116.75 536.531 110.231C540.468 101.333 547.105 92.7989 550.089 92.7989C550.965 92.7989 549.49 97.1232 546.812 102.408C541.716 112.465 541.257 120.213 545.758 120.213C547.214 120.213 548.729 118.087 549.126 115.488C549.887 110.503 558.882 95.6505 560.288 97.057C560.741 97.5101 559.859 101.431 558.328 105.771C556.797 110.111 556.043 114.965 556.655 116.557C558.418 121.151 563.437 118.834 564.04 113.148C564.671 107.205 574.088 89.0307 576.543 89.0169H576.544ZM279.722 90.091C276.437 90.1084 273.145 91.6348 270.296 94.6676C267.124 98.0444 263.875 99.3945 258.917 99.3945C254.498 99.3945 250.794 100.701 248.723 102.989C246.934 104.966 242.685 107.105 239.28 107.744C224.886 115.472 226.398 119.188 227.434 130.597C227.163 137.013 232.38 136.666 230.792 136.666C224.874 136.803 217.51 145.015 224.693 153.428C227.216 156.381 223.743 161.441 222.58 162.603C221.022 164.161 221.52 165.374 224.471 167.217C230.1 170.732 229.899 179.704 224.143 181.893C218.465 184.051 214.86 188.54 215.385 192.801C215.616 194.682 215.304 198.806 208.912 202.904C207.196 206.77 209.569 211.619 209.569 213.254C209.569 214.89 207.78 218.648 205.592 221.607C200.923 227.922 202.069 234.354 208.316 236.876H208.311C212.594 238.605 223.887 238.303 225.781 236.408C226.388 235.802 225.926 233.513 224.754 231.323C222.187 226.528 224.316 221.553 226.934 226.23C227.881 227.923 230.265 229.309 232.232 229.309C234.198 229.309 236.333 230.161 236.976 231.201C238.634 233.884 245.015 233.548 245.964 230.728C246.589 228.872 247.418 228.906 249.821 230.89C253.378 233.826 257.552 232.031 256.081 228.198C255.487 226.65 257.074 224.529 259.96 223.017C264.003 220.899 262.828 220.027 268.508 222.056C280.57 226.366 295.179 225.408 306.741 217.346L312.222 213.524C308.992 219.353 312.278 220.828 315.111 222.608C317.52 225.584 323.744 225.879 326.425 225.028C328.742 224.292 330.258 224.661 330.258 225.96C330.258 229.91 338.338 226.968 342.358 221.555C346.108 216.506 342.669 211.863 339.546 209.574C337.726 208.241 336.236 205.785 336.236 204.117C336.236 201.094 337.254 192.921 334.412 193.868C333.426 191.549 327.365 192.09 327.19 192.208C328.547 188.038 329.665 183.576 329.665 183.576C336.414 185.116 339.057 178.23 331.757 176.869C331.254 176.25 333.625 171.608 333.203 160.26C343.116 159.065 338.77 154.186 333.485 153.476C340.233 145.868 335.473 131.412 332.596 126.959C337.165 118.421 323.337 108.848 314.883 108.848C312.519 108.848 309.088 107.194 307.259 105.173C305.431 103.152 301.577 100.982 298.697 100.349C295.815 99.7163 291.5 97.1149 289.108 94.5692C286.287 91.5659 283.009 90.0745 279.724 90.091H279.723H279.722ZM280.695 96.5575C282.601 96.5575 284.516 97.6217 284.95 98.9215C285.448 100.418 283.888 101.284 280.695 101.284C277.502 101.284 275.943 100.418 276.442 98.9215C276.875 97.6217 278.789 96.5575 280.695 96.5575ZM520.674 99.2263C520.748 99.222 520.816 99.2257 520.88 99.2358C521.183 99.2849 521.36 99.5027 521.36 99.8982C521.36 100.938 520.084 102.848 518.524 104.143C516.942 105.456 515.687 105.66 515.687 104.605C515.687 103.565 516.964 101.656 518.524 100.362C519.389 99.6437 520.157 99.2567 520.674 99.2263V99.2263ZM259.064 103.175C260.043 103.175 260.843 104.027 260.843 105.066C260.843 106.106 259.518 106.956 257.896 106.956C256.275 106.956 255.474 106.106 256.117 105.066C256.76 104.027 258.086 103.175 259.064 103.175ZM276.08 108.848C277.058 108.848 277.86 109.698 277.86 110.738C277.86 111.778 276.532 112.628 274.911 112.628C273.289 112.628 272.49 111.778 273.133 110.738C273.776 109.698 275.101 108.848 276.08 108.848ZM687.744 109.762C691.763 109.8 695.119 110.375 696.475 111.367C697.952 112.447 698.98 118.043 698.238 120.966C697.976 121.997 696.926 123.377 695.905 124.031C693.82 125.366 673.696 126.101 672.936 124.87C672.701 124.49 673.384 121.138 674.456 117.421L676.405 110.662L681.979 110.053C683.954 109.837 685.917 109.744 687.744 109.762V109.762ZM292.04 110.738C293.599 110.738 294.876 111.588 294.876 112.628C294.876 113.668 293.599 114.519 292.04 114.519C290.479 114.519 289.204 113.668 289.204 112.628C289.204 111.588 290.479 110.738 292.04 110.738ZM724.498 110.966C732.137 110.884 741.776 112.243 744.417 114.515C746.362 116.188 746.448 116.585 745.893 121.359C745.439 125.277 744.91 126.674 743.562 127.513C741.296 128.923 734.67 129.523 730.045 128.736C728.035 128.394 724.26 127.871 721.656 127.574C718.634 127.229 716.356 126.47 715.363 125.477C713.664 123.778 713.286 119.892 714.684 118.494C715.315 117.863 715.261 117.133 714.497 115.909C713.586 114.45 713.638 113.995 714.85 112.783C716.051 111.583 719.915 111.015 724.498 110.966V110.966ZM242.054 112.439V112.44C242.697 112.419 243.125 112.636 243.125 113.187C243.689 113.751 242.376 115.162 240.208 116.322C237.473 117.785 236.265 117.815 236.265 116.417C236.265 114.697 240.125 112.5 242.054 112.439V112.439ZM668.474 112.617C669.016 112.541 668.944 113.813 668.212 116.151C667.689 117.821 666.956 119.188 666.583 119.188C665.772 119.188 666.714 114.233 667.73 113.152C668.046 112.817 668.294 112.642 668.474 112.617V112.617ZM693.31 115.217C692.666 115.243 691.956 115.666 691.067 116.472C689.126 118.227 689.184 120.414 691.224 122.455C694.413 125.643 698.291 121.041 695.721 117.118C694.86 115.804 694.138 115.182 693.31 115.217V115.217ZM724.178 116.432C723.607 116.45 723.048 116.606 722.545 116.92C720.694 118.076 720.622 123.312 722.432 125.122C725.554 128.244 730.136 123.962 728.442 119.506C727.709 117.579 725.891 116.381 724.178 116.432V116.432ZM139.614 117.76C141.694 117.76 143.395 118.61 143.395 119.65C143.395 120.69 141.694 121.541 139.614 121.541C137.535 121.541 135.832 120.69 135.832 119.65C135.832 118.61 137.535 117.76 139.614 117.76ZM283.997 118.28C291.991 118.257 300.959 119.66 307.545 122.04C320.192 126.609 326.388 139.22 327.782 146.651C329.509 155.86 327.224 155.679 323.605 149.01C318.954 143.179 312.367 143.743 305.634 144.313C297.116 145.036 291.765 146.066 290.056 152.876C285.561 161.95 284.908 146.382 271.366 145.389C259.062 144.486 253.419 144.565 249.838 153.457C246.884 159.398 245.662 160.225 240.564 159.728C234.884 159.175 238.912 159.823 240.169 153.06C243.034 137.654 249.828 136.621 259.99 122.397C262.84 121.836 266.373 122.451 268.691 121.139C272.153 119.18 277.78 118.298 283.997 118.28V118.28ZM751.968 118.167L761.644 118.545L767.937 118.782L769.41 123.248C773.446 135.483 771.073 153.661 763.476 168.71C761.186 173.247 760.816 173.59 758.23 173.59C756.699 173.59 755.188 174.012 754.87 174.526C754.454 175.199 754.043 175.127 753.401 174.272C752.911 173.618 751.871 172.843 751.089 172.55C750.306 172.256 749.67 171.186 749.67 170.165C749.67 169.146 748.879 165.635 747.909 162.361C745.73 155.009 740.131 148.035 736.903 148.652C735.528 148.915 734.274 148.328 732.571 146.625C728.545 142.599 726.19 145.536 729.342 150.652C731.221 153.7 733.969 154.165 734.92 151.595C735.442 150.184 735.917 150.833 737.742 155.452C741.16 164.102 744.125 181.026 742.409 182.087C741.935 182.379 741.548 182.093 741.548 181.452C741.548 180.81 740.969 179.805 740.262 179.218C738.408 177.679 736.471 179.177 735.352 183.016L734.429 186.176L733.543 183.944C732.308 180.831 729.519 180.938 728.308 184.146C727.241 186.973 725.692 187.326 725.055 184.888C724.351 182.195 721.831 183.302 720.867 186.726C719.736 190.746 719.119 191.157 718.543 188.278C717.943 185.277 715.077 183.466 713.486 185.082C712.894 185.684 711.896 187.175 711.268 188.396C709.948 190.966 709.07 190.531 709.07 187.307C709.07 184.601 707.826 183.63 706.146 185.025C705.47 185.586 703.918 186.155 702.696 186.289C700.866 186.489 700.31 186.095 699.541 184.058C698.82 182.15 698.187 181.646 696.767 181.851C695.657 182.011 694.752 182.84 694.487 183.938C694.107 185.511 693.842 185.261 692.546 182.111C690.883 178.069 689.072 177.38 688.291 180.492C687.466 183.781 686.182 182.814 686.404 179.071C686.808 172.261 686.413 169.53 685.023 169.53C684.029 169.53 683.82 168.992 684.154 167.297C685.23 161.829 687.755 155.045 689.888 151.89C692.364 148.226 692.27 145.983 689.639 145.983C687.807 145.983 684.991 148.683 684.197 151.201C683.905 152.127 682.439 154.321 680.94 156.076C679.44 157.831 678.214 159.907 678.214 160.69C678.214 161.473 677.483 162.345 676.59 162.629C675.696 162.912 674.966 163.485 674.966 163.902C674.966 164.318 674.612 164.658 674.18 164.658C672.845 164.658 669.282 151.487 669.282 146.55V141.923H673.216C677.299 141.923 679.838 140.302 679.838 137.696C679.838 135.791 678.208 134.827 673.907 134.187C670.535 133.685 670.04 133.372 670.253 131.878C670.439 130.573 670.998 130.199 672.53 130.352C673.647 130.463 678.435 130.605 683.17 130.668C690.819 130.77 692.287 130.551 696.308 128.711C700.727 126.687 703.385 123.583 703.385 120.446C703.385 119.086 703.419 118.871 708.288 119.676C711.082 120.138 709.577 120.231 709.963 123.654C710.441 127.895 712.753 130.721 716.97 132.218C720.732 133.554 744.426 133.469 746.964 132.11C749.432 130.79 751.968 125.4 751.968 121.481V118.167ZM96.0086 118.82C97.5442 118.794 99.7204 119.505 103.691 120.935C108.37 122.62 121.134 124.509 132.052 125.133L151.903 126.267L156.454 135.448C158.957 140.497 161.41 148.842 161.905 153.993C162.708 162.347 162.369 163.472 158.773 164.413C154.131 165.627 153.269 170.698 157.704 170.698C159.898 170.698 160.332 171.802 159.379 174.952C155.652 187.258 144.835 198.856 131.647 204.687C126.745 206.855 116.962 209.036 109.905 209.534C99.1887 210.29 95.6728 209.735 88.5664 206.167L80.0585 201.895L79.4575 189.605C78.1954 163.793 84.5988 129.304 92.1716 121.125C93.5768 119.608 94.4724 118.845 96.0086 118.82V118.82ZM603.582 119.268C605.705 119.268 608.93 129.871 613.211 150.937C613.685 153.276 613.775 155.19 613.408 155.19C611.665 155.19 610.216 152.293 610.181 148.73C610.159 146.564 608.114 139.049 605.637 132.03C602.322 122.638 601.78 119.268 603.582 119.268V119.268ZM437.738 128.64C432.271 128.61 427.149 129.497 420.892 131.222C413.33 133.307 405.258 136.236 402.955 137.731C400.652 139.225 396.382 140.448 393.468 140.448C385.931 140.448 374.545 148.851 371.185 156.894C368.052 164.392 368.989 170.698 373.237 170.698C376.421 170.698 376.565 171.506 374.16 175.924C373.177 177.729 371.861 182.396 371.237 186.296C370.376 191.684 369.216 193.386 366.407 193.386C361.736 193.386 361.557 197.22 366.171 198.427C368.425 199.016 370.426 202.44 371.917 208.259C377.192 228.842 393.553 244.169 414.376 248.037C430.264 250.988 448.53 247.244 457.762 239.146C460.333 236.891 461.635 236.724 463.34 238.429C464.563 239.652 466.67 240.652 468.021 240.652C470.852 240.652 471.374 233.866 468.672 232.196C464.647 229.709 468.929 225.69 474.432 226.791C480.754 228.055 481.106 227.185 476.879 220.735C473.396 215.418 474.441 214.867 480.49 218.83C483.351 220.704 485.597 221.007 487.513 219.776C489.614 218.426 489.757 217.592 488.072 216.499C486.443 215.443 486.299 212.934 487.554 207.519C490.247 195.901 489.704 168.675 486.569 158.116C483.118 146.494 473.673 136.32 463.688 133.467C452.367 130.233 444.768 128.679 437.738 128.64V128.64ZM535.459 128.773C527.948 128.808 526.939 132.734 527.91 136.176C528.993 140.016 533.605 134.577 536.538 134.635C540.157 134.708 543.438 138.484 543.699 133.92C543.852 131.26 540.43 128.75 535.459 128.773ZM570.393 131.484C565.842 131.551 563.146 135.18 562.954 137.36C562.579 141.61 568.88 137.276 572.168 137.006C574.672 136.8 579.507 142.527 579.971 137.449C580.101 136.016 577.615 132.281 575.275 131.88C573.564 131.587 571.91 131.462 570.393 131.484V131.484ZM429.62 133.831C430.56 133.873 431.388 134.237 431.772 134.859C432.387 135.853 431.137 136.667 428.996 136.667C424.431 136.667 423.971 135.615 427.879 134.116C428.451 133.896 429.056 133.806 429.62 133.831V133.831ZM440.118 134.776C441.097 134.776 442.423 135.627 443.065 136.667C443.707 137.707 442.907 138.557 441.286 138.557C439.665 138.557 438.337 137.707 438.337 136.667C438.337 135.627 439.14 134.776 440.118 134.776ZM463.752 139.194C464.054 139.164 464.416 139.262 464.806 139.503C465.846 140.146 466.698 141.046 466.698 141.505C466.698 141.964 465.846 142.339 464.806 142.339C463.767 142.339 462.917 141.438 462.917 140.337C462.917 139.649 463.249 139.244 463.752 139.194V139.194ZM430.552 142.339C431.592 142.339 432.969 143.19 433.611 144.23C434.254 145.27 433.93 146.12 432.889 146.12C431.849 146.12 430.473 145.27 429.83 144.23C429.188 143.19 429.512 142.339 430.552 142.339ZM703.607 143.238C703.197 143.235 702.725 143.335 702.191 143.538C701.157 143.931 699.57 144.058 698.663 143.821C697.405 143.492 696.506 144.162 694.858 146.652C692.215 150.646 692.378 153.578 695.266 153.977C696.382 154.131 697.949 154.954 698.748 155.804C700.329 157.488 700.89 157.636 702.248 156.729C703.727 155.742 704.816 153.102 705.428 149.02C706.002 145.196 705.385 143.252 703.607 143.238V143.238ZM710.466 143.999C709.23 143.887 708.362 145.828 707.863 149.818C707.377 153.707 707.511 154.579 708.731 155.471C709.937 156.353 710.416 156.307 711.652 155.188C713.585 153.438 713.698 146.668 711.825 144.795C711.332 144.301 710.878 144.036 710.466 143.999V143.999ZM716.316 144.382C715.979 144.403 715.673 144.769 715.133 145.497C713.901 147.158 714.259 152.095 715.741 153.9C716.922 155.336 718.593 155.158 719.547 153.494C720.3 152.181 720.46 152.211 721.663 153.9C723.114 155.936 724.499 156.212 725.958 154.752C727.271 153.44 727.185 151.262 725.706 148.403C724.022 145.145 721.29 143.718 720.031 145.439C719.178 146.607 718.961 146.597 717.684 145.339C717.021 144.685 716.653 144.361 716.316 144.382V144.382ZM139.5 144.627C137.241 144.697 135.286 147.64 136.468 150.72C137.093 152.349 138.509 153.683 139.614 153.683C142.677 153.683 144.176 148.035 141.756 145.615C141.04 144.899 140.253 144.603 139.5 144.627ZM410.083 146.12C411.255 146.12 417.072 149.528 423.011 153.694C434.832 161.986 451.991 168.807 461.027 168.807C467.893 168.807 470.299 173.486 471.847 189.851C472.675 198.6 472.008 202.346 468.103 210.876C462.395 223.342 451.94 235.369 443.208 239.513C430.388 245.596 405.419 241.995 395.144 232.581C381.61 220.182 377.851 204.432 378.48 196.433C383.64 196.097 384.032 190.957 378.17 190.628C377.822 176.971 395.323 146.909 410.083 146.12ZM440.324 146.161C445.061 146.203 461.027 152.662 461.027 154.536C461.027 155.973 459.554 155.723 448.737 152.446C437.586 149.067 433.616 146.102 440.324 146.161V146.161ZM111.7 149.902C106.898 149.902 105.799 151.267 106.978 155.774C108.285 160.773 113.917 159.578 114.694 154.136C115.138 151.022 114.346 149.902 111.7 149.902ZM310.52 150.59C310.996 150.58 311.47 150.58 311.94 150.593C316.77 150.723 321.115 152.137 321.864 156.753C322.804 162.547 320.716 167.096 315.179 168.607C308.947 170.308 305.358 170.887 298.85 169.647C292.609 168.457 291.125 153.654 301.253 151.718C303.772 151.236 307.188 150.659 310.52 150.59V150.59ZM384.831 150.657C384.887 150.665 384.925 150.687 384.961 150.723C385.575 151.337 384.222 154.346 381.957 157.411C379.691 160.475 377.836 163.867 377.836 164.949C377.836 166.031 376.987 166.916 375.946 166.916C374.906 166.916 374.056 166.263 374.056 165.465C374.056 162.884 383.228 150.405 384.831 150.657V150.657ZM264.27 150.699C274.227 150.543 287.731 155.361 279.227 166.672C276.022 170.321 262.032 170.945 256.898 167.954C253.032 165.703 252.231 157.649 255.742 153.076C257.02 151.583 260.373 150.76 264.27 150.699V150.699ZM623.528 153.299C626.531 153.299 629.855 180.145 629.961 205.251C629.977 209.056 630.099 211.725 630.27 213.641C628.824 213.511 627.108 212.67 626.091 211.499C624.849 210.068 623.003 208.597 621.989 208.231C620.81 207.806 620.773 204.495 621.884 199.058C622.839 194.378 620.228 196.525 620.906 181.187C621.584 165.849 622.763 153.299 623.528 153.299ZM437.075 153.739C438.482 153.774 440.187 154.397 441.377 155.587C442.425 156.635 447.063 158.679 451.683 160.128C457.621 161.991 458.696 162.772 455.354 162.799C449.201 162.848 434.557 157.65 434.557 155.416C434.557 154.256 435.667 153.703 437.075 153.739V153.739ZM532.906 154.35C531.441 154.362 530.537 154.424 530.341 154.544C527.256 156.436 529.339 162.145 535.555 168.83C544.401 178.344 549.623 181.504 559.401 183.261C573.855 185.859 586.48 179.916 588.087 169.758C589.753 159.23 586.154 157.564 557.283 155.5C546.754 154.747 537.303 154.317 532.906 154.35V154.35ZM303.12 157.04C299.47 157.172 297.618 159.678 300.722 162.782C303.551 165.611 307.903 164.489 307.903 160.889C307.903 159.416 307.124 157.467 304.784 157.134C304.199 157.051 303.641 157.021 303.12 157.04ZM268.573 157.603C265.621 157.437 263.59 160.299 265.344 163.135C266.824 165.532 271.388 165.59 272.846 163.231C273.457 162.243 272.775 159.335 270.73 158.24C269.985 157.842 269.255 157.642 268.573 157.603ZM68.21 158.324C69.0503 158.278 69.161 162.86 68.4852 170.778C66.7033 191.632 65.1543 191.029 65.8513 169.752C66.0213 164.553 66.9558 159.485 67.9264 158.489C68.029 158.384 68.1231 158.329 68.21 158.324ZM327.922 159.669C327.94 159.663 327.955 159.665 327.969 159.676C328.043 159.735 328.061 160.034 328.051 160.53C327.892 168.433 327.145 173.774 325.491 176.55C318.928 175.254 315.291 179.782 322.316 182.921C310.279 220.529 279.151 229.186 251.469 203.514C246.115 198.548 236.675 184.177 235.721 173.112C235.171 166.726 235.589 166.084 241.237 164.62C246.698 163.205 246.945 164.487 251.892 170.023C256.656 175.355 259.65 175.424 267.287 175.424C275.08 175.424 278.593 173.402 283.36 167.692C285.817 161.189 289.085 163.849 290.842 168.731C292.57 171.498 294.269 173.194 297.882 174.386C306.279 177.157 321.97 174.858 325.013 166.799C326.892 161.818 327.651 159.762 327.922 159.669V159.669ZM545.87 160.017C554.037 159.914 568.58 161.517 575.078 162.817C580.477 163.897 582.244 164.518 580.803 170.907C579.057 178.236 572.472 178.857 563.946 179.207C554.717 179.587 534.409 164.528 540.361 160.763C541.132 160.275 543.148 160.051 545.87 160.017V160.017ZM691.057 160.729C689.704 160.717 689.582 161.321 689.582 162.532C689.582 166.094 696.483 171.422 704.603 174.129C716.84 178.209 740.656 168.639 734.239 162.221C732.829 160.812 732.406 160.79 727.601 161.89C724.777 162.536 721.408 163.424 720.113 163.862C716.104 165.219 708.201 164.733 699.912 162.621C694.992 161.368 692.41 160.741 691.057 160.729V160.729ZM421.392 167.461C419.177 167.361 417.215 168.984 417.215 170.85C417.215 172.982 418.868 174.554 421.795 174.138C424.135 173.806 426.048 172.683 426.048 171.643C425.762 168.119 423.447 167.629 421.392 167.461V167.461ZM392.688 170.978C389.095 170.904 387.716 174.275 390.507 177.066C392.71 179.269 397.69 177.458 397.69 174.454C396.882 172.046 394.661 171.111 392.688 170.978V170.978ZM614.712 176.672C618.528 176.691 617.271 202.962 612.224 212.393C604.411 216.786 605.562 215.815 606.21 212.721C608.162 203.436 610.338 191.818 611.045 186.903C611.752 181.988 613.131 177.47 614.111 176.864C614.323 176.733 614.524 176.671 614.712 176.672V176.672ZM90.7229 185.862C89.4932 185.898 88.3447 186.543 87.5262 187.867C86.0713 190.222 95.2463 200.581 100.855 202.916C106.985 205.468 111.456 204.97 120.143 200.765C127.78 197.068 133.637 190.559 131.369 188.291C130.824 187.746 127.889 189.075 124.845 191.242C111.792 200.536 100.88 200.222 96.4149 190.423C95.052 187.432 92.7734 185.802 90.7229 185.862V185.862ZM250.944 185.901C249.872 185.895 249.272 186.681 249.272 188.305C249.272 191.018 256.54 198.693 260.55 202.301C271.365 212.031 297.047 203.502 299.634 196.225C301.505 191.352 299.782 191.404 289.425 196.53C276.794 202.781 268.133 201.547 259.653 192.289C255.83 188.115 252.73 185.91 250.944 185.901V185.901ZM523.82 186.212C523.854 186.207 523.885 186.208 523.915 186.216C525.054 186.504 523.456 196.211 521.343 200.566C520.587 202.126 518.837 209.204 517.455 216.295C516.675 220.3 516.429 222.031 516.537 222.566C515.113 223.576 513.844 224.678 512.723 225.879C513.655 215.305 517.48 193.817 523.469 186.444C523.603 186.303 523.721 186.229 523.82 186.212V186.212ZM226.455 186.918C229.018 186.846 232.256 189.404 232.256 191.874C232.256 192.706 230.13 193.386 227.53 193.386C222.472 193.386 220.932 188.836 225.409 187.118C225.736 186.993 226.089 186.929 226.455 186.918ZM603.725 189.943C603.899 189.931 604.019 189.952 604.077 190.01C605.255 191.188 602.613 203.399 600.729 205.507C599.883 206.455 596.834 207.481 593.953 207.788C591.073 208.095 587.777 209.63 586.631 211.197C584.961 213.482 579.89 214.029 561.073 213.951C545.033 213.884 533.192 215.301 524.662 218.416C525.21 210.774 527.471 196.516 531.574 191.692C532.456 190.853 532.577 195.271 531.844 201.511C530.577 212.286 530.674 212.694 533.812 209.636C535.629 207.866 537.115 203.825 537.115 200.656C537.115 197.486 537.331 194.893 537.594 194.893C537.857 194.893 543.444 196.27 550.012 197.953C566.167 202.092 582.638 200.677 594.32 194.148C598.609 191.751 602.506 190.025 603.725 189.943V189.943ZM452.948 191.756C451.512 191.745 449.616 192.182 447.292 193.099C436.987 197.164 405.919 206.617 402.657 206.681C400.965 206.714 397.971 207.958 396.006 209.446C392.601 212.023 392.587 212.384 395.677 217.1C397.46 219.822 401.621 223.267 404.922 224.756C412.005 227.95 426.512 226.812 435.325 222.371C446.69 217.498 452.065 209.19 454.476 200.153C456.233 193.569 456.62 191.785 452.948 191.756V191.756ZM443.712 200.948C450.251 200.948 440.235 213.502 429.979 218.16C425.738 220.086 419.24 221.683 415.539 221.705C408.145 221.751 401.133 217.788 403.068 214.658C404.25 212.744 439.221 200.948 443.712 200.948ZM322.003 204.73C325.375 204.73 326.369 205.517 325.582 207.566C324.984 209.125 322.884 210.403 320.915 210.403C318.947 210.403 317.336 209.125 317.336 207.566C317.336 205.81 319.115 204.73 322.003 204.73V204.73ZM218.378 206.738C219.373 206.688 220.863 207.998 222.479 210.586C223.841 212.767 224.676 214.83 224.336 215.171C222.931 216.575 217.132 211.898 217.132 209.362C217.132 207.637 217.605 206.777 218.378 206.738ZM154.473 208.512C155.532 208.512 156.944 212.15 157.611 216.597C158.992 225.805 158.174 238.769 156.391 235.925C154.126 232.312 152.461 208.512 154.473 208.512ZM144.618 209.387C144.8 209.381 144.917 209.401 144.962 209.447C145.323 209.808 146.087 215.276 146.661 221.597L147.703 233.09L137.514 233.118C126.835 233.147 100.777 240.302 93.1546 245.296C84.8285 250.752 84.2097 249.634 81.777 224.757C80.574 212.454 80.7063 211.783 84.0606 213.194C96.1227 218.27 117.359 217.889 133.911 212.301C138.913 210.612 143.347 209.418 144.618 209.388V209.387ZM593.372 216.074C594.412 216.074 595.263 216.925 595.263 217.964C595.263 219.004 594.412 219.854 593.372 219.854C592.333 219.854 591.482 219.004 591.482 217.964C591.482 216.925 592.333 216.074 593.372 216.074ZM697.447 218.585C697.539 218.607 697.669 218.704 697.838 218.873C698.31 219.345 698.536 220.21 698.341 220.796C698.138 221.404 697.771 221.036 697.483 219.938C697.263 219.094 697.221 218.654 697.368 218.59C697.39 218.58 697.417 218.578 697.447 218.585V218.585ZM213.507 223.636C214.461 223.636 215.24 225.764 215.24 228.363C215.24 233.293 212.5 234.818 210.995 230.726C209.868 227.659 211.293 223.636 213.507 223.636V223.636ZM632.004 223.637C633.361 223.637 633.17 227.777 632.163 233.022C629.501 231.522 627.049 230.083 624.845 228.756C626.651 225.609 629.248 223.637 632.004 223.637V223.637ZM588.003 225.628C589.024 225.691 589.473 227.406 588.484 229.983C587.828 231.692 586.532 233.089 585.604 233.089C583.449 233.089 583.497 231.008 585.733 227.473C586.57 226.15 587.388 225.591 588.002 225.628H588.003ZM784.066 225.838C784.14 225.849 784.228 225.974 784.326 226.217C784.56 226.803 784.531 227.503 784.261 227.773C783.991 228.043 783.799 227.563 783.835 226.707C783.859 226.116 783.943 225.82 784.066 225.838V225.838ZM736.237 225.982C736.352 225.957 736.496 226.09 736.677 226.368C737.11 227.038 737.469 228.592 737.475 229.82C737.483 231.048 737.123 232.053 736.677 232.053C736.23 232.053 735.87 230.5 735.877 228.602C735.883 226.865 735.986 226.039 736.237 225.982ZM694.753 228.338C694.786 228.333 694.821 228.333 694.858 228.338C695.057 228.362 695.328 228.519 695.672 228.804C696.342 229.36 696.89 230.48 696.89 231.292C696.89 233.52 695.518 233.91 694.963 231.84C694.346 229.54 694.268 228.409 694.753 228.338V228.338ZM612.573 234.013C613.432 234.311 614.279 234.632 615.116 234.976V234.981C614.474 236.021 613.572 236.871 613.114 236.871C612.656 236.871 612.282 236.021 612.282 234.981C612.282 234.626 612.393 234.298 612.575 234.013L612.573 234.013ZM621.948 238.235C624.561 239.615 627.147 241.073 629.78 242.471C628.337 247.13 626.601 251.39 624.974 253.46C623.934 254.785 623.571 256.36 624.17 256.959C626.609 259.397 630.949 253.381 634.206 244.703C638.897 246.906 643.886 248.643 649.596 249.136C647.342 251.91 644.704 254.381 641.774 256.376C632.785 262.469 622.138 270.546 613.011 274.296C612.452 274.525 612.032 274.711 611.563 274.912C611.769 267.697 612.2 261.369 613.274 251.662C613.195 242.783 616.708 247.295 618.84 245.163C619.88 244.123 621.099 241.325 621.948 238.235V238.235ZM179.197 254.205C179.894 254.183 180.968 254.626 182.466 255.42C186.61 257.617 210.379 261.45 219.857 261.45C228.729 261.45 228.488 264.418 219.495 265.92C215.595 266.572 205.459 267.655 196.969 268.326L181.533 269.545L179.532 262.295C177.945 256.547 177.662 254.253 179.197 254.205ZM333.795 267.473C334.53 267.387 335.688 268.126 337.137 268.742C348.463 273.558 363.456 278.636 370.427 279.681C378.101 280.832 379.315 279.037 377.405 283.387C376.765 284.844 377.012 284.108 376.425 285.263C363.897 289.336 336.854 286.893 335.454 283.959C335.2 283.428 334.084 279.015 333.324 273.91C332.601 269.058 332.849 267.583 333.795 267.473V267.473ZM70.5116 276.189C70.7556 276.229 71.0877 277.02 71.5507 278.465C72.3837 281.065 73.1503 285.107 73.2533 287.447C73.357 289.787 72.5904 291.7 71.5507 291.7C70.511 291.7 69.7439 287.659 69.8481 282.72C69.9439 278.145 70.1043 276.122 70.5116 276.189V276.189ZM72.2523 294.231C72.5524 294.301 72.9889 294.919 73.6237 296.009C75.7851 299.722 75.2264 308.037 72.9687 305.745C72.1892 304.953 71.5761 301.682 71.6079 298.475C71.6357 295.699 71.7455 294.365 72.1317 294.235C72.1692 294.223 72.2094 294.221 72.2523 294.231V294.231Z" fill="#1C2541"/>
</svg>
