<svg xmlns="http://www.w3.org/2000/svg" viewBox="0 0 434.66345 181.41492" height="181.41492mm" width="434.66345mm">
    <path d="M 1321.6152 141.96289 C 1285.5605 142.3507 1230.9752 184.36375 1223.793 224.69727 C 1216.6108 265.03078 1244.0469 362.89258 1244.0469 362.89258 C 1244.0469 362.89258 1225.2301 442.26543 1200.5234 487.64062 C 1175.8167 533.01578 1175.2429 596.49065 1172.5137 643.0293 C 1175.8175 703.91741 1488.8164 673.92525 1488.1465 650.19141 C 1487.4766 626.45752 1482.4966 632.29917 1480.0547 561.45703 C 1477.6128 490.61485 1461.8105 465.14844 1461.8105 465.14844 C 1461.8105 465.14844 1459.6572 438.77497 1459.8008 418.34961 C 1459.9445 397.92425 1436.9617 289.98067 1434.2324 235.68555 C 1431.5031 181.39043 1357.6698 141.57509 1321.6152 141.96289 z M 1030.6465 156.37109 C 929.59398 156.1464 943.75574 202.86233 947.18555 272.00195 C 942.29741 347.39906 1025.4491 381.7403 1095.5273 351.19531 C 1165.6046 320.65021 1177.201 164.08082 1052.4277 157.04883 C 1044.6291 156.60938 1037.3827 156.38611 1030.6465 156.37109 z M 215.75586 196.25977 C 177.94871 196.71916 148.85226 225.62763 126.60938 264.43555 C 68.251101 444.29956 288.10715 395.95645 299.73047 334.42578 C 314.74761 254.91732 282.39098 209.27985 235.02148 198.40234 C 228.36034 196.87266 221.94187 196.18459 215.75586 196.25977 z M 543.01562 202.42969 C 541.89936 202.40833 540.77579 202.41245 539.64844 202.44141 C 493.26623 203.63254 438.14772 246.99828 427.06641 298.93555 C 415.22401 436.38822 608.83393 452.53806 607.18945 292.00781 C 606.5349 228.16105 577.61998 203.0917 543.01562 202.42969 z M 803.9668 243.04297 C 758.48343 243.65684 706.43705 282.53903 688.24414 358.22852 C 695.2035 492.49471 876.38067 484.58476 881.26367 343.83594 C 883.62905 275.66078 846.69394 242.46633 803.9668 243.04297 z M 1019.0391 401.125 C 908.80986 401.1061 902.85718 569.16187 902.26172 599.63477 C 910.48503 635.15019 1117.5004 676.87592 1117.7441 623.36719 C 1118.6944 415.04436 1145.2139 409.88216 1027.1562 401.42188 C 1024.3887 401.22345 1021.6842 401.12538 1019.0391 401.125 z M 249.65234 437.79102 C 203.01612 438.08582 150.46574 463.03024 144.67773 495.17188 C 134.66699 550.76823 180.32813 669.10156 180.32812 669.10156 C 287.27665 710.52416 345.63281 661.19141 345.63281 661.19141 C 345.63281 661.19141 339.04199 561.09568 321.82812 483.30469 C 314.56638 450.48663 283.6831 437.57585 249.65234 437.79102 z M 543.61719 444.24219 C 538.29403 444.24219 532.54016 444.76575 526.32227 445.83789 C 421.63733 463.88971 429.61649 431.78647 412.04883 651.30078 C 530.10645 696.67885 607.26563 655.91797 607.26562 655.91797 C 606.56732 559.78009 623.47172 444.18141 543.61719 444.24219 z M 783.31641 484.08008 C 779.60582 484.04228 775.86487 484.18539 772.11523 484.48828 C 698.49711 490.42161 691.65908 560.52016 678.47461 648.5293 C 671.62524 686.74467 861.02475 682.21554 866.63281 649.42969 C 887.96038 524.74969 838.96375 484.62399 783.31641 484.08008 z" transform="scale(0.26458334)" fill="#fff"/>
    <path d="M 109.58203,77.958984 C 106.26643,77.911854 101.80286,78.280548 95.681641,79 76.345092,81.272626 74.936844,82.118609 65.345703,97.240234 53.840651,115.38329 51.068068,144.2614 60.484375,147.875 c 4.080813,1.56609 1.454251,7.82002 -12.257813,29.16406 C 9.0618799,238.00565 -9.5869939,320.80597 4.8789062,369.51758 17.122369,410.74846 65.534403,468.88311 97.556641,480.81055 l 18.802739,7.0039 4.24804,44.89258 c 5.39309,56.98216 6.31328,60.5957 15.41797,60.5957 5.92582,0 7.00268,-1.6597 5.65234,-8.72265 -1.1179,-5.85003 -0.10299,-8.72461 3.08204,-8.72461 2.82612,0 4.79704,3.88398 4.87109,9.59375 0.20568,16.21863 9.18856,61.21724 14.97656,75.0293 5.37972,12.83614 14.27754,17.34326 17.2168,8.72265 0.8176,-2.39905 -1.35871,-9.8566 -4.83789,-16.57422 -7.33168,-14.15663 -17.00391,-61.29905 -17.00391,-82.8789 0,-11.33197 1.32852,-14.83008 5.63867,-14.83008 5.72425,0 5.62388,-3.56587 -0.68554,-24.14453 -2.13502,-6.96639 -1.5762,-8.05236 3.20703,-6.2168 3.18813,1.22268 5.77026,1.8805 5.73633,1.46094 -0.031,-0.41953 -2.94596,-11.87763 -6.47657,-25.46485 l -6.41796,-24.70507 11.28124,-7.73243 c 18.76375,-12.85734 56.61849,-24.873 78.08594,-24.78906 38.10643,0.14929 58.85224,16.73779 68.17188,54.51953 4.42328,17.93076 14.50252,110.4801 16.85351,154.75 0.85977,16.21278 6.11028,20.8046 16.29688,14.25782 4.1816,-2.68679 4.29482,-5.5523 0.69531,-17.56836 -3.58614,-11.96856 -8.09477,-50.17848 -15.99414,-137.01172 0,0 49.04524,-4.02547 79.65234,-9.19532 -4.05917,5.25807 -10.26965,45.38978 -13.83007,89.36133 -1.56118,19.27979 -0.87983,33.98431 2.0625,44.49219 4.41709,15.77919 10.22157,20.9575 10.74609,9.58789 2.81378,-60.9527 9.76664,-116.74723 16.75586,-134.49219 3.35267,-8.51006 4.75211,-9.24517 11.11914,-5.83789 7.86852,4.21134 17.20898,2.3061 17.20898,-3.50976 0,-1.97934 -3.04551,-3.59766 -6.77148,-3.59766 -8.40435,0 -12.72464,-6.32626 -7.72852,-11.32226 2.65437,-2.6544 5.40201,-2.35396 9.49414,1.04296 4.93648,4.09656 6.38736,3.92696 10.13086,-1.19335 2.40344,-3.28651 6.16472,-5.97461 8.35938,-5.97461 2.34894,0 3.62587,-4.6045 3.10547,-11.19532 -0.82787,-10.455 0.0302,-11.3956 13.07226,-14.22265 7.67619,-1.66541 26.68975,-3.8479 42.25196,-4.84766 27.05079,-1.73813 28.38532,-1.47524 30.33007,5.96094 1.51182,5.78275 3.87483,7.29792 9.20313,5.9043 6.12325,-1.6013 6.86121,-0.65102 5.0625,6.51757 -1.59511,6.35078 -0.69176,8.39258 3.71094,8.39258 3.19944,0 4.84709,1.57334 3.6582,3.49609 -1.18885,1.9229 1.66265,4.94936 6.33789,6.72657 6.62207,2.51788 8.96707,6.56619 10.60742,18.3164 4.667,33.39859 5.96809,90.11857 2.74805,119.76953 -3.68485,33.91592 -1.2682,42.39414 9.12305,32.00977 5.32006,-5.3164 6.08593,-13.73339 6.08593,-67.17969 l 0.98829,-53.01562 8.72265,2.4043 c 4.79762,1.32192 48.20759,5.07754 62.08008,-2.875 -1.48607,9.34389 -2.51923,-1.49812 -11.74219,52.01757 -9.16743,53.1826 -9.14721,60.86371 0.14453,62.1836 7.29362,1.03581 7.85329,-0.20712 7.89649,-17.45117 0.0718,-26.70919 11.56096,-78.57819 22.57031,-101.84961 11.62949,-24.58341 28.41122,-36.66698 58.69336,-42.25977 32.55802,-6.01281 58.18057,1.3835 47.86133,13.81641 -6.08009,7.32672 -1.42484,11.32126 7.03711,6.03711 8.32924,-5.20199 10.35742,-5.29753 10.35742,-0.49024 0,4.75094 6.9795,11.69429 14.68555,14.61133 10.60928,4.01601 18.15082,38.56032 18.3164,83.86914 l 0.15039,41.14844 8.41016,-1.01758 c 8.22024,-0.99564 8.39272,-1.69093 7.61523,-30.68164 -0.80114,-29.89742 -7.19878,-70.71219 -13.75195,-87.7207 -3.42161,-8.87732 -2.85808,-9.4654 15.91797,-16.65039 10.70494,-4.0965 19.97606,-6.93368 20.60547,-6.30469 0.6294,0.62918 -0.59219,7.33687 -2.71485,14.90625 -4.93133,17.58697 -5.86047,79.73667 -1.21093,81.0332 1.95299,0.54467 5.23078,-14.68225 7.50976,-34.89648 5.77671,-51.22817 10.8488,-68.86081 20.91406,-72.6875 8.72005,-3.31567 10.88088,-8.82762 4.31641,-11.01563 -6.69407,-2.23128 -0.0113,-21.93218 15.02734,-44.33594 18.63209,-27.74868 36.69897,-35.19726 85.40042,-35.19726 33.0671,0 33.4019,0.0869 30.9707,7.85351 -5.1442,16.43074 -4.0408,21.85546 4.2617,20.97657 4.9971,-0.52914 7.8516,1.05782 7.8516,4.36328 0,7.60297 10.5476,6.33639 19.8261,-2.38086 8.1215,-7.6286 16.4234,-6.34276 8.7285,1.35156 -7.3089,7.30927 -4.9633,14.16889 4.0665,11.90234 9.8266,-2.46648 11.3692,6.32622 7.496,35.87891 -1.1868,73.72653 1.4091,98.071 -6.0234,123.10156 -7.8881,27.23747 16.6818,38.24849 16.5234,-3.20703 1.2775,-16.31429 -0.3094,-29.84387 -0.092,-56.83008 0.093,-11.4636 0.1418,-20.46134 0.2403,-28.43359 10.1968,-0.73651 29.1008,-8.81116 52.5156,-22.48828 7.9722,-4.65676 6.7346,0.60532 5.7832,4.08203 -4.9837,18.21146 -11.9825,49.25371 -13.75,60.99023 -2.2188,14.73219 -5.9622,65.08907 -5.6387,75.84375 0.3679,12.22628 7.4123,9.75496 11.6114,-2.01562 0.5548,-1.55509 2.0073,-17.49419 3.2285,-35.41992 2.5388,-37.26682 4.3072,-48.71984 12.5019,-80.98438 8.8246,-34.74391 24.1112,-55.66938 39.2637,-72.27734 3.1995,-3.5068 9.6965,-8.60995 13.1856,-14.17383 7.1952,-11.47449 9.2065,-13.19287 4.3828,-3.74609 -1.9874,3.89193 -3.4986,10.15896 -3.8848,16.11133 -0.5871,9.04996 -0.2783,10.27282 4.3594,17.23437 8.6802,13.03 16.0709,9.12987 11.9433,-6.30273 -2.1876,-8.17981 -2.1893,-12.62657 0,-17.95313 l 1.7344,-4.21875 1.1777,5.99414 c 0.6481,3.29719 1.2214,9.3669 1.2735,13.48828 0.1404,11.10894 2.6298,18.23316 8.7344,24.99024 5.0147,5.55042 5.9424,5.97928 11.3652,5.25195 3.8865,-0.52127 7.0739,-0.0265 9.3262,1.44922 2.5914,1.69791 4.1526,1.85148 6.4297,0.63281 1.9896,-1.06496 3.3211,-1.09982 3.9355,-0.10547 1.5461,2.50148 6.4469,1.6872 8.6328,-1.43359 1.2047,-1.72006 4.6723,-3.35325 8.375,-3.94531 4.4253,-0.70761 7.3142,-2.28716 9.6426,-5.26758 l 3.3262,-4.25586 -0.5137,9.05469 c -0.5757,10.16182 2.0102,14.84375 8.2031,14.84375 5.051,0 7.7306,-5.20321 9.9082,-19.23633 1.054,-6.7917 2.5851,-12.4926 3.4004,-12.66797 0.8152,-0.17548 2.4325,1.84271 3.5957,4.48437 2.6305,5.97453 5.5254,7.17763 10.0859,4.18946 4.7972,-3.14313 4.9761,-13.26102 0.3223,-18.21485 l -3.2129,-3.41992 3.7832,-11.43555 c 2.0813,-6.2889 4.1038,-10.86263 4.4942,-10.16406 0.3905,0.69861 0.015,6.11793 -0.834,12.04102 -1.7164,11.97252 -0.4216,15.45703 5.7402,15.45703 6.2745,0 8.7022,-8.49494 8.8496,-30.9668 0.071,-10.85677 0.5847,-20.1941 1.1407,-20.75 2.4896,-2.48855 7.343,1.62693 12.6796,10.75196 6.4294,10.99362 10.9559,14.19813 15.7891,11.17968 3.3885,-2.11608 4.8737,-1.21255 14.9004,9.06055 4.091,4.19157 5.5964,7.16484 6.1602,12.16406 2.5155,18.7214 21.6517,37.47555 26.4902,56.97852 6.7656,20.55409 12.2472,43.57196 10.6836,75.36523 -2.1519,43.75412 -5.6473,64.79138 -2.6953,71.42188 1.5921,3.41306 5.5379,3.20292 11.1992,-0.86328 4.3762,-4.95806 3.6722,-28.35793 5.3711,-79.36719 0.8687,-26.0798 -4.0152,-60.4386 -12.8086,-78.52734 20.0851,18.92859 57.3368,39.9017 73.75,6.72656 17.2566,-45.144 18.4868,-50.9915 18.3281,-154.39063 -0.5031,-18.06139 10.5254,-15.79925 18.5137,-16.19726 29.0344,-1.44661 44.2728,-14.85521 44.164,-24.18164 -0.024,-2.02701 1.6853,-5.97058 3.7461,-8.76368 4.601,-6.23652 4.8208,-13.21915 0.584,-18.60546 -3.0399,-3.86459 -3.0599,-4.13623 -0.5,-6.96485 3.7038,-4.09268 3.4379,-11.73691 -0.5195,-14.9414 -2.5309,-2.04949 -3.0083,-3.64927 -2.334,-7.80469 1.0992,-6.77393 -1.4601,-11.36013 -7.8203,-14.01758 -8.3337,-3.48208 -21.6835,0.6554 -37.8477,11.72852 -3.5611,2.43947 -12.986,5.08241 -13.3496,4.71875 -1.4838,-1.48366 5.1613,-24.77833 8.6602,-34.07422 1.7629,-4.78861 5.5287,-21.75645 -8.961,-10.09375 -7.4447,7.07639 -7.4086,10.80152 -12.1855,29.52148 -2.501,9.80162 -5.5489,21.19305 -6.7734,25.31445 -3.2454,10.92214 -4.3853,32.89258 -2.2168,42.72266 2.1955,9.95294 2.1761,81.2518 -0.027,106.62891 -0.8123,9.35138 -2.0962,25.14372 -2.8535,35.09375 -1.9482,24.17412 -15.1352,81.80442 -58.2129,39.00195 -17.6706,-17.36776 -20.6538,-21.04279 -25.9297,-31.94336 -4.7838,-9.88361 -5.6514,-12.9006 -4.3867,-15.26367 2.4732,-4.62123 1.8467,-18.14576 -1.2207,-26.3711 -2.1377,-5.73225 -3.0247,-13.65765 -3.7773,-33.7207 -0.7885,-21.01993 -1.736,-29.07835 -4.7715,-40.58789 -3.245,-12.30396 -3.5868,-15.63174 -2.3867,-23.23047 0.8443,-5.3451 0.8736,-14.52488 0.074,-23.10547 -0.729,-7.83067 -1.9335,-23.00508 -2.6778,-33.7207 -0.7445,-10.71563 -2.4212,-22.51928 -3.7265,-26.22851 -3.4314,-9.75049 -3.1993,-10.49024 3.291,-10.49024 6.7763,0 11.6551,-3.04483 10.3457,-6.45703 -0.6892,-1.79612 -3.4297,-2.50596 -10.9648,-2.83984 l -10.0469,-0.44532 -8.1446,-11.98828 c -4.4801,-6.59422 -9.2654,-13.35103 -10.6347,-15.01562 -1.3692,-1.66459 -5.3251,-6.82079 -8.7891,-11.45703 -3.4639,-4.63621 -9.1958,-10.78456 -12.7383,-13.66407 -7.7084,-6.26583 -37.9572,-21.64413 -45.8183,-23.29297 -6.4542,-1.35378 -19.943,0.41738 -25.5469,3.35352 -3.3538,1.75725 -4.7258,1.64417 -10.5937,-0.87109 -9.8336,-4.21516 -20.0851,-2.59074 -36.3985,5.76757 -13.1123,6.71828 -23.131,15.05532 -32.9844,27.45313 -2.948,3.70927 -7.4447,9.10524 -9.9941,11.99023 -4.4138,4.99489 -13.707,21.97645 -13.707,25.04688 0,0.79689 -1.7063,2.22592 -3.791,3.17578 -5.3354,2.43089 -7.2388,7.8262 -3.8106,10.80273 2.5024,2.17256 2.5211,2.9799 0.3047,13.86133 l -2.3535,11.55664 h -6.5137 c -6.6527,0 -12.3105,2.04118 -12.3105,4.44141 0,3.0485 4.8744,5.81991 11.9492,6.79297 l 7.5332,1.03711 0.061,15.96875 c 0.033,8.78364 0.9476,21.02881 2.0332,27.21094 1.6217,9.22996 1.6276,13.51791 0.041,23.97851 -1.0629,7.00639 -2.9542,15.59116 -4.2032,19.07617 -2.0906,5.83286 -3.1941,11.53337 -3.3379,17.55274 0.667,22.3995 5.3586,37.37016 5.3672,57.03906 -0.07,9.69805 -2.9964,19.79091 -8.0469,28.97852 -7.7319,-2.37327 -19.2761,-7.97589 -30.6562,-14.09961 0.6995,-3.06604 1.2955,-6.17293 1.75,-9.27344 7.0854,-22.27525 -0.7143,-39.79488 -2.8223,-53.73242 -8.7034,-57.54353 -6.4115,-78.2465 -22.9394,-129.11719 -11.8454,-36.46372 -5.7874,-41.43814 -26.209,-60.52344 -19.5329,-18.25423 -39.9874,-31.20769 -77.1465,-31.0918 -17.2737,0.0535 -40.8271,3.16516 -47.5449,5.26563 -6.71764,2.10026 -21.22402,6.33114 -32.23439,9.40039 -22.59874,6.29914 -30.24598,15.98969 -30.96484,39.23633 -1.30405,42.20698 -3.55082,52.98706 -11.27539,54.08789 -10.28428,1.46541 -9.53396,10.75605 1.07226,13.25976 11.09469,2.61931 15.34531,20.58385 9.04102,38.22266 -9.35154,26.16625 -12.34703,37.8626 -17.74219,69.2832 -6.94704,40.46945 -6.05867,50.92265 4.45703,52.41602 8.95967,1.27249 9.24669,0.52757 4.12305,-10.71875 -8.18941,-17.97173 16.58792,-111.13947 25.37891,-95.43164 2.19262,3.91904 -0.15991,15.75099 -7.54102,37.91601 -5.90117,17.72151 -11.09846,38.50279 -11.54687,46.17969 -0.69112,11.80566 0.19805,14.00088 6.53515,14.99414 -8.60897,13.09399 -18.67751,34.34517 -23.19336,49.90235 -4.04685,13.94233 -6.2078,16.08558 -23.8125,23.60351 -10.64837,4.54772 -22.17532,9.86999 -25.61133,11.82813 -8.77353,4.99838 -12.76612,1.35044 -11.92382,-10.89258 0.55537,-8.05017 2.75938,-10.96713 9.44726,-12.50781 14.93178,-3.43937 48.85547,-19.42137 48.85547,-23.01563 0,-3.79706 -2.98042,-3.08746 -33.01367,7.84766 -13.85088,5.04219 -24.34092,6.80838 -31.40625,5.28515 -12.71861,-2.74284 -19.3782,-2.8093 -56.80274,-0.57421 -32.00681,1.91145 -45.98562,5.69046 -69.35156,18.75 -13.69561,7.65407 -18.87604,8.63132 -37.71484,7.11914 -35.43352,-2.84448 -93.23091,-34.97448 -82.39844,-45.80664 5.59362,-5.59312 4.26962,-9.1836 -3.38086,-9.1836 -3.83811,0 -6.97656,1.66272 -6.97656,3.69531 0,2.03252 -1.57314,2.72542 -3.49219,1.53907 -1.91906,-1.1861 -3.49023,-4.89773 -3.49023,-8.24805 0,-5.53542 -3.90125,-5.9726 -42.7461,-4.78125 -23.51093,0.72132 -51.88973,3.5517 -63.06054,6.28906 -14.10285,3.45521 -22.30264,3.91231 -26.81641,1.4961 -9.08928,-4.86407 -13.93945,-4.33748 -13.93945,1.51171 0,2.74549 -3.53608,5.49232 -7.85547,6.10547 -5.80449,0.82462 -7.57516,3.0945 -6.80078,8.70313 1.31641,9.54191 -5.82215,10.80333 -41.18164,7.28515 -32.18268,-3.2022 -54.16942,-10.92128 -54.79883,-19.23828 -4.10137,-54.15734 -12.75412,-105.50736 -18.36524,-108.97461 -2.70991,-1.67449 -3.2901,-6.92623 -1.70117,-15.39062 1.7545,-9.35594 5.17139,-14.27488 12.57813,-18.10547 10.91679,-5.64475 10.27018,-13.62291 -0.81836,-10.10352 -5.95358,1.88934 -6.68686,0.28203 -6.71875,-14.6875 -0.0208,-10.52937 -3.28021,-23.7866 -8.72266,-35.47851 -4.78015,-10.26692 -8.69139,-20.08361 -8.69141,-21.8125 0,-12.02698 -39.52397,-30.29032 -70.30078,-32.48438 -18.90049,-1.34734 -58.74378,12.66686 -78.1914,27.5 -29.51388,22.51174 -53.905784,82.2921 -43.9043,107.60938 4.24536,10.74689 12.70115,137.90638 9.39063,141.2168 -3.26115,3.26188 -32.362943,-16.55733 -45.943364,-31.29102 -79.960492,-88.23479 -45.164912,-191.55631 8.681641,-276.23828 2.03732,0 6.646277,3.02068 12.730469,5.2207 14.010304,5.06595 46.351664,8.50846 51.093754,-31.61719 6.46369,-18.9192 13.3207,-10.89694 17.88281,-33.00586 -1.20429,-1.20376 -4.88461,-2.1914 -8.17969,-2.1914 -3.29509,0 -6.81266,-3.138053 -7.81641,-6.976564 -1.22177,-4.671953 -4.75982,-6.980471 -10.70312,-6.980468 -4.88196,0 -10.2217,-2.404495 -11.86719,-5.34375 -1.50408,-2.688641 -3.84118,-3.923407 -9.36719,-4.001954 z M 94.263672,151.43164 c 0.847427,-6.2e-4 1.806151,0.0226 2.880859,0.0606 5.759209,0.20455 9.953829,1.94022 9.320309,3.85937 -1.84397,5.58099 -11.321168,5.97274 -15.738278,0.65039 -2.912515,-3.50859 -2.396933,-4.56382 3.53711,-4.56836 z m 1226.023428,3.40625 c 2.5271,-0.0161 5.1117,0.0429 7.7559,0.17773 12.2524,0.62503 16.6852,1.62836 29.414,6.66211 15.0846,5.96528 24.7016,11.34341 33.4551,18.70899 5.6469,4.75146 21.2461,26.10732 21.2461,29.08594 0,1.47283 -1.9562,2.08984 -6.6211,2.08984 -3.6419,0 -13.8865,0.13224 -15.1346,0.61123 -1.4961,0.57407 -3.0445,-0.62761 -4.5449,-3.52929 -4.3598,-8.43079 -29.5354,-15.12889 -50.3164,-13.38672 -12.6664,1.06193 -18.4036,3.86208 -21.5664,10.52734 -2.1063,4.4381 -0.2277,5.45587 -6.2984,6.28793 -11.4268,1.5662 -8.497,1.50757 -10.9166,-6.02807 -3.6868,-11.48235 -7.4853,-13.25643 -27.8399,-13.00195 l -17.0996,0.21484 2.6113,-4.55078 c 1.4369,-2.50316 5.8623,-8.1414 9.834,-12.52734 12.6691,-13.99025 31.5928,-21.18605 56.0215,-21.3418 z m -256.1426,8.53125 v 0 c 1.6527,0.0146 0.7629,4.35854 -1.9824,9.66602 -7.3975,14.30474 -8.7474,40.43945 -2.1582,41.7832 3.799,0.77492 6.6687,-4.8706 10.4687,-20.60156 2.8796,-11.91756 7.1425,-22.27403 9.4707,-23.01563 3.0442,-0.96888 2.6745,3.22636 -1.3086,14.91602 -5.065,14.8386 -5.0658,16.74975 -0.022,21.79101 5.0424,5.04137 5.8456,4.68839 9.1602,-4.02929 1.9982,-5.25569 3.6328,-11.02406 3.6328,-12.81836 0,-1.79441 1.4036,-3.2637 3.1211,-3.26367 1.7927,0 1.8943,5.44647 0.2363,12.79687 -2.3458,10.40041 -1.2923,15.94 5.627,29.59375 9.6045,18.9551 18.8105,54.45463 18.8691,72.76758 0.051,18.39317 -10.6797,32.84674 -31.9199,42.95898 h 0.012 c -10.2391,4.87456 -23.3269,9.59437 -29.084,10.49024 -43.0923,8.03111 -99.89887,-26.91762 -111.082,-84.40235 13.023,1.25418 16.41682,-12.66826 0.11523,-13.60547 0.20069,-2.15527 1.04102,-4.07818 1.04102,-7.77734 0,-11.1486 13.62832,-43.99335 21.03711,-50.69726 6.79279,-6.14686 6.89021,-6.06289 4.82617,4.25585 -1.54473,7.72496 -0.64678,11.09038 3.36719,12.63086 4.01912,1.54183 7.3966,-2.25159 12.71875,-14.2832 7.26583,-16.42444 19.51713,-32.17578 25.02343,-32.17578 1.6177,0 -1.1043,7.98146 -6.0469,17.73633 -9.40701,18.56275 -10.25385,32.86328 -1.9472,32.86328 2.6883,0 5.4846,-3.92494 6.2168,-8.7207 1.4049,-9.2021 18.0067,-36.6155 20.6035,-34.01954 0.8361,0.83622 -0.792,8.07365 -3.6192,16.08399 -2.825,8.01055 -4.2162,16.96885 -3.0879,19.9082 3.2539,8.47931 12.5181,4.20268 13.6309,-6.29297 1.1648,-10.96835 18.5471,-44.51359 23.0781,-44.53906 z m -547.85348,1.98242 c -6.06335,0.0321 -12.14017,2.84949 -17.39844,8.44727 -5.85483,6.23259 -11.85098,8.72461 -21.00196,8.72461 -8.15648,0 -14.99371,2.41162 -18.8164,6.63476 -3.30127,3.64877 -11.14498,7.5963 -17.42969,8.77539 -26.56641,14.26444 -23.77617,21.12321 -21.86328,42.18164 -0.50086,11.84094 9.12829,11.20035 6.19727,11.20118 -10.92193,0.25349 -24.51543,15.41035 -11.25586,30.9375 4.65569,5.45108 -1.7551,14.78983 -3.90039,16.93554 -2.87551,2.87498 -1.95637,5.11399 3.49023,8.51563 10.3892,6.48754 10.0172,23.04863 -0.60547,27.08789 -10.47968,3.98424 -17.13376,12.26892 -16.16601,20.13281 0.42678,3.47342 -0.14929,11.08505 -11.94727,18.64844 -3.16653,7.13588 1.21289,16.08526 1.21289,19.10351 0,3.01834 -3.30225,9.95483 -7.33984,15.41602 -8.61827,11.65686 -6.5024,23.52911 5.02734,28.18359 h -0.01 c 7.90658,3.19121 28.74942,2.63328 32.24609,-0.86328 1.11995,-1.12029 0.26646,-5.34417 -1.89649,-9.38672 -4.73695,-8.85048 -0.8071,-18.03188 4.02344,-9.40039 1.74834,3.1256 6.14895,5.6836 9.7793,5.6836 3.62933,0 7.56905,1.57294 8.75586,3.49218 3.06058,4.95198 14.83845,4.33182 16.58984,-0.87304 1.15287,-3.4255 2.68455,-3.36255 7.11914,0.29883 6.5655,5.41818 14.26869,2.10531 11.55469,-4.96875 -1.09735,-2.85657 1.83296,-6.77238 7.1582,-9.5625 7.46226,-3.91023 5.29456,-5.51888 15.77735,-1.77344 22.26345,7.95511 49.22741,6.1866 70.56836,-8.69336 l 10.11718,-7.05469 c -5.96284,10.7582 0.10353,13.48103 5.33204,16.76563 4.44691,5.49305 15.93401,6.03719 20.88281,4.46679 4.27619,-1.35723 7.07422,-0.67699 7.07422,1.72071 0,7.2901 14.91284,1.86092 22.33398,-8.13086 6.92134,-9.31843 0.57396,-17.88838 -5.19141,-22.11328 -3.35886,-2.46104 -6.10937,-6.99274 -6.10937,-10.07227 0,-5.57872 1.87973,-20.66466 -3.36523,-18.91602 -1.82036,-4.28032 -13.00716,-3.28289 -13.33008,-3.06445 2.50322,-7.69739 4.56836,-15.93164 4.56836,-15.93164 12.45532,2.84227 17.33379,-9.86779 3.86132,-12.38086 -0.92968,-1.14156 3.44652,-9.71031 2.66797,-30.6543 18.29681,-2.2066 10.27513,-11.21085 0.52149,-12.52148 12.45328,-14.04281 3.66822,-40.72486 -1.64258,-48.94336 8.43417,-15.75977 -17.08796,-33.42773 -32.69336,-33.42773 -4.3626,0 -10.69606,-3.0535 -14.07031,-6.78321 -3.37535,-3.72991 -10.48773,-7.73611 -15.80469,-8.90429 -5.31802,-1.16779 -13.28221,-5.96938 -17.69727,-10.66797 -5.20686,-5.54339 -11.25696,-8.296 -17.32031,-8.26563 h -0.002 z m 1.79492,11.93555 c 3.51825,0 7.05339,1.96406 7.85351,4.36328 0.92043,2.76257 -1.9596,4.36133 -7.85351,4.36133 -5.89395,0 -8.77004,-1.59876 -7.84961,-4.36133 0.7991,-2.39922 4.33132,-4.36328 7.84961,-4.36328 z m 442.9375,4.92578 c 0.13644,-0.008 0.26193,-10e-4 0.3789,0.0176 0.56051,0.0905 0.88672,0.49258 0.88672,1.22265 0,1.91919 -2.35581,5.44474 -5.23437,7.83399 -2.91973,2.42329 -5.23633,2.80025 -5.23633,0.85351 0,-1.91925 2.35671,-5.44278 5.23633,-7.83203 1.59636,-1.32523 3.01321,-2.03966 3.96875,-2.0957 z m -482.86133,7.28906 c 1.8059,0 3.2832,1.57108 3.2832,3.49024 0,1.91925 -2.44671,3.48828 -5.43945,3.48828 -2.99274,0 -4.47001,-1.56903 -3.2832,-3.48828 1.18579,-1.91916 3.63352,-3.49024 5.43945,-3.49024 z m 31.40625,10.47071 c 1.80487,0 3.28516,1.56902 3.28516,3.48828 0,1.91925 -2.45062,3.48828 -5.44336,3.48828 -2.99271,0 -4.46806,-1.56903 -3.28125,-3.48828 1.18681,-1.91926 3.6325,-3.48828 5.43945,-3.48828 z m 759.82034,1.68554 c 7.4172,0.0711 13.6116,1.13219 16.1152,2.96289 2.7265,1.99358 4.6231,12.32253 3.2539,17.7168 -0.4834,1.90441 -2.4213,4.45102 -4.3066,5.6582 -3.8472,2.46352 -40.9906,3.82041 -42.3946,1.54883 -0.434,-0.70249 0.8284,-6.88941 2.8067,-13.75 l 3.5976,-12.47461 10.2871,-1.125 c 3.6455,-0.39847 7.2692,-0.5694 10.6407,-0.53711 z m -730.36331,1.80274 c 2.87856,0 5.23438,1.56912 5.23438,3.48828 0,1.91946 -2.35582,3.49023 -5.23438,3.49023 -2.87962,0 -5.23437,-1.57077 -5.23437,-3.49023 0,-1.91916 2.35475,-3.48828 5.23437,-3.48828 z m 798.20131,0.41982 c 14.0994,-0.1511 31.8901,2.35704 36.7656,6.55079 3.5901,3.08801 3.7475,3.8204 2.7246,12.63281 -0.8392,7.23099 -1.816,9.80948 -4.3027,11.35742 -4.1822,2.60343 -16.4124,3.7105 -24.9492,2.25781 -3.7092,-0.63116 -10.6769,-1.59621 -15.4844,-2.14453 -5.5779,-0.63622 -9.7812,-2.03695 -11.6152,-3.87109 -3.1356,-3.13551 -3.8321,-10.30858 -1.252,-12.88867 1.1635,-1.16318 1.0652,-2.51227 -0.3457,-4.77149 -1.6812,-2.69203 -1.586,-3.53113 0.6524,-5.76953 2.2151,-2.21513 9.3469,-3.26283 17.8066,-3.35352 z m -890.46108,2.71885 v 0.002 c 1.18683,-0.038 1.97657,0.362 1.97657,1.37891 1.04179,1.04139 -1.38214,3.64458 -5.38477,5.78711 -5.0465,2.70035 -7.27734,2.75458 -7.27734,0.17383 0,-3.17292 7.1241,-7.22867 10.68554,-7.3418 z m 787.05668,0.32812 c 0.9992,-0.14 0.8664,2.20794 -0.4844,6.52344 -0.965,3.0833 -2.3178,5.60547 -3.0059,5.60547 -1.497,0 0.2411,-9.14628 2.1172,-11.14062 0.5819,-0.61854 1.04,-0.94162 1.3731,-0.98829 z m 45.8398,4.79883 c -1.1892,0.0491 -2.4983,0.83019 -4.1406,2.31641 -3.581,3.24078 -3.4747,7.27731 0.291,11.04297 5.8855,5.8854 13.0429,-2.6094 8.2988,-9.84961 -1.5887,-2.4248 -2.9203,-3.57291 -4.4492,-3.50977 z m 56.9748,2.24405 c -1.0538,0.0319 -2.0865,0.32013 -3.0157,0.90039 -3.4158,2.13343 -3.5485,11.79716 -0.207,15.13867 5.762,5.76186 14.2187,-2.14078 11.0918,-10.36523 -1.352,-3.55752 -4.7077,-5.76948 -7.8691,-5.67383 z m -1078.94745,2.45127 c 3.83913,0 6.97852,1.56881 6.97852,3.48828 0,1.91915 -3.13939,3.49023 -6.97852,3.49023 -3.8381,0 -6.98047,-1.57108 -6.98047,-3.49023 0,-1.91947 3.14237,-3.4883 6.98047,-3.48828 z m 266.49219,0.95898 c 14.75384,-0.0432 31.30585,2.54723 43.46289,6.93945 23.34229,8.43313 34.77846,31.71023 37.35156,45.42578 3.18815,16.99656 -1.03037,16.66342 -7.70898,4.35352 -8.58535,-10.7615 -20.74238,-9.7218 -33.16992,-8.66797 -15.72265,1.33285 -25.59865,3.23388 -28.75391,15.80469 -8.29531,16.74799 -9.50109,-11.98756 -34.49609,-13.82031 -22.70978,-1.66535 -33.12568,-1.52004 -39.73438,14.89257 -5.45272,10.96575 -7.70705,12.49117 -17.11719,11.57422 -10.48486,-1.02154 -3.04869,0.17462 -0.72851,-12.30664 5.28714,-28.43599 17.82747,-30.34338 36.58398,-56.5957 5.25941,-1.03614 11.78032,0.0985 16.0586,-2.32227 6.39069,-3.61575 16.7767,-5.2434 28.25195,-5.27734 z m 863.74816,-0.20906 17.8593,0.69736 11.6152,0.4375 2.7187,8.24414 c 7.4479,22.58171 3.0685,56.13359 -10.9531,83.91016 -4.227,8.37356 -4.9096,9.00781 -9.6836,9.00781 -2.8245,0 -5.6145,0.77742 -6.2011,1.72656 -0.7679,1.24236 -1.527,1.1102 -2.711,-0.46875 -0.9045,-1.20629 -2.8251,-2.63646 -4.2676,-3.17773 -1.4462,-0.54267 -2.6191,-2.51689 -2.6191,-4.40235 0,-1.88049 -1.4591,-8.36196 -3.25,-14.40429 -4.0222,-13.57024 -14.3564,-26.44169 -20.3145,-25.30274 -2.5373,0.48503 -4.8522,-0.59835 -7.996,-3.74218 -7.4307,-7.43075 -11.7775,-2.00905 -5.959,7.43359 3.4667,5.626 8.5401,6.48391 10.2949,1.74023 0.9633,-2.60418 1.8408,-1.40578 5.209,7.11914 6.3075,15.96506 11.7804,47.20278 8.6133,49.16016 -0.8737,0.54 -1.5879,0.0123 -1.5879,-1.17187 0,-1.18412 -1.0696,-3.03957 -2.375,-4.12305 -3.4219,-2.83983 -6.9958,-0.0748 -9.0625,7.00976 l -1.7032,5.83399 -1.6347,-4.1211 c -2.2803,-5.74473 -7.4277,-5.5468 -9.6621,0.37305 -1.9694,5.21745 -4.8289,5.86958 -6.0059,1.36914 -1.2994,-4.96939 -5.9504,-2.92725 -7.7285,3.39258 -2.0879,7.42085 -3.2261,8.18003 -4.2891,2.86523 -1.1077,-5.53838 -6.3984,-8.88096 -9.334,-5.89843 -1.0933,1.11083 -2.9353,3.86287 -4.0937,6.11719 -2.4373,4.743 -4.0586,3.9394 -4.0586,-2.01172 0,-4.99451 -2.2947,-6.78526 -5.3965,-4.21094 -1.2469,1.03483 -4.1119,2.08523 -6.3672,2.33203 -3.378,0.36981 -4.4047,-0.35638 -5.8242,-4.11719 -1.3295,-3.52206 -2.498,-4.45231 -5.1191,-4.07422 -2.0483,0.29559 -3.7202,1.82566 -4.209,3.85352 -0.6999,2.90325 -1.1898,2.4412 -3.582,-3.37305 -3.0693,-7.45984 -6.4122,-8.73166 -7.8536,-2.98828 -1.5236,6.0702 -3.8923,4.28585 -3.4824,-2.62305 0.746,-12.56968 0.016,-17.60937 -2.5488,-17.60937 -1.8357,0 -2.2214,-0.99268 -1.6055,-4.12109 1.987,-10.09228 6.6472,-22.61379 10.584,-28.4375 4.5712,-6.76229 4.3971,-10.90235 -0.459,-10.90235 -3.3816,0 -8.5788,4.98221 -10.0449,9.63086 -0.5392,1.70933 -3.2442,5.75863 -6.0117,8.99805 -2.7674,3.23942 -5.0313,7.07096 -5.0313,8.51562 0,1.44462 -1.3495,3.05487 -2.998,3.57813 -1.6486,0.52321 -2.9961,1.58085 -2.9961,2.34961 0,0.76872 -0.6533,1.39648 -1.4512,1.39648 -2.4645,0 -9.041,-24.31009 -9.041,-33.42187 v -8.54102 h 7.2617 c 7.5361,0 12.2227,-2.9915 12.2227,-7.80273 0,-3.51539 -3.009,-5.2947 -10.9473,-6.47657 -6.2233,-0.92654 -7.1375,-1.50426 -6.7441,-4.26171 0.3435,-2.40766 1.3751,-3.09806 4.2031,-2.81641 2.0607,0.20514 10.8978,0.46757 19.6387,0.58398 14.1178,0.18778 16.8265,-0.21557 24.248,-3.61328 8.1574,-3.73459 13.0625,-9.46341 13.0625,-15.2539 0,-2.51055 0.063,-2.90745 9.0495,-1.42116 5.1574,0.85297 2.3791,1.02417 3.0913,7.34294 0.8822,7.82727 5.1499,13.04349 12.9336,15.80664 6.9435,2.46504 50.6771,2.30763 55.3613,-0.19922 4.5538,-2.43714 9.2363,-12.38539 9.2363,-19.61914 z m -1210.72472,1.20517 c 2.83435,-0.0473 6.85108,1.26586 14.17969,3.9043 8.63675,3.10925 32.19453,6.59631 52.34765,7.74805 l 36.63867,2.09375 8.40039,16.94531 c 4.61971,9.31933 9.14731,24.72138 10.06055,34.22852 1.48197,15.42049 0.85727,17.49622 -5.78125,19.23242 -8.56785,2.24043 -10.15895,11.60156 -1.97266,11.60156 4.04999,0 4.85145,2.03723 3.0918,7.85156 -6.87917,22.71258 -26.84364,44.11917 -51.18554,54.88281 -9.04816,4.0007 -27.10478,8.02591 -40.13086,8.94532 -19.77879,1.39612 -26.26817,0.37189 -39.38477,-6.21485 l -15.70313,-7.88476 -1.10937,-22.6836 c -2.32939,-47.64234 9.4894,-111.2983 23.4668,-126.39453 2.5937,-2.80134 4.24665,-4.20927 7.08203,-4.25586 z m 936.84372,0.82813 c 3.9183,0 9.8701,19.57033 17.7715,58.45117 0.8762,4.31838 1.0411,7.84961 0.3652,7.84961 -3.2189,0 -5.8922,-5.34537 -5.957,-11.92188 -0.041,-3.99864 -3.8143,-17.86887 -8.3867,-30.82421 -6.1181,-17.33584 -7.1199,-23.55469 -3.793,-23.55469 z m -306.10349,17.29687 c -10.09096,-0.0555 -19.54446,1.58171 -31.09375,4.76563 -13.95681,3.84838 -28.85497,9.2548 -33.10547,12.01367 -4.25151,2.75907 -12.13201,5.0156 -17.51171,5.01563 -13.9116,0 -34.92542,15.50997 -41.12891,30.35546 -5.78185,13.83908 -4.0527,25.47852 3.78906,25.47852 5.87645,0 6.14184,1.49144 1.70313,9.64453 -1.81414,3.33273 -4.24267,11.94716 -5.39454,19.14453 -1.58997,9.94451 -3.73065,13.08594 -8.91601,13.08594 -8.62031,0 -8.95199,7.07762 -0.43555,9.30469 4.16002,1.08797 7.85341,7.4067 10.60547,18.14648 9.7372,37.99064 39.93464,66.28149 78.36914,73.41992 29.32362,5.44645 63.03809,-1.46265 80.07813,-16.41015 4.74519,-4.16217 7.1479,-4.47121 10.29492,-1.32422 2.25842,2.25793 6.1467,4.10351 8.64062,4.10351 5.22547,0 6.18906,-12.52419 1.20118,-15.60742 -7.42938,-4.5908 0.47407,-12.00783 10.63086,-9.97656 11.66857,2.33401 12.31822,0.72861 4.51757,-11.17773 -6.42977,-9.81228 -4.49956,-10.83087 6.66407,-3.51563 5.28098,3.45974 9.42612,4.01925 12.96289,1.74609 3.87821,-2.49123 4.14123,-4.03177 1.03125,-6.04882 -3.00609,-1.94941 -3.27216,-6.57975 -0.95508,-16.57422 4.97038,-21.443 3.96862,-71.69525 -1.81836,-91.1836 -6.37009,-21.4514 -23.80296,-40.23125 -42.23242,-45.49609 -20.89459,-5.96952 -34.92179,-8.83836 -47.89649,-8.91016 z m 180.36719,0.2461 c -13.86425,0.0638 -15.72721,7.31093 -13.93359,13.66406 1.99925,7.08671 10.51018,-2.95215 15.92382,-2.84375 6.67968,0.13391 12.73537,7.10346 13.21877,-1.32031 0.2808,-4.90911 -6.03435,-9.54186 -15.209,-9.5 z m 64.4785,5.0039 c -8.4012,0.1234 -13.3756,6.82196 -13.7305,10.84571 -0.6931,7.84331 10.9382,-0.15613 17.0059,-0.6543 4.6218,-0.37939 13.5464,10.19065 14.4024,0.81836 0.2407,-2.6442 -4.3486,-9.53934 -8.668,-10.2793 -3.1573,-0.54095 -6.2094,-0.7715 -9.0098,-0.73047 z M 792.96094,246.084 c 1.73495,0.0782 3.26411,0.74938 3.97265,1.89649 1.13439,1.83554 -1.17181,3.33789 -5.12304,3.33789 -8.42593,0 -9.27592,-1.94096 -2.0625,-4.70898 1.05619,-0.40544 2.17314,-0.57229 3.21289,-0.5254 z m 19.37695,1.74414 c 1.80692,0 4.2537,1.57078 5.43945,3.49024 1.18579,1.91915 -0.2914,3.48828 -3.2832,3.48828 -2.9927,0 -5.44336,-1.56913 -5.44336,-3.48828 0,-1.91946 1.4822,-3.49021 3.28711,-3.49024 z m 43.62305,8.1543 c 0.5574,-0.0545 1.22542,0.12552 1.94531,0.57031 1.91906,1.18621 3.49219,2.84882 3.49219,3.69532 0,0.8464 -1.57313,1.53906 -3.49219,1.53906 -1.91906,0 -3.48828,-1.66262 -3.48828,-3.69531 0,-1.27042 0.61426,-2.01754 1.54297,-2.10938 z m -61.2793,5.80469 c 1.92008,0 4.4607,1.57108 5.64648,3.49023 1.18581,1.91927 0.58805,3.48828 -1.33203,3.48828 -1.92007,0 -4.45967,-1.56901 -5.64648,-3.48828 -1.18575,-1.91915 -0.58702,-3.49023 1.33203,-3.49023 z m 503.98636,1.66016 c -0.7573,-0.006 -1.6284,0.17827 -2.6133,0.55273 -1.9084,0.72564 -4.8389,0.96088 -6.5117,0.52344 -2.3222,-0.60724 -3.9822,0.62897 -7.0235,5.22461 -4.8783,7.37173 -4.5776,12.78386 0.752,13.51953 2.0608,0.28442 4.953,1.80285 6.4277,3.37304 2.9185,3.10775 3.9543,3.38072 6.461,1.70704 2.7296,-1.82267 4.7394,-6.69462 5.8691,-14.22852 1.0584,-7.05908 -0.08,-10.64615 -3.3613,-10.67187 z m 12.6601,1.40429 c -2.2812,-0.20645 -3.8844,3.37533 -4.8047,10.74024 -0.8967,7.17746 -0.6496,8.78752 1.6016,10.43359 2.2259,1.62764 3.11,1.5424 5.3906,-0.52148 3.5693,-3.23 3.7775,-15.72633 0.3203,-19.1836 -0.9109,-0.91095 -1.7474,-1.39993 -2.5078,-1.46875 z m 10.7969,0.70703 c -0.6221,0.0384 -1.1875,0.71326 -2.1836,2.05664 -2.2738,3.06644 -1.6138,12.17935 1.1231,15.50977 2.1787,2.65125 5.2625,2.32353 7.0234,-0.74805 1.3898,-2.42413 1.6855,-2.36868 3.9062,0.74805 2.6786,3.75932 5.2347,4.26727 7.9278,1.57422 2.4233,-2.42329 2.264,-6.44165 -0.4649,-11.71875 -3.1097,-6.01362 -8.1516,-8.64751 -10.4746,-5.4707 -1.5751,2.15422 -1.9755,2.13642 -4.332,-0.18555 -1.2243,-1.20638 -1.9033,-1.80402 -2.5254,-1.76563 z m -1064.64648,0.45118 c -4.16926,0.13031 -7.77701,5.56154 -5.59571,11.24609 1.1539,3.00806 3.76727,5.46875 5.80664,5.46875 5.65328,0 8.4196,-10.42354 3.95313,-14.89063 -1.32153,-1.32122 -2.77363,-1.86772 -4.16406,-1.82421 z m 499.42382,2.75585 c 2.16178,0 12.8993,6.29121 23.86133,13.98047 21.81714,15.30418 53.489,27.89455 70.16602,27.89453 12.67438,0 17.11372,8.63608 19.9707,38.8418 1.52825,16.14749 0.2971,23.06117 -6.91016,38.80469 -10.53418,23.00988 -29.83165,45.20879 -45.94921,52.85742 -23.66109,11.22758 -69.74864,4.57991 -88.7129,-12.79492 -24.97953,-22.88606 -31.91892,-51.9546 -30.75781,-66.71875 9.5243,-0.62045 10.24886,-10.10767 -0.57226,-10.71484 -0.64173,-25.20674 31.66119,-80.69288 58.90429,-82.1504 z m 55.81641,0.0762 c 8.74269,0.0782 38.21094,11.99883 38.21094,15.45703 0,2.65386 -2.71764,2.19149 -22.6836,-3.85742 -20.58092,-6.23548 -27.90964,-11.70945 -15.52734,-11.59961 z m -606.55078,6.90429 c -8.86404,0 -10.89193,2.52068 -8.7168,10.83789 2.41373,9.22791 12.80856,7.02125 14.24219,-3.02343 0.81966,-5.74739 -0.6424,-7.81446 -5.52539,-7.81446 z m 366.9668,1.26953 c 0.87843,-0.0181 1.75425,-0.0178 2.62109,0.006 8.91443,0.23985 16.93419,2.84973 18.31641,11.36914 1.73601,10.69458 -2.11733,19.09084 -12.33789,21.88086 -11.502,3.13949 -18.12764,4.20674 -30.13868,1.91797 -11.51943,-2.19528 -14.25924,-29.518 4.43555,-33.09179 4.64969,-0.8889 10.95445,-1.95451 17.10352,-2.08204 z m 137.1582,0.125 c 0.1028,0.0144 0.17334,0.0554 0.24023,0.1211 1.13231,1.13261 -1.36333,6.68718 -5.54492,12.34375 -4.18261,5.65637 -7.60547,11.91716 -7.60547,13.91406 0,1.9969 -1.5682,3.63086 -3.48828,3.63086 -1.92007,0 -3.48828,-1.20584 -3.48828,-2.67969 0,-4.76235 16.92792,-27.79564 19.88672,-27.33008 z m -222.52344,0.0762 c 18.37807,-0.28778 43.30335,8.60467 27.60742,29.48242 -5.91552,6.73611 -31.73693,7.88697 -41.21289,2.36719 -7.13627,-4.15548 -8.61389,-19.02144 -2.13476,-27.46094 2.36024,-2.75671 8.54843,-4.27606 15.74023,-4.38867 z m 663.09377,4.79882 c 5.5422,0 11.6776,49.55069 11.873,95.89063 0.03,7.02174 0.2548,11.9487 0.5703,15.48437 -2.6686,-0.23886 -5.835,-1.79127 -7.7128,-3.95312 -2.2916,-2.64113 -5.6996,-5.35577 -7.5704,-6.03125 -2.1761,-0.78501 -2.2459,-6.89529 -0.1953,-16.93164 1.7638,-8.63686 -3.0563,-4.67457 -1.8047,-32.98438 1.2516,-28.30979 3.4289,-51.47461 4.8399,-51.47461 z m -344.1426,0.8125 c 2.59782,0.0658 5.74467,1.21509 7.94141,3.41211 1.93447,1.93439 10.49479,5.70653 19.02148,8.38086 10.95999,3.43774 12.94392,4.87992 6.77539,4.92969 -11.35593,0.0905 -38.38476,-9.50449 -38.38476,-13.62695 0,-2.1414 2.04764,-3.16132 4.64648,-3.09571 z m 176.87891,1.12891 c -2.70478,0.0215 -4.37339,0.1367 -4.73438,0.35742 -5.69438,3.49142 -1.8491,14.02942 9.62305,26.36719 16.32842,17.56035 25.96572,23.39326 44.01372,26.63672 26.6794,4.79434 49.9812,-6.17503 52.9472,-24.92383 3.075,-19.43044 -3.5674,-22.50563 -56.8554,-26.31641 -19.4335,-1.3897 -36.87886,-2.18331 -44.99419,-2.12109 z m -424.12305,4.96485 c -6.73625,0.24393 -10.15516,4.86899 -4.42578,10.59765 5.22134,5.22114 13.25391,3.14973 13.25391,-3.49414 0,-2.71907 -1.43851,-6.31633 -5.75586,-6.92969 -1.08091,-0.15345 -2.11072,-0.20873 -3.07227,-0.17382 z m -63.76367,1.03906 c -5.4486,-0.30618 -9.19742,4.97651 -5.96094,10.21094 2.73253,4.42276 11.15626,4.52963 13.84766,0.17578 1.12713,-1.8229 -0.13077,-7.19018 -3.90625,-9.21094 -1.37503,-0.73502 -2.72268,-1.10513 -3.98047,-1.17578 z m -369.81641,1.33008 c 1.55088,-0.0843 1.7553,8.37315 0.50782,22.98632 -3.28892,38.49179 -6.1479,37.37813 -4.86133,-1.89257 0.31366,-9.5967 2.03855,-18.95075 3.83008,-20.78907 0.18924,-0.19415 0.36299,-0.29595 0.52343,-0.30468 z m 479.35743,2.48242 c 0.034,-0.0113 0.0622,-0.007 0.0879,0.0137 0.13682,0.1087 0.17004,0.66025 0.15039,1.57617 -0.29216,14.58654 -1.67121,24.44513 -4.72461,29.56836 -12.11388,-2.39172 -18.82686,5.96527 -5.85938,11.75977 -22.21719,69.41267 -79.67219,85.3915 -130.76562,38.00781 -9.88116,-9.16465 -27.30575,-35.68948 -29.06641,-56.11328 -1.01507,-11.78674 -0.2426,-12.97276 10.18164,-15.67383 10.07962,-2.61191 10.53559,-0.24552 19.66602,9.97266 8.79307,9.84105 14.31941,9.96875 28.41406,9.96875 14.38466,0 20.8687,-3.73162 29.66797,-14.27149 4.53434,-12.0023 10.56595,-7.09242 13.80859,1.91797 3.19019,5.10667 6.32581,8.23676 12.99414,10.4375 15.49849,5.1149 44.45991,0.87162 50.07618,-14.00391 3.469,-9.19262 4.86956,-12.98916 5.36914,-13.16015 z m 402.27339,0.64258 c 15.0737,-0.18985 41.9166,2.76925 53.9102,5.16796 9.9645,1.993 13.2259,3.14007 10.5664,14.93164 -3.2221,13.52697 -15.3762,14.67342 -31.1133,15.32032 -17.0328,0.70026 -54.51697,-27.09294 -43.53122,-34.04297 1.42333,-0.9006 5.14412,-1.31381 10.16792,-1.37695 z m 267.9766,1.31445 c -2.4966,-0.0215 -2.7225,1.09314 -2.7227,3.32812 0,6.57375 12.7366,16.40746 27.7247,21.4043 22.5861,7.52994 66.5447,-10.13285 54.6992,-21.97851 -2.6008,-2.60076 -3.3832,-2.64123 -12.252,-0.61133 -5.211,1.19274 -11.4305,2.83197 -13.8203,3.64062 -7.3983,2.50359 -21.985,1.60667 -37.2851,-2.29101 -9.0803,-2.3131 -13.8472,-3.47072 -16.3438,-3.49219 z m -497.72851,12.42578 c -4.08797,-0.18523 -7.71094,2.8102 -7.71094,6.25391 0,3.9358 3.05274,6.83762 8.45508,6.07031 4.31838,-0.61325 7.84961,-2.6859 7.84961,-4.60547 -0.5286,-6.5041 -4.8019,-7.4094 -8.59375,-7.71875 z m -52.98047,6.49023 c -6.63235,-0.13636 -9.17677,6.08646 -4.02539,11.23829 4.06541,4.06569 13.25781,0.72179 13.25781,-4.82227 -1.49121,-4.44426 -5.58975,-6.1693 -9.23242,-6.41602 z m 409.79688,10.50977 c 7.0427,0.0351 4.7227,48.52536 -4.5918,65.93164 -14.4205,8.10792 -12.2961,6.31654 -11.1016,0.60547 3.6037,-17.13839 7.6198,-38.58067 8.9239,-47.65234 1.305,-9.0721 3.8511,-17.41171 5.6601,-18.5293 0.3919,-0.24231 0.7628,-0.35713 1.1094,-0.35547 z M 167.44922,342.1192 c -2.26975,0.0668 -4.38964,1.2567 -5.90039,3.70117 -2.68524,4.34512 14.24938,23.46534 24.60156,27.77539 11.31479,4.71073 19.56638,3.79066 35.59961,-3.9707 14.09567,-6.82364 24.90744,-18.8367 20.7207,-23.02344 -1.0058,-1.00488 -6.4227,1.44719 -12.04101,5.44727 -24.09201,17.15494 -44.23381,16.57539 -52.47461,-1.51172 -2.51554,-5.52072 -6.72124,-8.52976 -10.50586,-8.41797 z m 295.72461,0.0723 c -1.97768,-0.0113 -3.08594,1.43993 -3.08594,4.4375 0,5.00598 13.41477,19.17232 20.81641,25.83203 19.9618,17.95918 67.36369,2.21625 72.13867,-11.21485 3.45245,-8.99433 0.27363,-8.89834 -18.84375,0.5625 -23.31349,11.53755 -39.29845,9.26141 -54.95117,-7.82812 -7.05608,-7.70274 -12.77708,-11.77282 -16.07422,-11.78906 z m 503.65625,0.57421 c 0.0612,-0.01 0.1194,-0.008 0.17383,0.006 2.10315,0.53304 -0.84733,18.44884 -4.7461,26.48633 -1.39661,2.87899 -4.6263,15.94335 -7.17578,29.03125 -1.44083,7.39215 -1.89483,10.58775 -1.69531,11.57617 -2.62866,1.86361 -4.96989,3.89814 -7.03906,6.11329 1.72055,-19.51529 8.77935,-59.17697 19.83398,-72.78516 0.24756,-0.26033 0.46434,-0.39804 0.64844,-0.42774 z m -548.85547,1.30274 c 4.7308,-0.1333 10.70703,4.58838 10.70703,9.14648 0,1.53545 -3.92504,2.79102 -8.72266,2.79102 -9.33607,0 -12.17946,-8.3974 -3.91601,-11.56836 0.6037,-0.23172 1.25597,-0.35009 1.93164,-0.36914 z m 696.33789,5.58203 c 0.322,-0.0215 0.5424,0.0178 0.6504,0.125 2.1741,2.174 -2.7036,24.71123 -6.1797,28.60352 -1.5622,1.74867 -7.1898,3.64213 -12.5078,4.20898 -5.316,0.56697 -11.3982,3.39936 -13.5137,6.29297 -3.0832,4.21704 -12.4427,5.22599 -47.1738,5.08203 -29.6044,-0.12246 -51.46086,2.49164 -67.20509,8.24219 1.01299,-14.10595 5.18549,-40.4211 12.75781,-49.32617 1.62806,-1.5482 1.85248,6.60719 0.49805,18.12304 -2.33764,19.88791 -2.15829,20.64085 3.63281,14.99805 3.35373,-3.26733 6.09766,-10.72697 6.09766,-16.57617 0,-5.84961 0.39741,-10.63672 0.88281,-10.63672 0.48545,0 10.79785,2.54289 22.91995,5.64844 29.8183,7.63897 60.2192,5.02791 81.7812,-7.02344 7.9169,-4.42462 15.1102,-7.6091 17.3594,-7.76172 z m -278.29297,3.34766 c -2.65126,-0.0208 -6.14988,0.78664 -10.43945,2.47851 -19.02187,7.5022 -76.36432,24.95074 -82.38477,25.06836 -3.12332,0.0609 -8.64916,2.35803 -12.27539,5.10352 -6.28475,4.7571 -6.31213,5.42262 -0.60742,14.12695 3.29095,5.02409 10.97009,11.38277 17.0625,14.13086 13.07339,5.8964 39.85052,3.79507 56.11719,-4.40234 20.9769,-8.99271 30.89662,-24.3272 35.34765,-41.00782 3.24265,-12.15285 3.95604,-15.44549 -2.82031,-15.49804 z m -17.04883,16.96484 c 12.06966,0 -6.41643,23.17251 -25.3457,31.76953 -7.82842,3.55559 -19.82255,6.50155 -26.65234,6.54297 -13.64727,0.0843 -26.59024,-7.23001 -23.01954,-13.00781 2.18232,-3.53227 66.72844,-25.30469 75.01758,-25.30469 z m -224.64062,6.98047 c 6.22405,0 8.0576,1.45273 6.60547,5.23437 -1.10453,2.87898 -4.97984,5.23633 -8.61328,5.23633 -3.63243,0 -6.60743,-2.35735 -6.60743,-5.23633 0,-3.23935 3.28384,-5.23437 8.61524,-5.23437 z m -191.26367,3.70703 c 1.83571,-0.0915 4.58589,2.32647 7.56836,7.10156 2.51452,4.02562 4.05611,7.83436 3.42773,8.46289 -2.59268,2.59178 -13.29687,-6.03972 -13.29688,-10.7207 0,-3.18361 0.8733,-4.77247 2.30079,-4.84375 z m -117.95118,3.27344 c 1.95402,0 4.55999,6.71594 5.79102,14.92383 2.54845,16.99525 1.03902,40.92242 -2.25195,35.67382 -4.18057,-6.6681 -7.25376,-50.59765 -3.53907,-50.59765 z m -18.18945,1.61523 c 0.33528,-0.0113 0.55146,0.0263 0.63477,0.11133 0.66539,0.66599 2.07651,10.75815 3.13476,22.42578 l 1.92383,21.21289 -18.80664,0.0508 c -19.7109,0.0544 -67.80607,13.2601 -81.875,22.47852 -15.36783,10.06938 -16.50987,8.00645 -21,-37.91016 -2.22038,-22.70846 -1.97631,-23.94683 4.21484,-21.34179 22.26346,9.36827 61.45922,8.66547 92.00977,-1.64844 9.23325,-3.11709 17.41679,-5.32083 19.76367,-5.37695 z m 828.27732,12.34375 c 1.9201,0 3.4903,1.56904 3.4903,3.48828 0,1.91917 -1.5702,3.48827 -3.4903,3.48829 -1.918,0 -3.4883,-1.56912 -3.4883,-3.48829 0,-1.91924 1.5703,-3.48828 3.4883,-3.48828 z m 192.0957,4.63477 c 0.1691,0.0394 0.408,0.21846 0.7207,0.53125 0.8708,0.87088 1.288,2.46765 0.9278,3.54883 -0.3742,1.12248 -1.0522,0.44248 -1.5821,-1.58399 -0.4074,-1.55806 -0.4842,-2.36927 -0.2129,-2.48828 0.041,-0.0179 0.09,-0.0208 0.1465,-0.008 z m -893.22263,9.32226 c 1.75967,0 3.19727,3.92647 3.19727,8.72461 0,9.09963 -5.05619,11.91464 -7.83399,4.36133 -2.08051,-5.66007 0.54871,-13.08594 4.63672,-13.08594 z m 772.43163,0.002 c 2.5041,0 2.1514,7.64163 0.293,17.32226 -4.9119,-2.76887 -9.4389,-5.42498 -13.5059,-7.875 3.3318,-5.80762 8.1266,-9.44726 13.2129,-9.44726 z m -81.2148,3.67382 v 0 c 1.8847,0.11681 2.7135,3.28261 0.8887,8.03907 -1.2105,3.15379 -3.603,5.73242 -5.3164,5.73242 -3.9769,0 -3.8875,-3.84015 0.2383,-10.36523 1.5459,-2.44296 3.0554,-3.4738 4.1875,-3.40626 z m 361.8808,0.38868 c 0.1363,0.0206 0.2991,0.25087 0.4785,0.69922 0.4331,1.08181 0.3789,2.3731 -0.1191,2.87109 -0.498,0.49803 -0.8525,-0.38692 -0.7871,-1.9668 0.045,-1.09119 0.2006,-1.63792 0.4277,-1.60351 z m -88.2793,0.26562 c 0.2107,-0.0473 0.4781,0.1984 0.8106,0.71289 0.7991,1.23636 1.4632,4.10432 1.4746,6.3711 0.013,2.26677 -0.6502,4.12109 -1.4746,4.12109 -0.8243,0 -1.4879,-2.86593 -1.4766,-6.36914 0.012,-3.20692 0.2025,-4.73188 0.666,-4.83594 z m -76.5683,4.34766 c 0.06,-0.009 0.1243,-0.008 0.1933,0 0.368,0.0452 0.8678,0.33497 1.502,0.86133 1.2364,1.02618 2.248,3.09283 2.248,4.59179 0,4.11236 -2.5327,4.83256 -3.5566,1.01172 -1.1382,-4.24641 -1.2827,-6.33249 -0.3867,-6.46484 z m -151.6836,10.47461 c 1.5855,0.5503 3.1505,1.14341 4.6953,1.77734 v 0.01 c -1.1858,1.91924 -2.85,3.48828 -3.6953,3.48828 -0.8464,0 -1.5371,-1.56904 -1.5371,-3.48828 0,-0.65489 0.2054,-1.26158 0.541,-1.78711 z m 17.3047,7.79297 c 4.8236,2.54725 9.5961,5.23861 14.455,7.81836 -2.6632,8.59896 -5.8678,16.46138 -8.8691,20.2832 -1.9211,2.4455 -2.5898,5.35148 -1.4844,6.45703 4.5006,4.50017 12.5127,-6.60333 18.5235,-22.62109 8.6583,4.06621 17.8661,7.27217 28.4062,8.18359 -4.1615,5.11963 -9.03,9.68033 -14.4375,13.36328 -16.5924,11.2456 -36.2431,26.1522 -53.0898,33.07422 -1.0309,0.42357 -1.8065,0.76594 -2.6719,1.13672 0.3805,-13.31621 1.1759,-24.99551 3.1582,-42.91211 -0.1451,-16.38833 6.3376,-8.06111 10.2734,-11.99609 1.9198,-1.92026 4.169,-7.08445 5.7364,-12.78711 z m -817.19925,29.47656 c 1.28759,-0.0401 3.26878,0.77751 6.0332,2.24219 7.65049,4.05437 51.52107,11.13086 69.01367,11.13086 16.37567,0 15.93194,5.47662 -0.66797,8.25 -7.19694,1.20253 -25.90599,3.20143 -41.57617,4.43945 l -28.49023,2.25 -3.69336,-13.38086 c -2.93,-10.60868 -3.45247,-14.84392 -0.61914,-14.93164 z M 616.09375,492.75 c 1.35753,-0.15874 3.49394,1.20517 6.16992,2.34375 20.90389,8.88862 48.5777,18.26012 61.44336,20.18945 14.16454,2.12421 16.40438,-1.18931 12.87891,6.83985 -1.18065,2.68902 -0.72463,1.33229 -1.8086,3.46289 -23.12322,7.51835 -73.03665,3.00955 -75.62109,-2.40625 -0.46794,-0.98113 -2.52887,-9.12545 -3.93164,-18.54883 -1.33387,-8.95393 -0.87609,-11.6765 0.86914,-11.88086 z m -485.94922,16.08789 c 0.45045,0.0741 1.06334,1.53456 1.91797,4.20117 1.5375,4.79823 2.95232,12.25964 3.14258,16.57813 0.19128,4.31837 -1.22353,7.84961 -3.14258,7.84961 -1.91905,0 -3.33489,-7.4577 -3.14258,-16.57422 0.17688,-8.44396 0.47283,-12.17779 1.22461,-12.05469 z m 3.21289,33.30078 c 0.55393,0.12926 1.35961,1.2696 2.53125,3.28125 3.98928,6.8541 2.95822,22.20119 -1.20898,17.9707 -1.43878,-1.4618 -2.57034,-7.50017 -2.51172,-13.41796 0.0514,-5.12376 0.25409,-7.58723 0.9668,-7.82618 0.0692,-0.0227 0.14351,-0.0263 0.22265,-0.008 z" transform="scale(0.26458334)"/>
</svg>
