<svg width="693" height="372" viewBox="0 0 693 372" fill="none" xmlns="http://www.w3.org/2000/svg">
<path d="M557.929 84.8378C503.225 84.7159 510.893 110.061 512.75 147.572C510.104 188.478 555.117 207.111 593.053 190.539C630.989 173.967 637.267 89.0208 569.722 85.2057C565.501 84.9673 561.576 84.846 557.929 84.8378ZM116.797 106.479C96.3298 106.728 80.5791 122.412 68.5382 143.466C36.9468 241.05 155.964 214.822 162.255 181.439C170.385 138.302 152.87 113.542 127.227 107.641C123.621 106.811 120.146 106.438 116.797 106.479ZM294.214 109.833C268.701 109.176 237.354 133.224 231.188 162.185C224.777 236.758 329.586 245.52 328.696 158.426C328.344 123.946 312.832 110.312 294.214 109.833ZM435.22 131.861C410.598 132.194 382.423 153.289 372.574 194.354C376.341 267.199 474.42 262.907 477.064 186.545C478.344 149.557 458.35 131.548 435.22 131.861ZM551.646 217.628C491.975 217.618 488.753 308.794 488.43 325.327C492.882 344.595 604.948 367.233 605.08 338.202C605.595 225.179 619.951 222.378 556.042 217.788C554.544 217.68 553.078 217.628 551.646 217.628ZM135.146 237.52C109.901 237.68 81.4526 251.212 78.3194 268.65C72.9 298.814 97.6178 363.014 97.6178 363.014C155.513 385.488 187.105 358.723 187.105 358.723C187.105 358.723 183.537 304.417 174.218 262.212C170.287 244.407 153.569 237.403 135.146 237.52ZM294.282 241.019C291.4 241.022 288.286 241.303 284.92 241.885C228.25 251.678 232.569 234.262 223.059 353.358C286.969 377.977 328.737 355.862 328.737 355.862C328.359 303.703 337.51 240.986 294.282 241.019ZM424.04 262.633C422.032 262.614 420.007 262.69 417.977 262.854C378.125 266.073 374.423 304.105 367.286 351.854C363.578 372.587 466.108 370.129 469.144 352.342C480.689 284.698 454.165 262.928 424.04 262.633Z" fill="white"/>
<path d="M659.885 0.000167953C657.649 0.0217558 656.118 2.12792 656.819 5.80238C657.622 10.0131 656.933 6.82692 650.439 6.06703C647.038 6.63754 643.174 6.15393 644.22 14.4754C644.866 22.3833 644.342 24.2047 640.548 27.2323C637.847 29.3881 636.346 32.3382 636.698 34.8052C637.207 38.3831 638.789 38.9552 650.497 39.7932L663.72 40.7403L667.91 49.2591C673.418 60.4595 683.555 100.302 683.555 110.753C683.555 121.811 679.173 144.012 674.018 159.069C667.139 179.16 659.911 191.822 650.201 200.791L641.05 209.241L635.814 201.285C634.278 169.747 632.344 158.832 623.397 131.233C616.984 111.45 620.263 108.752 609.208 98.397C598.635 88.4933 587.562 81.465 567.446 81.5279C558.095 81.5572 545.344 83.2462 541.707 84.3857C538.071 85.5252 530.218 87.8202 524.257 89.4854C512.024 92.9029 507.885 98.1606 507.495 110.773C506.789 133.672 505.573 139.52 501.391 140.117C495.824 140.912 496.231 145.953 501.973 147.312C507.979 148.733 510.279 158.479 506.867 168.049C501.804 182.245 500.182 188.591 497.262 205.638C493.501 227.594 493.982 233.265 499.674 234.076C504.524 234.766 504.68 234.362 501.906 228.26C497.473 218.51 510.886 167.962 515.645 176.484C516.832 178.61 515.559 185.031 511.563 197.056C508.368 206.671 505.555 217.945 505.312 222.11C504.938 228.515 505.419 229.706 508.85 230.245C504.19 237.349 498.739 248.879 496.294 257.319C494.104 264.883 492.934 266.046 483.404 270.124C477.639 272.592 471.4 275.48 469.539 276.543C464.79 279.254 462.628 277.275 463.085 270.632C463.385 266.265 464.578 264.682 468.199 263.846C476.282 261.98 494.646 253.31 494.646 251.36C494.646 249.3 493.033 249.684 476.775 255.617C469.276 258.353 463.598 259.311 459.774 258.484C452.888 256.996 449.283 256.961 429.023 258.173C411.697 259.21 404.129 261.26 391.48 268.345C384.067 272.498 381.262 273.029 371.064 272.208C351.883 270.665 320.594 253.233 326.458 247.356C329.486 244.321 328.77 242.374 324.628 242.374C322.55 242.374 320.851 243.275 320.851 244.378C320.851 245.481 320 245.857 318.961 245.214C317.922 244.57 317.072 242.556 317.072 240.738C317.072 237.735 314.96 237.499 293.931 238.145C281.203 238.537 265.841 240.072 259.794 241.557C252.16 243.432 247.721 243.68 245.277 242.369C240.357 239.73 237.731 240.016 237.731 243.189C237.731 244.678 235.817 246.169 233.479 246.501C230.337 246.949 229.378 248.179 229.797 251.222C230.509 256.399 226.646 257.084 207.505 255.176C190.083 253.438 178.18 249.25 177.839 244.738C175.619 215.355 170.934 187.495 167.897 185.614C166.43 184.706 166.116 181.857 166.975 177.265C167.926 172.189 169.776 169.52 173.786 167.442C179.695 164.38 179.345 160.051 173.343 161.96C170.12 162.985 169.722 162.113 169.705 153.991C169.693 148.278 167.929 141.086 164.983 134.742C162.395 129.172 160.278 123.847 160.278 122.909C160.278 116.384 138.882 106.475 122.222 105.285C111.991 104.554 90.4207 112.157 79.893 120.204C63.9158 132.418 50.7119 164.852 56.1257 178.587C58.4238 184.418 63.0014 253.407 61.2092 255.203C59.4434 256.973 43.6901 246.22 36.3382 238.226C-6.94769 190.355 11.8888 134.299 41.0382 88.3555C42.1412 88.3555 44.6363 89.9948 47.93 91.1884C55.514 93.9369 73.0213 95.8044 75.5886 74.0345C79.0871 63.7701 82.7995 68.122 85.2691 56.127C84.6174 55.474 82.6252 54.9391 80.8416 54.9391C79.0578 54.9391 77.1539 53.2358 76.6105 51.1532C75.9492 48.6185 74.0334 47.3662 70.8164 47.3662C68.1733 47.3662 65.2827 46.0615 64.3923 44.4668C63.0891 42.1329 60.6327 41.8203 51.7963 42.8611C41.3286 44.0941 40.5658 44.5524 35.3743 52.7566C29.1457 62.5999 27.6453 78.2679 32.7431 80.2284C34.9522 81.0781 33.5296 84.4707 26.107 96.0507C4.90546 129.128 -5.18927 174.051 2.64161 200.479C9.2699 222.848 35.4765 254.388 52.8111 260.859L62.9902 264.659L65.2899 289.016C68.2093 319.931 68.7068 321.891 73.6359 321.891C76.8438 321.891 77.4266 320.99 76.6958 317.158C76.0904 313.984 76.6401 312.425 78.3643 312.425C79.8943 312.425 80.9614 314.533 81.0014 317.63C81.1128 326.43 85.9758 350.843 89.1094 358.336C92.0216 365.3 96.8378 367.746 98.4288 363.069C98.8715 361.768 97.6925 357.721 95.8093 354.077C91.8406 346.396 86.6049 320.82 86.6049 309.112C86.6047 302.964 87.3243 301.065 89.6577 301.065C92.7564 301.065 92.7022 299.131 89.287 287.967C88.131 284.187 88.4336 283.598 91.023 284.594C92.7486 285.257 94.146 285.614 94.1279 285.386C94.1095 285.159 92.5324 278.942 90.6216 271.57L87.1472 258.166L93.254 253.972C103.412 246.997 123.904 240.477 135.525 240.522C156.154 240.603 167.384 249.604 172.43 270.102C174.824 279.83 180.28 330.042 181.552 354.06C182.018 362.856 184.861 365.348 190.376 361.796C192.639 360.338 192.7 358.783 190.751 352.263C188.81 345.77 186.37 325.039 182.094 277.929C182.094 277.929 208.644 275.745 225.213 272.941C223.015 275.793 219.653 297.566 217.725 321.422C216.88 331.882 217.249 339.861 218.842 345.562C221.234 354.122 224.375 356.932 224.66 350.763C226.183 317.694 229.946 287.423 233.73 277.796C235.545 273.179 236.303 272.78 239.75 274.628C244.009 276.913 249.065 275.88 249.065 272.725C249.065 271.651 247.416 270.772 245.399 270.772C240.849 270.772 238.511 267.34 241.216 264.63C242.652 263.189 244.14 263.353 246.356 265.196C249.028 267.418 249.813 267.326 251.84 264.548C253.141 262.765 255.176 261.307 256.365 261.307C257.636 261.307 258.328 258.808 258.046 255.233C257.598 249.56 258.067 249.05 265.123 247.516C269.279 246.612 279.572 245.429 287.996 244.886C302.64 243.943 303.362 244.086 304.414 248.12C305.233 251.258 306.511 252.079 309.396 251.323C312.711 250.454 313.11 250.971 312.136 254.86C311.273 258.305 311.762 259.412 314.146 259.412C315.878 259.412 316.769 260.267 316.126 261.31C315.483 262.353 317.027 263.995 319.558 264.96C323.142 266.326 324.411 268.522 325.3 274.896C327.826 293.017 328.53 323.79 326.787 339.877C324.793 358.278 326.101 362.877 331.726 357.243C334.606 354.359 335.019 349.792 335.019 320.796L335.554 292.033L340.277 293.337C342.874 294.054 366.374 296.091 373.884 291.776C373.079 296.846 372.52 290.964 367.527 319.998C362.565 348.852 362.575 353.019 367.605 353.735C371.554 354.297 371.857 353.623 371.88 344.268C371.916 329.777 378.138 301.635 384.098 289.01C390.394 275.672 399.478 269.116 415.872 266.082C433.497 262.82 447.366 266.833 441.78 273.578C438.489 277.553 441.009 279.72 445.59 276.854C450.099 274.031 451.197 273.98 451.197 276.588C451.197 279.165 454.975 282.933 459.147 284.515C464.89 286.694 468.973 305.435 469.062 330.017L469.144 352.342L473.697 351.79C478.147 351.25 478.24 350.873 477.819 335.144C477.386 318.923 473.922 296.78 470.374 287.552C468.523 282.736 468.827 282.417 478.992 278.519C484.786 276.296 489.806 274.757 490.146 275.098C490.487 275.44 489.826 279.078 488.677 283.185C486.007 292.727 485.504 326.445 488.021 327.149C489.078 327.444 490.852 319.183 492.086 308.216C495.213 280.422 497.959 270.856 503.408 268.78C508.129 266.981 509.298 263.991 505.744 262.804C502.12 261.594 505.735 250.904 513.879 238.749C523.966 223.694 533.747 219.654 560.11 219.654C578.011 219.654 578.192 219.701 576.876 223.914C574.091 232.829 574.688 235.772 579.183 235.296C581.888 235.009 583.434 235.869 583.434 237.662C583.434 241.787 589.144 241.1 594.167 236.371C598.563 232.232 603.057 232.93 598.892 237.104C594.935 241.07 596.204 244.791 601.093 243.562C606.413 242.223 607.247 246.994 605.15 263.027C604.508 303.027 605.914 316.235 601.89 329.815C597.62 344.593 610.92 350.567 610.834 328.075C611.526 319.224 610.667 311.884 610.786 297.243C610.962 275.645 610.797 269.323 612.766 251.505C612.687 242.614 616.197 247.131 618.328 244.996C619.726 243.595 621.449 239.012 622.157 234.813C623.268 228.222 627.188 223.441 631.48 223.441C634.743 223.441 629.118 247.356 624.456 253.305C623.416 254.632 623.054 256.209 623.653 256.809C627.29 260.454 635.176 245.264 637.345 230.437C638.57 222.067 639.676 220.541 651.198 211.325C661.344 203.209 665.234 198.429 671.706 186.121C682.274 166.025 691.109 132.377 691.109 112.202C691.109 102.773 680.829 61.8743 674.853 47.5382C673.228 43.6424 672.63 38.5767 673.345 34.7589C674.646 27.8114 676.546 32.4577 676.546 32.4577C680.589 35.6234 688.712 34.8169 691.044 30.4508C692.119 28.4367 693 22.578 693 17.4306C693 7.37947 689.693 2.50769 684.283 4.58828C682.58 5.24339 680.023 4.81272 678.602 3.63056C677.18 2.44834 674.489 -1.12436 671.971 2.54109C669.237 3.25777 667.151 5.74617 664.971 3.04783C663.272 0.945481 661.413 -0.0146105 659.884 0.000167953H659.885ZM651.44 30.3262C653.518 30.3262 655.219 31.179 655.219 32.2203C655.219 33.2616 653.518 34.1133 651.44 34.1133C649.363 34.1133 647.663 33.2616 647.663 32.2203C647.663 31.179 649.363 30.3262 651.44 30.3262ZM51.029 82.1581C51.4879 82.1578 52.0067 82.1694 52.5886 82.1901C55.7064 82.3012 57.9762 83.2436 57.6331 84.2848C56.6351 87.3127 51.5053 87.5249 49.1142 84.6373C47.5378 82.7337 47.8164 82.1606 51.029 82.1581V82.1581ZM576.065 88.6344C576.965 88.6344 576.484 90.9945 574.995 93.8789C570.991 101.64 570.26 115.819 573.827 116.548C575.884 116.968 577.437 113.905 579.494 105.371C581.052 98.9048 583.359 93.2854 584.62 92.8831C586.268 92.3575 586.068 94.6338 583.912 100.976C581.17 109.026 581.169 110.064 583.898 112.799C586.627 115.534 587.062 115.342 588.856 110.613C589.938 107.761 590.823 104.632 590.823 103.658C590.823 102.684 591.584 101.887 592.513 101.887C593.484 101.887 593.538 104.842 592.641 108.83C591.371 114.473 591.941 117.478 595.687 124.886C600.886 135.17 605.87 154.43 605.901 164.366C605.933 174.345 600.119 182.186 588.622 187.672H588.629C583.086 190.317 576.001 192.878 572.884 193.364C549.557 197.721 518.805 178.759 512.751 147.572C519.801 148.252 521.639 140.699 512.814 140.191C512.922 139.022 513.377 137.978 513.377 135.971C513.377 129.922 520.755 112.103 524.766 108.466C528.442 105.131 528.495 105.177 527.378 110.775C526.541 114.966 527.027 116.792 529.2 117.628C531.375 118.464 533.205 116.406 536.086 109.878C540.019 100.967 546.65 92.4215 549.632 92.4215C550.507 92.4215 549.034 96.7515 546.358 102.044C541.266 112.115 540.808 119.874 545.305 119.874C546.76 119.874 548.274 117.745 548.67 115.143C549.43 110.15 558.417 95.2772 559.823 96.6856C560.276 97.1393 559.394 101.066 557.864 105.412C556.334 109.758 555.582 114.618 556.192 116.213C557.954 120.813 562.969 118.493 563.572 112.799C564.202 106.846 573.619 88.6344 576.067 88.6344H576.065ZM279.491 89.7097C276.208 89.7269 272.919 91.2554 270.071 94.2931C266.902 97.6745 263.655 99.026 258.701 99.026C254.286 99.026 250.585 100.334 248.516 102.626C246.729 104.605 242.483 106.747 239.08 107.387C224.699 115.126 226.209 118.847 227.245 130.272C226.974 136.696 232.186 136.349 230.6 136.349C224.687 136.487 217.329 144.71 224.507 153.134C227.027 156.092 223.556 161.158 222.394 162.322C220.838 163.882 221.336 165.097 224.284 166.942C229.908 170.462 229.707 179.447 223.956 181.638C218.283 183.8 214.682 188.295 215.205 192.562C215.436 194.446 215.125 198.576 208.737 202.679C207.024 206.551 209.393 211.406 209.393 213.043C209.393 214.681 207.606 218.445 205.421 221.408C200.755 227.732 201.901 234.173 208.143 236.698H208.136C212.416 238.43 223.699 238.127 225.592 236.23C226.198 235.622 225.736 233.33 224.565 231.137C222.001 226.335 224.128 221.355 226.743 226.038C227.69 227.733 230.072 229.121 232.037 229.121C234.002 229.121 236.135 229.974 236.778 231.015C238.434 233.702 244.81 233.365 245.758 230.541C246.382 228.683 247.21 228.718 249.612 230.704C253.165 233.644 257.336 231.846 255.866 228.008C255.273 226.458 256.859 224.334 259.742 222.82C263.781 220.699 262.608 219.826 268.282 221.858C280.335 226.174 294.931 225.214 306.485 217.141L311.961 213.314C308.733 219.151 312.018 220.627 314.847 222.41C317.255 225.39 323.473 225.685 326.151 224.833C328.466 224.097 329.982 224.466 329.982 225.767C329.982 229.722 338.055 226.777 342.072 221.356C345.819 216.3 342.383 211.65 339.261 209.358C337.443 208.023 335.955 205.564 335.955 203.893C335.955 200.867 336.972 192.682 334.133 193.631C333.148 191.309 327.091 191.85 326.916 191.968C328.271 187.792 329.39 183.325 329.39 183.325C336.132 184.867 338.773 177.971 331.48 176.608C330.977 175.988 333.346 171.339 332.925 159.976C342.829 158.779 338.486 153.894 333.207 153.183C339.948 145.564 335.192 131.088 332.317 126.63C336.883 118.079 323.067 108.493 314.62 108.493C312.258 108.493 308.829 106.836 307.002 104.813C305.175 102.789 301.325 100.616 298.447 99.9825C295.568 99.3489 291.256 96.7438 288.867 94.1945C286.047 91.1864 282.771 89.6926 279.488 89.7097H279.491ZM280.461 96.186C282.366 96.186 284.279 97.2508 284.712 98.5524C285.211 100.051 283.652 100.919 280.461 100.919C277.271 100.919 275.713 100.051 276.211 98.5524C276.644 97.2508 278.556 96.186 280.461 96.186ZM520.447 98.8669C520.75 98.9163 520.926 99.1343 520.926 99.5304C520.926 100.572 519.651 102.485 518.093 103.781C516.512 105.096 515.259 105.3 515.259 104.244C515.259 103.203 516.534 101.291 518.093 99.9944C519.081 99.1727 519.941 98.7847 520.447 98.8669ZM258.849 102.813C259.827 102.813 260.626 103.665 260.626 104.706C260.626 105.747 259.301 106.599 257.681 106.599C256.062 106.599 255.262 105.747 255.904 104.706C256.546 103.665 257.871 102.813 258.849 102.813ZM275.85 108.493C276.828 108.493 277.629 109.345 277.629 110.386C277.629 111.427 276.302 112.279 274.682 112.279C273.063 112.279 272.263 111.427 272.905 110.386C273.547 109.345 274.872 108.493 275.85 108.493ZM291.796 110.386C293.355 110.386 294.63 111.238 294.63 112.279C294.63 113.32 293.355 114.172 291.796 114.172C290.238 114.172 288.962 113.32 288.962 112.279C288.962 111.238 290.238 110.386 291.796 110.386ZM241.853 112.09C242.495 112.07 242.923 112.286 242.923 112.838V112.839C243.487 113.404 242.175 114.817 240.008 115.979C237.276 117.444 236.068 117.473 236.068 116.073C236.068 114.352 239.925 112.152 241.853 112.09V112.09ZM139.498 117.418C141.576 117.418 143.276 118.269 143.276 119.311C143.276 120.352 141.576 121.204 139.498 121.204C137.42 121.204 135.719 120.352 135.719 119.311C135.719 118.269 137.42 117.418 139.498 117.418ZM283.761 117.937C291.748 117.914 300.708 119.32 307.29 121.703C319.926 126.278 326.116 138.907 327.509 146.348C329.235 155.569 326.951 155.388 323.336 148.71C318.688 142.871 312.108 143.436 305.38 144.008C296.868 144.731 291.522 145.762 289.814 152.582C285.323 161.669 284.671 146.078 271.141 145.084C258.847 144.181 253.208 144.259 249.63 153.164C246.679 159.113 245.459 159.941 240.364 159.443C234.688 158.889 238.714 159.538 239.97 152.766C242.831 137.339 249.62 136.305 259.774 122.062C262.621 121.499 266.15 122.115 268.467 120.801C271.926 118.84 277.549 117.956 283.761 117.937ZM95.9278 118.479C97.4625 118.453 99.6377 119.166 103.605 120.597C108.28 122.284 121.032 124.176 131.942 124.801L151.777 125.936L156.324 135.129C158.825 140.185 161.275 148.542 161.77 153.7C162.572 162.066 162.235 163.193 158.64 164.135C154.002 165.35 153.14 170.429 157.572 170.429C159.765 170.429 160.198 171.534 159.245 174.689C155.522 187.011 144.714 198.625 131.537 204.465C126.639 206.636 116.864 208.819 109.813 209.318C99.1056 210.075 95.5929 209.52 88.4924 205.946L79.9913 201.668L79.3909 189.362C78.1301 163.514 84.528 128.977 92.0947 120.787C93.4989 119.267 94.3932 118.504 95.9278 118.479ZM603.08 118.927C605.201 118.927 608.423 129.545 612.7 150.639C613.175 152.982 613.264 154.899 612.898 154.899C611.156 154.899 609.709 151.999 609.674 148.431C609.651 146.261 607.609 138.735 605.134 131.707C601.821 122.301 601.279 118.927 603.08 118.927ZM437.374 128.312C431.911 128.282 426.794 129.17 420.542 130.897C412.986 132.985 404.921 135.918 402.62 137.415C400.319 138.912 396.053 140.136 393.141 140.136C385.61 140.136 374.234 148.551 370.876 156.605C367.745 164.114 368.682 170.429 372.927 170.429C376.108 170.429 376.251 171.238 373.848 175.662C372.866 177.47 371.552 182.144 370.929 186.049C370.068 191.444 368.909 193.148 366.102 193.148C361.436 193.148 361.255 196.987 365.866 198.195C368.118 198.786 370.118 202.214 371.608 208.041C376.879 228.652 393.226 244.002 414.032 247.874C429.905 250.829 448.157 247.081 457.382 238.971C459.95 236.713 461.251 236.546 462.954 238.253C464.176 239.478 466.281 240.48 467.632 240.48C470.461 240.48 470.982 233.685 468.282 232.012C464.261 229.521 468.539 225.497 474.037 226.599C480.354 227.865 480.705 226.994 476.482 220.534C473.002 215.211 474.047 214.658 480.09 218.627C482.949 220.504 485.193 220.807 487.108 219.574C489.207 218.223 489.349 217.387 487.665 216.293C486.038 215.235 485.893 212.723 487.148 207.3C489.839 195.667 489.297 168.402 486.164 157.829C482.715 146.191 473.279 136.003 463.302 133.146C451.991 129.908 444.397 128.351 437.374 128.312ZM535.014 128.446C527.508 128.48 526.5 132.412 527.471 135.859C528.554 139.704 533.16 134.258 536.091 134.316C539.707 134.389 542.985 138.17 543.247 133.6C543.399 130.936 539.98 128.423 535.014 128.446ZM569.919 131.16C565.372 131.227 562.678 134.862 562.486 137.045C562.111 141.3 568.408 136.96 571.693 136.689C574.194 136.484 579.025 142.219 579.488 137.134C579.619 135.699 577.135 131.958 574.797 131.557C573.088 131.263 571.435 131.138 569.919 131.16ZM429.262 133.511C430.201 133.553 431.029 133.917 431.413 134.539C432.027 135.535 430.779 136.351 428.639 136.351C424.078 136.351 423.618 135.297 427.523 133.795C428.095 133.575 428.699 133.485 429.262 133.511ZM439.752 134.456C440.729 134.456 442.055 135.309 442.697 136.351C443.339 137.392 442.539 138.243 440.919 138.243C439.299 138.243 437.973 137.392 437.973 136.351C437.973 135.309 438.774 134.456 439.752 134.456ZM463.366 138.881C463.668 138.851 464.031 138.949 464.42 139.191C465.459 139.834 466.31 140.736 466.31 141.195C466.31 141.654 465.459 142.031 464.42 142.031C463.381 142.031 462.532 141.128 462.532 140.025C462.532 139.336 462.864 138.931 463.366 138.881ZM430.194 142.031C431.233 142.031 432.608 142.882 433.251 143.923C433.893 144.965 433.569 145.816 432.529 145.816C431.491 145.816 430.115 144.965 429.473 143.923C428.831 142.882 429.155 142.031 430.194 142.031ZM139.383 144.321C137.126 144.392 135.173 147.338 136.354 150.422C136.979 152.054 138.394 153.389 139.498 153.389C142.558 153.389 144.056 147.734 141.638 145.311C140.923 144.594 140.136 144.297 139.383 144.321ZM409.743 145.816C410.913 145.816 416.725 149.229 422.659 153.401C434.47 161.704 451.615 168.535 460.643 168.535C467.504 168.535 469.907 173.221 471.454 189.609C472.281 198.37 471.615 202.12 467.713 210.661C462.011 223.145 451.564 235.189 442.839 239.339C430.03 245.43 405.081 241.824 394.815 232.398C381.292 219.981 377.536 204.21 378.164 196.199C383.32 195.863 383.713 190.715 377.854 190.386C377.507 176.71 394.995 146.607 409.743 145.816ZM439.958 145.858C444.69 145.901 460.643 152.368 460.643 154.244C460.643 155.684 459.171 155.433 448.363 152.151C437.222 148.769 433.255 145.798 439.958 145.858ZM111.607 149.603C106.809 149.603 105.711 150.972 106.888 155.484C108.195 160.49 113.823 159.294 114.599 153.844C115.042 150.726 114.251 149.603 111.607 149.603ZM311.679 150.295C316.505 150.425 320.847 151.842 321.596 156.464C322.535 162.267 320.449 166.822 314.916 168.336C308.689 170.039 305.103 170.617 298.601 169.375C292.365 168.184 290.882 153.361 301.003 151.422C303.88 150.87 307.926 150.194 311.679 150.295ZM384.51 150.361C384.562 150.369 384.605 150.39 384.641 150.426C385.254 151.04 383.903 154.054 381.639 157.123C379.375 160.192 377.523 163.589 377.523 164.672C377.523 165.756 376.673 166.642 375.634 166.642C374.595 166.642 373.745 165.988 373.745 165.188C373.745 162.605 382.909 150.108 384.51 150.361H384.51ZM264.05 150.402C273.998 150.246 287.491 155.071 278.994 166.398C275.792 170.052 261.814 170.677 256.684 167.682C252.822 165.427 252.021 157.362 255.529 152.783C256.806 151.287 260.157 150.463 264.05 150.402ZM623.01 153.006C626.01 153.006 629.331 179.889 629.437 205.03C629.453 208.84 629.574 211.513 629.745 213.431C628.3 213.302 626.587 212.459 625.571 211.286C624.33 209.853 622.485 208.38 621.471 208.014C620.294 207.588 620.256 204.273 621.366 198.828C622.321 194.142 619.711 196.292 620.389 180.932C621.067 165.573 622.246 153.006 623.01 153.006ZM436.711 153.446C438.117 153.482 439.821 154.106 441.01 155.298C442.058 156.347 446.692 158.393 451.307 159.844C457.24 161.709 458.315 162.492 454.975 162.519C448.828 162.568 434.196 157.362 434.196 155.126C434.196 153.964 435.304 153.411 436.711 153.446ZM532.462 154.059C530.998 154.07 530.095 154.132 529.9 154.252C526.817 156.146 528.899 161.864 535.109 168.558C543.948 178.085 549.165 181.25 558.936 183.009C573.378 185.61 585.992 179.659 587.598 169.487C589.263 158.945 585.667 157.277 556.82 155.21C546.3 154.456 536.856 154.025 532.462 154.059ZM302.867 156.753C299.221 156.885 297.37 159.394 300.471 162.502C303.298 165.334 307.647 164.211 307.647 160.606C307.647 159.131 306.868 157.179 304.531 156.846C303.946 156.763 303.388 156.734 302.867 156.753V156.753ZM268.35 157.316C265.4 157.15 263.371 160.017 265.123 162.856C266.602 165.256 271.163 165.314 272.62 162.951C273.23 161.962 272.548 159.05 270.504 157.954C269.76 157.555 269.03 157.355 268.35 157.316ZM68.1533 158.038C68.9928 157.992 69.1037 162.581 68.4279 170.509C66.6481 191.392 65.1003 190.788 65.7967 169.482C65.9667 164.276 66.8998 159.2 67.869 158.203C67.9715 158.098 68.0663 158.043 68.1533 158.038ZM327.696 159.392C327.77 159.451 327.788 159.75 327.778 160.247C327.62 168.16 326.873 173.51 325.219 176.29C318.662 174.992 315.028 179.526 322.048 182.67C310.021 220.329 278.919 228.998 251.26 203.29C245.91 198.318 236.477 183.928 235.525 172.847C234.975 166.452 235.393 165.808 241.036 164.342C246.492 162.925 246.739 164.209 251.681 169.753C256.441 175.092 259.434 175.162 267.064 175.162C274.851 175.162 278.361 173.137 283.124 167.418C285.579 160.907 288.844 163.571 290.6 168.459C292.327 171.23 294.024 172.929 297.634 174.123C306.024 176.898 321.702 174.595 324.742 166.525C326.745 161.205 327.474 159.216 327.697 159.392H327.696ZM545.416 159.733C553.576 159.63 568.107 161.236 574.6 162.537C579.994 163.618 581.759 164.241 580.319 170.638C578.576 177.977 571.996 178.599 563.477 178.95C554.256 179.33 533.965 164.251 539.912 160.48C540.683 159.992 542.696 159.767 545.416 159.733ZM421.041 167.188C418.828 167.087 416.867 168.712 416.867 170.58C416.867 172.716 418.52 174.291 421.444 173.875C423.782 173.542 425.694 172.417 425.694 171.375C425.408 167.846 423.094 167.355 421.041 167.188ZM392.361 170.709C388.771 170.635 387.394 174.011 390.182 176.806C392.383 179.012 397.359 177.198 397.359 174.19C396.552 171.779 394.333 170.843 392.361 170.709ZM614.201 176.411C618.013 176.43 616.758 202.738 611.715 212.182C609.47 216.386 606.102 217.097 606.102 213.367C606.102 211.992 603.754 221.809 605.705 212.51C607.657 203.212 609.831 191.578 610.537 186.656C611.243 181.734 612.621 177.211 613.6 176.604C613.812 176.473 614.013 176.41 614.201 176.411V176.411ZM90.6476 185.614C89.4185 185.651 88.2706 186.296 87.4528 187.622C85.9991 189.98 95.1671 200.353 100.771 202.691C106.896 205.247 111.363 204.748 120.042 200.537C127.673 196.835 133.525 190.317 131.259 188.046C130.715 187.501 127.782 188.831 124.741 191.001C111.699 200.308 100.795 199.994 96.334 190.181C94.9723 187.186 92.6963 185.554 90.6476 185.614ZM250.735 185.653C249.664 185.647 249.064 186.435 249.064 188.061C249.064 190.777 256.327 198.463 260.334 202.076C271.139 211.82 296.8 203.278 299.385 195.991C301.254 191.112 299.533 191.163 289.184 196.296C276.563 202.556 267.91 201.321 259.436 192.049C255.617 187.87 252.52 185.662 250.735 185.653ZM523.478 185.968C524.617 186.257 523.02 195.977 520.91 200.337C520.154 201.899 518.405 208.988 517.024 216.088C516.245 220.099 516 221.833 516.108 222.369C514.684 223.38 513.417 224.484 512.297 225.686C513.228 215.098 517.05 193.58 523.034 186.197C523.213 186.008 523.36 185.938 523.478 185.968ZM226.267 186.671C228.828 186.599 232.063 189.16 232.063 191.633C232.063 192.466 229.938 193.148 227.341 193.148C222.286 193.148 220.748 188.592 225.221 186.872C225.548 186.746 225.901 186.682 226.267 186.671V186.671ZM603.223 189.7C603.397 189.689 603.517 189.71 603.575 189.768C604.752 190.947 602.111 203.175 600.23 205.286C599.385 206.235 596.337 207.262 593.459 207.57C590.58 207.877 587.289 209.414 586.143 210.984C584.474 213.272 579.407 213.819 560.605 213.741C544.58 213.675 532.748 215.093 524.225 218.213C524.774 210.56 527.032 196.283 531.131 191.452C532.013 190.612 532.135 195.037 531.401 201.284C530.135 212.074 530.233 212.483 533.368 209.421C535.184 207.648 536.669 203.601 536.669 200.428C536.669 197.254 536.884 194.657 537.146 194.657C537.408 194.657 542.993 196.037 549.555 197.722C565.697 201.866 582.153 200.449 593.826 193.911C598.111 191.51 602.006 189.783 603.223 189.7ZM452.571 191.516C451.136 191.505 449.243 191.943 446.921 192.861C436.623 196.931 405.581 206.397 402.321 206.461C400.631 206.494 397.64 207.74 395.677 209.23C392.275 211.811 392.26 212.172 395.348 216.894C397.13 219.62 401.286 223.07 404.584 224.561C411.661 227.76 426.157 226.621 434.963 222.173C446.319 217.294 451.689 208.974 454.098 199.924C455.853 193.331 456.24 191.545 452.571 191.516ZM443.342 200.721C449.876 200.721 439.868 213.292 429.621 217.956C425.383 219.885 418.891 221.484 415.193 221.506C407.806 221.552 400.799 217.584 402.732 214.45C403.914 212.533 438.855 200.721 443.342 200.721ZM321.735 204.508C325.104 204.508 326.097 205.296 325.311 207.348C324.713 208.91 322.615 210.188 320.648 210.188C318.681 210.188 317.072 208.91 317.072 207.348C317.072 205.59 318.85 204.508 321.735 204.508ZM218.197 206.518C219.19 206.468 220.679 207.781 222.294 210.372C223.655 212.556 224.49 214.622 224.149 214.963C222.746 216.37 216.951 211.687 216.951 209.147C216.951 207.42 217.424 206.557 218.197 206.518ZM154.344 208.295C155.402 208.295 156.813 211.938 157.48 216.391C158.859 225.612 158.041 238.594 156.26 235.746C153.997 232.129 152.333 208.295 154.344 208.295V208.295ZM144.498 209.171C144.679 209.165 144.796 209.186 144.841 209.231C145.202 209.593 145.965 215.068 146.538 221.398L147.579 232.907L137.399 232.935C126.729 232.965 100.693 240.129 93.0764 245.131C84.7572 250.594 84.1391 249.474 81.7084 224.562C80.5064 212.242 80.6386 211.571 83.9902 212.984C96.0432 218.067 117.26 217.685 133.799 212.089C138.797 210.398 143.227 209.203 144.498 209.172V209.171ZM592.879 215.868C593.918 215.868 594.767 216.719 594.767 217.761C594.767 218.802 593.918 219.654 592.879 219.654C591.84 219.654 590.99 218.802 590.99 217.761C590.99 216.719 591.84 215.868 592.879 215.868ZM213.33 223.441C214.282 223.441 215.061 225.57 215.061 228.174C215.061 233.11 212.323 234.638 210.819 230.54C209.692 227.469 211.117 223.441 213.33 223.441ZM587.517 225.434C588.538 225.497 588.987 227.214 587.999 229.796C587.344 231.507 586.049 232.906 585.121 232.906C582.969 232.906 583.016 230.822 585.25 227.282C586.087 225.956 586.905 225.397 587.518 225.434H587.517ZM613.77 232.906C614.87 232.906 615.246 233.759 614.603 234.801C613.961 235.842 613.06 236.694 612.602 236.694C612.144 236.694 611.77 235.842 611.77 234.801C611.77 233.759 612.669 232.906 613.77 232.906ZM179.047 254.052C179.744 254.029 180.817 254.473 182.313 255.268C186.454 257.468 210.204 261.306 219.673 261.306C228.538 261.306 228.298 264.278 219.312 265.783C215.416 266.435 205.287 267.519 196.805 268.191L181.382 269.412L179.382 262.153C177.796 256.397 177.513 254.099 179.047 254.052ZM333.517 267.338C334.251 267.251 335.408 267.991 336.857 268.609C348.173 273.431 363.154 278.516 370.119 279.563C377.787 280.715 378.999 278.918 377.09 283.274C376.451 284.733 376.698 283.997 376.111 285.153C363.594 289.232 336.573 286.785 335.174 283.847C334.921 283.315 333.806 278.896 333.046 273.783C332.325 268.925 332.572 267.449 333.517 267.338ZM70.4517 276.065C70.6957 276.106 71.0279 276.899 71.4902 278.345C72.322 280.949 73.0884 284.996 73.1919 287.339C73.2954 289.682 72.5292 291.598 71.4902 291.598C70.4513 291.598 69.6863 287.552 69.7897 282.606C69.8855 278.025 70.0451 275.999 70.4517 276.065ZM72.0704 294.137C72.3702 294.036 72.8369 294.666 73.5613 295.913C75.7211 299.632 75.163 307.958 72.9077 305.663C72.1284 304.87 71.5167 301.594 71.5482 298.383C71.5755 295.603 71.6851 294.266 72.0704 294.137Z" fill="#1C2541"/>
</svg>
