<svg width="650" height="551" viewBox="0 0 650 551" fill="none" xmlns="http://www.w3.org/2000/svg">
<path fill-rule="evenodd" clip-rule="evenodd" d="M342.379 0.587232C399.005 -0.790286 456.402 -1.97495 506.392 24.6595C561.489 54.0149 610.097 97.9475 633.639 155.768C658.186 216.057 650.992 282.594 637.323 346.238C622.234 416.495 613.84 502.494 551.496 538.23C489.133 573.978 413.945 522.045 342.379 515.304C280.17 509.445 216.879 527.33 160.047 501.363C94.6091 471.463 21.4417 430.181 3.55919 360.494C-14.2311 291.166 38.6964 225.65 73.2048 162.945C101.407 111.698 133.974 62.7121 184.062 32.5006C231.316 3.99862 287.211 1.92927 342.379 0.587232Z" fill="url(#paint0_linear)"/>
<defs>
<linearGradient id="paint0_linear" x1="310" y1="54.5" x2="556" y2="551" gradientUnits="userSpaceOnUse">
<stop stop-color="#7BDFF2"/>
<stop offset="1" stop-color="#378CFF"/>
</linearGradient>
</defs>
</svg>
