<svg width="356" height="327" viewBox="0 0 356 327" fill="none" xmlns="http://www.w3.org/2000/svg">
<g filter="url(#filter0_d)">
<rect x="28" y="24" width="300" height="271" fill="white"/>
</g>
<path fill-rule="evenodd" clip-rule="evenodd" d="M159.359 62.3446C184.876 60.9779 264.844 56.7584 280.5 77.0001C296.007 97.0491 285.061 145.047 280.5 170C275.524 197.226 302.931 222.5 225 222.5C150.5 240.5 124.335 244.482 98.2762 228.881C74.2039 214.47 85.4889 184.537 81.931 156.66C78.8887 132.823 66.6969 95.5568 81.9309 77.0001C96.8774 58.7936 135.869 63.6026 159.359 62.3446Z" fill="url(#paint0_linear)"/>
<g clip-path="url(#clip0)">
<path d="M255.876 258.298C255.232 262.991 254.934 266.217 251.684 269.697C243.291 278.682 235.325 259.099 227.051 250.007C221.163 243.537 221.141 236.891 213.949 231.872C204.3 225.138 194.091 233.398 184.075 227.208C174.108 221.049 169.13 214.241 166.78 202.855C164.708 192.816 166.987 186.406 170.973 176.948C174.972 167.458 177.795 161.018 186.696 155.703C195.888 150.214 203.359 150.31 213.949 152.076C225.691 154.035 234.796 156.348 240.678 166.585C245.054 174.201 243.394 180.106 243.298 188.865C243.148 202.517 236.265 209.414 235.961 223.063C235.925 224.682 235.961 227.208 235.961 227.208C235.961 227.208 257.832 244.057 255.876 258.298Z" fill="white"/>
<path d="M238.82 254.873C237.061 253.154 232.557 245.755 228.811 238.433L221.999 225.119L213.406 224.997C194.788 224.732 184.04 217.209 178.463 200.539C173.74 186.421 176.991 173.705 188.355 161.851C195.321 154.585 199.021 153.322 212.765 153.516C225.828 153.7 229.885 155.119 237.419 162.136C240.967 165.44 242.271 166.096 244.607 165.753C247.901 165.27 251.787 167.441 252.683 170.265C253.447 172.67 249.939 180.8 248.138 180.8C247.144 180.8 246.563 183.286 245.856 190.569C245.068 198.683 244.316 201.575 241.418 207.633C237.32 216.2 237.215 217.311 240.131 221.216C245.394 228.266 255.07 245.482 255.916 249.302C256.751 253.074 256.623 253.686 254.574 255.735C252.749 257.56 251.311 258 247.164 258C242.633 258 241.635 257.626 238.82 254.873V254.873ZM251.272 252.756C252.248 251.58 251.859 250.135 249.099 244.686C245.593 237.766 235.484 221.276 233.409 219.094C231.325 216.903 232.037 213.179 235.083 210.333C241.405 204.427 245.394 182.106 241.478 174.548C238.684 169.157 231.98 162.603 226.351 159.761C221.049 157.084 220.139 156.934 209.906 157.04C199.3 157.151 198.999 157.215 195.534 160.071C191.551 163.354 183.278 175.552 181.614 180.594C180.981 182.513 180.711 186.969 180.972 191.171C181.744 203.559 188.147 213.71 198.429 218.846C202.317 220.788 204.154 221.043 213.67 220.962L224.49 220.87L230.706 233.649C237.793 248.215 242.587 254.188 247.194 254.188C248.783 254.188 250.619 253.543 251.272 252.756V252.756ZM203.849 216.698C198.588 214.79 194.353 210.636 191.313 204.401C187.838 197.276 186.801 189.766 188.309 182.664C189.743 175.914 193.27 170.947 199.998 166.206C209.338 159.624 217.836 160.432 229.523 169.012C234.793 172.882 235.647 174.193 237.48 181.232C238.969 186.947 238.608 190.997 235.836 199.693C233.642 206.575 230.013 210.741 222.414 215.1C216.934 218.243 209.801 218.857 203.849 216.698V216.698ZM221.842 210.737C229.711 205.8 233.325 198.529 233.379 187.53C233.432 176.577 229.853 171.982 217.075 166.598C212.077 164.491 211.835 164.478 207.683 166.064C193.655 171.422 187.958 187.696 195.03 202.213C198.215 208.753 202.557 212.813 207.028 213.433C211.952 214.115 218.297 212.961 221.842 210.737V210.737ZM204.643 206.77C200.584 204.7 198.193 201.41 197.371 196.764C196.527 191.995 198.939 191.842 200.644 196.557C202.242 200.975 205.246 203.674 208.566 203.674C210.56 203.674 211.246 204.136 211.246 205.478C211.246 206.471 210.567 207.543 209.738 207.861C207.855 208.584 208.447 208.711 204.643 206.77V206.77ZM214.71 198.839C214.377 197.174 214.104 193.225 214.104 190.064C214.104 184.557 214.032 184.383 212.362 185.895C211.403 186.762 209.836 187.472 208.879 187.472C207.233 187.472 207.227 187.374 208.767 185.672C209.663 184.681 211.188 181.786 212.155 179.238C213.384 175.999 214.444 174.605 215.677 174.605C217.269 174.605 217.494 175.762 217.994 186.519C218.299 193.071 218.728 199.065 218.947 199.839C219.193 200.708 218.575 201.365 217.331 201.557C215.73 201.803 215.191 201.243 214.71 198.839H214.71ZM224.464 197.833C222.709 196.077 222.511 195.08 222.997 190.431C223.756 183.17 225.96 178.894 228.945 178.894C231.736 178.894 231.856 180.035 229.425 183.46C228.417 184.88 227.31 187.853 226.964 190.065C226.413 193.59 226.638 194.369 228.781 196.355C230.126 197.602 230.948 198.901 230.607 199.242C229.365 200.484 226.445 199.814 224.464 197.833V197.833ZM201.716 183.85C201.716 181.858 201.201 179.714 200.572 179.085C198.615 177.127 200.994 175.827 203.422 177.527C205.69 179.116 206.169 182.586 204.541 185.628C202.97 188.565 201.716 187.775 201.716 183.85V183.85ZM208.857 170.307C207.995 168.911 208.197 168.784 212.518 168.002C215.717 167.423 216.132 167.556 215.845 169.067C215.468 171.058 209.929 172.041 208.857 170.307V170.307ZM249.364 172.708C249.364 170.245 247.655 168.41 245.362 168.41C243.209 168.41 243.121 167.491 246.181 176.988C246.561 178.166 246.881 178.092 248.003 176.568C248.752 175.55 249.364 173.813 249.364 172.708V172.708ZM100.267 218.04C99.3891 216.618 99.2823 206.438 100.119 203.913C100.55 202.612 101.603 201.768 102.793 201.768C104.59 201.768 104.69 202.111 103.975 205.819C103.546 208.047 103.154 211.769 103.105 214.09C103.021 218.117 101.566 220.141 100.267 218.04H100.267ZM118.124 214.318C116.113 211.598 116.145 210.421 118.458 201.936C118.647 201.242 119.496 200.813 120.343 200.983C121.601 201.235 121.909 202.74 122.014 209.155C122.155 217.732 121.394 218.742 118.124 214.318H118.124ZM133.614 213.87C129.985 208.33 131.905 200.995 137.546 198.85C140.568 197.701 141.189 198.229 142.495 203.062C144.055 208.84 140.472 216.064 136.046 216.064C135.499 216.064 134.405 215.077 133.614 213.87V213.87ZM138.667 209.824C139.888 207.144 140.125 203.391 139.136 202.401C138.062 201.328 135.008 204.789 135.008 207.08C135.008 209.713 135.919 212.252 136.863 212.252C137.247 212.252 138.059 211.16 138.667 209.824V209.824ZM151.926 210.153C151.659 207.376 151.816 204.111 152.277 202.897C152.738 201.684 153.114 199.633 153.114 198.34C153.114 195.855 155.499 194.241 156.981 195.723C157.518 196.26 157.342 199.184 156.528 203.236C155.795 206.884 155.264 210.928 155.346 212.222C155.441 213.709 154.929 214.691 153.955 214.889C152.733 215.137 152.312 214.152 151.926 210.153H151.926ZM170.637 211.697C170.282 210.692 169.089 209.133 167.986 208.232C166.036 206.641 166.027 206.511 167.647 203.628C168.565 201.996 169.315 199.883 169.315 198.934C169.315 197.131 171.728 195.661 173.197 196.569C174.213 197.198 173.229 211.396 172.083 212.65C171.618 213.158 171.013 212.758 170.638 211.697H170.637ZM263.841 212.364C263.008 211.85 262.548 208.85 262.419 203.112C262.263 196.115 262.481 194.62 263.659 194.62C264.782 194.62 265.209 196.459 265.652 203.198C266.237 212.089 265.928 213.655 263.841 212.364V212.364ZM250.019 209.73C249.659 209.37 249.364 207.86 249.364 206.375C249.364 204.523 248.88 203.674 247.824 203.674C246.705 203.674 246.428 203.088 246.812 201.53C248.2 195.903 249.957 192.237 251.265 192.237C252.438 192.237 252.7 193.83 252.7 200.974C252.7 209.073 251.917 211.629 250.019 209.73ZM100.789 186.136C99.6066 184.877 98.4156 182.181 98.1424 180.144C97.7193 176.989 98.1281 175.811 100.89 172.187C103.438 168.846 104.736 167.934 106.944 167.934C109.425 167.934 109.908 168.421 111.067 172.083C112.647 177.077 111.52 181.99 107.899 185.898C105.005 189.02 103.545 189.069 100.789 186.136V186.136ZM107.423 180.43C108.65 177.657 109.073 175.249 108.68 173.282C108.354 171.651 107.902 170.316 107.676 170.316C107.449 170.316 106.002 171.699 104.459 173.388C101.481 176.649 100.702 181.373 102.798 183.469C104.678 185.349 105.481 184.821 107.423 180.43ZM120.821 185.963C117.18 181.334 118.414 171.868 123.053 168.827C125.303 167.353 125.651 167.351 127.861 168.799C129.903 170.138 130.241 171.071 130.228 175.342C130.21 180.804 127.072 187.707 124.369 188.228C123.525 188.39 121.929 187.371 120.821 185.963V185.963ZM126.179 180.725C127.504 178.128 127.783 172.581 126.624 171.865C124.415 170.5 121.214 177.236 122.202 181.172C122.954 184.168 124.512 183.993 126.179 180.725ZM138.893 184.051C136.6 182.122 135.962 180.823 135.965 178.095C135.968 173.728 138.976 168.666 142.321 167.394C145.969 166.007 147.186 167.702 147.951 175.24C148.559 181.22 148.452 181.738 146.134 184.056C143.077 187.114 142.532 187.113 138.893 184.051V184.051ZM144.504 180.863C145.686 178.655 145.778 173.198 144.664 171.441C144.062 170.491 143.25 170.916 141.344 173.182C138.975 175.997 138.681 178.86 140.438 181.992C141.198 183.347 143.52 182.702 144.504 180.863H144.504ZM160.421 185.883C160.071 185.534 159.785 183.225 159.785 180.753C159.785 177.063 159.445 176.168 157.885 175.76C155.995 175.266 155.995 175.242 157.839 171.122C159.522 167.362 160.128 166.857 162.406 167.315C162.799 167.394 163.239 171.747 163.384 176.989C163.592 184.517 163.377 186.519 162.352 186.519C161.639 186.519 160.77 186.233 160.421 185.883H160.421ZM261.47 181.014C257.988 177.166 258.896 165.793 262.882 163.305C264.167 162.504 265.174 162.962 267.913 165.595C271.186 168.741 271.311 169.097 270.734 173.652C269.78 181.188 265.037 184.956 261.47 181.014ZM266.484 177.051C268.018 174.184 267.649 169.82 265.726 168.079C263.432 166.004 262.706 166.905 262.706 171.827C262.706 178.507 264.43 180.89 266.484 177.051ZM174.166 174.216C173.049 173.497 173.026 172.861 174.03 170.436C176.744 163.884 180.738 164.282 179.162 170.947C178.285 174.656 176.583 175.77 174.166 174.216H174.166ZM123.271 158.26C122.913 157.902 122.619 155.986 122.619 154.003C122.619 151.696 122.073 150.091 121.103 149.548C119.735 148.782 119.726 148.286 121.007 144.497C122.818 139.136 124.956 138.934 125.13 144.107C125.201 146.203 125.394 149.956 125.56 152.445C125.846 156.736 124.688 159.677 123.271 158.26V158.26ZM100.58 156.35C98.5568 153.913 98.9421 147.071 101.279 143.938C103.832 140.515 105.793 140.144 108.266 142.618C110.995 145.347 111.03 153.315 108.325 156.02C106.011 158.335 102.356 158.491 100.58 156.35L100.58 156.35ZM106.385 153.224C108.436 149.392 106.99 142.075 104.722 144.808C102.783 147.145 101.885 150.745 102.698 152.923C103.681 155.555 105.077 155.669 106.385 153.224V153.224ZM141.304 156.419C140.986 155.59 140.726 153.66 140.726 152.13C140.726 149.984 140.29 149.349 138.82 149.349C136.569 149.349 136.363 147.583 138.313 145.004C139.083 143.986 139.726 142.234 139.743 141.111C139.775 138.987 142.179 137.361 143.096 138.844C143.384 139.311 143.761 143.796 143.933 148.81C144.166 155.597 143.944 157.926 143.065 157.926C142.415 157.926 141.622 157.248 141.304 156.419V156.419ZM158.204 156.444C157.891 155.628 157.896 153.055 158.214 150.725C158.717 147.056 158.564 146.489 157.066 146.489C154.302 146.489 153.995 145.452 156.004 142.897C157.035 141.586 157.878 139.571 157.878 138.418C157.878 135.834 158.612 135.028 160.354 135.696C162.416 136.488 162.297 157.926 160.231 157.926C159.428 157.926 158.516 157.259 158.203 156.444L158.204 156.444ZM175.266 155.782C173.349 153.385 172.989 150.079 174.119 145.243C175.452 139.536 177.347 136.952 180.184 136.973C187.314 137.025 187.944 147.11 181.237 153.818C177.807 157.248 176.724 157.604 175.266 155.782ZM180.786 150.063C183.083 146.344 182.936 141.406 180.515 140.947C178.462 140.558 176.939 144.162 176.939 149.411C176.939 153.971 178.236 154.191 180.786 150.063H180.786ZM243.329 153.479C242.979 153.129 242.694 151.997 242.694 150.963C242.694 149.928 242.077 148.606 241.323 148.024C240.173 147.137 240.14 146.243 241.118 142.485C242.496 137.187 243.17 136.33 244.856 137.729C246.713 139.27 247.114 154.114 245.3 154.114C244.565 154.114 243.678 153.828 243.329 153.479H243.329ZM260.279 152.913C259.992 152.165 259.885 148.376 260.04 144.494C260.294 138.165 260.52 137.435 262.229 137.435C263.68 137.435 264.088 138.004 263.935 139.818C263.825 141.128 263.611 144.739 263.459 147.841C263.193 153.267 261.47 156.015 260.279 152.913H260.279ZM195.116 151.816C191.866 147.901 193.524 139.303 197.988 136.913C200.269 135.692 202.848 136.383 202.561 138.137C202.452 138.799 202.861 140.549 203.469 142.024C205.053 145.868 204.875 146.939 202.108 150.229C199.451 153.386 196.899 153.966 195.116 151.816ZM199.619 148.205C200.979 146.845 201.167 139.818 199.843 139.818C198.425 139.818 196.951 143.186 196.951 146.427C196.951 149.531 197.756 150.068 199.619 148.205H199.619ZM217.599 150.619C217.249 150.27 216.963 147.697 216.963 144.901C216.963 142.105 216.55 139.818 216.044 139.818C214.708 139.818 213.152 143.119 213.152 145.95C213.152 147.76 212.656 148.396 211.246 148.396C209.058 148.396 208.887 147.141 210.452 142.581C212.084 137.825 214.31 135.116 216.614 135.082C219.106 135.046 219.792 137.236 219.809 145.298C219.82 150.796 219.221 152.242 217.599 150.619V150.619ZM229.987 150.619C229.638 150.27 229.352 147.053 229.352 143.471C229.352 137.904 229.594 136.959 231.02 136.959C232.456 136.959 232.693 137.95 232.726 144.107C232.763 150.799 231.994 152.627 229.987 150.619V150.619ZM102.607 125.045C102.607 121.55 102.192 118.85 101.654 118.85C101.13 118.85 100.701 119.279 100.701 119.803C100.701 120.327 100.012 120.756 99.1698 120.756C98.0816 120.756 97.8398 120.273 98.3341 119.088C99.1869 117.044 100.882 112.128 101.292 110.51C101.458 109.855 102.2 109.319 102.94 109.319C103.963 109.319 104.443 111.55 104.938 118.612C105.296 123.723 105.804 128.655 106.068 129.572C106.415 130.777 106.001 131.24 104.577 131.24C102.788 131.24 102.607 130.672 102.607 125.045V125.045ZM120.027 127.409C117.44 126.367 116.506 123.023 117.166 117.163C117.738 112.086 120.339 109.319 124.538 109.319C126.665 109.319 127.408 109.921 128.244 112.321C130.184 117.885 129.576 122.523 126.505 125.595C123.494 128.606 123.204 128.687 120.027 127.409ZM124.948 122.45C127.152 119.304 126.916 113.481 124.56 112.864C121.436 112.047 119.358 116.213 120.324 121.361C121.019 125.064 122.82 125.488 124.948 122.45ZM141.223 125.555C140.876 124.994 140.483 122.791 140.35 120.66C140.216 118.53 139.58 116.46 138.936 116.062C137.125 114.943 139.715 107.413 141.911 107.413C143.383 107.413 143.585 108.445 143.585 115.991C143.585 120.708 143.617 124.879 143.656 125.259C143.776 126.415 141.896 126.644 141.223 125.555L141.223 125.555ZM157.766 124.33C157.704 123.151 157.73 121.616 157.825 120.921C157.919 120.225 157.113 119.424 156.032 119.141C153.593 118.504 153.586 117.835 155.973 113.38C157.022 111.424 157.879 108.663 157.879 107.245C157.879 104.436 158.83 103.356 160.403 104.378C162.007 105.421 160.848 126.475 159.186 126.475C158.467 126.475 157.829 125.51 157.766 124.33V124.33ZM173.751 124.732C171.97 122.764 171.619 115.669 173.108 111.752C173.621 110.401 175.173 108.78 176.555 108.15C178.796 107.129 179.275 107.26 180.971 109.353C183.54 112.526 182.819 120.875 179.688 124.208C177.132 126.93 175.843 127.044 173.751 124.732ZM179.798 114.932C179.798 112.246 179.398 111.225 178.345 111.225C175.882 111.225 173.748 120.107 175.733 122.092C177.08 123.439 179.798 118.651 179.798 114.932V114.932ZM226.068 125.604C225.771 125.125 225.328 120.836 225.082 116.073C224.662 107.934 224.748 107.413 226.517 107.413C228.242 107.413 228.399 108.082 228.399 115.436C228.399 119.849 228.659 124.138 228.977 124.967C229.603 126.598 227.03 127.161 226.068 125.604V125.604ZM253.494 124.019C251.394 121.92 251.107 120.956 251.512 117.362C252.104 112.115 254.351 108.586 257.624 107.764C261.04 106.907 262.927 108.297 264.54 112.859C266.269 117.748 264.817 121.791 260.337 124.56C256.439 126.969 256.443 126.97 253.494 124.019ZM258.375 122.07C260.203 121.369 262.706 116.848 262.706 114.249C262.706 111.48 260.377 109.922 258.078 111.152C255.813 112.364 253.749 118.056 254.601 120.741C255.249 122.784 255.909 123.016 258.375 122.07ZM209.949 124.86C209.614 124.525 209.34 122.71 209.34 120.827C209.34 118.425 208.766 117.044 207.418 116.202C205.625 115.082 205.593 114.816 206.942 112.208C207.737 110.671 208.387 108.749 208.387 107.937C208.387 107.095 209.207 106.46 210.293 106.46C212.064 106.46 212.199 107.095 212.199 115.458C212.199 123.71 211.542 126.454 209.949 124.86V124.86ZM240.47 124.886C240.121 124.537 239.835 122.264 239.835 119.835C239.835 117.406 239.362 114.947 238.785 114.369C237.603 113.187 238.468 107.781 239.991 106.84C241.812 105.714 242.469 107.911 242.937 116.706C243.285 123.218 243.106 125.522 242.256 125.522C241.623 125.522 240.819 125.236 240.47 124.886V124.886ZM194.082 118.682C194.074 115.891 193.805 112 193.48 110.034C192.952 106.837 193.104 106.46 194.92 106.46C196.823 106.46 196.951 106.939 196.951 114.085C196.951 118.278 196.973 122.031 197.001 122.424C197.03 122.817 196.386 123.278 195.572 123.447C194.382 123.695 194.09 122.762 194.082 118.682H194.082Z" fill="black"/>
</g>
<defs>
<filter id="filter0_d" x="0" y="0" width="356" height="327" filterUnits="userSpaceOnUse" color-interpolation-filters="sRGB">
<feFlood flood-opacity="0" result="BackgroundImageFix"/>
<feColorMatrix in="SourceAlpha" type="matrix" values="0 0 0 0 0 0 0 0 0 0 0 0 0 0 0 0 0 0 127 0"/>
<feOffset dy="4"/>
<feGaussianBlur stdDeviation="14"/>
<feColorMatrix type="matrix" values="0 0 0 0 0 0 0 0 0 0 0 0 0 0 0 0 0 0 0.06 0"/>
<feBlend mode="normal" in2="BackgroundImageFix" result="effect1_dropShadow"/>
<feBlend mode="normal" in="SourceGraphic" in2="effect1_dropShadow" result="shape"/>
</filter>
<linearGradient id="paint0_linear" x1="155.895" y1="79.7155" x2="248.666" y2="218.881" gradientUnits="userSpaceOnUse">
<stop stop-color="#7BDFF2"/>
<stop offset="1" stop-color="#378CFF"/>
</linearGradient>
<clipPath id="clip0">
<rect width="173" height="154" fill="white" transform="translate(98 104)"/>
</clipPath>
</defs>
</svg>
