<svg width="24" height="24" viewBox="0 0 24 24" fill="none" xmlns="http://www.w3.org/2000/svg">
<g clip-path="url(#clip0)">
<path d="M3.30981 18.9383C1.21886 18.2136 0.989971 16.8133 2.87195 16.26C3.51415 16.0711 4.38402 15.5866 4.80496 15.1834L5.5703 14.4502C2.33047 13.9897 0.348792 11.8008 1.67199 10.3081C2.02993 9.9126 2.00237 9.80068 1.40526 9.22589C0.271762 8.13501 -0.10027 7.12997 0.0222958 5.49009C0.488572 1.53788 1.53476 1.2431 3.64132 3.06704C5.69808 4.87742 10.5707 6.9018 10.8509 6.06219C11.7549 4.10457 13.2601 2.87525 14.9933 2.79596C17.1294 2.58479 18.7394 3.91783 20.2638 5.25625L21.3686 4.81424C22.3672 4.4147 24 4.44123 24 4.85716C24 5.10157 23.1486 5.70244 21.7972 6.41167C20.5443 7.06902 20.2129 7.5304 20.8625 7.71267C22.3909 8.14142 23.4659 8.50668 23.4659 8.59714C23.0863 9.91738 21.4255 9.53452 20.5995 9.44227L20.2769 10.7251C19.3809 14.2888 16.8117 16.9312 12.7058 18.5122C9.7368 19.308 7.50641 19.7701 3.30981 18.9383ZM17.4969 11.9659C18.311 10.2099 18.9075 6.4267 17.54 5.38918C16.0147 4.24659 13.2642 4.92586 12.9034 6.53416C12.6386 7.71401 12.3509 8.00104 11.3484 8.08613C9.49602 8.24336 6.41051 7.06871 3.46929 5.08666C2.67766 4.55329 1.97613 4.17073 1.91026 4.23661C1.84427 4.30263 1.67954 4.84987 1.54401 5.45282C1.11824 7.34801 2.2758 8.61099 5.24215 9.48758C7.09142 10.1288 6.47803 11.1078 4.85438 11.1677C3.34538 11.2461 3.2082 11.4741 4.27755 12.1261C4.8618 12.4823 5.64195 12.6753 6.51058 12.6786C8.3867 12.686 8.73667 12.9553 8.12453 13.921C7.86069 14.3375 6.99628 15.3116 6.20351 16.0859C4.57309 17.6783 4.67255 17.672 6.92233 17.6391C10.9594 17.8462 15.3365 15.4762 17.4969 11.9659Z" fill="#5E6472"/>
</g>
<defs>
<clipPath id="clip0">
<rect width="24" height="24" fill="white"/>
</clipPath>
</defs>
</svg>
