<svg width="377" height="444" viewBox="0 0 377 444" fill="none" xmlns="http://www.w3.org/2000/svg">
<path fill-rule="evenodd" clip-rule="evenodd" d="M191.745 24.3878C244.223 28.6077 297.936 36.857 332.506 76.5523C368.811 118.24 385.63 176.402 370.408 229.539C355.973 279.931 307.268 307.78 259.857 330.166C213.059 352.263 160.945 371.914 113.723 350.739C65.3065 329.028 43.848 276.754 27.9063 226.156C9.46443 167.623 -19.2856 99.0204 19.4032 51.3748C57.9601 3.89164 130.765 19.4843 191.745 24.3878Z" fill="url(#paint0_linear)"/>
<g clip-path="url(#clip0)">
<path d="M120.038 133.289C115.717 132.13 111.673 129.145 109.483 125.499C107.498 122.193 107.236 121.147 107.172 116.247C107.114 111.773 107.114 111.773 108.705 109.455C113.232 102.224 122.545 104.718 129.735 108.414C133.466 110.309 136.067 113.635 136.693 117.312C136.733 117.546 136.811 117.93 136.867 118.164C138.521 130.669 130.113 135.859 120.038 133.289ZM123.686 128.733C123.686 128.335 124.198 127.475 124.824 126.82C126.005 125.585 126 124.64 124.819 125.824C124.059 126.586 119.786 127.491 118.298 127.206C116.764 126.912 117.128 127.496 119.116 128.516C121.354 129.664 123.686 129.775 123.686 128.733H123.686ZM120.362 121.866C123.271 120.485 124.421 118.069 124.355 113.475C123.61 105.173 112.776 108.574 112.356 114.717C112.227 117.467 112.913 120.243 113.954 121.188C114.632 121.803 116.643 122.434 118.372 122.574C118.606 122.593 119.502 122.275 120.362 121.866ZM119.255 99.9247C116.647 97.4513 114.134 95.4985 113.16 95.1887C112.631 95.0207 111.939 94.3696 111.62 93.7417C110.185 90.9123 109.891 83.5034 110.944 76.7293C111.759 68.2509 113.441 62.4891 117.934 56.3847C121.827 51.1542 124.456 48.1866 126.5 46.7159C128.644 45.1726 128.856 44.5591 127.193 44.709C125.147 44.8934 122.581 44.2214 121.65 43.2576C116.965 39.6082 113.273 38.1958 109.968 35.2944C108.298 33.8032 108.298 33.8032 108.595 29.4236C109.405 21.1675 112.224 13.5834 118.682 7.96633C135.454 -6.92098 163.712 0.364489 175.333 19.0098C180.799 26.1927 182.809 28.4194 183.871 37.8508C184.425 42.741 184.027 46.5376 182.737 48.6632C172.114 69.4572 148.378 55.6447 139.715 81.7356C139.395 83.1247 135.407 90.3479 137.548 97.2685C137.878 98.9341 138.708 100.258 137.948 100.891C130.808 101.941 124.484 104.777 119.255 99.9247ZM126.164 97.712C126.594 97.2892 124.718 95.3343 123.941 95.3947C123.45 95.4328 122.953 95.4281 122.836 95.3838C120.844 94.6365 120.41 95.3717 121.837 97.0722C122.845 98.273 123.138 98.3899 124.497 98.1355C125.337 97.9783 126.087 97.7875 126.164 97.7116V97.712ZM123.313 88.3396C123.463 87.6366 123.608 86.2559 123.636 85.2714C124.712 77.1083 127.006 67.962 132.437 61.7638C139.899 52.1398 153.871 54.3688 163.849 47.0753C166.083 45.3203 166.841 44.3883 167.715 42.3245C168.111 41.3872 168.801 39.7902 169.246 38.7757C170.226 36.5435 170.407 30.8243 169.619 26.9862C168.214 18.0089 160.63 12.0729 154.929 8.99612C148.675 5.85356 140.819 4.65443 134.525 5.88166C132.049 6.36456 127.491 8.40009 124.797 10.2261C119.729 14.2938 113.683 22.2585 113.484 29.3918C113.484 30.5216 113.609 30.6291 114.865 30.5763C115.625 30.5443 119.135 30.6612 122.664 30.836C129.082 31.1537 129.082 31.1537 129.362 29.7497C130.013 26.4865 133.164 23.1817 136.875 21.8691C141.514 20.6865 147.01 24.0621 148.314 28.3782C149.743 37.4634 141.986 43.9016 137.071 46.3613C122.997 55.0073 116.55 66.8304 116.347 84.4373C116.328 87.9619 116.463 89.1439 116.918 89.4257C117.246 89.6289 118.758 89.7552 120.278 89.7064C122.978 89.6198 123.047 89.5885 123.313 88.3396ZM136.76 40.0877C136.865 39.7652 136.543 39.5515 135.942 39.5459C133.966 39.2163 133.16 36.6164 131.26 36.5726C128.214 36.1128 121.674 35.1266 117.861 35.4488C117.861 35.9688 121.269 37.4248 121.816 37.4248C122.109 37.4248 122.705 37.8562 123.139 38.3834C124.451 39.9744 125.479 40.3056 129.166 40.3263C131.106 40.3371 132.812 40.4647 132.956 40.6097C133.419 41.0739 136.578 40.6403 136.76 40.0877Z" fill="url(#paint1_linear)"/>
</g>
<g clip-path="url(#clip1)">
<path d="M116.051 195.05C132.97 194.993 152.383 204.776 165.095 225.081C187.744 281.186 105.46 315.338 85.2328 252.458C73.1545 214.911 92.1078 195.13 116.051 195.05ZM147.927 304.456C202.601 304.486 211.818 352.71 225.277 415.581C235.62 428.002 146.47 457.552 146.815 435.21C147.925 363.396 74.3944 310.929 137.971 304.942C141.449 304.615 144.763 304.455 147.927 304.456ZM41.4989 324.11L73.5309 396.004L36.1607 386.83L6.44774 324.834L41.4989 324.11Z" fill="white"/>
<path d="M130.533 167.914C130.752 167.909 130.97 167.911 131.184 167.917C138.732 168.15 143.419 175.436 142.283 176.513C156.031 168.805 168.953 175.111 174.407 189.199C181.749 191.419 202.99 200.065 192.026 213.593C209.231 224.133 210.373 235.936 199.889 241.588C218.991 249.509 227.756 274.767 212.887 283.92C219.961 298.878 227.098 313.727 204.053 321.31C206.984 324.666 205.686 330.193 201.011 330.326C215.564 349.706 220.368 381.501 226.285 403.703C226.424 403.87 226.614 404.949 226.709 406.102C227.145 410.937 231.131 422.535 223.175 419.491C221.838 418.247 221.806 418.178 221.634 416.144C221.193 411.359 219.004 406.997 218.682 402.129C218.504 401.431 218.144 399.843 217.883 398.601C206.205 353.382 195.697 331.087 181.09 319.745C174.181 353.536 132.253 340.386 145.991 327.483C123.084 330.912 124.479 315.202 133.341 309.631C117.879 313.962 116.444 325.955 118.853 335.751C119.475 337.47 119.578 339.108 120.339 340.723C120.545 341.029 120.715 341.556 120.715 341.894C122.385 349.153 132.862 358.991 138.45 373.326C140.731 377.85 144.949 389.355 145.563 392.723C145.671 393.316 145.944 394.164 146.169 394.606C146.395 395.049 146.874 396.51 147.233 397.853C148.827 403.809 150.049 407.493 150.431 407.493C150.646 407.493 151.167 407.127 151.587 406.679C152.008 406.231 152.621 405.784 152.949 405.686C153.586 405.494 155.717 403.875 158.024 401.832C159.84 400.223 164.688 395.272 164.692 395.023C164.692 394.919 165.019 394.45 165.414 393.982C170.681 387.374 173.582 377.688 175.194 368.819C176.477 363.018 176.718 354.998 175.776 349.481C175.59 348.394 175.388 346.743 175.326 345.812C175.264 344.88 174.995 343.268 174.728 342.23C173.71 338.4 182.272 338.287 183.016 348.211C183.255 350.307 183.503 353.038 183.566 354.28C183.631 355.522 183.798 357.133 183.938 357.859C182.286 379.414 176.976 394.987 161.56 408.693C158.589 411.609 153.346 414.401 151.528 416.347C152.698 421.26 154.28 428.996 154.338 434.551L154.396 440.294C150.955 444.851 148.821 445.724 146.83 437.981C146.528 435.845 145.195 430.284 144.717 429.163C143.836 426.929 143.595 423.226 142.847 420.474C142.847 419.163 142.297 418.887 139.251 418.67C131.262 417.955 120.989 412.656 113.621 406.457C108.019 401.503 104.883 395.468 100.814 388.828C100.37 387.916 99.8829 387.169 99.7327 387.169C99.5821 387.169 99.1439 387.454 98.7589 387.803C95.5233 391.108 87.0289 388.417 82.0363 384.377C78.5629 381.209 76.4085 377.935 72.6408 374.747C72.4633 374.747 71.6995 374.017 70.9458 373.124C69.5763 371.504 69.5751 371.5 69.7461 369.871C69.8404 368.974 70.1198 367.853 70.3652 367.38C70.8045 366.535 70.7935 366.498 69.7471 365.229C68.9304 364.236 68.6344 363.578 68.4721 362.386C68.2834 361.003 68.3557 360.628 69.1368 358.93C69.8165 357.454 70.2256 356.924 70.9616 356.575C73.1011 355.56 71.6366 354.359 68.3274 354.413C67.2547 354.431 65.2929 354.321 63.9665 354.169C59.8575 353.698 59.8924 353.692 60.0821 354.854C60.1713 355.402 60.4241 356.196 60.6438 356.618C60.8629 357.04 61.2419 357.767 61.4849 358.233C63.2414 361.631 64.4333 366.092 66.9831 369.572C68.172 371.875 69.3051 373.949 69.5014 374.182C69.6977 374.415 69.9529 374.923 70.069 375.312C70.1852 375.7 70.9022 377.497 71.663 379.305C73.2937 383.199 75.4856 387.665 77.0443 392.078C78.3428 395.573 77.4911 402.098 66.7136 399.256C60.9911 396.585 52.448 397.601 45.4726 394.119C44.7382 393.639 44.7029 393.642 44.4057 394.194C44.1475 394.674 44.2463 394.92 45.0229 395.732C45.5321 396.263 46.2674 397.19 46.6575 397.791C47.3803 398.904 53.404 404.949 55.3665 406.53C65.5358 414.687 80.2302 423.921 92.0074 416.943C96.0982 414.697 97.2007 411.101 100.173 406.613C101.738 405.4 106.469 404.397 105.539 408.291C105.248 411.065 103.233 414.7 101.44 417.212C86.053 439.675 68.7434 425.681 51.8189 416.597C50.8871 415.705 49.0876 414.154 47.8205 413.151C41.285 407.858 33.1922 396.757 30.7206 387.905C30.7003 387.267 30.4439 386.302 30.1569 385.761C29.8682 385.22 29.6338 384.625 29.6338 384.44C29.6338 384.255 29.2072 383.745 28.6837 383.307C28.1562 382.864 27.3309 381.65 26.8262 380.576C25.8311 378.455 24.028 376.584 22.2989 375.875C19.7359 374.825 18.8513 373.53 18.8513 370.825C18.8513 368.866 18.4979 367.754 17.7913 367.484C17.5154 367.379 16.7502 366.93 16.0913 366.487C15.1261 365.839 14.8071 365.399 14.4607 364.239C14.2238 363.446 13.8419 362.589 13.6116 362.336C13.3372 362.035 13.1319 360.954 13.0173 359.207C12.8265 356.312 12.2998 354.322 11.4857 353.434C11.2011 353.123 10.6468 351.98 10.2553 350.893C9.86317 349.806 9.16066 348.091 8.69199 347.082C5.82159 340.829 3.12738 333.539 3.21158 326.572C3.26688 324.04 5.58629 322.457 8.35217 320.918C16.6301 318.681 25.8642 318.753 36.5843 319.709C41.1889 320.952 43.302 320.923 49.2659 331.98C49.7366 333.377 50.2235 334.647 50.3457 334.802C52.5948 337.805 53.0055 341.553 54.9811 344.595C55.081 344.992 55.3883 345.584 55.6637 345.911C56.1359 346.473 56.281 346.49 58.283 346.206C74.6039 343.965 98.2544 346.581 103.127 365.131C103.797 366.779 104.586 371.085 104.546 372.882C104.531 373.639 104.895 374.736 105.724 376.411C106.706 378.386 107.905 380.661 108.93 382.905C109.141 383.567 109.523 383.684 109.711 383.145C109.778 382.951 109.751 381.759 109.652 380.495C109.552 379.231 109.497 377.675 109.53 377.036C109.889 370.665 110.704 364.301 111.381 357.951C111.749 353.944 112.186 352.659 112.701 350.824C110.235 342.224 109.232 338.18 108.701 327.48C108.628 327.291 108.676 326.574 108.8 325.887C108.531 314.126 117.698 305.888 128.62 302.529C125.732 297.184 124.93 292.686 125.416 288.785C117.728 287.666 110.318 284.824 103.193 280.27C102.452 279.841 101.678 279.328 101.471 279.128C100.842 278.527 95.6789 281.819 93.542 282.159C90.1629 284.041 84.9039 284.68 86.53 279.407C88.2505 275.312 92.1798 275.729 94.4841 273.394C86.0252 263.511 75.4811 252.518 75.8813 237.269C75.8813 236.312 75.9116 235.356 75.9487 234.401C72.9439 234.085 69.9765 233.516 67.1198 232.626C44.3495 225.526 70.5918 195.705 80.4097 194.333C82.5684 186.656 89.7203 187.265 96.9568 188.015C102.163 179.686 106.117 172.755 119.395 173.216C123.459 169.416 127.248 167.991 130.533 167.914V167.914ZM119.671 226.431C119.671 226.431 102.093 234.269 83.6224 234.687C83.9465 242.995 86.8356 251.779 94.8695 261.07C95.5852 261.972 96.5184 263.16 96.943 263.711C97.7677 264.781 100.861 267.362 101.864 267.816C102.441 268.078 104.152 267.681 105.602 266.949C107.145 266.17 108.278 265.815 108.721 265.971C109.845 266.368 110.216 266.972 110.216 268.404C110.216 269.541 110.081 269.935 109.507 270.464C108.377 271.505 108.565 272.393 110.066 273.116C110.764 273.452 111.753 274.007 112.266 274.349C116.322 277.04 122.474 279.385 128.622 280.449C132.554 274.397 138.912 269.835 141.778 264.908C153.106 245.431 136.379 237.208 119.671 226.431ZM110.328 242.36C110.891 242.352 111.375 242.442 111.493 242.633C111.59 242.788 111.891 242.915 112.165 242.915C120.067 247.654 116.722 258.365 110.222 250.574C106.939 246.502 107.15 246.895 107.379 245.315C107.648 243.448 107.842 243.052 108.684 242.67C109.121 242.472 109.765 242.367 110.328 242.36ZM96.4714 243.215C97.6096 243.181 98.6496 243.916 99.4256 245.415C100.885 248.521 97.9806 258.52 92.7841 250.619C92.6802 250.276 92.5853 249.106 92.5751 248.018C92.5599 246.256 92.6414 245.94 93.3409 245.113C94.3873 243.877 95.4676 243.246 96.4714 243.215ZM19.5587 325.98C17.2599 325.97 15.2351 326.028 14.527 326.175C12.6594 326.563 12.305 326.984 12.6398 328.417C12.7712 328.979 12.8824 329.918 12.8865 330.504C12.9631 333.926 15.4571 337.776 16.0982 340.949C16.4756 341.845 16.8565 342.651 16.9463 342.74C20.0951 344.229 24.9524 328.394 31.205 333.109C31.595 332.99 31.9599 333.126 32.3205 333.523C32.813 334.064 32.8268 334.237 32.4869 335.587C32.2835 336.397 31.9541 337.251 31.7558 337.484C28.7282 341.168 26.3633 344.353 23.2251 348.494C23.1227 348.727 22.8039 349.425 22.5168 350.046C22.2292 350.667 21.9889 351.684 21.9838 352.305C21.9635 355.059 22.1379 357.06 22.4128 357.153C22.6983 357.25 25.0841 352.785 25.5284 351.322C26.2705 348.912 30.2258 343.278 32.7168 341.718C32.947 341.718 33.3371 341.55 33.5836 341.344C38.2932 339.256 40.4728 344.262 35.1637 349.905C34.4348 350.749 31.0752 357.719 30.4006 359.785C28.5751 365.381 28.3776 366.629 29.0968 368.033C29.7288 369.265 30.2961 369.392 30.8236 368.419C33.4287 363.675 36.0697 358.107 41.7972 357.273C43.956 357.326 46.3522 360.26 43.7588 363.051C43.4752 363.141 42.9918 363.704 42.6849 364.303C42.377 364.902 41.9918 365.476 41.827 365.577C41.545 365.751 40.8306 366.755 39.3404 369.076C38.2833 370.723 36.7149 374.19 36.3852 375.611C36.1027 376.827 36.1441 377.061 36.8994 378.55C37.3503 379.44 38.103 380.535 38.5716 380.983C40.0157 382.366 41.0554 383.216 41.3029 383.216C41.4333 383.216 42.2379 383.66 43.0921 384.204C48.8379 387.584 57.6515 389.554 64.6025 390.986C66.1232 391.215 67.4315 391.403 67.5111 391.403C67.7455 391.403 67.6742 390.971 67.3932 390.682C67.2497 390.535 66.8692 389.666 66.5492 388.751C58.2272 371.93 49.9893 351.574 39.4573 330.42C38.5478 328.982 36.8948 327.185 32.3968 327.079C32.2187 326.902 31.3886 326.757 30.5511 326.757C29.7137 326.757 28.7978 326.634 28.5153 326.484C27.9843 326.201 23.3907 325.997 19.5587 325.98ZM119.047 360.697C118.697 360.665 118.457 361.298 118.146 363.032C118.007 363.808 117.597 365.523 117.233 366.843C116.716 368.718 116.553 370.107 116.493 373.194C116.41 376.977 115.562 382.492 113.338 386.803C113.338 387.057 113.137 387.485 112.892 387.755C112.486 388.202 112.491 388.333 112.962 389.231C113.246 389.774 113.99 390.822 114.615 391.56C120.913 400.131 127.158 405.754 137.057 409.046C139.49 410.334 140.497 409.835 139.478 407.848C137.203 395.001 130.508 373.813 119.118 360.712C119.098 360.705 119.067 360.699 119.047 360.697V360.697ZM79.2486 361.052C78.8869 361.059 78.6395 361.098 78.5888 361.181C78.4447 361.413 80.3329 362.28 82.5515 362.998C84.1969 363.531 84.1032 363.525 84.7666 363.141C85.459 362.74 85.0154 362.242 83.4689 361.683C82.459 361.318 80.334 361.034 79.2486 361.052ZM85.0658 370.637C84.2685 370.609 82.9765 370.83 82.9765 371.079C82.9765 371.385 84.2446 371.841 86.5241 372.356C87.6161 372.602 89.1311 372.987 89.8904 373.211C91.6682 373.735 91.7727 373.726 91.7727 373.059C91.7727 372.372 90.6989 371.64 89.4476 371.473C88.9317 371.405 87.9349 371.273 87.2324 371.181C86.5304 371.089 85.811 370.897 85.6335 370.755C85.5432 370.683 85.3326 370.646 85.0658 370.637Z" fill="url(#paint2_linear)"/>
</g>
<defs>
<linearGradient id="paint0_linear" x1="308.486" y1="31.3428" x2="132.039" y2="374.167" gradientUnits="userSpaceOnUse">
<stop stop-color="#7BDFF2"/>
<stop offset="0.684269" stop-color="#B2F7EF"/>
</linearGradient>
<linearGradient id="paint1_linear" x1="145.635" y1="0" x2="145.635" y2="133.929" gradientUnits="userSpaceOnUse">
<stop stop-color="#001E7C"/>
<stop offset="1" stop-color="#212941"/>
</linearGradient>
<linearGradient id="paint2_linear" x1="115.65" y1="167.911" x2="115.65" y2="443.766" gradientUnits="userSpaceOnUse">
<stop stop-color="#001E7C"/>
<stop offset="1" stop-color="#212941"/>
</linearGradient>
<clipPath id="clip0">
<rect width="76.9594" height="133.929" fill="white" transform="translate(107.155)"/>
</clipPath>
<clipPath id="clip1">
<rect width="224.881" height="275.855" fill="white" transform="matrix(-1 0 0 1 228.091 167.911)"/>
</clipPath>
</defs>
</svg>
