<?xml version="1.0" standalone="no"?>
<!DOCTYPE svg PUBLIC "-//W3C//DTD SVG 20010904//EN"
 "http://www.w3.org/TR/2001/REC-SVG-20010904/DTD/svg10.dtd">
<svg version="1.0" xmlns="http://www.w3.org/2000/svg"
 width="603.000000pt" height="603.000000pt" viewBox="0 0 603.000000 603.000000"
 preserveAspectRatio="xMidYMid meet">
<metadata>
Created by potrace 1.14, written by Peter Selinger 2001-2017
</metadata>
<g transform="translate(0.000000,603.000000) scale(0.100000,-0.100000)"
fill="#000000" stroke="none">
<path d="M2240 4929 c-296 -38 -494 -143 -750 -399 -296 -296 -259 -330 362
-330 321 0 375 -7 412 -50 25 -30 58 -146 60 -210 1 -50 -30 -84 -126 -136
-39 -21 -103 -69 -142 -105 -124 -115 -192 -265 -261 -569 -41 -181 -62 -234
-97 -244 -13 -3 -65 4 -117 16 -91 22 -93 22 -107 3 -8 -10 -14 -22 -14 -27 0
-16 54 -42 133 -65 96 -27 131 -50 135 -87 5 -38 -37 -285 -53 -317 -16 -30
-49 -43 -129 -53 -50 -6 -96 -28 -96 -46 0 -19 48 -34 134 -40 80 -6 92 -9
112 -33 42 -49 68 -158 69 -286 l1 -113 37 -13 c63 -22 116 -64 257 -205 159
-159 212 -231 220 -298 5 -42 8 -47 28 -45 12 2 36 13 52 24 26 20 37 21 112
16 150 -11 351 -74 420 -132 33 -28 68 -32 101 -11 35 22 81 26 355 36 330 11
372 22 551 143 98 66 149 113 166 154 15 35 135 167 168 185 12 6 23 6 32 -2
19 -15 55 4 55 30 0 10 -11 40 -25 66 -17 32 -23 55 -19 73 21 87 79 122 190
114 64 -5 74 -4 74 10 0 19 -31 42 -80 58 -56 19 -70 36 -70 90 0 96 45 196
119 267 32 30 33 33 18 50 -39 42 -63 154 -87 402 -27 274 -80 396 -255 590
-33 36 -67 74 -77 86 -18 20 -17 22 47 106 90 118 102 123 290 122 178 -1 267
-13 396 -55 92 -29 98 -30 133 -15 28 12 42 26 58 62 18 41 20 61 15 138 -5
92 -26 189 -44 207 -27 27 -400 66 -718 76 -181 5 -204 4 -239 -12 -40 -19
-60 -53 -71 -115 -12 -77 -156 -360 -183 -360 -7 0 -56 22 -110 49 -116 58
-188 81 -375 120 -258 54 -355 64 -594 65 -212 1 -223 2 -243 22 -26 26 -38
73 -46 191 -11 149 -16 144 219 247 219 97 369 197 397 266 11 27 10 33 -6 52
-55 62 -316 203 -430 232 -67 17 -249 20 -364 5z m310 -116 c98 -28 244 -94
277 -125 33 -31 29 -62 -13 -96 -42 -35 -217 -115 -241 -110 -9 2 -21 22 -28
50 -12 50 -45 104 -105 178 -55 68 -90 122 -83 132 7 13 92 0 193 -29z m-285
-88 c56 -32 152 -136 176 -190 20 -45 20 -47 2 -77 -40 -69 -230 -140 -380
-142 -105 -1 -120 10 -103 75 26 95 154 320 202 353 25 18 45 14 103 -19z
m-299 -27 c-3 -17 -31 -86 -60 -152 -30 -67 -62 -149 -72 -184 -14 -50 -24
-66 -45 -78 -59 -30 -214 -9 -254 36 -15 16 -15 21 -1 47 43 81 361 347 435
362 2 1 1 -13 -3 -31z m2649 -633 c117 -10 134 -15 151 -39 21 -33 10 -66 -38
-121 -63 -72 -80 -77 -182 -59 -153 26 -160 33 -161 146 0 103 9 111 98 93 34
-7 94 -16 132 -20z m299 -156 c29 -23 26 -39 -8 -39 -28 0 -50 24 -42 45 7 20
18 19 50 -6z m-873 -95 c26 -31 10 -91 -80 -310 -198 -483 -247 -585 -303
-621 -81 -54 -87 -3 -23 197 94 290 244 602 342 711 40 44 45 46 64 23z m-900
-35 c149 -15 179 -38 76 -58 -28 -6 -178 -15 -332 -20 -154 -6 -295 -15 -314
-20 -42 -13 -61 -1 -61 40 0 55 56 67 321 68 114 1 253 -4 310 -10z m-763
-117 c3 -29 -5 -40 -67 -101 -38 -38 -79 -87 -90 -109 -60 -117 -41 -314 35
-382 84 -73 219 -117 480 -154 264 -38 364 -74 364 -132 0 -38 -41 -36 -266
12 -404 86 -653 218 -739 391 -25 49 -29 70 -29 138 -1 73 2 88 33 148 36 71
126 178 176 209 18 11 44 17 65 16 32 -3 35 -6 38 -36z m1110 21 c2 -9 -10
-13 -42 -13 -25 0 -46 4 -46 9 0 22 81 25 88 4z m-163 -127 c101 -18 365 -95
365 -106 0 -4 -29 -90 -64 -191 -114 -330 -140 -379 -200 -379 -19 0 -54 9
-80 21 -62 27 -143 43 -376 74 -229 31 -322 50 -351 74 -18 15 -24 36 -35 124
-7 59 -25 150 -40 202 l-28 95 20 28 c26 35 75 59 144 71 87 16 539 6 645 -13z
m-896 -239 c14 -78 14 -108 1 -141 -15 -41 -46 -33 -72 17 -31 58 -33 184 -3
217 l20 22 21 -25 c13 -15 26 -51 33 -90z m1688 -19 c75 -80 118 -174 76 -166
-10 2 -32 30 -50 63 -19 33 -54 79 -78 102 -44 42 -51 54 -39 66 11 10 37 -8
91 -65z m-112 -168 c22 -42 19 -90 -9 -131 -26 -39 -104 -85 -119 -70 -11 11
31 182 55 221 15 26 21 29 38 20 11 -6 27 -24 35 -40z m-1973 -102 c8 -54 265
-208 462 -277 193 -68 843 -142 1261 -145 182 -1 192 1 375 79 172 73 164 73
168 0 6 -97 -15 -195 -49 -226 l-28 -27 34 -35 c19 -20 35 -43 35 -52 0 -9
-18 -58 -40 -110 -44 -103 -70 -192 -70 -240 0 -37 -34 -94 -78 -130 -38 -32
-62 -74 -62 -108 0 -35 -37 -79 -64 -75 -16 2 -23 13 -29 43 -16 78 -22 90
-50 99 -65 23 -85 -40 -43 -134 31 -68 32 -91 7 -145 -39 -86 -135 -143 -220
-129 -56 9 -87 -1 -107 -36 -27 -44 -82 -62 -194 -62 -111 1 -213 22 -281 59
-38 20 -52 35 -65 69 -27 72 -38 74 -93 20 -59 -59 -107 -68 -204 -42 -103 28
-137 59 -216 195 -7 12 -17 10 -54 -12 -25 -15 -53 -27 -62 -27 -38 0 -143 69
-216 141 -70 70 -139 177 -139 215 0 7 14 27 30 44 53 54 35 82 -49 74 -50 -5
-58 -4 -78 17 -58 64 -55 217 4 240 l25 9 -44 48 c-56 60 -73 117 -64 212 12
134 100 424 142 471 20 23 51 10 56 -23z m2188 -79 c0 -11 -13 -34 -29 -50
-32 -32 -71 -39 -71 -13 0 9 15 31 34 50 39 39 66 44 66 13z"/>
<path d="M2153 2559 c-91 -17 -169 -67 -161 -106 5 -28 47 -27 133 2 96 32
127 52 123 78 -4 26 -40 36 -95 26z"/>
<path d="M2272 2314 c-79 -39 -131 -123 -87 -140 25 -10 114 26 151 61 40 38
43 69 8 91 -18 12 -27 11 -72 -12z"/>
<path d="M3590 2248 c-18 -63 4 -178 33 -178 35 0 50 120 23 185 -20 48 -43
45 -56 -7z"/>
<path d="M2813 2190 c-43 -32 -93 -91 -93 -111 0 -20 78 -3 115 26 39 29 69
79 61 101 -9 22 -39 16 -83 -16z"/>
<path d="M3047 1812 c-25 -27 -22 -79 3 -87 44 -14 107 57 80 90 -17 21 -63
19 -83 -3z"/>
</g>
</svg>
