<svg width="30" height="31" viewBox="0 0 30 31" fill="none" xmlns="http://www.w3.org/2000/svg">
<path fill-rule="evenodd" clip-rule="evenodd" d="M7.08088 4.14378C7.8978 5.04879 29.4753 25.7096 29.6282 26.691C29.7888 27.7217 26.3444 27.6054 25.5401 27.9103C24.7773 28.1994 23.2967 26.172 14.1057 17.5514C13.1073 17.0143 3.35603 7.24372 2.8023 6.24799C2.23456 5.22706 2.0205 4.35127 2.28704 3.56164C2.59539 2.64817 2.83971 1.46049 3.97173 1.59795C5.09988 1.73495 6.1316 3.09215 7.08088 4.14378Z" fill="#1C2541"/>
<path fill-rule="evenodd" clip-rule="evenodd" d="M3.89427 23.6699C4.79928 22.8529 25.46 1.27539 26.4415 1.12252C27.4722 0.961981 27.3559 4.40634 27.6608 5.21066C27.9499 5.97343 25.9225 7.45406 17.3019 16.645C16.7648 17.6434 6.99421 27.3947 5.99848 27.9484C4.97755 28.5162 4.10176 28.7302 3.31213 28.4637C2.39866 28.1553 1.21097 27.911 1.34844 26.779C1.48544 25.6509 2.84263 24.6191 3.89427 23.6699Z" fill="#1C2541"/>
</svg>
