<svg width="86" height="76" viewBox="0 0 86 76" fill="none" xmlns="http://www.w3.org/2000/svg">
<path d="M58.7125 73.935C58.7125 73.935 59.3191 73.6477 46.5426 73.6829C31.5887 73.7244 30.6556 73.5611 25.0772 69.9228C18.247 65.4687 10.9685 58.3761 10.7784 55.9893C10.4687 52.1037 10.1094 51.6388 7.41549 51.6388C5.09312 51.6388 4.87383 51.2905 6.19245 49.6952C8.16034 47.3144 6.77667 42.2686 4.15606 42.2686C1.63972 42.2686 1.7017 40.0876 4.24539 39.1073C7.58656 37.82 6.63215 33.2861 2.81744 32.3248C-1.19591 31.3134 -0.807444 28.0251 3.25605 28.6127C5.57694 28.9485 6.37709 27.7729 8.26405 21.2556C10.3031 14.2126 15.965 5.98261 21.1544 2.56232C28.8352 -2.50018 41.5799 0.914223 51.4287 4.43838C61.948 8.20239 67.4295 13.1777 75.1972 19.343C80.5108 23.5601 82.4681 26.2182 84.2689 31.6617C87.3473 40.968 86.2442 50.7547 81.5637 55.6599C79.4956 57.8275 78.4729 60.0718 78.9658 61.3614C79.5723 62.9485 78.8215 63.5982 76.0076 63.9219C73.158 64.2497 71.6597 65.2315 72.6699 66.88C74.0882 69.1946 70.4368 71.6003 68.9287 69.6814C67.0359 72.2837 63.974 72.7257 63.974 72.7257C65.0925 76.0239 59.8388 77.5006 58.712 73.935H58.7125ZM57.8594 60.8513C58.7596 60.3506 59.6527 59.7869 61.7117 65.6319C62.8999 69.0046 66.2378 68.1761 66.2378 64.8817C66.2378 64.2243 67.194 63.6863 68.3623 63.6863C69.5309 63.6863 70.8007 62.4816 71.1843 61.0091C71.5677 59.5366 72.5142 58.3319 73.2875 58.3319C74.8527 58.3319 79.5694 54.3743 79.5694 53.061C79.5694 52.5988 75.4217 52.456 70.3522 52.7436C62.058 53.2142 60.2898 52.8346 52.6934 48.9593C32.4755 38.6433 21.1428 28.5064 19.9643 19.6835C19.1021 13.2298 18.1081 12.8766 14.3413 17.6848C11.1975 21.6977 10.8187 24.3359 13.2446 25.3188C14.2096 25.7097 13.6563 27.3887 12.2569 27.4499C10.7647 27.5155 10.188 27.1016 10.3662 28.5478C10.525 29.8362 10.1885 31.9709 9.61841 33.2914C7.04315 39.2572 12.5326 53.4896 20.4909 61.4804C25.1855 66.1941 25.454 66.2854 27.9785 64.0239C30.5012 61.7642 31.8909 62.6419 31.0305 65.4204C29.783 69.4481 33.4746 70.148 46.907 69.904L57.5723 69.7101C57.1975 66.2204 56.2799 61.5504 57.8594 60.8513V60.8513ZM44.9074 66.4427C44.9074 64.9267 45.5073 63.6863 46.2405 63.6863C46.9738 63.6863 47.5737 64.5544 47.5737 65.6153C47.5737 66.6762 46.9738 67.9165 46.2405 68.3714C45.5073 68.8266 44.9074 67.9585 44.9074 66.4427ZM51.5936 64.6903C51.6095 62.2548 51.8613 62.0627 52.9063 63.6863C54.5767 66.2816 54.5767 67.7021 52.9063 67.7021C52.1731 67.7021 51.5822 66.3468 51.5936 64.6903ZM64.9048 58.3319C64.9048 56.6547 66.3195 56.6547 68.9043 58.3319C70.5213 59.3812 70.33 59.6334 67.9044 59.65C66.2546 59.6635 64.9048 59.0681 64.9048 58.3319V58.3319ZM20.5772 46.6201C19.294 46.3275 18.2441 45.5299 18.2441 44.8477C18.2441 43.4099 19.242 43.4014 22.8217 44.8088C25.8061 45.9824 24.0379 47.4091 20.5772 46.62V46.6201ZM17.7996 36.0218C17.3109 35.5309 16.9109 34.6837 16.9109 34.1392C16.9109 32.8522 22.0651 34.2034 23.0096 35.7372C23.8478 37.0989 19.1292 37.3567 17.7996 36.0218V36.0218ZM78.0752 46.6645C80.9707 44.8324 81.1867 43.9895 80.5543 36.9865C79.6694 27.1896 77.9678 24.5227 68.5517 18.1765C53.5674 8.07766 34.084 3.29094 26.9814 7.96375C22.6618 10.8056 21.321 17.8539 24.0806 23.2122C27.3437 29.5481 37.1344 37.3339 50.4003 44.1421C61.4156 49.7953 63.2115 50.3234 68.7568 49.5399C72.1375 49.0623 76.3308 47.7684 78.0752 46.6645V46.6645ZM66.2379 46.7074C52.1866 41.3692 31.4928 27.113 28.9905 21.0473C26.9574 16.1188 28.4103 10.1416 31.6414 10.1416C32.9853 10.1416 34.4527 9.54383 34.9025 8.81308C35.3997 8.00538 37.9135 8.61309 41.3137 10.3629C47.3419 13.4653 45.9388 15.4658 39.5874 12.8242C34.8303 10.8457 32.9089 11.9117 32.9089 16.5295C32.9089 21.6687 45.501 33.1351 57.518 38.9386C62.8344 41.5062 68.1501 43.6069 69.3305 43.6069C71.7792 43.6069 74.2369 39.6895 74.2369 35.7862C74.2369 32.5765 64.3715 22.1783 59.0665 19.7965C56.9554 18.8486 55.5995 17.7002 56.0533 17.2444C57.0559 16.2378 67.5711 20.8379 67.5711 22.2833C67.5711 22.8476 69.9708 25.8172 72.9038 28.8822C78.4994 34.73 80.1171 41.712 76.5625 44.674C74.3199 46.5429 68.7119 47.6472 66.2379 46.7074V46.7074Z" fill="#1C2541"/>
</svg>
