<svg width="24" height="24" viewBox="0 0 24 24" fill="none" xmlns="http://www.w3.org/2000/svg">
<g clip-path="url(#clip0)">
<path d="M11.8197 0.000364212C7.058 -0.0359345 0.736181 2.63538 0.102629 10.5384C-0.760125 17.2826 3.94116 23.3078 9.52512 22.7309C9.77039 22.4845 9.80646 19.7779 9.57832 19.417C9.50203 19.2966 9.06147 19.1443 8.59977 19.0787C6.35201 18.7841 6.75454 17.6651 6.05949 16.5124C5.72101 15.9509 5.25129 15.5426 4.71723 15.3442C4.23063 15.1669 4.15109 15.0725 4.3339 14.8887C4.47584 14.7461 4.72041 14.6733 4.97494 14.6658C5.30214 14.6561 5.62931 14.7698 5.80989 14.9531C6.27266 15.4227 6.87246 16.5589 7.47334 17.1391C7.74553 17.4019 8.12035 17.4527 8.45543 17.5405C9.56239 17.8302 9.99164 17.2366 10.1311 15.2207C10.2104 14.0753 10.3276 14.1361 9.129 14.0122C7.86668 13.8876 7.08623 13.1493 7.08304 10.841C7.08198 9.67116 7.26956 8.97419 7.78404 8.30373C7.97164 8.05905 8.08145 7.78757 8.02782 7.70029C7.83001 7.37853 7.62682 5.63165 7.85294 5.35778C8.22281 4.90956 8.44085 5.32312 8.93884 6.14446C9.19432 6.56595 9.54184 6.98696 9.7105 7.07992C9.8915 7.1794 10.9201 7.18121 12.2117 7.0843C13.7492 6.96892 14.2316 7.21192 15.2047 6.02996C15.8695 5.34174 15.8767 4.83748 16.2264 5.86739C16.3706 6.22234 16.2169 6.86015 16.163 7.26421C16.0813 7.87788 16.1273 8.00489 16.4793 8.1395C17.0899 8.37283 17.3929 9.07903 17.4556 9.67212C17.6556 11.5654 16.9066 12.9218 14.8098 13.9138C14.2333 14.187 13.0155 14.3465 13.7895 15.0805C14.4584 15.7985 14.5813 16.4644 14.5813 19.3723C14.5813 21.6667 14.6315 22.2036 14.8544 22.2896C19.7936 22.7119 22.3731 18.0399 23.6215 14.9393C25.2511 8.04979 21.5547 1.5956 13.7437 0.174417C13.1482 0.0660777 12.5 0.0055421 11.8197 0.000364212ZM12.0903 1.44837C15.5875 1.455 18.7054 3.30381 20.5296 6.36386C23.4454 11.2553 22.2422 17.0286 17.3734 19.9371C15.6776 20.95 15.9785 20.7482 16.0531 19.3027C16.1095 18.204 15.8816 16.2595 15.6159 15.3636C15.5247 15.0559 15.6279 14.9374 16.1519 14.7468C17.01 14.4349 18.2729 13.1824 18.7135 12.2064C19.421 10.6404 19.0715 8.13504 18.052 7.46355C17.7413 7.25879 17.665 7.06067 17.7286 6.62421C17.8354 5.8927 17.0291 3.49064 16.5488 3.23216C16.0708 2.9751 15.2859 3.70961 14.5926 4.70523L14.0875 5.43028L12.4991 5.50946C11.6255 5.55299 10.7342 5.65121 10.5186 5.72782C10.197 5.84214 10.1627 5.72087 9.88539 5.28151C8.15094 2.53327 6.57501 2.9481 6.57501 5.5197C6.57501 6.46265 6.71457 7.55472 6.33289 8.07472C5.73988 8.88289 5.45752 9.9616 5.45752 11.2973C5.36462 13.5791 6.69734 15.1244 8.54064 15.2583C9.16451 15.2583 9.18058 15.2771 9.12547 15.9441C9.07279 16.5785 9.02665 16.6268 8.5078 16.59C8.15272 16.5648 7.77581 16.3494 7.47989 16.0026C5.69341 13.9081 5.51414 13.7654 4.7828 13.8789C2.68615 14.2043 3.04123 15.7678 4.273 16.0866C4.91294 16.2522 5.04289 16.4608 5.69059 18.3125C6.05685 19.36 6.95371 20.0309 7.94937 20.191C8.59016 20.294 8.60112 20.2125 8.60112 20.6933C8.60112 21.003 8.5018 21.2302 8.36773 21.2267C7.83962 21.2128 6.44615 20.5833 5.72374 20.08C2.1212 17.57 0.608959 11.9119 2.70785 7.45582C3.83641 5.0596 6.57492 2.66881 9.08338 1.88988C10.102 1.58907 11.1111 1.44651 12.0903 1.44837ZM5.23743 14.8448C5.13453 14.8448 5.05059 14.9293 5.05059 15.0327C5.05059 15.136 5.13453 15.2207 5.23743 15.2207C5.34022 15.2207 5.42416 15.136 5.42416 15.0327C5.42416 14.9293 5.34022 14.8448 5.23743 14.8448ZM5.77362 15.6712C5.77788 15.7833 5.86307 15.8889 5.94373 15.913C6.02428 15.9371 6.17064 16.0016 6.22523 15.8129C6.27982 15.6241 6.15307 15.4854 5.99974 15.4566C5.83491 15.4418 5.77107 15.5673 5.77362 15.6712ZM6.71799 16.5893C6.6418 16.5829 6.55869 16.5949 6.52326 16.6378C6.38737 16.843 6.48879 17.0466 6.63798 17.1324C6.77067 17.2087 6.9304 17.32 7.143 17.0219C7.20642 16.9329 7.09646 16.683 6.78979 16.6014C6.76798 16.5957 6.74332 16.5915 6.71799 16.5893ZM7.60417 17.4577C7.53958 17.4618 7.47358 17.4799 7.41442 17.51C7.10488 17.6669 7.09795 17.8799 7.34407 18.0455C7.76736 18.3302 7.9771 18.1739 7.9423 17.7371C7.92783 17.5557 7.80758 17.4706 7.66787 17.4583C7.64701 17.4565 7.62566 17.4564 7.60417 17.4573V17.4577ZM8.54178 18.0478C8.4872 18.2432 8.53218 18.3692 8.64944 18.455C8.74818 18.525 9.03888 18.6149 9.16412 18.454C9.33246 18.2379 9.3037 18.0018 9.07663 17.8608C8.86828 17.7289 8.64734 17.87 8.54178 18.0478V18.0478Z" fill="#5E6472"/>
</g>
<defs>
<clipPath id="clip0">
<rect width="24" height="24" fill="white"/>
</clipPath>
</defs>
</svg>
