<svg width="42" height="29" viewBox="0 0 42 29" fill="none" xmlns="http://www.w3.org/2000/svg">
<path fill-rule="evenodd" clip-rule="evenodd" d="M9.84729 0.24715C11.0649 0.309436 40.9319 -0.338818 41.734 0.247088C42.5763 0.8624 40.0585 3.21569 39.7054 4C39.3705 4.74379 36.8899 4.35714 24.2953 4.76046C23.2095 5.08661 9.40541 5.07301 8.30977 4.76046C7.18641 4.44001 6.41578 3.9721 6.0459 3.22527C5.61801 2.36132 4.95095 1.34873 5.84861 0.64548C6.74321 -0.055375 8.43243 0.174773 9.84729 0.24715Z" fill="#1C2541"/>
<path fill-rule="evenodd" clip-rule="evenodd" d="M4.44397 12.2472C5.66155 12.3094 35.5286 11.6612 36.3306 12.2471C37.173 12.8624 34.6552 15.2157 34.3021 16C33.9671 16.7438 31.4866 16.3571 18.8919 16.7605C17.8061 17.0866 4.00209 17.073 2.90645 16.7605C1.78309 16.44 1.01246 15.9721 0.64258 15.2253C0.214691 14.3613 -0.452368 13.3487 0.44529 12.6455C1.33989 11.9446 3.02911 12.1748 4.44397 12.2472Z" fill="#1C2541"/>
<path fill-rule="evenodd" clip-rule="evenodd" d="M9.84729 24.2472C11.0649 24.3094 40.9319 23.6612 41.734 24.2471C42.5763 24.8624 40.0585 27.2157 39.7054 28C39.3705 28.7438 36.8899 28.3571 24.2953 28.7605C23.2095 29.0866 9.40541 29.073 8.30977 28.7605C7.18641 28.44 6.41578 27.9721 6.0459 27.2253C5.61801 26.3613 4.95095 25.3487 5.84861 24.6455C6.74321 23.9446 8.43243 24.1748 9.84729 24.2472Z" fill="#1C2541"/>
</svg>
