<svg width="106" height="124" viewBox="0 0 106 124" fill="none" xmlns="http://www.w3.org/2000/svg">
<path d="M78.1459 0.00155813C78.0872 -0.000519377 78.0257 -0.000519377 77.9618 0.00155813C76.1369 0.0629724 72.2935 1.67916 71.4832 3.0303C70.5883 4.52254 70.6522 4.51844 69.1567 3.16531C67.6749 1.82474 66.8393 1.68714 66.7343 2.76644C66.6888 3.23406 67.162 3.84697 68.5102 5.0668C70.3479 6.72954 70.3476 6.72941 70.2406 8.16037C70.1818 8.94737 70.1615 10.2567 70.1989 11.0698C70.235 11.8829 70.1369 12.5542 69.9807 12.5612C69.4398 12.5857 68.5083 11.4959 68.4764 10.8014C68.4399 10.0086 67.2311 9.14185 66.5648 9.43049C65.9549 9.69465 66.4894 12.4368 67.145 12.4072C67.2486 12.4024 67.719 12.8994 68.1898 13.5113C68.8617 14.3846 69.1854 14.5905 69.6957 14.4697C70.3236 14.3211 70.3489 14.3818 70.4347 16.2482C70.4853 17.3485 70.4015 18.1856 70.2398 18.193C70.0835 18.2002 69.9478 18.0354 69.9382 17.8271C69.9286 17.6188 69.6545 17.2304 69.3291 16.9641C69.0037 16.698 68.7309 16.3386 68.723 16.1656C68.7005 15.6761 66.9121 13.8284 66.4798 13.8479C65.5971 13.8877 65.8646 15.8701 66.8959 16.9327C67.1127 17.156 67.6675 17.9883 68.1294 18.7822C68.6896 19.7452 69.1468 20.2175 69.5024 20.2014C70.2726 20.1666 70.8123 23.5831 70.1502 24.3021C69.8551 24.6225 69.3733 24.1184 69.3429 23.4572C69.326 23.0903 69.1118 22.6087 68.8667 22.387C68.6217 22.1652 68.4158 21.8633 68.4089 21.7164C68.3844 21.1832 67.6359 20.8431 67.2971 21.211C66.4125 22.1716 67.6672 25.5258 69.2158 26.3406C70.069 26.7895 70.2468 27.3185 69.9682 28.5753C69.7946 29.3584 69.0497 29.463 69.015 28.7091C69.0013 28.4104 68.7898 27.9844 68.5447 27.7627C68.2997 27.541 68.0931 27.234 68.0861 27.0802C68.0706 26.7425 65.7811 23.653 64.7435 22.5699C63.4823 21.2534 59.6937 18.8054 57.5593 17.9279C56.4421 17.4686 55.3011 16.9925 55.0236 16.8696C54.746 16.7466 54.3768 16.6524 54.2029 16.6602C54.0291 16.6682 53.476 16.5149 52.9736 16.3196C51.7107 15.8286 47.3804 15.0799 44.4651 14.8488C41.3555 14.6023 31.3254 15.9929 29.8243 16.8787C29.5024 17.0686 28.9515 17.2373 28.5999 17.2532C27.2594 17.3138 25.5188 18.5464 25.0257 19.7843C24.7676 20.4326 24.0788 21.525 23.4953 22.2119C22.05 23.9131 21.8469 26.2621 23.0862 26.946C23.6785 27.2729 24.515 26.7351 24.4834 26.0479C24.4245 24.7692 27.3049 22.0936 30.367 20.5821C32.0664 19.7433 32.2095 19.9131 31.014 21.3514C29.3929 23.3017 29.0216 26.5808 30.407 26.7127C30.9109 26.7606 31.1666 26.4864 31.6892 25.3368C32.0668 24.5067 33.0348 23.2388 33.9846 22.3308C35.7865 20.608 35.9036 20.2392 34.9427 19.3136C34.1204 18.5216 34.2229 18.4303 36.3961 18.0179C40.1345 17.3085 40.4117 17.4061 38.5119 18.7628C35.9601 20.5851 35.2254 23.2475 37.0714 23.9825C37.9729 24.3414 39.1709 23.5392 39.128 22.6054C39.1074 22.1583 39.4473 21.7085 40.2257 21.1515C41.6177 20.1555 42.1843 20.0943 42.1498 20.9438C42.0885 22.4569 42.2561 22.7962 43.1408 22.9473C44.1123 23.1132 44.8242 22.661 44.7892 21.9001C44.7669 21.4135 45.5555 20.8504 48.7608 19.0655C51.13 17.7462 55.7208 18.4992 53.4481 19.8343C52.1649 20.5882 51.8658 21.6962 52.575 23.0695C53.0655 24.0194 53.7819 23.9189 55.0036 22.7284C55.566 22.1804 56.2985 21.6345 56.6312 21.5153C56.9638 21.3961 57.3766 21.1138 57.5484 20.8885C57.8654 20.4728 58.6765 20.548 58.6969 20.995C58.7031 21.1293 58.3022 21.4696 57.8063 21.7511C55.8919 22.8376 55.1889 24.4611 56.3512 25.1118C57.2356 25.6069 60.3462 23.9203 60.6548 22.7784C61.0294 21.3927 64.7818 25.0687 66.7905 28.7892C68.2537 31.4991 69.8765 39.1037 68.9963 39.1258C68.053 39.1492 65.6034 33.6824 66.259 33.0167C68.2169 31.0282 66.797 28.9537 64.6806 30.7105C63.7332 31.4969 63.7332 31.497 62.9964 30.7395C62.0362 29.7522 62.0419 29.4482 63.036 28.6765C64.36 27.6488 64.5807 26.9271 63.7454 26.3572C62.8857 25.7706 61.9869 25.9876 60.7027 27.0913C59.7609 27.9009 59.7608 27.9007 58.4307 27.2127C57.1684 26.5597 56.4907 26.3528 53.5289 25.7171C52.7354 25.5468 50.5794 25.5535 47.7802 25.7345C45.3167 25.8938 43.2044 25.9367 43.0863 25.8299C42.9682 25.723 42.6134 25.8188 42.2981 26.0429C41.9828 26.267 41.0288 26.638 40.1782 26.8675C39.3276 27.097 38.1581 27.4868 37.5792 27.7334C37.0002 27.98 36.2165 28.1957 35.8379 28.2128C35.4593 28.2299 34.9909 28.4733 34.7969 28.7537C34.6028 29.0341 34.2472 29.3995 34.0066 29.5655C28.4875 33.3756 25.636 38.3013 25.8718 43.6187C25.978 46.0152 27.3354 47.5688 28.8424 47.0186C29.8489 46.6512 29.7564 44.8542 28.7337 44.9004C27.575 44.9527 28.175 41.2753 30.0205 37.012C31.3276 33.9925 32.0658 33.6191 31.2193 36.4059C30.3193 39.3693 30.788 41.4557 32.4278 41.7858C33.718 42.0455 34.4537 40.5539 33.5038 39.6043C32.7347 38.8354 34.3153 34.2887 36.2086 31.8233C37.0893 30.6766 39.8057 29.1106 39.4008 29.983C35.9182 37.4881 35.328 39.8543 36.6969 40.8249C38.154 41.8581 38.8572 41.3229 38.8847 39.1596C38.908 37.3303 41.4248 31.8488 43.3121 29.5168C45.158 27.2357 46.8333 27.759 45.275 30.13C43.3867 33.0029 43.0467 35.9879 44.4993 36.9389C45.7356 37.7483 46.2655 37.2902 46.3172 35.3674C46.3573 33.8745 46.5087 33.4902 47.7494 31.728C48.7806 30.2633 49.1253 29.5173 49.0933 28.821C49.0502 27.8844 49.0503 27.8845 51.2269 27.9262C53.9651 27.9788 53.9332 27.9262 52.3063 29.6844C50.1938 31.9664 49.9199 34.5121 51.7252 35.0829C52.4332 35.3067 53.0404 34.7436 53.0178 33.8846C53.011 33.629 53.7338 32.5459 54.6241 31.4781C55.5144 30.4104 56.2344 29.3492 56.2237 29.12C56.1549 27.6226 60.9464 30.6901 62.8548 33.3652C63.1673 33.8033 63.5958 34.3253 63.807 34.525C64.1233 34.8241 64.0232 35.0904 63.2397 36.033C61.881 37.6675 61.9422 39.4131 63.3851 40.1713C64.6257 40.8232 65.0556 40.5441 65.1959 38.9961C65.3407 37.3992 65.7204 37.3291 66.5477 38.7467C68.0044 41.2428 67.8806 41.7706 65.9761 41.1837C65.1825 40.9392 64.6977 40.9862 63.2163 41.45C61.295 42.0516 60.7428 42.0048 59.695 41.1523C58.5151 40.1923 58.8912 39.1603 60.5144 38.9036C62.428 38.601 61.0929 36.3835 59.0527 36.4756C55.2757 36.6463 55.7383 41.8358 59.6896 43.622C60.4147 43.9498 60.612 44.1815 60.4745 44.5432C58.5468 49.6113 63.4982 54.3045 67.9965 51.673C69.4533 50.8209 69.4566 50.7298 67.7412 58.6571C66.3581 65.0483 64.3638 71.9973 62.7364 76.0962C62.3913 76.9654 61.9361 78.1287 61.725 78.6814C61.5139 79.2342 61.1197 80.1406 60.849 80.696C60.5783 81.2514 60.1082 82.2888 59.8038 83.001C57.9899 87.2443 57.9378 87.2723 52.7574 86.8266C50.738 86.6529 45.6983 87.9446 43.1504 89.2892C37.8399 92.0918 30.7467 99.0828 29.8509 102.397C29.7608 102.731 29.4243 103.016 29.074 103.057C28.7341 103.097 27.9374 103.187 27.3036 103.259C22.857 103.764 15.4477 108.114 15.542 110.165C15.5479 110.292 15.3611 110.405 15.1267 110.416C14.8714 110.427 14.7126 110.695 14.7306 111.083C14.7469 111.439 14.6199 111.882 14.4485 112.069C14.2772 112.255 14.0817 112.88 14.014 113.457C13.9163 114.291 13.7496 114.535 13.203 114.643C12.2752 114.827 12.2466 114.885 12.5169 116.024C12.8998 117.638 15.702 118.604 20.483 118.77C21.8107 118.816 22.9717 118.895 23.0628 118.946C23.154 118.996 24.89 119.04 26.9203 119.043C28.9507 119.046 32.9182 119.067 35.7375 119.088C40.755 119.126 44.6281 119.093 54.6612 118.925C61.1558 118.816 68.7735 118.911 71.4666 119.134C72.6454 119.232 75.0192 119.315 76.7416 119.319C77.6593 119.321 78.1182 119.324 78.8653 119.326L84.3841 118.722C85.3752 118.487 86.7723 118.285 87.905 118.203C87.9158 118.184 88.8203 118.087 88.8351 118.068C90.2352 117.871 90.7031 117.819 91.8923 116.931C91.8947 116.798 92.0254 116.114 92.0282 115.974C92.1 112.395 91.0212 107.028 89.6667 104.225C86.0289 96.6983 82.7094 94.4362 71.639 91.9387C70.136 91.5996 68.8608 91.2078 68.8051 91.0678C68.7494 90.9279 68.5363 90.8858 68.3314 90.9745C68.1266 91.0632 67.873 91.0114 67.7682 90.8593C67.6635 90.7072 67.0106 90.5247 66.3169 90.4534C64.9713 90.3151 64.4638 89.7699 65.0118 89.0511C65.192 88.8147 65.3671 88.3602 65.4013 88.0416C65.4354 87.7229 65.6875 86.9938 65.9611 86.4213C66.2348 85.8488 66.6364 84.6742 66.8534 83.8108C67.0705 82.9474 67.3463 81.9824 67.4666 81.6666C68.3779 79.2738 69.3762 75.7932 69.2471 75.4588C69.2049 75.3497 69.2952 74.9011 69.4479 74.462C69.6005 74.0229 69.9199 72.6389 70.1573 71.3866C70.3947 70.1343 70.6455 68.8535 70.7147 68.54C71.0809 66.88 71.3527 65.1379 71.6907 62.2876C72.001 59.671 72.0368 59.0697 72.1793 54.0871C72.2749 50.7453 72.4325 49.4777 72.9271 48.0692C73.5071 46.4177 73.5185 46.2368 73.0812 45.6368C72.0303 44.1947 73.6304 44.458 75.0533 45.9613C77.7781 48.8402 80.6335 47.8569 80.3113 44.1507C80.1301 42.0668 78.1217 41.0143 78.2155 43.0523C78.2564 43.9431 77.6351 44.9444 77.2549 44.6003C77.1608 44.5153 77.2162 43.9773 77.3782 43.4045C77.6429 42.468 77.6086 42.3014 77.0353 41.7492C76.3979 41.1352 76.3979 41.135 77.192 40.2115C78.2023 39.0364 78.303 39.042 79.6914 40.3539C84.4288 44.8302 85.4684 45.6369 86.0195 45.2639C86.7519 44.7682 85.8678 43.4511 83.099 40.913C80.2581 38.3088 79.9011 37.7279 81.0107 37.5135C81.432 37.4321 82.5823 38.2895 85.2056 40.6397C89.2006 44.2188 89.3755 44.3111 89.3063 42.8062C89.2558 41.7071 89.3467 41.8146 85.428 38.2117C83.6531 36.5798 83.691 36.4906 86.2112 36.3767C87.9792 36.2968 88.1549 36.3404 88.1791 36.8664C88.1946 37.2065 88.8832 38.0093 89.8533 38.8183C91.5887 40.2655 93.1219 42.3027 92.9338 42.9119C92.8725 43.1107 93.0156 43.614 93.2521 44.0301C94.0314 45.401 95.6242 44.6289 95.175 43.0982C94.9849 42.4503 94.7912 41.6891 94.6593 41.0724C94.6427 40.9947 94.0918 40.3851 93.435 39.7172C91.4826 37.732 91.3427 37.5689 91.3284 37.2579C91.3203 37.0817 91.8097 36.9734 92.5264 36.9924C93.6268 37.0215 93.7333 37.0885 93.6907 37.7241C93.6317 38.6059 94.7631 40.9469 95.6124 41.7004C96.4796 42.4698 97.4031 43.6872 98.0814 44.955C98.7734 46.2484 99.7997 46.2683 99.8885 44.9901C99.9406 44.2402 99.1748 43.0828 95.7886 38.7943C94.8493 37.6049 94.8533 37.3433 95.8057 37.6538C97.7971 38.3031 96.4697 36.0359 94.4052 35.2618C92.9272 34.7077 89.3016 34.0117 87.8471 34.0028C86.9583 33.9973 86.6162 33.8748 86.5961 33.5553C86.5297 32.4928 83.3225 28.7851 80.7507 26.7975C79.983 26.2041 79.9695 26.1552 80.4208 25.6132C81.3716 24.4713 84.7673 25.1713 87.5725 27.0873C90.3198 28.9637 91.8171 29.3163 91.76 28.0734C91.736 27.5536 87.7264 24.8499 84.6732 23.2951C83.9976 22.9511 84.2856 22.606 85.865 21.8664C87.247 21.2193 87.3239 21.2402 87.3684 22.2781C87.4042 23.1113 87.4966 23.1962 88.4998 23.3145C89.7033 23.4565 91.7368 25.0639 93.6229 27.3648C94.2056 28.0757 94.8494 28.6496 95.0538 28.6403C95.9555 28.5996 95.6816 26.9678 94.5876 25.863C94.2938 25.5662 93.5802 24.7886 93.0022 24.1354C92.4241 23.4822 91.5345 22.6604 91.0251 22.3087C89.9774 21.5852 90.0787 20.6852 91.2142 20.6269C92.672 20.5521 93.1456 20.2289 92.9355 19.4517C92.77 18.8394 92.9441 18.4997 93.967 17.4412C95.266 16.0969 95.3501 15.8374 94.853 14.7003C94.3571 13.5658 93.5812 13.8833 91.4413 16.0968C90.0161 17.5709 89.1741 18.2145 88.4669 18.3707C87.9245 18.4905 86.8301 18.798 86.035 19.0541C83.6411 19.8249 83.5142 19.7102 84.9465 18.0705C87.098 15.6074 87.4861 13.8177 85.9179 13.5912C85.1 13.4731 77.5885 23.2401 77.6398 24.3551C77.6489 24.5525 77.2467 24.6571 76.585 24.6297C75.541 24.5864 75.5157 24.609 75.5236 25.5728C75.5367 27.1861 75.2514 27.8022 74.4305 27.9342C73.8541 28.0269 73.6819 28.2163 73.684 28.7596C73.6867 30.0088 73.6498 30.1089 72.6734 31.5043C72.1443 32.2604 71.5626 33.3441 71.3808 33.9124C70.9707 35.1939 70.8356 34.2969 71.1612 32.4552C71.6893 29.4688 72.2882 25.0793 72.3735 23.5697C72.5007 21.3174 72.7573 20.6779 73.7781 20.0669C76.7224 18.305 76.4529 15.7381 73.482 17.2455C71.6955 18.1519 72.3531 16.7507 74.3222 15.4551C77.39 13.4366 78.7833 12.1004 78.7425 11.212C78.6924 10.0905 77.058 10.4259 74.5509 12.0725C71.4238 14.1263 71.567 12.6923 74.7783 9.79483C77.4389 7.3943 78.4887 5.40414 77.0603 5.46871C76.5318 5.4926 74.2269 6.74099 73.6686 7.30578C72.6298 8.3567 72.3613 7.54678 72.9308 5.08182C72.9863 4.8415 74.3404 3.96441 75.9402 3.13285C78.9316 1.57812 79.2106 1.31719 78.9091 0.355388C78.8359 0.122199 78.5569 0.0128336 78.1459 0.000698566L78.1459 0.00155813ZM77.6373 18.3949C76.0872 18.3462 73.0184 22.9056 73.1366 25.4747C73.2098 27.0651 74.0198 26.8362 74.8229 24.9987C75.177 24.1883 76.0395 22.7461 76.7396 21.7936C78.4996 19.3989 78.6315 19.0779 78.0647 18.565C77.942 18.4541 77.7976 18.3999 77.6373 18.3949V18.3949ZM96.2414 19.2785C95.6306 19.2612 95.0895 19.3341 94.6639 19.5184C94.0472 19.7855 94.1642 20.8753 94.8718 21.4542C95.1971 21.7204 95.4746 22.1795 95.4883 22.4745C95.5174 23.1077 97.4422 25.4036 99.9435 27.7883C100.657 28.4683 101.446 28.2222 101.405 27.3325C101.395 27.1117 101.678 26.9311 102.063 26.9138C103.17 26.8637 103.428 26.2287 102.682 25.3901C101.323 23.8641 101.718 22.829 103.128 24.2215C104.212 25.2919 105.011 25.2744 104.961 24.1811C104.865 22.1016 99.5397 19.372 96.2414 19.2786V19.2785ZM98.7396 21.9901C99.3335 21.9901 99.4582 22.1178 99.4828 22.5864C99.5009 22.9348 99.6058 23.5012 99.7161 23.8454C100.065 24.9352 98.9785 24.5034 97.9811 23.1558C97.2722 22.1982 97.3331 22.0483 98.4551 21.9976C98.5602 21.9928 98.6548 21.9904 98.7396 21.9904V21.9901ZM78.4117 28.0336C78.585 28.0296 78.7808 28.0545 78.9978 28.112C80.5192 28.516 85.0048 33.059 84.4362 33.6199C83.4006 34.6416 81.9805 34.3022 80.6062 32.7045C80.0389 32.045 79.0661 31.0901 78.4446 30.5825C77.0841 29.4714 77.1988 28.0602 78.4117 28.0336L78.4117 28.0336ZM59.658 31.1746C59.2387 31.1595 58.7376 31.3521 58.2308 31.8155C56.8194 33.1058 56.6239 34.7988 57.7909 35.6263C58.6731 36.2518 59.2987 36.1139 59.6771 35.2105C59.8172 34.8761 60.1519 34.1607 60.4211 33.6208C61.1062 32.2469 60.5805 31.208 59.658 31.1746ZM76.2576 31.3947C76.4976 31.4055 76.7802 31.5818 77.1995 31.8791C78.1288 32.5381 77.5775 34.473 76.3413 34.8909C74.0576 35.6629 73.7396 35.2045 74.9766 32.9225C75.5754 31.8179 75.8575 31.3767 76.2576 31.3947ZM79.3548 33.975C79.4197 33.9726 79.5173 34.0306 79.6593 34.1369C79.9985 34.391 80.0322 34.5667 79.8005 34.8706C79.3717 35.4331 79.286 35.3822 79.2473 34.5416C79.2293 34.1496 79.2467 33.9788 79.3548 33.975V33.975ZM73.3774 37.3849C73.6112 37.3767 73.9321 37.4288 74.3563 37.5373C75.6578 37.8697 75.6606 37.924 74.4555 39.4924C73.9188 40.1909 73.3611 41.0534 73.2166 41.4092C72.9461 42.075 72.7182 42.2059 72.3735 41.8939C72.0228 41.5767 72.0876 40.0027 72.4863 39.1526C72.6994 38.6984 72.8661 38.1585 72.8567 37.9531C72.8396 37.581 72.9877 37.3988 73.3774 37.3849V37.3849ZM100.577 39.4466C100.008 39.4855 100.153 40.4944 101.299 42.0397C101.841 42.7714 102.417 43.5635 102.578 43.8004C102.74 44.0372 103.122 44.5724 103.429 44.9891C104.024 45.7964 104.076 47.5404 103.614 51.1779C103.47 52.3079 103.509 52.9757 103.739 53.3594C104.56 54.7266 105.418 53.3797 105.853 50.0408C106.386 45.9522 105.524 43.6361 102.309 40.5177C101.517 39.7489 100.918 39.4233 100.577 39.4466V39.4466ZM72.1556 43.6352C72.2117 43.6408 72.2684 43.6699 72.3264 43.7223C72.493 43.8731 72.5498 44.1384 72.4526 44.3115C72.0907 44.9558 71.4121 44.7161 71.7303 44.0564C71.8548 43.798 71.976 43.6594 72.0998 43.6373C72.1183 43.6341 72.1369 43.6333 72.1556 43.6349L72.1556 43.6352ZM64.8422 43.6434C65.0523 43.6402 65.2442 43.7464 65.3975 43.9911C65.5533 44.2397 66.0494 44.4394 66.4998 44.435C68.5076 44.4153 68.4789 48.1518 66.4631 49.2141C64.2236 50.3942 62.8685 49.7986 62.7669 47.5901C62.6817 45.7376 63.9319 43.6583 64.8422 43.6434V43.6434ZM67.6554 70.2955C67.7545 70.3332 67.6142 71.4473 67.2105 73.2544C66.5121 76.38 66.2314 76.941 65.9057 75.8649C65.7568 75.3727 65.8481 74.8807 66.1903 74.3301C66.4673 73.8843 66.887 72.7693 67.123 71.8526C67.4074 70.7475 67.5875 70.2697 67.6554 70.2955V70.2955ZM64.886 78.3919C64.9936 78.3822 65.1344 78.3975 65.3105 78.4345C65.81 78.5401 65.8048 78.6592 65.2121 80.6658C64.6124 82.6966 63.2972 83.8787 63.2313 82.4463C63.1954 81.6661 63.5247 81.1403 64.0641 81.1159C64.7314 81.0858 65.1255 80.0236 64.7722 79.2083C64.5398 78.6718 64.563 78.4209 64.886 78.3919V78.3919ZM62.0933 84.9181C62.2175 84.9205 62.3669 84.9348 62.5482 84.9622C63.8287 85.1565 63.8561 85.2392 63.1372 86.7308C62.4614 88.1329 62.737 89.0062 61.8046 88.8309C60.8283 88.6472 58.2228 90.317 58.7657 89.4601C59.0518 89.0085 61.3808 85.6554 61.4734 85.3607C61.5744 85.0393 61.7206 84.9142 62.0933 84.9181V84.9181ZM54.3992 89.8842C54.8392 89.8794 55.1281 89.907 55.1752 89.9755C55.4512 90.376 49.7181 96.9845 48.4209 97.761C48.1162 97.9434 47.8661 98.342 47.864 98.6471C47.8623 98.9522 47.7817 99.5456 47.6852 99.9655C47.3021 101.633 49.5453 103.468 52.992 104.304C53.942 104.535 54.9149 104.79 55.1536 104.873C55.9931 105.162 57.0058 104.992 57.4797 104.482C57.7431 104.198 58.1477 103.957 58.3791 103.947C58.8061 103.928 59.2132 102.722 58.9311 102.313C58.8463 102.19 59.1257 101.566 59.5522 100.928C59.9787 100.29 60.6964 98.9252 61.1472 97.896C61.598 96.8668 62.0543 95.9576 62.1607 95.8752C62.2672 95.7928 62.6247 95.0148 62.9552 94.1463C64.0136 91.3646 64.1008 91.2753 64.8685 92.1912C65.5031 92.9483 68.0379 94.1905 68.8822 94.1579C69.496 94.1342 75.6126 95.7492 78.1722 96.6106C80.74 97.4749 84.0631 99.5761 85.1298 101.01C86.1172 102.338 87.6079 104.908 87.6267 105.314C87.635 105.494 87.8621 106.034 88.1312 106.512C88.6931 107.512 89.502 112.674 89.3117 114.048C89.1839 114.97 89.184 114.971 87.4213 115.051C86.4519 115.095 84.7104 115.372 83.5514 115.667C81.819 116.107 76.0545 116.51 74.5446 116.296C74.4232 116.279 72.4633 116.201 70.1894 116.123C67.9155 116.044 64.8992 115.914 63.4863 115.833C62.0734 115.751 57.8463 115.762 54.093 115.857C45.0784 116.085 37.365 116.187 35.6 116.102C34.8154 116.064 32.8648 116.043 31.2652 116.055C26.0654 116.095 21.4099 116.033 21.2062 115.921C21.0967 115.86 20.2505 115.773 19.3258 115.727C15.6129 115.541 15.3455 115.424 15.9386 114.24C18.4812 109.169 27.4914 104.419 31.2848 106.151C32.3744 106.649 32.866 106.099 32.5724 104.709C32.2499 103.182 37.4576 96.145 38.9601 96.0771C39.1503 96.0684 39.4715 95.8429 39.6741 95.5758C40.8432 94.0346 45.9643 91.2278 48.8021 90.5729C50.3981 90.2046 53.079 89.8986 54.3992 89.8842V89.8842ZM59.7713 91.2287C61.823 91.2128 61.3807 92.6327 59.0835 93.4357C57.5217 93.9816 56.3948 94.1495 56.1992 93.8655C55.8738 93.3933 57.2046 91.7321 57.6818 91.9955C57.8142 92.0686 59.0423 91.2341 59.7713 91.2287V91.2287ZM55.0865 96.3154C55.1771 96.3154 55.2674 96.3194 55.3569 96.3274C56.1781 96.4018 57.3407 96.4338 57.9404 96.3985C58.5402 96.3632 59.0337 96.3985 59.0373 96.4757C59.0598 96.9652 58.4498 97.6902 58.1096 97.5781C57.886 97.5045 57.4153 97.6138 57.0636 97.8213C56.1505 98.3601 52.2891 98.5607 52.2863 98.0695C52.2813 97.1899 53.727 96.3147 55.0865 96.3155V96.3154ZM50.6971 100.344C50.9349 100.333 51.2573 100.44 51.4136 100.581C51.5698 100.723 52.7554 100.878 54.0484 100.926C56.0781 101.002 57.4492 101.449 55.8701 101.521C55.5668 101.534 55.2455 101.676 55.1561 101.835C54.9334 102.232 53.9714 102.211 52.5916 101.781C51.2808 101.372 49.9682 100.377 50.6971 100.344V100.344ZM96.893 111.939C96.6678 111.929 96.4775 111.981 96.336 112.109C95.2908 113.051 96.6807 115.164 98.7292 115.746C99.273 115.9 98.5123 116.719 97.6178 116.942C92.4063 118.583 88.3249 118.851 83.4239 119.423C82.4855 119.529 81.0242 119.621 79.8076 119.687C79.006 119.821 77.9641 119.955 77.0824 120.008C71.7319 120.328 70.4254 122.742 75.6756 122.607C77.4311 122.561 78.9279 122.579 79.002 122.646C79.0761 122.713 79.5265 122.689 80.003 122.592C80.4794 122.495 83.2282 122.173 86.1112 121.877C91.9227 121.28 98.4217 120.097 99.5932 119.423C100.012 119.181 100.506 118.976 100.693 118.967C101.181 118.943 101.864 117.769 101.829 117.014C101.744 115.16 98.4689 112.013 96.893 111.939V111.939ZM6.89856 112.034C5.67184 112.04 4.45465 112.171 3.83633 112.438C3.10786 112.754 3.38543 114.367 4.27873 115.009C5.05673 115.569 5.06619 115.569 7.19433 114.961C8.3687 114.626 9.58652 114.34 9.90039 114.323C10.8866 114.275 11.1618 113.364 10.4236 112.592C10.0683 112.221 8.47578 112.025 6.89856 112.034V112.034ZM0.353363 117.01C-0.145496 116.992 -0.0657663 117.44 0.280466 118.424C1.20113 121.042 4.52851 121.893 15.8203 122.398C16.6832 122.437 17.7122 122.534 18.1073 122.613C18.5024 122.693 18.9217 122.732 19.0388 122.701C19.1558 122.67 21.0844 122.822 23.3245 123.038C29.2032 123.607 31.7807 123.754 35.952 123.754C37.9875 123.754 39.7199 123.815 39.8016 123.889C40.2478 124.295 45.8148 123.493 46.3122 122.952C47.3419 121.831 46.6576 121.633 41.2142 121.482C28.6141 121.131 24.7172 120.929 22.5659 120.516C21.614 120.333 19.1131 120.048 16.276 119.8C15.5719 119.738 14.8739 119.62 14.7247 119.538C14.5756 119.456 13.8896 119.435 13.2001 119.492C12.5106 119.549 11.8091 119.52 11.6412 119.427C11.4734 119.335 10.5502 119.245 9.59004 119.228C6.78026 119.177 4.8251 118.788 2.71408 117.861C1.4793 117.318 0.741367 117.024 0.353364 117.01L0.353363 117.01Z" fill="url(#paint0_linear)"/>
<defs>
<linearGradient id="paint0_linear" x1="53" y1="0" x2="53" y2="124" gradientUnits="userSpaceOnUse">
<stop offset="0.208333" stop-color="#3CD7C9"/>
<stop offset="1" stop-color="#1C2541"/>
</linearGradient>
</defs>
</svg>
