<?xml version="1.0" ?><svg xmlns="http://www.w3.org/2000/svg" width="172.0547mm" height="342.70895mm" viewBox="0 0 172.0547 342.70895">
    <path d="m -2953.3691,6704.8301 c -31.1756,0.2316 -74.2618,10.8652 -74.2618,10.8652 0,0 -48.5923,2.7886 -74.7988,18.4785 -26.2069,15.69 -5.7129,37.9883 -5.7129,37.9883 0,0 -8.8651,25.7515 -22.3535,53.9317 -13.4887,28.1805 -20.6172,49.3378 -20.6172,49.3378 0,0 -61.723,22.0701 -87.2246,37.3008 -25.502,15.2304 -122.1301,115.9592 -135.7148,130.1797 -13.5852,14.2201 16.6679,49.7715 16.6679,49.7715 0,0 -29.8686,44.2202 -38.7324,79.4238 -8.8641,35.2041 -24.9363,200.5719 -25.9961,278.3496 -1.0598,77.7778 5.8745,63.9047 24.6621,80.5528 0,0 16.8949,8.9755 31.1543,12.1836 14.259,3.2084 41.6206,18.8148 70.043,33.2949 28.422,14.4805 102.6094,9.2793 102.6094,9.2793 l 8.4785,-18.9043 c 0,0 17.151,-2.9474 30.543,-3.8145 13.3923,-0.867 66.4783,-22.0248 87,-35.4648 20.522,-13.4396 15.0602,-47.3434 11.8808,-68.5 -3.1797,-21.1571 -23.7851,-246.4961 -23.7851,-246.4961 0,0 26.0971,-13.1967 36.6953,-15.4512 10.5981,-2.2545 7.3225,-14.3074 2.8906,-29.5683 -4.4319,-15.2606 -0.5025,-72.6976 0.4609,-95.7618 0.9634,-23.0645 -2.5058,-92.1699 -2.5058,-92.1699 0,0 24.2148,-0.016 42.5859,0.1465 18.3712,0.1621 44.4024,-10.0742 44.4024,-10.0742 0,0 24.0992,15.649 42.0195,24.5801 17.9206,8.931 47.4034,-2.601 58.3867,-23.0645 10.9837,-20.4631 -19.1719,-79.2578 -19.1719,-79.2578 0,0 19.4609,-33.0296 29.3848,-61.9902 9.9235,-28.961 -26.3516,-74.2149 -26.3516,-74.2149 0,0 18.4514,-19.4301 6.1192,-30.789 -12.3326,-11.359 -34.4922,1.7343 -34.4922,1.7343 0,0 -6.2633,-5.8088 -29.0977,-17.8613 -5.7085,-3.0131 -14.7761,-4.0928 -25.1679,-4.0156 z m 11.8828,349.623 c -11.9874,0.1147 -24.9241,13.2505 -36.9825,30.4434 -17.1499,24.4513 3.1784,21.2424 27.6504,24.7109 25.2427,-9.191 39.3173,-29.9149 23.8711,-47.6621 -4.5857,-5.2687 -9.4777,-7.5406 -14.539,-7.4922 z m 75.1328,361.1035 c -38.0568,0 -72.8483,10.0297 -78.4258,45.0372 -5.5472,34.8181 29.5859,51.6691 90.8535,55.373 61.1259,3.6952 60.409,-25.4069 59.7344,-44.916 -0.6743,-19.5096 -34.1049,-55.4942 -72.1621,-55.4942 z" transform="translate(158.72837,69.738337) translate(4166.9609,-1390.7109) matrix(0.26458333,0,0,0.26458333,-3417.4795,-450.03122)" fill="#FFFFFF"/>
    <path d="m -4200.8407,1320.973 v 0 c -3.7853,-0.021 -7.8498,0.7151 -12.0964,2.2134 -1.9166,0.6761 -6.1073,1.3941 -9.3126,1.5973 -0.399,0.025 -0.7847,0.067 -1.1767,0.1007 l -0.013,-0.017 c -0.2608,0.025 -0.5336,0.057 -0.8041,0.087 -1.1535,0.1183 -2.266,0.2791 -3.3476,0.4687 -1.9339,0.3224 -3.7949,0.7189 -5.1062,1.1204 -1.2353,0.3781 -2.4876,0.9143 -3.6835,1.5404 -2.4756,1.171 -4.4179,2.5856 -5.6539,4.1641 -0.9356,1.0275 -1.5012,2.0149 -1.5012,2.8138 0,0.982 -1.4507,2.5842 -3.5264,3.8943 -1.9396,1.2246 -3.7557,3.1399 -4.0359,4.2566 -0.4331,1.7248 -0.97,1.9765 -3.5796,1.6718 -6.6045,-0.7711 -11.7035,4.0385 -10.7183,10.1099 0.4231,2.6078 0.064,3.2434 -3.4633,6.134 -4.8667,3.9879 -6.565,7.1589 -6.565,12.2541 0,3.3841 -0.3642,4.1749 -2.5693,5.58 -7.3835,5.7434 -15.2586,14.0865 -21.0101,20.7176 -2.3121,2.6797 -6.4325,6.6795 -9.1566,8.8888 -5.9067,4.7906 -6.6404,7.8206 -3.6034,14.8803 l 1.893,4.3997 -2.2443,3.4101 c -4.3704,6.6401 -8.5519,19.4102 -10.3632,31.6498 -3.1548,21.3155 -4.0573,48.2372 -2.3849,71.1099 0.6385,8.732 5.6855,13.5027 16.3607,15.4646 5.2225,0.96 13.4891,4.9317 13.6147,6.5407 0.038,0.4872 0.2167,1.683 0.4,2.6572 1.1593,6.1981 2.6408,32.4836 2.4805,57.1366 -0.1438,22.1108 -0.9276,27.6279 2.8964,32.7753 1.4775,2.1905 3.7573,5.8485 5.0659,8.1281 1.3086,2.2797 3.0054,4.7708 3.7708,5.5361 2.2042,2.2041 5.5628,1.7791 6.2063,-0.7854 0.5672,-2.2593 -1.8844,-7.3114 -8.3442,-17.1938 -2.6267,-3.2571 -3.0417,-10.4196 -2.9502,-18.1586 0.087,-7.3726 -0.3958,-25.5623 -1.0743,-40.4218 -0.6782,-14.8593 -1.1317,-27.1305 -1.0061,-27.2687 0.1251,-0.1388 1.9739,0.1506 4.1087,0.6429 4.9478,1.1413 19.4631,1.2013 22.378,0.093 1.5985,-0.6077 2.3929,-1.7431 2.8225,-4.0338 0.4885,-2.6026 1.0526,-2.0819 2.5916,-1.8609 1.652,0.2355 1.8492,-0.021 2.3544,5.4115 0.3172,3.4103 0.874,20.7501 1.2377,38.5326 0.6874,33.6105 0.992,36.2439 4.8167,41.615 2.5759,3.6178 8.5184,6.1656 16.4569,7.0559 7.7246,0.8663 11.0153,0.1118 11.0153,-2.5244 0,-3.0621 -2.284,-4.2506 -9.4666,-4.9273 -9.3636,-0.8821 -13.749,-2.2597 -14.2079,-4.4633 -0.2024,-0.9717 -0.9131,-17.9066 -1.5797,-37.6329 -0.6666,-19.7264 -1.4656,-37.7074 -1.7751,-39.9583 -0.559,-4.0647 -0.5431,-4.0967 2.3254,-4.6705 3.3908,-0.6779 15.8441,-7.5296 20.219,-11.1238 3.7166,-1.7463 2.6303,-3.8022 0.6604,-17.0047 -2.7806,-16.9038 -3.7628,-25.5757 -2.9011,-25.5757 1.2811,0 5.8399,2.7394 5.8399,3.5088 0,0.443 -0.4251,1.9227 -0.9446,3.2892 -1.3514,3.5546 -0.2761,7.8175 2.8773,11.4092 2.295,2.6139 3.2513,3.0783 5.9945,2.9176 1.8344,-0.1082 4.1393,0.4203 5.2622,1.2067 1.3459,0.9429 3.11,1.2501 5.4069,0.942 l 3.4086,-0.4573 -0.4868,3.6339 c -0.6744,5.0273 1.0448,8.5752 5.7128,11.7869 5.3732,3.6968 11.4624,5.1317 21.6917,5.1567 9.2543,0.012 15.3472,-1.6111 16.0729,-4.2798 2.2568,-8.3006 2.4225,-10.5924 1.0098,-13.9738 -3.3289,-7.9694 -10.4982,-11.8678 -23.0441,-12.53 -4.3845,-0.2314 -9.4249,-0.018 -11.2008,0.4739 -2.5863,0.7166 -3.4997,0.6247 -4.5879,-0.4636 -1.1804,-1.1807 -1.1944,-1.6091 -0.108,-3.2675 1.0981,-1.6756 1.052,-2.2817 -0.3746,-4.9661 -0.8938,-1.6818 -3.3746,-4.4035 -5.5129,-6.0477 -3.7398,-2.875 -4.1128,-2.97 -9.7684,-2.496 -5.6732,0.4761 -6.1094,0.3622 -12.3822,-3.2116 -7.6076,-4.3341 -7.532,-4.1504 -8.4351,-20.5383 l -0.586,-10.6335 4.1243,-1.1033 c 2.2688,-0.6066 6.5465,-1.4284 8.2894,-3.0256 4.2097,-3.7454 2.3416,-3.2936 0.7989,-8.7323 -1.0558,-3.7194 -1.3318,-8.6579 -1.1937,-21.2344 0.1582,-14.3314 -0.02,-16.7548 -1.416,-19.3208 -1.586,-2.9146 -5.0437,-3.7376 -4.2013,-0.9999 0.2152,0.7018 0.2275,6.6574 0.027,13.2344 -0.6245,20.4389 -0.6646,26.6715 0.7633,29.8581 1.9858,4.4321 -4.6578,4.8335 -7.1903,5.3852 -7.6098,1.6508 -7.7225,1.6501 -7.7225,-0.027 0,-2.2367 3.1695,-14.8182 5.3573,-21.2675 0.9511,-2.8035 1.7151,-5.9918 1.7151,-7.0858 -0.016,-2.3028 -1.4059,-4.8513 -2.2086,-4.0484 -1.7268,1.7266 -8.782,28.6631 -11.0371,42.1406 -0.5908,3.5321 -1.3376,6.4146 -1.6588,6.4146 -0.3211,0 -2.1483,-2.4363 -4.0612,-5.4053 -3.0029,-4.6603 -3.3291,-5.637 -2.3864,-7.1469 1.7955,-2.8748 13.4763,-37.0013 14.797,-43.2304 1.4694,-6.9308 1.6044,-12.9809 0.309,-13.7816 -1.3759,-0.8505 -1.4713,-0.6396 -3.8576,8.5075 -1.1996,4.5976 -4.5449,14.1396 -7.4337,21.2039 -2.889,7.064 -5.9696,15.036 -6.8456,17.7157 l -1.5937,4.872 -1.5844,-3.5434 c -2.4489,-5.4768 -4.1434,-14.7725 -5.1681,-28.3456 -0.9619,-12.7413 -2.6566,-22.0243 -4.3248,-23.6926 -0.6712,-0.671 -1.3796,-0.5877 -2.434,0.2873 -1.3458,1.1172 -1.4263,3.0765 -0.8506,20.6639 0.5336,16.2914 0.9607,20.5502 2.6453,26.3658 1.5934,5.5019 1.7574,6.9355 0.7912,6.9355 -0.6699,0 -6.5222,-2.5559 -13.0049,-5.6803 -10.4864,-5.0537 -12.3698,-6.3168 -17.0718,-11.4484 -4.8202,-5.2605 -9.062,-12.1924 -10.4805,-17.1271 -0.4479,-1.5585 0.181,-2.4301 3.3114,-4.5837 2.1255,-1.4626 7.6242,-6.7576 12.2184,-11.7667 7.4784,-7.7732 14.0809,-15.6323 23.4564,-19.7616 2.0452,-0.8603 4.22,-1.5723 6.7143,-2.2453 2.8103,-0.7583 4.7038,-1.1862 6.1692,-1.3369 l -0.6139,1.9735 c -0.4114,1.322 -0.7283,4.6286 -0.7023,7.3479 0.056,6.1418 3.25,12.0917 7.8078,14.5464 3.0622,1.8841 6.4267,0.3055 6.753,-2.8817 0.4101,-4.0062 2.8158,-6.4213 3.7936,-6.4213 7.1156,6.1067 14.3436,7.1272 20.5218,7.7582 2.9232,0.2808 5.6073,0.9509 5.9655,1.4883 1.0548,1.5836 0.7723,5.7534 -0.5653,8.34 -1.877,3.6296 -2.5683,10.0532 -1.5064,13.9961 1.4317,5.3171 5.4587,8.9261 10.9895,9.8479 8.0106,1.3352 13.6853,-0.9254 16.3494,-6.5122 1.4174,-2.9727 1.5183,-4.1499 -0.1437,-7.2538 -2.0585,-3.8444 -7.4587,-5.9366 -10.7694,-5.1057 -1.2127,0.3044 -3.7383,1.9385 -5.612,3.6313 -1.8739,1.6929 -3.6391,3.0774 -3.9233,3.0774 -1.3801,0 -1.545,-6.1702 -0.2336,-8.706 1.4446,-2.878 1.9519,-8.9056 1.1379,-11.13 -1.2519,-2.4539 0.7161,-3.4279 0.7897,-2.0826 l 0.1633,2.9797 c 0.124,2.2648 -0.2258,3.9099 1.1306,4.3367 2.8624,0.9084 4.5493,-1.151 4.2261,-5.161 -0.2064,-2.5619 0.1261,-3.7612 1.2408,-4.47 1.2359,-0.7866 2.0707,-0.4396 4.4292,1.8428 9.4529,9.1494 23.1696,6.5892 26.3467,-4.917 0.7342,-2.6591 0.433,-4.6305 -1.8231,-11.9414 l -2.7022,-8.7566 3.1709,-6.0342 c 4.1854,-7.9647 4.7349,-12.3198 2.3528,-18.6506 -1.0195,-2.7095 -3.0375,-6.1372 -4.484,-7.6171 -2.3749,-2.4289 -2.5068,-2.8545 -1.356,-4.3749 1.7845,-2.3574 1.6341,-5.9852 -0.3503,-8.4357 -1.5545,-1.9199 -1.9614,-2.0027 -5.3821,-1.0898 -3.4915,0.9321 -3.9466,0.8225 -8.0553,-1.9425 -3.7355,-2.5137 -8.1403,-3.7904 -13.007,-3.8169 z m -1.9911,5.6994 v 0 c 5.5718,-0.031 7.3937,0.355 11.2939,2.3963 3.4209,1.7906 4.6504,2.9396 4.6504,4.3455 0,1.8965 -0.016,1.8949 -2.282,-0.2336 -1.9228,-1.8066 -3.3521,-2.1924 -9.0796,-2.4505 -5.9454,-0.268 -7.6628,0.038 -13.7056,2.4407 -1.3059,0.5192 -2.6222,1.0783 -3.8871,1.6303 l -0.01,-0.012 c -2.393,1.0456 -4.5041,2.0457 -5.3614,2.5776 v 0 c -0.9965,0.6181 -2.3684,1.6051 -3.4525,2.4691 -0.015,0.012 -0.028,0.023 -0.043,0.035 -0.3045,0.2435 -0.5837,0.4758 -0.8253,0.6873 -0.032,0.028 -0.077,0.062 -0.1075,0.089 l -1.9492,1.7234 v -2.2888 c 0,-1.3957 1.4523,-3.2164 4.084,-5.2642 0.2181,-0.1698 0.4436,-0.3409 0.678,-0.5137 0.3878,-0.286 0.7951,-0.5757 1.2263,-0.8692 0.3739,-0.2544 0.7584,-0.5101 1.1642,-0.7695 0.3263,-0.2088 0.663,-0.4188 1.0093,-0.6304 1.5177,-0.926 3.1987,-1.8737 5.0818,-2.8365 4.0272,-2.0592 6.0232,-2.4981 11.5151,-2.5281 z m 23.2689,2.7782 v 0 c 0.6279,-0.035 1.254,0.083 1.8077,0.3927 1.9422,1.0864 1.896,2.7664 -0.1256,4.5961 -2.5734,2.3288 -5.4664,1.5004 -5.4664,-1.5658 0,-1.83 1.899,-3.3165 3.7833,-3.423 z m -45.8566,0.8635 -3.5435,4.0406 c -0.8407,0.9588 -1.5712,1.7185 -2.252,2.3083 -0.025,0.021 -0.048,0.039 -0.073,0.06 -0.2821,0.2405 -0.5548,0.4441 -0.8242,0.6268 -1.6561,1.1076 -3.1603,1.1599 -5.4943,0.555 -1.7282,-0.4479 -1.8651,-1.48 -0.9684,-2.6277 0.033,-0.041 0.064,-0.082 0.099,-0.1225 0.079,-0.095 0.1662,-0.1896 0.2589,-0.2853 0.1342,-0.1361 0.2736,-0.2728 0.4331,-0.4098 0.016,-0.014 0.03,-0.027 0.045,-0.04 1.7387,-1.4704 4.8759,-2.9347 8.337,-3.4788 z m 26.573,4.6353 c 1.997,0 3.6771,0.3148 4.9217,0.9809 4.0929,2.1902 5.7556,10.8391 2.8949,15.0574 -0.8167,1.2048 -4.3387,5.2062 -7.8259,8.8925 -0.1796,0.1899 -0.3545,0.3893 -0.5343,0.5819 -0.4877,0.5227 -0.9705,1.0484 -1.449,1.5782 -0.4526,0.5006 -0.8733,0.9739 -1.3048,1.4655 -0.3223,0.3673 -0.6334,0.7254 -0.9374,1.0801 -0.4913,0.5727 -0.9291,1.0944 -1.355,1.6128 -0.2374,0.2888 -0.4596,0.5634 -0.6713,0.8289 -0.7879,0.9887 -1.4523,1.8622 -1.7549,2.3745 -0.6747,1.1423 -1.4912,2.1224 -2.0883,2.5647 -0.1967,0.1399 -0.3676,0.2181 -0.4986,0.2181 -1.5137,0 -8.5916,-4.8106 -11.2288,-7.6316 -3.0202,-3.2308 -5.8939,-9.6792 -6.5309,-14.6549 l -0.4904,-3.8339 5.5464,-3.2545 c 8.4742,-4.9729 17.3154,-7.8545 23.3066,-7.8606 z m 20.2319,4.5982 c 0.057,-0.01 0.097,-2e-4 0.1193,0.025 0.1745,0.175 1.3916,2.4571 2.7043,5.071 3.4965,6.9623 3.7234,10.5057 1.0475,16.3509 -5.4972,11.99 -11.7577,17.6122 -23.9888,15.7379 l 0.094,-0.029 c -2.1768,-0.3445 -4.0656,-0.8189 -5.0049,-1.3994 -1.3,-0.8035 2.1522,-5.8763 8.8021,-13.0421 v 0 c 0.3434,-0.3698 0.655,-0.7189 1.0154,-1.0996 6.9333,-7.3245 9.5994,-11.7299 9.5994,-15.8631 0,-1.4232 0.9422,-2.854 2.7084,-4.1114 1.3033,-0.928 2.5083,-1.6 2.9068,-1.6356 z m 0.4775,38.7863 0.9477,3.3667 c 2.7902,9.9133 2.3047,13.5851 -2.0712,15.6616 -4.1021,1.9465 -7.5325,1.5062 -12.2256,-1.5689 -1.8789,-1.2311 -10.4598,-11.387 -10.4598,-12.3796 0,-0.176 4.0172,-0.2151 8.9266,-0.085 7.8671,0.4422 9.9559,-0.6696 14.8823,-4.995 z m -34.5349,0.6733 c 0.2975,-0.01 0.5834,0.017 0.862,0.061 5.2185,4.1063 7.444,8.8093 7.444,8.8093 -1.3089,1.8179 -1.2395,2.6427 -1.2149,3.143 0.052,1.0505 1.2009,1.3033 1.8303,1.3053 1.2305,-0.02 2.0511,-1.1994 2.0511,-1.1994 l 0.7891,0.7948 c -3.3598,1.6877 -6.765,2.4539 -10.1606,2.6654 -0.3221,-0.342 -0.6396,-0.6218 -0.8708,-0.6924 -0.5332,-0.1626 -2.6572,-0.2933 -3.9899,0.6495 -2.848,-0.2427 -5.6705,-0.7979 -8.4326,-1.5074 -1.9785,-0.4946 -10.1718,-3.9845 -10.3125,-6.7706 0,-1.6525 5.7725,-4.2644 10.5709,-4.7832 2.7119,-0.2933 6.4993,-1.1075 8.4171,-1.8092 1.1432,-0.4181 2.1275,-0.6503 3.0168,-0.6661 z m 2.9192,6.5025 c -2.1906,0 -4.9487,3.1134 -4.2865,4.8389 0.7274,1.8958 3.54,1.6999 5.4198,-0.3772 1.8492,-2.0433 1.2349,-4.4617 -1.1333,-4.4617 z m 13.6183,32.9323 c 0.8826,-0.062 1.705,0.3352 2.2981,0.9054 0.7909,0.7601 1.174,1.8284 0.7482,2.5301 -0.8469,1.3953 -3.5674,1.4255 -5.2089,0.6904 -1.6417,-0.735 -2.2042,-2.2352 1.266,-3.9011 0.3013,-0.1329 0.6023,-0.2043 0.8966,-0.2248 z m -4.5578,6.3469 c 0.2,0.01 0.3798,0.054 0.5265,0.1447 0.8103,0.5004 0.7779,0.8411 -0.1354,1.4196 -0.6611,0.4188 -1.7855,0.7751 -2.499,0.7751 -1.0821,0.011 -1.0593,-0.2243 0.1359,-1.4195 0.5925,-0.6001 1.3718,-0.9405 1.972,-0.9199 z m -107.2142,7.5184 v 0 c 0.555,-0.039 1.3885,0.8195 2.7223,2.7441 4.8347,6.9767 10.7972,11.5463 22.1537,16.9788 6.0104,2.875 11.7061,5.2275 12.6566,5.2275 2.8901,0 7.2973,1.8689 8.1458,3.4541 0.4701,0.8783 0.4894,5.5054 0.047,11.2014 -0.4146,5.3374 -1.0238,24.0545 -1.3534,41.5933 -0.33,17.539 -0.8577,33.8815 -1.1731,36.3177 -0.1481,5.0935 -1.1979,4.4465 -5.888,4.5796 -7.824,0.2224 -15.7288,-1.8632 -23.859,-6.2947 -4.6577,-2.5391 -9.3469,-4.3232 -13.2534,-5.0431 -3.325,-0.6127 -7.0088,-1.8721 -8.1861,-2.7983 -2.8434,-2.2365 -5.6693,-7.8588 -4.7847,-9.5193 0.3805,-0.7141 0.925,-11.2638 1.2102,-23.4436 0.501,-21.4017 2.9265,-48.3758 5.0835,-56.5273 1.5332,-5.7945 5.2031,-16.8729 6.0084,-18.1384 0.1314,-0.2065 0.2852,-0.3192 0.4702,-0.3323 z m 74.5769,27.0501 c 0.034,0.064 -0.1648,5.1848 -0.4429,11.3796 l -0.5049,11.2634 -3.3734,-2.8479 -3.3729,-2.8484 1.0862,-8.1152 c 1.0831,-8.0932 1.0933,-8.1161 3.8158,-8.5318 1.5014,-0.2301 2.7561,-0.3627 2.7921,-0.2997 z m -23.5991,10.3027 c 0.3119,0 1.3142,1.2652 2.2272,2.8107 0.913,1.5457 2.9637,4.253 4.5569,6.0167 l 2.8964,3.2059 -0.8247,9.7069 c -0.9672,11.3877 -2.2534,18.2369 -4.1848,22.2871 -1.5974,3.3498 -2.0498,3.5085 -3.9109,1.3704 -1.0455,-1.2013 -1.4642,-4.9405 -1.8593,-16.6088 -0.5074,-14.9913 0.02,-28.7889 1.0992,-28.7889 z m 15.8797,17.7426 c 0.3156,0.016 2.2463,1.5109 4.2922,3.3222 l 3.7212,3.2955 0.9617,11.9584 c 0.5289,6.5768 1.5687,16.093 2.3105,21.147 0.8812,11.6396 -0.9003,11.9739 -8.3287,15.8792 -9.9315,5.1936 -9.298,5.3737 -10.3038,-2.9234 -0.2953,-2.4361 -1.1992,-7.1064 -2.0092,-10.3792 -1.3371,-5.4074 -1.3449,-6.0945 -0.083,-7.5292 4.2078,-4.7836 7.1974,-14.7351 8.2584,-27.4888 0.3342,-4.0185 0.8654,-7.3054 1.1804,-7.2817 z m 60.0945,27.5724 c 1.1325,-0.028 2.3233,0 3.5558,0.1008 3.8884,0.3088 6.8759,1.2121 10.1865,3.081 6.1355,3.4638 6.3614,4.9506 1.0294,6.7675 -8.3551,2.8469 -19.8585,1.2615 -24.4962,-3.376 -3.2874,-3.2876 1.7968,-6.377 9.7245,-6.5733 z m 0.3782,1.2992 v 0 c -0.9713,0.021 -1.8779,0.153 -2.6381,0.4181 -3.2584,1.1357 -3.9615,3.9344 -0.7942,3.162 1.0963,-0.2675 3.3885,-0.1525 5.0937,0.2558 4.2418,1.0149 7.9722,1.0826 7.9722,0.1447 0,-2.1051 -5.4247,-4.0749 -9.6336,-3.9816 z m -13.3971,9.2309 4.0406,2.5622 c 7.5906,4.8137 16.0373,5.5026 26.3555,2.1482 2.3457,-0.7616 4.4859,-1.1657 4.7563,-0.8951 1.1021,1.1021 -0.713,4.7681 -2.8412,5.7377 -2.1217,0.9668 -14.0089,1.2433 -19.0246,0.4428 -3.5621,-0.5685 -10.057,-3.079 -11.7368,-4.5361 -0.8525,-0.7396 -1.5498,-2.2702 -1.5498,-3.4019 z m -62.8928,1.8397 c 0.02,0 0.042,0.02 0.064,0.059 0.9169,1.6713 2.5946,13.2097 2.5947,17.8455 -10e-5,2.6875 -0.4236,4.1048 -1.3291,4.4524 -0.7307,0.2814 -1.3283,0.2244 -1.3281,-0.1256 0,-0.3503 -0.1292,-5.7436 -0.2874,-11.9853 -0.1482,-5.8495 -0.019,-10.2426 0.2858,-10.2459 z m 84.2564,104.4944 c -2.4603,0.1087 -5.6132,1.1682 -6.0529,2.3136 -0.3205,0.8353 0.1274,1.8972 1.1017,2.6096 2.0083,1.4695 3.2148,1.5029 6.1335,0.1732 2.4796,-1.1297 3.0325,-4.0447 0.9209,-4.855 -0.5401,-0.2072 -1.2831,-0.2765 -2.1032,-0.2403 z m -18.0945,0.8186 v 0 c -3.3714,0.016 -5.5023,1.1804 -4.6592,2.5451 0.7204,1.1646 5.7379,1.2886 7.4823,0.1835 1.8992,-1.2028 0.3049,-2.756 -2.8231,-2.7301 z m 8.6651,3.56 c -1.3688,-0.018 -3.2362,0.3869 -5.2302,1.2201 -2.2121,0.9242 -3.1439,1.9775 -3.6044,4.0736 -0.3688,1.6793 -0.2346,3.214 0.3312,3.7796 1.1508,1.1503 5.8054,1.274 9.3245,0.2481 1.9146,-0.5569 2.4005,-0.4775 1.9146,0.309 -0.3591,0.5815 -0.4322,1.6359 -0.1607,2.3435 1.1052,2.8803 10.2924,0.8371 10.2924,-2.2887 0,-1.3564 -3.1604,-2.5598 -5.272,-2.0077 -1.7002,0.4449 -1.929,0.2535 -1.4594,-1.2262 0.4156,-1.3094 -0.01,-2.01 -1.6707,-2.7678 -1.2248,-0.5582 -2.2272,-1.6215 -2.2272,-2.3627 0,-0.8598 -0.8703,-1.3014 -2.2392,-1.3198 z" transform="translate(158.72837,69.738337) translate(4166.9609,-1390.7109)" fill="#000000"/>
</svg>