<svg width="24" height="24" viewBox="0 0 24 24" fill="none" xmlns="http://www.w3.org/2000/svg">
<g clip-path="url(#clip0)">
<path d="M10.99 23.089C10.4295 22.0397 7.62833 18.8408 7.25395 18.5378C6.66792 18.0639 6.92258 17.5373 8.4688 16.0491C9.87092 14.6994 10.543 13.9852 10.0993 13.9852C7.84705 15.9357 8.07162 15.576 6.5222 16.8262C5.90201 17.3209 5.40522 16.9504 4.75495 16.3189C3.66442 15.2601 1.07346 13.3474 0.427166 12.8992C0.212761 12.7505 0.00012207 12.5801 0.00012207 12.2853C0.00012207 11.9382 0.0417122 11.0699 0.980311 10.6654C2.33901 10.0797 4.86341 8.23376 5.51533 7.79682C6.24238 7.30947 7.06996 7.4489 7.70348 8.10603C8.30064 8.72575 9.35584 9.75996 9.56132 9.55946C9.69574 9.42854 8.57643 7.92076 7.79913 7.07737C7.65161 6.74418 7.14794 6.33212 7.49819 5.93043C8.64954 4.52724 9.85863 2.40574 10.8078 0.865483C11.5441 -0.359349 12.1877 -0.232658 12.9482 0.92099C13.2182 1.33047 14.1013 2.84992 14.4079 3.21004C14.9355 3.82942 15.152 3.0621 15.8275 2.74898C16.7959 2.30017 19.7775 1.89428 20.7074 1.75488C21.949 1.56876 20.9763 5.50552 20.56 6.56761C20.0581 7.84744 19.0835 7.04516 19.2696 6.22949C19.5394 5.04664 20.3562 3.16329 18.9412 3.52855C17.5102 3.89794 15.9317 4.15091 15.2227 3.86853C15.7918 4.39795 16.1977 4.84888 16.4996 5.00812C16.8342 5.23665 16.4617 6.00749 15.7307 7.21491C13.9613 10.1384 13.458 10.6466 16.0396 8.05171C17.0093 7.07697 17.0104 7.06523 17.6335 6.49726C17.833 6.31524 18.9469 7.09114 19.5708 7.55182C21.3178 8.84216 22.4158 9.35586 23.3228 9.86259C24.2671 10.3901 24.2137 10.7012 23.2266 11.2755C22.7866 11.5315 21.8495 12.2499 21.1441 12.872C19.9235 13.9487 19.7883 14.2678 20.3357 14.3264C20.8884 14.3856 21.5303 14.7839 22.008 16.1996C22.2691 16.9731 23.7431 19.9961 23.828 20.2095C24.3457 21.5108 23.4807 21.9768 22.386 21.8672C21.0147 21.7298 18.995 21.2763 17.7676 21.3219C16.9792 21.2928 15.9382 19.9122 17.7848 19.7643C18.7572 19.6865 20.1073 19.5852 20.9977 19.6554C21.697 19.7106 21.0536 18.9744 20.4369 16.9265C20.1334 15.9182 19.8606 14.4048 19.8606 14.4048C19.2048 14.8483 18.5973 15.3857 17.5422 14.8249C17.2922 14.6921 16.675 14.3789 16.217 14.1829C14.462 13.4322 14.3711 12.7218 14.3711 13.1417C14.3711 13.4561 16.4428 16.2998 17.1151 17.0131C17.6009 17.5282 17.6013 17.5458 17.15 18.1946C15.7203 19.734 14.9162 20.7598 13.8039 22.5029C13.0981 23.5275 12.1025 24.9629 10.99 23.089ZM15.3604 17.248C14.8133 16.4753 13.1881 14.3251 13.1881 14.3251C12.9595 14.548 12.4709 14.645 12.1209 14.4317C11.6233 14.1997 10.5991 16.102 9.70926 16.9909C8.74874 17.9048 8.85423 17.8281 9.12427 18.2562C9.86841 19.2028 12.1155 22.0684 12.7374 21.4049C13.9046 20.0589 15.7735 17.8317 15.3604 17.248ZM13.5283 18.8859C13.3782 18.626 13.1773 17.6834 13.082 16.7913C12.9431 15.4934 12.9726 15.1903 13.2303 15.2739C13.6141 15.3987 13.9574 17.0921 13.8665 18.4133C13.8091 19.2493 13.77 19.3039 13.5283 18.8859ZM10.7782 18.9012C10.6596 18.8105 11.6388 15.5205 11.8101 15.3162C11.8573 15.2598 12.0138 15.3287 12.1577 15.4688C12.3449 15.6514 12.3811 16.198 12.1858 16.811C11.8668 17.8114 11.6849 19.5941 10.7782 18.9012ZM8.01723 13.8975C9.01841 13.1442 9.58413 12.5326 9.58413 12.5326C9.31122 12.3228 9.31157 12.0453 9.46406 11.8103C9.81034 11.2768 9.65046 11.3414 8.014 10.194C6.25381 8.95984 6.58685 8.85599 3.7045 10.7794C2.85019 11.3494 2.49049 11.5882 2.31696 11.6671C1.57283 12.0051 2.11627 12.3435 3.8985 13.5448C4.90827 14.2256 5.26725 14.6217 5.88093 15.0018C6.38477 15.3139 7.12006 14.5725 8.01723 13.8975ZM5.3733 13.4741C5.3733 13.2972 8.14955 12.241 8.60007 12.2465C9.04298 12.2519 8.40002 12.7996 7.46484 13.2136C6.42212 13.6751 5.3733 13.8057 5.3733 13.4741ZM5.37545 11.2955C5.37545 11.0198 5.69894 10.9411 6.83035 10.9411C8.28777 10.9411 8.76285 11.2337 7.73942 11.501C6.66222 11.7824 5.37545 11.6706 5.37545 11.2955ZM21.2725 11.3732C21.987 10.6994 21.8059 10.6047 21.1459 10.13L18.0077 8.24746C17.5315 8.78519 16.4676 9.65451 15.8552 10.097C15.9015 10.142 16.503 9.96235 17.1921 9.69765C18.6998 9.11848 19.0854 9.08239 18.6801 9.55842C18.5198 9.74652 17.8792 10.086 17.2561 10.3128C16.6332 10.5395 15.8177 11.0096 15.4439 11.3573L15.0628 11.96L16.6959 12.8965C17.5997 13.4781 18.5388 13.7992 18.9713 13.286C20.1299 12.4303 20.2048 12.2783 21.2725 11.3732ZM17.1593 12.1862C16.4132 11.9382 15.9796 11.3501 16.5004 11.2924C16.8723 11.2512 19.0991 12.1191 19.0991 12.3053C19.0991 12.5748 18.1541 12.5168 17.1593 12.1862ZM13.25 12.058C14.0747 10.9162 13.6645 11.2018 13.1561 10.7212C12.2992 9.97501 12.0399 10.2304 11.5795 10.8935C10.8674 11.9189 10.7086 11.8243 11.7375 12.5153C12.5675 13.176 12.5398 13.031 13.25 12.058ZM13.3387 9.10351C13.7238 8.68726 14.9801 5.95609 14.8279 5.68342C14.5118 5.11731 13.354 3.56748 12.6666 3.00484C11.9047 2.25505 11.9522 1.93885 11.0669 3.28036C10.0708 4.64897 8.88716 5.95661 9.00979 6.28777C9.23014 6.88248 10.9512 9.10852 11.1606 9.11173C12.2493 7.81941 12.1517 8.74092 13.3387 9.10352V9.10351ZM12.7977 4.83738C13.0554 4.02579 13.3423 4.3206 13.4936 4.46809C13.652 4.62247 13.3913 6.15517 13.1432 7.3185C12.7693 9.0729 12.5194 8.28941 12.5194 7.81117C12.5978 6.29749 12.481 5.86028 12.7977 4.83738ZM11.0449 7.53364C10.7075 6.64079 10.5292 4.78583 10.767 4.64261C11.1103 4.43581 11.4177 5.20625 11.5906 6.70658C11.7517 8.10501 11.4397 8.57795 11.0449 7.53364ZM1.90563 20.0333C2.27516 18.7724 2.58406 17.2911 2.63706 17.1531C3.2059 15.6731 4.04484 16.1443 4.32898 16.4214C4.46836 16.5572 4.31683 17.438 3.93551 18.7237C3.59484 19.869 3.36997 20.8583 3.4353 20.9223C3.63615 21.1178 5.47754 20.4039 6.14841 20.1524C6.75979 19.9231 7.46613 20.0999 7.39727 20.4918C7.34603 20.748 6.18819 21.7995 4.49554 22.4441C0.408412 23.7876 1.20556 22.4815 1.90563 20.0333ZM1.74251 4.068C0.469747 0.806591 2.19279 1.41243 3.34073 1.55692C3.84446 1.62023 5.89457 2.45998 6.7957 2.53913C9.00277 2.73294 8.68537 4.25406 6.29012 4.25406L3.46392 3.53093C3.40652 4.63869 3.89184 5.67765 4.06592 6.74463C4.31723 8.40288 3.55531 8.96156 2.96124 7.53442C2.58774 6.53777 2.00385 4.88348 1.74251 4.068Z" fill="#5E6472"/>
</g>
<defs>
<clipPath id="clip0">
<rect width="24" height="24" fill="white"/>
</clipPath>
</defs>
</svg>
