<svg width="333.41495mm" height="210.02548mm" viewBox="0 0 333.41495 210.02548" xmlns="http://www.w3.org/2000/svg">
    <path d="m 1253.9297,1258.6621 c -34.4879,0.3708 -86.7002,40.5579 -93.5703,79.1387 -6.8701,38.5808 19.373,132.1894 19.373,132.1894 0,0 -17.9977,75.9248 -41.6308,119.3282 -2.794,5.1313 -5.1721,10.5627 -7.3614,16.1191 -10.726,-34.2444 -34.6802,-47.7555 -61.584,-47.0645 -16.7307,0.4297 -34.5918,6.3679 -51.1191,16.1954 -3.4806,-13.892 -7.017,-24.7259 -10.3672,-29.1348 -15.1079,-19.8825 -43.61287,-28.511 -98.15232,-23.6875 -54.53942,4.8236 -74.09315,49.7713 -84.04688,82.2109 -0.16776,0.9847 -0.37203,1.8484 -0.54687,2.8106 -11.24013,-28.681 -33.36489,-46.2283 -60.39649,-52.4356 -6.66115,-1.5297 -13.07959,-2.2158 -19.26562,-2.1406 -37.80714,0.4594 -66.90359,29.3659 -89.14649,68.1738 -49.42581,152.3337 100.69657,140.9682 154.87696,96.541 4.2873,12.3996 11.63749,26.6452 23.58008,44.4376 34.33746,36.5741 143.88978,32.4937 192.77493,22.7813 83.8375,-16.6565 152.4194,-1.1819 213.227,-5.7247 40.8561,49.7339 124.7469,40.8638 157.127,-24.0469 9.8817,-3.1329 15.6123,-6.3972 15.5234,-9.5488 -0.2686,-9.5156 -1.2749,-14.2272 -2.5098,-21.2871 2.9976,-5.6719 4.4508,-11.8295 4.2051,-18.5313 -1.3592,-0.2673 -2.899,-0.503 -4.3945,-0.7461 0.093,-1.4831 0.1916,-2.9607 0.2441,-4.4746 0.6216,-17.914 -1.4919,-33.3868 -5.6894,-46.4922 -3.0948,-62.4052 -17.0469,-85.4707 -17.0469,-85.4707 0,0 -2.0591,-25.2259 -1.9219,-44.7636 0.1372,-19.5377 -21.8463,-122.7909 -24.457,-174.7266 -2.6107,-51.9357 -73.2368,-90.0214 -107.7246,-89.6504 z m -326.6504,45.6465 c -23.94393,-0.3783 -51.80531,10.1498 -68.70899,23.2754 -19.31849,15.0007 -16.55078,47.5996 -16.55078,47.5996 0,0 -18.96378,-11.3968 -31.27344,-5.6191 -12.30965,5.7776 -20.26194,14.8949 -21.73437,41.5039 0.47119,33.1288 56.66015,28.9414 56.66016,28.9414 0,0 15.84384,45.5332 75.21289,52 59.36903,6.4667 62.84267,-31.2212 68.73242,-47.1231 5.88979,-15.9017 6.53809,-24.2245 18.08201,-25.7617 11.544,-1.5372 27.9161,-16.8013 29.0352,-40.707 1.119,-23.9057 -41.46292,-24.9668 -41.46292,-24.9668 0,0 -32.27527,-44.1016 -58.01367,-48.2891 -3.21729,-0.5234 -6.55795,-0.7995 -9.97851,-0.8535 z m 632.873,207.9941 c -101.0525,-0.2248 -86.8907,46.4893 -83.4609,115.6289 -4.8881,75.3972 78.2635,109.7403 148.3418,79.1954 70.0772,-30.5452 81.6756,-187.1145 -43.0977,-194.1465 -7.7986,-0.4395 -15.0469,-0.6628 -21.7832,-0.6778 z m -11.6054,244.7539 c -110.2292,-0.019 -116.1839,168.0369 -116.7793,198.5098 8.2233,35.5154 215.2387,77.2412 215.4824,23.7324 0.9502,-208.3228 27.4717,-213.485 -90.5859,-221.9453 -2.7676,-0.1984 -5.4721,-0.2965 -8.1172,-0.2969 z m -769.3887,36.6661 c -46.63623,0.2948 -99.1866,25.2372 -104.97461,57.3789 -10.01076,55.5963 35.65235,173.9297 35.65235,173.9296 106.9485,41.4227 165.30469,-7.9101 165.30468,-7.9101 0,0 -6.59278,-100.0957 -23.80664,-177.8867 -7.26175,-32.818 -38.14502,-45.7269 -72.17578,-45.5117 z m 293.9648,6.4511 c -5.3231,0 -11.077,0.5216 -17.2949,1.5938 -104.68491,18.0518 -96.7038,-14.0495 -114.27146,205.4648 118.05766,45.3781 195.21486,4.6153 195.21486,4.6153 -0.6983,-96.1379 16.2061,-211.7346 -63.6485,-211.6739 z m 239.6993,39.8379 c -3.7106,-0.038 -7.4515,0.1034 -11.2012,0.4063 -73.6181,5.9333 -80.4562,76.0338 -93.6406,164.0429 -6.8494,38.2154 182.5521,33.6843 188.1601,0.8985 21.3276,-124.68 -27.671,-164.8038 -83.3183,-165.3477 z" transform="translate(245.24304,-1.0302151) translate(-385.34177,-329.11572) scale(0.26458333)" fill="#fff"/>
    <path d="m 701.05273,1247.8027 c -0.9676,-0.067 -1.98141,0.3463 -3.05664,1.1973 -1.84516,1.4604 -2.24011,6.3417 -1.58398,19.5781 0.47955,9.6983 0.70441,17.6125 0.49805,17.5899 -0.20648,-0.024 -2.95831,-4.6929 -6.11524,-10.375 -6.92421,-12.4628 -13.82884,-18.8825 -17.33008,-16.1114 -3.47384,2.7495 -1.08796,13.7028 7.23633,33.2168 3.81264,8.9377 6.64245,16.4783 6.28906,16.7578 -0.35319,0.2797 -5.76496,-5.3252 -12.02734,-12.455 -6.26245,-7.1298 -12.78978,-13.1266 -14.50391,-13.3262 -8.57733,-0.9982 -5.96226,12.1051 5.80469,29.0879 l 6.42578,9.2754 -8.45312,-4.9805 c -9.25512,-5.4517 -13.96606,-5.4387 -14.60352,0.039 -1.00652,8.6479 24.09617,36.216 43.09571,42.5273 14.1942,4.715 12.89831,10.4428 14.25781,28.4278 2.87346,38.0133 2.82142,43.6222 3.00586,70.541 0.27001,39.422 -1.3425,53.6761 26.92969,64.8574 21.15676,8.3672 107.50976,19.7578 107.50976,19.7578 0,0 -14.72119,16.983 -18.47852,40.5137 -0.13381,-0.5057 -0.36914,-1.215 -0.36914,-1.4473 0,-12.027 -39.52397,-30.2903 -70.30078,-32.4844 -18.90047,-1.3473 -58.74381,12.6649 -78.1914,27.4981 -29.51392,22.5117 -53.90775,82.294 -43.90625,107.6113 4.24535,10.7469 12.70111,137.9064 9.39062,141.2168 -3.26116,3.2619 -32.36099,-16.5593 -45.9414,-31.293 -79.96048,-88.2348 -45.16491,-191.5543 8.68164,-276.2363 2.03731,0 6.64626,3.0207 12.73047,5.2207 14.01029,5.066 46.34969,8.5085 51.09179,-31.6172 6.46367,-18.9192 13.32265,-10.8989 17.88477,-33.0078 -1.20427,-1.2038 -4.88654,-2.1894 -8.18164,-2.1894 -3.29507,0 -6.81069,-3.14 -7.81446,-6.9786 -1.22177,-4.6719 -4.75981,-6.9785 -10.70312,-6.9785 -4.88198,0 -10.2217,-2.4064 -11.86719,-5.3457 -2.4065,-4.3018 -6.94433,-4.8775 -23.26758,-2.959 -19.33655,2.2727 -20.74478,3.1167 -30.33593,18.2383 -11.50504,18.1431 -14.27765,47.0231 -4.86133,50.6367 4.08079,1.5661 1.45427,7.8181 -12.25781,29.1622 -39.16468,60.9665 -57.81358,143.7688 -43.34766,192.4804 12.24344,41.2309 60.6555,99.3636 92.67773,111.291 l 18.80274,7.0059 4.24804,44.8926 c 5.39309,56.9821 6.31328,60.5957 15.41797,60.5957 5.92585,0 7.00266,-1.6617 5.65235,-8.7246 -1.11791,-5.8501 -0.10298,-8.7227 3.08203,-8.7227 2.8261,0 4.79705,3.884 4.87109,9.5938 0.20561,16.2186 9.18856,61.2153 14.97656,75.0273 5.37975,12.8361 14.27754,17.3452 17.2168,8.7246 0.81759,-2.399 -1.36064,-9.8566 -4.83984,-16.5742 -7.33168,-14.1567 -17.00196,-61.2991 -17.00196,-82.8789 0,-11.332 1.3285,-14.832 5.63868,-14.832 5.72424,0 5.62388,-3.5639 -0.68555,-24.1426 -2.13502,-6.9664 -1.57619,-8.0524 3.20703,-6.2168 3.18815,1.2227 5.77027,1.8805 5.73633,1.4609 -0.0302,-0.4195 -2.94791,-11.8796 -6.47852,-25.4668 l -6.41601,-24.7051 11.27929,-7.7304 c 18.7637,-12.8574 56.62044,-24.8749 78.0879,-24.791 38.1064,0.1493 58.85224,16.7397 68.17187,54.5214 4.42329,17.9308 14.50055,110.4801 16.85156,154.75 0.85977,16.2129 6.11225,20.8046 16.29883,14.2579 4.18163,-2.6868 4.29482,-5.5543 0.69531,-17.5704 -3.58613,-11.9685 -8.09477,-50.1784 -15.99414,-137.0117 0,0 49.0452,-4.0235 79.65235,-9.1933 -4.05922,5.258 -10.27161,45.3878 -13.83204,89.3593 -1.56117,19.2798 -0.87787,33.9863 2.06446,44.4942 4.41713,15.7792 10.22161,20.9575 10.74609,9.5879 2.81378,-60.9527 9.76665,-116.7473 16.75586,-134.4922 3.35267,-8.5101 4.75215,-9.2452 11.11914,-5.8379 7.86852,4.2113 17.20899,2.3061 17.20899,-3.5098 0,-1.9793 -3.04743,-3.5976 -6.77344,-3.5976 -8.40435,0 -12.72464,-6.3263 -7.72852,-11.3223 2.65437,-2.6544 5.40396,-2.3539 9.4961,1.043 4.93644,4.0965 6.38735,3.925 10.13086,-1.1953 2.40344,-3.2865 6.16274,-5.9727 8.35744,-5.9727 2.3489,0 3.6278,-4.6045 3.1074,-11.1953 -0.8279,-10.455 0.03,-11.3956 13.0723,-14.2227 7.6761,-1.6654 26.6897,-3.8479 42.2519,-4.8476 27.0508,-1.7382 28.3853,-1.4753 30.3301,5.9609 1.5118,5.7828 3.8748,7.296 9.2031,5.9024 6.1233,-1.6013 6.8612,-0.6491 5.0625,6.5195 -1.5951,6.3507 -0.6918,8.3906 3.711,8.3906 3.1994,0 4.8471,1.5753 3.6582,3.4981 -1.1889,1.9228 1.6626,4.9493 6.3379,6.7265 6.622,2.5179 8.967,6.5662 10.6074,18.3164 4.667,33.3986 5.9681,90.1186 2.748,119.7696 -3.6848,33.9159 -1.2682,42.3941 9.1231,32.0097 5.32,-5.3163 6.084,-13.7334 6.084,-67.1797 l 0.9882,-53.0156 8.7246,2.4043 c 4.7977,1.322 48.2076,5.0756 62.0801,-2.8769 -1.4861,9.3439 -2.5192,-1.4982 -11.7422,52.0175 -9.1674,53.1826 -9.1473,60.8637 0.1446,62.1836 7.2936,1.0359 7.8533,-0.2053 7.8965,-17.4492 0.072,-26.7091 11.5609,-78.5782 22.5703,-101.8496 11.6295,-24.5834 28.4112,-36.6669 58.6933,-42.2598 32.558,-6.0128 58.1787,1.3816 47.8594,13.8145 -6.0801,7.3268 -1.4229,11.3232 7.0391,6.0391 8.3292,-5.2021 10.3554,-5.2976 10.3554,-0.4903 0,4.751 6.9815,11.6943 14.6875,14.6114 10.6093,4.016 18.1509,38.5583 18.3164,83.8671 l 0.1504,41.1485 8.4102,-1.0156 c 8.2202,-0.9957 8.3927,-1.6909 7.6152,-30.6817 -0.8011,-29.8974 -7.1988,-70.7122 -13.7519,-87.7207 -3.4216,-8.8773 -2.8581,-9.4654 15.9179,-16.6504 10.705,-4.0964 19.9761,-6.9337 20.6055,-6.3047 0.6294,0.6292 -0.5922,7.3369 -2.7148,14.9063 -4.9314,17.587 -5.8625,79.7347 -1.2129,81.0312 1.953,0.5447 5.2308,-14.6822 7.5097,-34.8965 5.7767,-51.2281 10.8488,-68.8608 20.9141,-72.6875 8.72,-3.3156 10.8809,-8.8256 4.3164,-11.0136 -6.6941,-2.2313 -0.011,-21.9342 15.0293,-44.3379 18.632,-27.7487 36.6991,-35.1953 85.4004,-35.1953 33.0671,0 33.4019,0.085 30.9707,7.8515 -5.1442,16.4307 -4.0428,21.8574 4.2598,20.9785 4.9971,-0.5291 7.8535,1.0559 7.8535,4.3614 0,7.6029 10.5477,6.3383 19.8261,-2.3789 8.1216,-7.6286 16.4233,-6.3428 8.7286,1.3515 -7.3091,7.3093 -4.9633,14.1689 4.0664,11.9024 9.8266,-2.4665 11.3691,6.3262 7.4961,35.8789 -1.1869,73.7265 1.409,98.071 -6.0235,123.1015 -7.888,27.2375 16.6819,38.2485 16.5235,-3.207 1.2773,-16.3143 -0.3119,-29.8438 -0.094,-56.8301 0.3239,-39.8089 0.019,-51.4616 3.6563,-84.3027 -0.1452,-16.3884 6.3396,-8.0611 10.2754,-11.9961 2.5824,-2.583 5.766,-11.031 7.0742,-18.7715 2.0517,-12.1471 9.2925,-20.959 17.2207,-20.959 6.0276,0 -4.3636,44.0798 -12.9746,55.045 -1.9211,2.4455 -2.588,5.3514 -1.4825,6.457 6.7188,6.7183 21.2872,-21.2787 25.293,-48.6074 2.2625,-15.4276 8.2211,-14.2513 25.5879,-35.2266 57.6648,-69.6464 48.8893,-110.165 48.6873,-182.5217 0,-17.3797 -8.9096,-90.5847 -19.9488,-117.0087 -3.002,-7.1805 -9.1469,-18.8761 -7.8264,-25.913 2.4024,-12.8054 5.9141,-4.2421 5.9141,-4.2421 7.4684,5.8349 22.4741,4.3482 26.7812,-3.6993 1.987,-3.7125 3.6133,-14.5103 3.6133,-23.998 0,-18.5259 -6.1073,-27.5049 -16.1016,-23.6699 -3.1459,1.2075 -7.8705,0.4133 -10.4961,-1.7657 -2.6256,-2.179 -7.5975,-8.7639 -12.246,-2.0078 -5.0527,1.3211 -8.9063,5.9071 -12.9336,0.9336 -3.1368,-3.8725 -6.5665,-5.6172 -9.3907,-5.6172 h -0.01 c -4.1261,0 -6.9524,3.924 -5.6582,10.6934 1.484,7.7611 0.2096,1.889 -11.7871,0.4883 -6.2827,1.0517 -13.4198,0.16 -11.4864,15.498 1.193,14.5758 0.2256,17.9332 -6.7832,23.5137 -4.9899,3.9736 -7.7611,9.4119 -7.1133,13.959 0.9411,6.5948 3.8634,7.6485 25.4903,9.1933 l 24.4277,1.7461 7.7383,15.7012 c 10.1763,20.6444 20.0332,91.2688 20.0332,110.532 7.8128,62.0462 -4.9359,126.4885 -32.7461,168.7688 l -16.9023,15.5742 -9.6719,-14.6641 c -2.8385,-58.1287 -6.4116,-78.2484 -22.9395,-129.1191 -11.8454,-36.4637 -5.7874,-41.4362 -26.2089,-60.5215 -19.533,-18.2542 -39.9873,-31.2096 -77.1465,-31.0937 -17.2735,0.053 -40.8292,3.1671 -47.5469,5.2676 -6.7177,2.1002 -21.222,6.3311 -32.2324,9.4003 -1.3615,0.3795 -2.6633,0.7714 -3.918,1.1778 0.6471,-16.706 0.7312,-38.544 0.6836,-69.5879 -0.4813,-17.2765 10.0678,-15.1134 17.709,-15.4942 27.7726,-1.3837 42.3462,-14.2097 42.2422,-23.1308 -0.019,-1.939 1.6127,-5.7111 3.584,-8.3828 4.401,-5.9655 4.6133,-12.6447 0.5605,-17.7969 -2.9078,-3.6967 -2.9272,-3.9564 -0.4785,-6.6621 3.5429,-3.9148 3.2893,-11.2258 -0.4961,-14.291 -2.4209,-1.9604 -2.8774,-3.492 -2.2324,-7.4668 1.0514,-6.4796 -1.3967,-10.8663 -7.4805,-13.4082 -7.9716,-3.3308 -20.7433,0.6268 -36.2051,11.2187 -3.4063,2.3335 -12.4217,4.8616 -12.7695,4.5137 -1.4193,-1.4192 4.9383,-23.7018 8.2851,-32.5938 1.6864,-4.5804 5.2858,-20.8101 -8.5742,-9.6543 -7.1211,6.769 -7.083,10.3319 -11.6523,28.2383 -2.3923,9.3757 -5.3092,20.2725 -6.4805,24.2149 -3.1043,10.4475 -4.1934,31.4623 -2.1191,40.8652 2.1001,9.5204 2.0799,77.7218 -0.024,101.9961 -0.3784,4.3572 -0.8478,10.4286 -1.33,16.3516 -6.9536,6.3696 -9.8458,15.3604 -10.2715,29.1289 -0.3254,10.5306 -0.7095,19.099 -1.2227,26.0547 -8.2577,14.9921 -22.392,22.3874 -45.5879,-0.6602 -16.9025,-16.6131 -19.7561,-20.1278 -24.8027,-30.5547 -4.5759,-9.4541 -5.407,-12.3392 -4.1973,-14.5996 2.3658,-4.4204 1.7663,-17.3587 -1.1679,-25.2266 -2.0449,-5.4831 -2.8934,-13.0626 -3.6133,-32.2539 -0.7543,-20.1064 -1.6589,-27.8148 -4.5625,-38.8242 -3.104,-11.7692 -3.4311,-14.9541 -2.2832,-22.2226 0.8076,-5.1129 0.8354,-13.892 0.07,-22.0996 -0.6974,-7.4905 -1.8506,-22.0059 -2.5625,-32.2559 -0.7122,-10.25 -2.3159,-21.5418 -3.5645,-25.0899 -3.2823,-9.3267 -3.0598,-10.0332 3.1485,-10.0332 6.4818,0 11.149,-2.9137 9.8965,-6.1777 -0.6593,-1.718 -3.2807,-2.3955 -10.4883,-2.7148 l -9.6114,-0.4258 -7.789,-11.4688 c -4.2854,-6.3077 -8.864,-12.771 -10.1738,-14.3632 -1.3098,-1.5923 -5.0927,-6.5242 -8.4063,-10.959 -3.3134,-4.4347 -8.7971,-10.316 -12.1855,-13.0703 -7.3736,-5.9936 -36.3068,-20.7021 -43.8262,-22.2793 -1.5435,-0.3239 -3.5064,-0.462 -5.668,-0.4414 h -0.01 c -6.4848,0.062 -14.7473,1.542 -18.7676,3.6484 -3.2081,1.6809 -4.5199,1.5719 -10.1328,-0.834 -9.4063,-4.032 -19.2139,-2.4775 -34.8184,5.5176 -12.5425,6.4264 -22.1256,14.4007 -31.5508,26.2597 -2.8198,3.5481 -7.12,8.7091 -9.5586,11.4688 -4.222,4.7778 -13.1113,21.022 -13.1113,23.959 0,0.7622 -1.6328,2.1305 -3.6269,3.039 -5.1036,2.3253 -6.9238,7.4849 -3.6446,10.3321 2.3937,2.0782 2.4113,2.8512 0.291,13.2597 l -2.2519,11.0547 h -6.2305 c -6.3636,0 -11.7754,1.9521 -11.7754,4.2481 0,2.916 4.6624,5.5672 11.4297,6.498 l 7.207,0.9922 0.057,15.2734 c 0.03,8.402 0.9068,20.1159 1.9453,26.0293 1.5511,8.8289 1.5579,12.9296 0.041,22.9356 -1.0166,6.7019 -2.8268,14.9145 -4.0215,18.248 -1.9997,5.5793 -3.0558,11.0313 -3.1933,16.7891 0.638,21.4261 5.1265,35.7464 5.1347,54.5606 -0.067,9.2766 -2.8662,18.9323 -7.6972,27.7207 -2.7513,4.8585 -6.2353,9.4172 -9.7442,13.9062 -7.1218,-5.6314 -16.4413,-9.4434 -23.666,-9.4434 -4.3626,0 -10.698,-3.0534 -14.0723,-6.7832 -3.3753,-3.7299 -10.4877,-7.7341 -15.8046,-8.9023 -5.3181,-1.1678 -13.2823,-5.9694 -17.6973,-10.668 -5.2063,-5.5428 -11.2557,-8.2973 -17.3184,-8.2676 v 0 0 c -6.0627,0.032 -12.1388,2.8521 -17.3965,8.4493 -5.4427,5.7938 -11.0425,8.3244 -19.1504,8.6562 -1.9352,-3.0608 -4.0858,-5.9098 -6.5469,-8.6426 -10.2114,-11.3384 -23.00341,-16.5948 -46.68748,-19.1816 -40.61294,-4.436 -68.39359,-4.238 -89.32617,10.5352 -24.23694,17.1052 -117.83312,-8.2155 -129.4707,-16.6563 -13.29483,-9.6428 -5.38386,-48.581 -11.39063,-100.7187 -1.39928,-12.1459 -0.26201,-31.6048 -1.29492,-36.8321 -1.7698,-8.9563 -1.59675,-9.9494 3.00782,-17.2051 5.60564,-8.833 11.69181,-25.3042 17.52929,-47.4453 4.50312,-17.0798 3.62898,-23.6992 -3.23437,-24.498 -4.91913,-0.5725 -8.99749,6.5282 -16.08985,28.0117 -2.95956,8.9647 -5.83548,16.2443 -6.39062,16.1777 -0.55506,-0.067 -2.51867,-11.0471 -4.36524,-24.4004 -4.84003,-35.0015 -8.71244,-49.3658 -13.9375,-49.7285 z m 220.125,1.3145 c -33.93307,0.1101 -66.10876,9.3891 -82.99609,24.2051 -16.87608,14.806 -19.75398,21.1354 -23.38867,51.457 -1.71213,14.2825 -2.75095,28.2226 -2.30859,30.9766 0.70551,4.3925 -0.62227,5.8664 -10.82227,12.0175 -26.43148,15.9396 -29.04594,45.3617 -6.10156,68.6778 6.05367,6.1516 7.97441,6.9537 19.52929,8.1679 7.04818,0.7407 15.17762,1.0345 18.06446,0.6524 4.68249,-0.6199 5.793,0.4189 10.29882,9.6367 2.77788,5.6831 8.93479,14.7375 13.68165,20.1211 9.20677,10.4417 22.62849,17.5477 44.60546,23.6133 16.03975,4.4269 37.11845,5.2019 50.64258,1.8613 20.55523,-5.0773 37.80348,-23.3639 46.21289,-48.9902 3.8257,-11.6581 4.131,-12.0013 11.7148,-13.2071 9.6542,-1.535 12.1609,-6.7581 4.5098,-9.3984 -10.1673,-3.5086 -10.7827,-4.7301 -2.5391,-5.0332 10.1467,-0.3733 15.076,-3.743 22.8067,-15.5898 6.8944,-10.5654 8.1685,-17.589 5.4629,-30.127 -2.2828,-10.5785 -7.7239,-18.5882 -15.6133,-22.9863 -3.763,-2.0978 -5.8969,-4.9715 -6.2129,-8.3672 -1.1636,-12.5048 -7.3382,-35.9231 -11.9883,-45.4688 -16.03436,-32.9152 -43.27563,-50.9434 -78.75192,-52.1171 -2.27382,-0.075 -4.54444,-0.109 -6.80665,-0.1016 z m -6.83593,18.3926 c 8.17231,-0.08 16.45221,0.537 24.56445,1.9023 20.0437,3.3734 30.95919,9.906 42.25586,25.2871 9.46515,12.8873 13.41271,21.3312 18.66992,39.9453 4.63477,16.4102 4.59037,16.106 2.32027,15.8418 -2.66369,-0.31 -13.25427,-22.567 -12.75972,-26.8164 0.24865,-2.1366 -3.16595,-8.6069 -7.58985,-14.3769 -8.76003,-11.4258 -19.04462,-17.0948 -39.2832,-21.6582 -17.01781,-3.8373 -42.20331,1.395 -55.77344,11.5879 -3.28773,2.4693 -6.70095,3.5385 -8.41992,2.6386 -6.28006,-3.2876 -27.77154,10.7838 -36.32812,23.7852 -3.99991,6.0777 -7.6229,26.8101 -6.07813,34.7793 0.87046,4.4905 0.60164,4.6234 -3.11719,1.5566 -1.46815,-1.2107 -4.6165,-2.4418 -6.99609,-2.7344 -5.11858,-0.631 -5.07077,-2.009 0.99609,-28.7597 6.14578,-27.0988 9.89774,-34.0342 24.22657,-44.7852 15.23608,-11.4317 38.79555,-17.9521 63.3125,-18.1933 z m 338.8437,3.4023 c 2.4173,-0.015 4.8907,0.041 7.42,0.1699 11.7199,0.5978 15.9591,1.5581 28.1347,6.3731 14.4291,5.7061 23.6289,10.849 32.002,17.8945 5.4015,4.545 20.3223,24.9731 20.3223,27.8223 0,1.4088 -1.8699,2 -6.3321,2 -3.4836,0 -13.2828,0.1258 -14.4765,0.584 -1.4312,0.5491 -2.9125,-0.5995 -4.3477,-3.375 -4.1704,-8.0645 -28.2509,-14.4732 -48.1289,-12.8067 -12.116,1.0158 -17.6035,3.6947 -20.6289,10.0703 -2.0148,4.2453 -0.2184,5.2178 -6.0254,6.0137 -10.9302,1.4981 -8.1289,1.4426 -10.4434,-5.7656 -3.5265,-10.9834 -7.1608,-12.679 -26.6308,-12.4356 l -16.3555,0.2051 2.4981,-4.3535 c 1.3745,-2.3944 5.6071,-7.787 9.4062,-11.9824 12.1185,-13.3823 30.2188,-20.2651 53.5859,-20.4141 z m -338.29878,39.1856 2.82422,5.1425 c 9.35569,17.0268 15.12233,19.094 17.69336,6.3438 l 1.4082,-6.9824 3.42578,7.7109 c 3.86313,8.6991 9.62751,10.751 13.70899,4.877 2.56716,-3.6946 2.63483,-3.6776 6.66211,1.8281 3.25042,4.4436 4.84452,5.2577 7.92578,4.0429 3.30912,-1.3045 4.79876,0.2163 10.47656,10.7129 3.63999,6.7293 6.55978,12.7269 6.49023,13.3262 -0.0697,0.5994 -2.24906,-0.013 -4.84375,-1.3613 -7.24868,-3.7662 -16.30861,-4.1714 -24.1582,-1.0801 -8.051,3.1706 -14.9802,14.1084 -16.55664,26.1328 -0.92285,7.0389 -1.10988,7.1839 -8.15234,6.291 -5.93341,-0.7524 -7.7658,-2.059 -10.35743,-7.3828 -5.12541,-10.5289 -11.56748,-15.2317 -24.14257,-17.625 -9.2281,-1.7562 -12.70864,-1.5356 -18.49414,1.1719 -7.41075,3.4682 -14.60896,13.9582 -15.63672,22.7891 -0.48537,4.1709 -1.40437,4.6734 -7.29102,3.9882 l -6.73437,-0.7851 2.21484,-19.0371 c 1.66027,-14.2658 2.9008,-19.2127 4.94727,-19.7364 1.50201,-0.3844 3.86566,-4.3717 5.25195,-8.8613 1.81179,-5.8676 2.59769,-6.9189 2.79687,-3.7383 0.38642,6.1692 6.05181,9.8364 10.16602,6.5801 2.24375,-1.7759 3.13216,-4.9017 3.03125,-10.6699 -0.10269,-5.8778 0.43139,-7.7026 1.91406,-6.5293 1.13182,0.8956 1.92052,2.8141 1.75195,4.2637 -0.57909,4.9758 4.64644,9.5294 8.97657,7.8222 3.2426,-1.2783 4.20068,-3.6864 5.37109,-13.5097 l 1.42383,-11.9571 3.27734,6.7207 c 2.20528,4.5219 4.78857,6.8958 7.89844,7.2579 4.85095,0.5644 5.21876,-0.089 6.15234,-10.9864 z m 289.61328,5.5996 c 7.095,0.068 13.0191,1.0828 15.4141,2.8339 2.6079,1.907 4.4229,11.7875 3.1132,16.9473 -0.4623,1.8217 -2.3157,4.2574 -4.1191,5.4121 -3.68,2.3565 -39.2098,3.6534 -40.5527,1.4805 -0.4151,-0.672 0.7931,-6.5899 2.6855,-13.1523 l 3.4395,-11.9317 9.8418,-1.0762 c 3.487,-0.3811 6.9528,-0.5445 10.1777,-0.5136 z m 64.8887,2.125 v 0 c 13.4867,-0.1444 30.5043,2.256 35.168,6.2675 3.4341,2.9539 3.5859,3.6546 2.6074,12.084 -0.8027,6.9168 -1.7366,9.3826 -4.1152,10.8633 -4.0005,2.4903 -15.6995,3.5497 -23.8653,2.1602 -3.548,-0.6038 -10.2139,-1.5282 -14.8125,-2.0528 -5.3355,-0.6085 -9.3551,-1.9467 -11.1093,-3.7011 -2.9995,-2.9992 -3.6672,-9.8622 -1.1992,-12.3301 1.1129,-1.1127 1.0177,-2.4015 -0.3321,-4.5625 -1.608,-2.5751 -1.5142,-3.3785 0.627,-5.5196 2.1188,-2.1189 8.9372,-3.1222 17.0293,-3.2089 z m -98.9082,2.916 c 0.9557,-0.1338 0.8272,2.1122 -0.4649,6.2402 -0.923,2.9493 -2.2168,5.3613 -2.875,5.3613 -1.4319,0 0.2308,-8.7486 2.0254,-10.6562 0.5566,-0.5917 0.9959,-0.9006 1.3145,-0.9453 z m 43.8457,4.5898 c -1.1376,0.047 -2.3901,0.7932 -3.961,2.2149 -3.4254,3.0999 -3.3226,6.9624 0.2793,10.5644 5.6298,5.6297 12.4755,-2.4963 7.9375,-9.4219 -1.5196,-2.3194 -2.7933,-3.4178 -4.2558,-3.3574 z m 54.5019,2.1465 c -1.008,0.026 -1.9959,0.3062 -2.8847,0.8613 -3.2674,2.0408 -3.3973,11.2842 -0.2012,14.4805 5.5116,5.5115 13.6023,-2.047 10.6113,-9.9141 -1.2933,-3.4029 -4.5014,-5.5192 -7.5254,-5.4277 z m 49.0625,3.0625 17.084,0.666 11.1094,0.4199 2.5996,7.8848 c 7.1243,21.6004 2.9357,53.6941 -10.4766,80.2637 -4.0433,8.0096 -4.6971,8.6172 -9.2636,8.6172 -2.7018,0 -5.3706,0.7425 -5.9317,1.6504 -0.7346,1.1884 -1.4592,1.063 -2.5918,-0.4473 -0.8652,-1.1538 -2.7041,-2.5233 -4.084,-3.041 -1.3833,-0.5191 -2.5039,-2.4074 -2.5039,-4.211 0,-1.7987 -1.3962,-7.9975 -3.1093,-13.7773 -3.8475,-12.9805 -13.7325,-25.2926 -19.4317,-24.2031 -2.427,0.4639 -4.6394,-0.5729 -7.6465,-3.5801 -7.1078,-7.1078 -11.2668,-1.921 -5.7011,7.1113 3.316,5.3815 8.1691,6.2016 9.8476,1.6641 0.9214,-2.491 1.7607,-1.3439 4.9824,6.8105 6.0335,15.2713 11.2679,45.1512 8.2383,47.0235 -0.8357,0.5165 -1.5195,0.011 -1.5195,-1.1211 0,-1.1327 -1.0228,-2.907 -2.2715,-3.9434 -3.2732,-2.7164 -6.691,-0.072 -8.668,6.7051 l -1.6289,5.5801 -1.5644,-3.9414 c -2.1812,-5.4952 -7.1049,-5.3072 -9.2422,0.3554 -1.8838,4.9907 -4.6183,5.6155 -5.7442,1.3106 -1.2429,-4.7535 -5.6917,-2.8011 -7.3925,3.2441 -1.9972,7.0984 -3.0867,7.8261 -4.1035,2.7422 -1.0596,-5.2977 -6.1198,-8.4955 -8.9278,-5.6426 -1.0458,1.0626 -2.8079,3.6953 -3.916,5.8516 -2.3314,4.5369 -3.8828,3.7667 -3.8828,-1.9258 0,-4.7775 -2.1951,-6.4897 -5.1621,-4.0273 -1.1927,0.9899 -3.9325,1.9944 -6.0899,2.2304 -3.2312,0.3538 -4.2144,-0.3401 -5.5722,-3.9375 -1.2717,-3.369 -2.3893,-4.2581 -4.8965,-3.8964 -1.9592,0.2827 -3.5578,1.7457 -4.0254,3.6855 -0.6695,2.777 -1.1375,2.3351 -3.4258,-3.2266 -2.9359,-7.1356 -6.1349,-8.3531 -7.5137,-2.8593 -1.4573,5.8064 -3.7221,4.1008 -3.33,-2.5078 0.7136,-12.0235 0.016,-16.8458 -2.4375,-16.8457 -1.756,0 -2.1263,-0.949 -1.5371,-3.9415 1.9006,-9.6537 6.3592,-21.6305 10.125,-27.2011 4.3725,-6.4685 4.2055,-10.4297 -0.4395,-10.4297 -3.2347,0 -8.2069,4.7663 -9.6094,9.2129 -0.5157,1.635 -3.1027,5.5087 -5.75,8.6074 -2.6472,3.0986 -4.8125,6.7646 -4.8125,8.1465 0,1.3818 -1.2903,2.9214 -2.8672,3.4219 -1.5769,0.5004 -2.8652,1.5127 -2.8652,2.248 0,0.7353 -0.6255,1.3359 -1.3887,1.3359 -2.3574,0 -8.6484,-23.2549 -8.6484,-31.9707 v -8.1699 h 6.9453 c 7.2086,0 11.6914,-2.8607 11.6914,-7.4629 0,-3.3626 -2.8773,-5.0648 -10.4707,-6.1953 -5.9529,-0.8863 -6.8274,-1.4385 -6.4512,-4.0762 0.3285,-2.3029 1.3163,-2.9647 4.0215,-2.6953 1.9711,0.1962 10.4241,0.4473 18.7852,0.5586 13.5043,0.1795 16.0943,-0.2048 23.1933,-3.4551 7.8029,-3.5723 12.4961,-9.0529 12.4961,-14.5918 0,-2.4014 0.06,-2.7811 8.6563,-1.3593 4.9333,0.8159 2.2756,0.9792 2.957,7.0234 0.8438,7.4871 4.9276,12.478 12.3731,15.1211 6.6418,2.3579 48.4744,2.2065 52.955,-0.1914 4.3559,-2.3312 8.834,-11.8462 8.834,-18.7656 z m -314.2324,29.207 c 0.4003,-0.083 1.5081,1.2312 3.3887,3.9883 4.3863,6.4311 7.2259,18.5115 8.3828,35.6563 0.549,8.1363 0.1364,9.5939 -3.0684,10.8574 -5.5109,2.1726 -5.6368,1.9935 -5.709,-8.0391 -0.091,-12.7014 -1.7807,-35.9324 -2.9668,-40.8144 -0.2538,-1.0449 -0.2675,-1.5989 -0.027,-1.6485 z m -39.88281,6.0821 c 3.86912,-0.036 8.43949,1.265 13.32422,4.0078 7.43305,4.1737 9.6005,9.0161 9.62695,21.4961 0.0173,8.5427 -0.49464,9.6881 -5.76758,12.9258 -7.58298,4.656 -20.77391,3.3685 -24.9121,-2.4317 -3.20058,-4.486 -4.99494,-15.8294 -3.98047,-25.1719 0.75961,-6.9957 5.26045,-10.7669 11.70898,-10.8261 z m -70.25,3.2246 c 5.93877,0.6912 15.69082,10.0924 17.69336,17.0586 1.763,6.1329 1.4957,7.6212 -2.60547,14.5156 -2.5132,4.225 -6.37155,8.8742 -8.57422,10.332 -13.19459,8.733 -24.22064,-0.919 -23.36718,-20.457 0.46868,-10.7302 0.93474,-11.8352 7.0332,-16.6621 3.59236,-2.8434 8.01166,-4.9976 9.82031,-4.7871 z m -72.45508,3.3847 c 0.62365,0 1.28203,0.035 1.94141,0.1114 3.60109,0.4191 5.25275,2.1888 6.63281,7.1093 2.48141,8.8484 4.40848,42.8021 2.8125,49.5489 -1.64065,6.9356 -5.47209,7.748 -7.86914,1.6679 -2.33715,-5.9281 -8.71003,-55.713 -7.36523,-57.5371 0.40972,-0.5558 1.9767,-0.8953 3.84765,-0.9004 z m 411.43559,2.3653 c -0.7245,-0.01 -1.556,0.1714 -2.4981,0.5293 -1.8254,0.6941 -4.6303,0.9184 -6.2305,0.5 -2.2211,-0.5809 -3.8077,0.6021 -6.7168,4.998 -4.6663,7.0515 -4.3792,12.2279 0.7188,12.9317 1.9711,0.2721 4.7379,1.7245 6.1484,3.2265 2.7917,2.9727 3.782,3.2338 6.1797,1.6328 2.611,-1.7434 4.5346,-6.4028 5.6153,-13.6093 1.0124,-6.7523 -0.078,-10.1843 -3.2168,-10.209 z m 12.1113,1.3437 c -2.1821,-0.1976 -3.7154,3.2286 -4.5957,10.2735 -0.8577,6.8656 -0.6222,8.4059 1.5312,9.9804 2.1292,1.5569 2.9748,1.4743 5.1563,-0.5 3.4142,-3.0895 3.614,-15.0425 0.3066,-18.3496 -0.8713,-0.8713 -1.671,-1.3385 -2.3984,-1.4043 z m 10.3262,0.6758 c -0.5951,0.038 -1.1351,0.6818 -2.0879,1.9668 -2.175,2.9332 -1.5418,11.6503 1.0761,14.8359 2.0841,2.5361 5.0325,2.2233 6.7168,-0.7148 1.3294,-2.3188 1.6122,-2.2664 3.7364,0.7148 2.5621,3.596 5.0059,4.0819 7.582,1.5059 2.3181,-2.318 2.1669,-6.1612 -0.4434,-11.209 -2.9746,-5.7523 -7.7974,-8.2711 -10.0195,-5.2324 -1.5066,2.0606 -1.8905,2.0435 -4.1445,-0.1777 -1.1711,-1.154 -1.821,-1.7261 -2.416,-1.6895 z m -293.17387,0.8926 c -1.08527,-0.041 -2.24356,0.2755 -3.41406,1.0371 -2.98605,1.942 -4.99157,11.2087 -2.97852,13.752 2.49203,3.1485 9.90289,2.3381 11.52344,-1.2598 2.91011,-6.461 -0.42801,-13.3515 -5.13086,-13.5293 z m 66.70317,0.027 c 0.2738,-0.1525 0.568,1.4053 1.1464,4.8907 0.6069,3.656 0.6715,7.569 0.1446,8.6953 -1.435,3.0671 -2.9029,-4.3688 -2.0196,-10.2285 0.3145,-2.0857 0.5155,-3.2388 0.7286,-3.3575 z m -224.04497,2.7813 c 1.2734,0.2779 1.64418,6.2452 3.47461,28.1172 0.89753,10.732 1.28839,19.7878 0.86524,20.123 -1.77566,1.4054 -10.50613,-11.9389 -12.99805,-19.8672 -2.2055,-7.0168 -2.18443,-9.8693 0.11719,-15.6504 1.54806,-3.8881 4.25809,-8.6296 6.02344,-10.5351 1.17303,-1.2662 1.93876,-2.3138 2.51757,-2.1875 z m 95.22657,3.832 c -0.74267,0.026 -1.50153,0.2604 -2.25391,0.75 -3.19612,2.0797 -5.34052,11.2796 -3.24609,13.9258 2.08025,2.3616 7.25889,1.4973 10.36328,-0.3262 4.70803,-4.4946 0.33536,-14.5337 -4.86328,-14.3496 z m 35.84375,10.1055 c 3.86595,-0.057 4.72122,1.0103 6.04297,5.6621 0.93773,3.3002 4.00668,8.446 6.82031,11.4336 6.69074,7.1043 23.51717,9.5409 33.65039,4.873 l 6.69726,-3.0859 -0.54296,4.666 c -0.46591,4.0032 -1.57789,4.6321 -7.82813,4.4238 -5.78857,-0.1927 -7.51023,0.6095 -8.37695,3.9043 -0.89156,3.3894 0.26904,4.735 6.35351,7.3575 7.01288,3.0226 7.33732,3.5474 5.61328,9.0566 -6.15431,19.6662 -18.82441,35.1294 -33.30468,40.6465 -6.65095,2.534 -12.42513,2.8722 -26.8125,1.5742 -21.27988,-1.9198 -35.50119,-5.7582 -44.97461,-12.1406 -16.08405,-10.8359 -28.59754,-35.9317 -28.32617,-56.8028 l 0.13476,-10.4238 6.63086,-0.543 c 4.2395,-0.3464 6.79674,0.2671 7.0957,1.6993 1.26615,6.0624 10.74433,16.4053 17.33594,18.9199 14.62039,5.5774 32.98188,-3.8693 39.89063,-20.5235 4.08763,-9.8534 4.34634,-10.0833 12.04882,-10.6113 0.68536,-0.047 1.29929,-0.078 1.85157,-0.086 z m 274.85155,11.2226 c -2.3881,-0.019 -2.6053,1.0458 -2.6055,3.1836 0,6.2881 12.1828,15.695 26.5196,20.4746 21.6046,7.2028 63.6529,-9.6925 52.3222,-21.0234 -2.4878,-2.4878 -3.2353,-2.5277 -11.7187,-0.5859 -4.9846,1.1408 -10.9328,2.7089 -13.2188,3.4824 -7.0768,2.3948 -21.0307,1.5369 -35.666,-2.1914 -8.6857,-2.2126 -13.2447,-3.3194 -15.6328,-3.3399 z m 502.541,6.1465 c 3.8392,0 6.9805,1.571 6.9805,3.4903 0,1.9192 -3.1413,3.4902 -6.9805,3.4902 -3.8381,0 -6.9785,-1.571 -6.9785,-3.4902 0,-1.9193 3.1404,-3.4903 6.9785,-3.4903 z m -837.7949,28.1914 c -2.72504,-0.1824 -3.3886,3.2398 -1.17382,9.7246 1.67964,4.9182 4.94273,8.7713 10.18554,12.0235 6.18104,3.8344 10.46384,4.9257 21.54492,5.4961 14.70131,0.7566 23.89713,-1.6258 33.41602,-8.6582 5.12629,-3.7874 8.26014,-9.1791 5.51953,-9.4981 -0.51594,-0.06 -9.64942,1.1216 -20.29687,2.625 -22.55732,3.1852 -33.1572,1.3359 -42.24024,-7.373 -2.94253,-2.8215 -5.32005,-4.2304 -6.95508,-4.3399 z m -251.32422,67.3438 c 0.84745,-6e-4 1.80616,0.024 2.88086,0.061 5.75925,0.2045 9.95189,1.9402 9.31836,3.8594 -1.84395,5.581 -11.31919,5.9727 -15.73632,0.6504 -2.91251,-3.5086 -2.39691,-4.5658 3.5371,-4.5703 z m 597.85942,0.4648 v 0 c 0.1618,0.04 0.3891,0.2087 0.6875,0.5078 0.8329,0.833 1.2333,2.3603 0.8887,3.3946 -0.3579,1.0737 -1.0068,0.4228 -1.5137,-1.5157 -0.3895,-1.4903 -0.4611,-2.265 -0.2012,-2.3789 0.04,-0.019 0.084,-0.019 0.1368,-0.01 z m 102.6191,0.8614 c 2.572,-0.053 6.413,3.8768 10.5605,10.9687 6.1501,10.5159 10.4824,13.5807 15.1055,10.6934 3.2413,-2.0242 4.661,-1.1608 14.252,8.666 3.9131,4.0094 5.3532,6.8548 5.8925,11.6367 2.4062,17.9079 20.7116,35.8465 25.3399,54.5019 0.055,0.1679 0.107,0.3436 0.1621,0.5118 -3.3245,-1.8706 -6.7513,-3.3354 -10.2129,-4.3242 -20.8946,-5.9696 -34.9218,-8.8384 -47.8965,-8.9102 -10.0909,-0.056 -19.5445,1.5798 -31.0937,4.7637 -13.9569,3.8484 -28.857,9.2548 -33.1074,12.0136 -4.2516,2.7591 -12.1301,5.0176 -17.5098,5.0176 -13.9116,0 -34.9254,15.51 -41.1289,30.3555 -5.7818,13.8391 -4.0527,25.4785 3.789,25.4785 5.8765,0 6.1399,1.4914 1.7012,9.6445 -1.8142,3.3327 -4.2408,11.9472 -5.3926,19.1446 -1.5899,9.9445 -3.7306,13.0859 -8.916,13.0859 -8.6203,0 -8.952,7.0756 -0.4355,9.3027 4.1599,1.088 7.8534,7.4087 10.6054,18.1485 9.7372,37.9906 39.9347,66.2815 78.3692,73.4199 29.3236,5.4465 63.0381,-1.4627 80.0781,-16.4102 4.7452,-4.1621 7.146,-4.4712 10.293,-1.3242 2.2584,2.2579 6.1466,4.1035 8.6406,4.1035 5.2255,0 6.191,-12.5242 1.2031,-15.6074 -7.4294,-4.5908 0.4741,-12.0078 10.6309,-9.9765 11.6686,2.334 12.3182,0.7286 4.5176,-11.1778 -6.4298,-9.8122 -4.4996,-10.8308 6.664,-3.5156 5.281,3.4597 9.4261,4.0192 12.9629,1.7461 3.8782,-2.4913 4.1413,-4.0318 1.0313,-6.0488 -3.0061,-1.9494 -3.2741,-6.5798 -0.9571,-16.5743 4.9704,-21.4429 3.9686,-71.6972 -1.8183,-91.1855 -2.5324,-8.5276 -6.8303,-16.6134 -12.2266,-23.6152 -2.0989,-11.4969 -5.0504,-21.9836 -8.7129,-29.5176 11.2286,10.582 28.0629,21.8145 43.252,23.0019 -3.3737,3.3681 -0.9325,8.8994 6.8906,10.7461 11.0947,2.6193 15.3453,20.5819 9.041,38.2207 -9.3515,26.1663 -12.347,37.8646 -17.7422,69.2852 -6.947,40.4694 -6.0606,50.9226 4.4551,52.416 8.9597,1.2725 9.2487,0.5276 4.125,-10.7188 -8.1894,-17.9716 16.5879,-111.1414 25.3789,-95.4335 2.1926,3.919 -0.16,15.7529 -7.541,37.9179 -5.9011,17.7215 -11.0985,38.5028 -11.5469,46.1797 -0.6911,11.8057 0.1979,13.9989 6.5352,14.9922 -8.609,13.094 -18.6775,34.3472 -23.1934,49.9043 -4.0468,13.9423 -6.2078,16.0836 -23.8125,23.6016 -10.6483,4.5477 -22.1753,9.8719 -25.6113,11.83 -8.7735,4.9984 -12.7661,1.3505 -11.9238,-10.8925 0.5553,-8.0502 2.7594,-10.9672 9.4472,-12.5079 14.9318,-3.4393 48.8555,-19.4213 48.8555,-23.0156 0,-3.797 -2.9804,-3.0874 -33.0137,7.8477 -13.8509,5.0421 -24.3409,6.8064 -31.4062,5.2832 -12.7186,-2.7428 -19.3782,-2.8074 -56.8028,-0.5723 -32.0067,1.9114 -45.9856,5.6885 -69.3515,18.7481 -13.6956,7.654 -18.8761,8.6333 -37.7149,7.1211 -35.4335,-2.8445 -93.2328,-34.9765 -82.4004,-45.8086 5.5937,-5.5932 4.2716,-9.1817 -3.3789,-9.1817 -3.8381,0 -6.9785,1.6608 -6.9785,3.6934 0,2.0325 -1.5712,2.7274 -3.4902,1.541 -1.9191,-1.1861 -3.4902,-4.8997 -3.4902,-8.25 0,-5.5354 -3.9013,-5.9706 -42.7461,-4.7793 -23.511,0.7214 -51.8898,3.5517 -63.0606,6.2891 -14.10284,3.4552 -22.30261,3.9123 -26.81639,1.4961 -9.08927,-4.8641 -13.93945,-4.3375 -13.93945,1.5117 0,2.7455 -3.53608,5.4923 -7.85547,6.1054 -5.80445,0.8247 -7.57517,3.0926 -6.80078,8.7012 1.31641,9.5419 -5.82212,10.8053 -41.18164,7.2871 -32.18264,-3.2022 -54.16943,-10.9213 -54.79883,-19.2383 -4.10136,-54.1573 -12.75607,-105.5093 -18.36719,-108.9765 -2.70992,-1.6745 -3.28813,-6.9243 -1.69922,-15.3887 1.7545,-9.3559 5.17139,-14.2749 12.57813,-18.1055 10.91678,-5.6447 10.27017,-13.6229 -0.81836,-10.1035 -5.95359,1.8893 -6.68685,0.2801 -6.71875,-14.6894 -0.0172,-9.6097 -2.75915,-21.4789 -7.3711,-32.3692 4.04872,-26.48 13.17098,-45.4693 29.66797,-61.5722 13.78617,-13.4568 44.75221,-20.1917 81.78516,-17.7871 24.87968,1.6155 34.52179,4.8276 43.13476,14.3671 0.20709,0.2294 0.37028,0.4994 0.57227,0.7325 -0.80493,0.6047 -1.56243,1.2431 -2.20508,1.9531 -3.30126,3.6488 -11.14494,7.5982 -17.42969,8.7773 -26.56641,14.2645 -23.77613,21.1213 -21.86328,42.1797 -0.50082,11.8409 9.12634,11.2023 6.19532,11.2031 -10.92193,0.2537 -24.51348,15.4104 -11.25391,30.9375 4.6557,5.4511 -1.75509,14.7899 -3.90039,16.9356 -2.8755,2.875 -1.95633,5.114 3.49023,8.5156 10.38921,6.4876 10.0172,23.0467 -0.60547,27.086 -10.47968,3.9842 -17.13376,12.2708 -16.16601,20.1347 0.42678,3.4734 -0.14928,11.0851 -11.94727,18.6485 -3.16652,7.1359 1.21094,16.0833 1.21094,19.1015 0,3.0184 -3.30221,9.9568 -7.33984,15.418 -8.61823,11.6568 -6.50046,23.5291 5.02929,28.1836 h -0.0117 c 7.90659,3.1912 28.74947,2.6333 32.2461,-0.8633 1.11999,-1.1202 0.26845,-5.3442 -1.89453,-9.3867 -4.73692,-8.8505 -0.80906,-18.0319 4.02148,-9.4004 1.74834,3.1256 6.1509,5.6836 9.78125,5.6836 3.62933,0 7.56905,1.5709 8.75586,3.4902 3.06062,4.952 14.83845,4.3319 16.58984,-0.873 1.15287,-3.4255 2.6826,-3.3605 7.11719,0.3008 6.56549,5.4181 14.26876,2.1033 11.55466,-4.9707 -1.0973,-2.8566 1.835,-6.7705 7.1602,-9.5606 7.4623,-3.9102 5.2926,-5.5189 15.7754,-1.7734 22.2634,7.9551 49.2293,6.1866 70.5703,-8.6934 l 10.1152,-7.0547 c -5.9628,10.7582 0.1035,13.4791 5.332,16.7637 4.447,5.493 15.934,6.0372 20.8828,4.4668 4.2762,-1.3572 7.0762,-0.675 7.0762,1.7226 0,7.2902 14.9109,1.861 22.332,-8.1308 6.9214,-9.3184 0.574,-17.8884 -5.1914,-22.1133 -3.3588,-2.461 -6.1093,-6.9947 -6.1093,-10.0742 0,-5.5787 1.8817,-20.6627 -3.3633,-18.9141 -1.8203,-4.2803 -13.0091,-3.2828 -13.332,-3.0644 2.5031,-7.6974 4.5683,-15.9317 4.5683,-15.9317 12.4553,2.8423 17.3338,-9.8677 3.8613,-12.3808 -0.9296,-1.1416 3.4465,-9.7123 2.668,-30.6563 18.2968,-2.2066 10.2751,-11.2089 0.5215,-12.5195 12.2209,-13.7808 4.0024,-39.6326 -1.3281,-48.3633 7.8534,-16.6346 17.4412,-28.9152 26.9843,-39.375 3.0605,-3.3544 9.276,-8.2346 12.6133,-13.5566 6.8825,-10.9759 8.8055,-12.6203 4.1914,-3.584 -1.901,3.7227 -3.3473,9.7183 -3.7168,15.4121 -0.5615,8.6567 -0.266,9.8253 4.17,16.4844 8.3031,12.4637 15.3739,8.7346 11.4257,-6.0274 -2.0925,-7.8244 -2.0942,-12.0787 0,-17.1738 l 1.6582,-4.0352 1.127,5.7325 c 0.6199,3.1539 1.1689,8.96 1.2187,12.9023 0.1342,10.6261 2.5142,17.4408 8.3536,23.9043 4.7967,5.3093 5.6839,5.7191 10.8711,5.0234 3.7176,-0.4986 6.7674,-0.022 8.9218,1.3868 2.4788,1.6241 3.9723,1.7712 6.1504,0.6054 1.9032,-1.0186 3.176,-1.0527 3.7637,-0.1015 1.4789,2.3927 6.1669,1.6141 8.2578,-1.3711 1.1523,-1.6453 4.4699,-3.2071 8.0117,-3.7735 4.233,-0.6768 6.9954,-2.1882 9.2227,-5.039 l 3.1816,-4.0703 -0.4902,8.6621 c -0.5507,9.7202 1.9219,14.1972 7.8457,14.1972 4.8315,0 7.3955,-4.9771 9.4785,-18.4004 1.0082,-6.4965 2.4721,-11.9494 3.252,-12.1171 0.7796,-0.1679 2.3268,1.7621 3.4394,4.289 2.5162,5.7149 5.2861,6.8661 9.6484,4.0078 4.5887,-3.0066 4.76,-12.6853 0.3086,-17.4238 l -3.0742,-3.2695 3.6211,-10.9395 c 1.9909,-6.0157 3.9254,-10.3909 4.2988,-9.7226 0.3735,0.6681 0.014,5.8519 -0.7988,11.5175 -1.6418,11.4523 -0.4019,14.7852 5.4922,14.7852 6.0019,0 8.3219,-8.1258 8.4629,-29.6211 0.068,-10.3849 0.5599,-19.3159 1.0918,-19.8477 0.4465,-0.4463 0.9729,-0.6713 1.5664,-0.6835 z m 269.4062,10.6132 c 1.6545,0.012 0.7657,4.3552 -1.9804,9.6641 -7.3975,14.3047 -8.7474,40.4394 -2.1582,41.7832 3.799,0.7749 6.6687,-4.8706 10.4687,-20.6016 2.8797,-11.9175 7.1404,-22.276 9.4688,-23.0175 3.0441,-0.9689 2.6765,3.2263 -1.3067,14.916 -5.065,14.8386 -5.0677,16.7517 -0.02,21.7929 5.0424,5.0414 5.8436,4.6885 9.1582,-4.0293 1.9982,-5.2557 3.6348,-11.024 3.6348,-12.8183 0,-1.7944 1.4036,-3.2637 3.1211,-3.2637 1.7925,0 1.8941,5.4446 0.2363,12.7949 -2.3459,10.4005 -1.2923,15.942 5.6269,29.5957 9.6045,18.9551 18.8086,54.4547 18.8672,72.7676 0.051,18.3932 -10.6797,32.8448 -31.9199,42.9571 h 0.012 c -10.239,4.8745 -23.3248,9.5963 -29.082,10.4921 -43.0922,8.0312 -99.9008,-26.9195 -111.084,-84.4043 13.023,1.2542 16.4186,-12.6663 0.1172,-13.6035 0.2007,-2.1553 1.041,-4.0801 1.041,-7.7793 0,-11.1486 13.6264,-43.9913 21.0352,-50.6953 6.7928,-6.1468 6.8902,-6.0629 4.8262,4.2559 -1.5447,7.725 -0.6468,11.0903 3.3671,12.6308 4.0191,1.5419 7.3967,-2.2535 12.7188,-14.2851 7.2659,-16.4245 19.5172,-32.1739 25.0234,-32.1739 1.6177,0 -1.1042,7.9795 -6.0469,17.7344 -9.407,18.5628 -10.2519,32.8653 -1.9453,32.8653 2.6883,0 5.4846,-3.925 6.2168,-8.7207 1.4048,-9.2021 18.0048,-36.6155 20.6016,-34.0196 0.8361,0.8362 -0.792,8.0737 -3.6191,16.084 -2.8252,8.0106 -4.2161,16.9688 -3.0879,19.9082 3.2539,8.4793 12.5181,4.2027 13.6308,-6.293 1.1648,-10.9685 18.5474,-44.5127 23.0781,-44.5371 z m -219.0976,1.3301 c 0.1304,0.019 0.2874,0.2392 0.459,0.668 0.4143,1.0348 0.361,2.2717 -0.1153,2.748 -0.4763,0.4765 -0.8125,-0.3715 -0.75,-1.8828 0.043,-1.0438 0.1891,-1.5661 0.4063,-1.5332 z m -84.4434,0.2539 c 0.2015,-0.045 0.4574,0.1898 0.7754,0.6817 0.7645,1.1826 1.4012,3.9275 1.4121,6.0957 0.011,2.1683 -0.6235,3.9414 -1.4121,3.9414 -0.7884,0 -1.4229,-2.7409 -1.4121,-6.0918 0.011,-3.0676 0.1932,-4.5274 0.6367,-4.627 z m -73.2402,4.1602 c 0.057,-0.01 0.1198,-0.01 0.1855,0 0.3519,0.043 0.8289,0.3188 1.4356,0.8222 1.1826,0.9816 2.1504,2.9589 2.1504,4.3926 0,3.9337 -2.4211,4.6235 -3.4004,0.9688 -1.0888,-4.062 -1.2282,-6.057 -0.3711,-6.1836 z m -169.2812,8.1719 c 3.5182,0 7.0533,1.9621 7.8535,4.3613 0.9204,2.7625 -1.9596,4.3633 -7.8535,4.3633 -5.894,0 -8.7701,-1.6008 -7.8497,-4.3633 0.7991,-2.3992 4.3314,-4.3613 7.8497,-4.3613 z m -8.5176,22.6835 c 1.8049,0 3.2851,1.571 3.2851,3.4903 0,1.9192 -2.4506,3.4883 -5.4433,3.4883 -2.9928,0 -4.47,-1.5691 -3.2832,-3.4883 1.1868,-1.9193 3.6345,-3.4903 5.4414,-3.4903 z m 29.457,3.4903 c 2.8786,0 5.2344,1.5691 5.2344,3.4883 0,1.9194 -2.3558,3.4902 -5.2344,3.4902 -2.8796,0 -5.2363,-1.5708 -5.2363,-3.4902 0,-1.9192 2.3567,-3.4883 5.2363,-3.4883 z m -92.25976,3.1386 v 0 c 1.18681,-0.038 1.97656,0.3621 1.97656,1.3789 1.04179,1.0414 -1.38209,3.6446 -5.38477,5.7871 -5.0465,2.7004 -7.27734,2.7547 -7.27734,0.1738 0,-3.1729 7.1241,-7.2286 10.68555,-7.3418 z m -189.07617,9.8223 c 3.83913,0 6.97851,1.5689 6.97851,3.4883 0,1.9192 -3.13938,3.4883 -6.97851,3.4883 -3.83811,0 -6.98047,-1.5691 -6.98047,-3.4883 0,-1.9194 3.14236,-3.4883 6.98047,-3.4883 z m 266.49223,0.957 c 14.7538,-0.043 31.3058,2.5492 43.4628,6.9415 17.1304,6.1888 27.8275,20.3648 33.336,32.8964 0.1755,0.4168 0.3585,0.8345 0.5312,1.25 1.6977,4.0832 2.8631,7.9675 3.4844,11.2793 3.1881,16.9966 -1.0303,16.6615 -7.709,4.3516 -8.5853,-10.7615 -20.7423,-9.7198 -33.1699,-8.666 -15.7226,1.3328 -25.6006,3.2339 -28.7559,15.8047 -8.2953,16.748 -9.4991,-11.9876 -34.4941,-13.8203 -22.7098,-1.6654 -33.12568,-1.5201 -39.73438,14.8925 -5.45272,10.9658 -7.70707,12.4893 -17.11718,11.5723 -10.48487,-1.0215 -3.04866,0.1747 -0.72852,-12.3066 10.14452,-37.2871 28.34838,-46.1423 52.64258,-58.9161 6.3907,-3.6157 16.7767,-5.2453 28.252,-5.2793 z m -346.97661,0.9981 c 2.83434,-0.047 6.85111,1.2658 14.17969,3.9043 8.63679,3.1092 32.19457,6.5963 52.34765,7.748 l 36.63868,2.0938 8.40039,16.9433 c 4.61971,9.3193 9.1473,24.7234 10.06054,34.2305 1.48196,15.4205 0.85727,17.4962 -5.78125,19.2324 -8.56788,2.2405 -10.16091,11.6016 -1.97461,11.6016 4.04999,0 4.85147,2.0372 3.0918,7.8516 -6.87915,22.7125 -26.84166,44.1191 -51.18359,54.8828 -9.04812,4.0007 -27.10476,8.0258 -40.13086,8.9453 -19.77876,1.3961 -26.26818,0.3719 -39.38477,-6.2149 l -15.70312,-7.8867 -1.10938,-22.6816 c -2.3294,-47.6424 9.48943,-111.3003 23.4668,-126.3965 2.5937,-2.8013 4.24667,-4.2073 7.08203,-4.2539 z m 936.84371,0.8262 c 3.9184,0 9.8701,19.5703 17.7715,58.4511 0.8762,4.3184 1.0409,7.8516 0.3653,7.8516 -3.219,0 -5.8923,-5.3453 -5.9571,-11.9219 -0.041,-3.9986 -3.8143,-17.8708 -8.3867,-30.8261 -6.1181,-17.3359 -7.12,-23.5547 -3.793,-23.5547 z m -125.7363,17.5449 c -13.8642,0.064 -15.7272,7.3109 -13.9336,13.6641 1.9993,7.0867 10.5082,-2.9522 15.9219,-2.8438 6.6796,0.1338 12.7354,7.1035 13.2187,-1.3203 0.2809,-4.9091 -6.0323,-9.5419 -15.207,-9.5 z m 64.4785,5.0039 c -8.4012,0.1232 -13.3756,6.822 -13.7304,10.8457 -0.6932,7.8433 10.9381,-0.1563 17.0058,-0.6543 4.6218,-0.3794 13.5467,10.1906 14.4024,0.8184 0.2407,-2.6442 -4.3486,-9.5394 -8.668,-10.2793 -3.1573,-0.541 -6.2093,-0.7716 -9.0098,-0.7305 z m -259.83,4.332 c 1.7349,0.078 3.264,0.7494 3.9726,1.8965 1.1344,1.8356 -1.1718,3.3379 -5.123,3.3379 -8.426,0 -9.276,-1.9429 -2.0625,-4.7109 1.0561,-0.4054 2.1731,-0.5704 3.2129,-0.5235 z m 19.3769,1.7422 c 1.807,0 4.2537,1.5727 5.4395,3.4922 1.1857,1.9192 -0.2915,3.4883 -3.2832,3.4883 -2.9928,0 -5.4434,-1.5691 -5.4434,-3.4883 0,-1.9195 1.4822,-3.4922 3.2871,-3.4922 z m 43.6211,8.1563 c 0.5574,-0.054 1.2274,0.1253 1.9473,0.5703 1.919,1.1862 3.4921,2.8488 3.4921,3.6953 0,0.8464 -1.5731,1.5391 -3.4921,1.5391 -1.9191,0 -3.4883,-1.6646 -3.4883,-3.6973 0,-1.2704 0.6123,-2.0156 1.541,-2.1074 z m -61.2773,5.8047 c 1.92,0 4.4606,1.5691 5.6464,3.4882 1.1858,1.9193 0.5881,3.4903 -1.332,3.4903 -1.9201,0 -4.4597,-1.571 -5.6465,-3.4903 -1.1858,-1.9191 -0.587,-3.4883 1.3321,-3.4882 z m -537.20512,4.2226 c -4.16928,0.1304 -7.77702,5.5615 -5.59571,11.2461 1.15389,3.0081 3.7692,5.4668 5.8086,5.4668 5.65326,0 8.41962,-10.4216 3.95312,-14.8887 -1.32151,-1.3212 -2.7756,-1.8677 -4.16601,-1.8242 z m 499.42582,2.7559 c 2.1617,0 12.8993,6.2912 23.8613,13.9804 21.8171,15.3042 53.4889,27.8946 70.166,27.8946 12.6744,0 17.1138,8.636 19.9707,38.8418 1.5283,16.1475 0.2969,23.0611 -6.9102,38.8047 -10.5342,23.0098 -29.8316,45.2087 -45.9492,52.8574 -23.6611,11.2275 -69.7486,4.5798 -88.7129,-12.795 -24.9795,-22.886 -31.9189,-51.9545 -30.7578,-66.7187 9.5243,-0.6204 10.2489,-10.1096 -0.5722,-10.7168 -0.6418,-25.2067 31.6611,-80.6909 58.9043,-82.1484 z m 55.8164,0.076 c 8.7427,0.078 38.2109,11.9989 38.2109,15.4571 0,2.6538 -2.7196,2.1915 -22.6855,-3.8575 -20.581,-6.2354 -27.9077,-11.7094 -15.5254,-11.5996 z m -606.55082,6.9024 c -8.86405,0 -10.89191,2.5226 -8.7168,10.8398 2.41372,9.2279 12.80858,7.0212 14.24219,-3.0234 0.81967,-5.7474 -0.64239,-7.8164 -5.52539,-7.8164 z m 369.58592,1.2754 c 8.9145,0.2396 16.9362,2.8517 18.3184,11.3711 1.736,10.6945 -2.1193,19.0908 -12.3399,21.8808 -11.5019,3.1395 -18.1256,4.2048 -30.1367,1.916 -11.5195,-2.1953 -14.2592,-29.5179 4.4356,-33.0918 5.3139,-1.0158 12.7879,-2.2627 19.7226,-2.0761 z m 134.5371,0.1211 v 0 c 0.1028,0.015 0.1737,0.053 0.2402,0.1191 1.1323,1.1326 -1.3653,6.6892 -5.5469,12.3457 -4.1826,5.6564 -7.6035,11.9172 -7.6035,13.9141 0,1.9969 -1.5682,3.6308 -3.4883,3.6308 -1.92,0 -3.4882,-1.2058 -3.4882,-2.6797 0,-4.7623 16.9259,-27.7956 19.8847,-27.33 z m -222.5215,0.076 c 18.3781,-0.2876 43.3014,8.6047 27.6055,29.4825 -5.9155,6.7361 -31.735,7.887 -41.2109,2.3671 -7.1363,-4.1554 -8.61392,-19.0214 -2.1348,-27.4609 2.3602,-2.7567 8.5484,-4.2761 15.7402,-4.3887 z m 663.0938,4.7989 c 5.5422,0 11.6776,49.5506 11.873,95.8906 0.03,7.0217 0.2525,11.9487 0.5684,15.4844 -2.6688,-0.2385 -5.833,-1.7933 -7.7109,-3.9551 -2.2914,-2.6411 -5.6996,-5.3558 -7.5704,-6.0313 -2.1761,-0.785 -2.246,-6.8933 -0.1953,-16.9297 1.7638,-8.6368 -3.0563,-4.6765 -1.8047,-32.9863 1.2516,-28.3098 3.4289,-51.4726 4.8399,-51.4726 z m -344.1426,0.8125 c 2.5978,0.066 5.7447,1.215 7.9414,3.4121 1.9345,1.9343 10.4948,5.7045 19.0215,8.3789 10.96,3.4377 12.9439,4.8818 6.7754,4.9316 -11.3559,0.091 -38.3848,-9.5064 -38.3848,-13.6289 0,-2.1414 2.0477,-3.1593 4.6465,-3.0937 z m 176.877,1.1269 c -2.7048,0.023 -4.3715,0.1367 -4.7325,0.3574 -5.6944,3.4915 -1.849,14.0295 9.6231,26.3672 16.3284,17.5604 25.9657,23.3933 44.0137,26.6367 26.6795,4.7944 49.9812,-6.175 52.9472,-24.9238 3.0751,-19.4304 -3.5673,-22.5037 -56.8554,-26.3144 -19.4332,-1.3898 -36.8808,-2.1853 -44.9961,-2.1231 z m -424.1211,4.9668 c -6.7362,0.2438 -10.1571,4.8671 -4.4278,10.5957 5.2214,5.2212 13.2559,3.1498 13.2559,-3.4941 0,-2.7191 -1.4385,-6.3164 -5.7559,-6.9297 -1.0808,-0.1535 -2.1106,-0.207 -3.0722,-0.1719 z m -63.7637,1.0391 c -5.4486,-0.3062 -9.1974,4.9765 -5.9609,10.2109 2.7325,4.4228 11.1562,4.5296 13.8476,0.1758 1.1272,-1.8229 -0.1328,-7.1921 -3.9082,-9.2129 -1.375,-0.735 -2.7207,-1.1031 -3.9785,-1.1738 z m -369.8164,1.3301 c 1.55085,-0.084 1.75528,8.3731 0.50781,22.9863 -3.28891,38.4918 -6.14792,37.3781 -4.86133,-1.8926 0.3137,-9.5967 2.03858,-18.9527 3.83008,-20.791 0.18935,-0.1943 0.36288,-0.2937 0.52344,-0.3027 z m 479.4453,2.4961 c 0.1368,0.1088 0.1701,0.6583 0.1504,1.5742 -0.2922,14.5865 -1.6732,24.4471 -4.7266,29.5703 -12.1139,-2.3917 -18.8268,5.9652 -5.8593,11.7597 -22.2172,69.4127 -79.6702,85.3916 -130.76371,38.0079 -9.88116,-9.1647 -27.30575,-35.6895 -29.06641,-56.1133 -1.01506,-11.7867 -0.24451,-12.9747 10.17969,-15.6758 10.07962,-2.6119 10.53562,-0.2453 19.66602,9.9727 8.79311,9.841 14.32141,9.9707 28.41601,9.9707 14.3847,0 20.8687,-3.7336 29.668,-14.2735 4.5343,-12.0022 10.5659,-7.0924 13.8086,1.918 3.1902,5.1067 6.3258,8.2387 12.9941,10.4394 15.4985,5.115 44.4599,0.8717 50.0762,-14.0039 3.7003,-9.8054 5.0467,-13.4713 5.457,-13.1464 z m 402.1856,0.6269 c 15.0737,-0.1897 41.9166,2.7712 53.9101,5.1699 9.9645,1.993 13.2259,3.1401 10.5664,14.9317 -3.2221,13.5269 -15.3762,14.6715 -31.1133,15.3183 -17.0328,0.7003 -54.5169,-27.0909 -43.5312,-34.041 1.4233,-0.9006 5.1441,-1.3157 10.168,-1.3789 z m -229.752,13.7402 c -4.088,-0.1852 -7.7129,2.8102 -7.7129,6.2539 0,3.9359 3.0547,6.8396 8.457,6.0723 4.3184,-0.6133 7.8497,-2.6878 7.8497,-4.6074 -0.5287,-6.5041 -4.802,-7.4094 -8.5938,-7.7188 z m -52.9805,6.4922 c -6.6323,-0.1364 -9.1768,6.0846 -4.0254,11.2364 4.0654,4.0657 13.2559,0.7237 13.2559,-4.8204 -1.4912,-4.4442 -5.5878,-6.1693 -9.2305,-6.416 z m 409.795,10.5078 c 7.0427,0.034 4.7246,48.5274 -4.5899,65.9336 -4.1476,7.7486 -10.3691,9.0605 -10.3691,2.1856 0,-2.5345 -4.3382,15.5581 -0.7325,-1.5801 3.6036,-17.1384 7.6198,-38.5826 8.9239,-47.6543 1.305,-9.0721 3.8511,-17.4098 5.6601,-18.5273 0.3919,-0.2423 0.7609,-0.359 1.1075,-0.3575 z m -967.14067,16.9649 c -2.26976,0.067 -4.38964,1.2567 -5.90039,3.7012 -2.68524,4.3451 14.24936,23.4634 24.60156,27.7734 11.31477,4.7107 19.56637,3.7906 35.59961,-3.9707 14.09567,-6.8236 24.90549,-18.8347 20.71875,-23.0215 -1.00581,-1.0049 -6.42075,1.4453 -12.03906,5.4453 -24.09199,17.155 -44.23576,16.5754 -52.47656,-1.5117 -2.51554,-5.5207 -6.71928,-8.5278 -10.50391,-8.416 z m 295.72461,0.072 c -1.97767,-0.011 -3.08594,1.44 -3.08594,4.4375 0,5.006 13.4148,19.1724 20.8164,25.8321 19.9618,17.9592 67.3637,2.2163 72.1387,-11.2149 3.4524,-8.9943 0.2717,-8.8983 -18.8457,0.5625 -23.3135,11.5376 -39.2965,9.2595 -54.9492,-7.83 -7.0561,-7.7028 -12.77711,-11.7709 -16.07426,-11.7872 z m 503.82816,0.5801 c 2.1031,0.5331 -0.8454,18.4469 -4.7442,26.4844 -1.3966,2.879 -4.6263,15.9453 -7.1758,29.0332 -1.4408,7.3922 -1.8948,10.5878 -1.6953,11.5762 -2.6286,1.8636 -4.9698,3.8981 -7.039,6.1133 1.7205,-19.5153 8.7793,-59.177 19.834,-72.7852 0.3299,-0.347 0.6022,-0.477 0.8203,-0.4219 z M 947.48242,1700 c 4.7308,-0.1334 10.70703,4.5864 10.70703,9.1445 0,1.5355 -3.92695,2.791 -8.72461,2.791 -9.33607,0 -12.1775,-8.3954 -3.91406,-11.5664 0.60367,-0.2316 1.25598,-0.3502 1.93164,-0.3691 z m 696.33788,5.582 c 0.322,-0.023 0.5424,0.019 0.6504,0.125 2.1741,2.174 -2.7036,24.7112 -6.1797,28.6035 -1.5622,1.7487 -7.1918,3.6402 -12.5098,4.2071 -5.3159,0.5669 -11.3981,3.4013 -13.5136,6.2949 -3.0832,4.2171 -12.4427,5.2241 -47.1738,5.0801 -29.6044,-0.1225 -51.4589,2.4916 -67.2032,8.2422 1.0131,-14.106 5.1855,-40.4192 12.7578,-49.3243 1.628,-1.5482 1.8525,6.6072 0.4981,18.1231 -2.3377,19.8879 -2.1583,20.6408 3.6328,14.998 3.3537,-3.2673 6.0977,-10.7289 6.0977,-16.5781 0,-5.8496 0.3954,-10.6347 0.8808,-10.6347 0.4854,0 10.7998,2.5428 22.9219,5.6484 29.8183,7.6389 60.2191,5.0279 81.7812,-7.0234 7.9169,-4.4247 15.1102,-7.6092 17.3594,-7.7618 z m -278.293,3.3457 c -2.6513,-0.019 -6.1498,0.7867 -10.4394,2.4785 -19.0218,7.5023 -76.3643,24.9508 -82.3848,25.0684 -3.1233,0.061 -8.6491,2.358 -12.2754,5.1035 -6.2847,4.7571 -6.3121,5.4227 -0.6074,14.127 3.291,5.0241 10.9701,11.3827 17.0625,14.1308 13.0734,5.8964 39.8505,3.7971 56.1172,-4.4004 20.9769,-8.9927 30.8947,-24.3272 35.3457,-41.0078 3.2426,-12.1528 3.958,-15.4474 -2.8184,-15.5 z m -17.0488,16.9668 c 12.0697,0 -6.4184,23.1725 -25.3476,31.7696 -7.8285,3.5556 -19.8206,6.4995 -26.6504,6.541 -13.6473,0.084 -26.5903,-7.2281 -23.0196,-13.0059 2.1824,-3.5323 66.7285,-25.3047 75.0176,-25.3047 z m -224.6406,6.9805 c 6.224,0 8.0576,1.4527 6.6055,5.2344 -1.1046,2.879 -4.9799,5.2344 -8.6133,5.2344 -3.6325,0 -6.6074,-2.3554 -6.6074,-5.2344 0,-3.2394 3.2838,-5.2344 8.6152,-5.2344 z m -191.26368,3.7051 c 1.83575,-0.091 4.5859,2.3284 7.56836,7.1035 2.51452,4.0256 4.05608,7.8343 3.42773,8.4629 -2.59268,2.5917 -13.29883,-6.0397 -13.29883,-10.7207 0,-3.1836 0.87529,-4.7744 2.30274,-4.8457 z m -117.95117,3.2754 c 1.95401,0 4.55994,6.714 5.79101,14.9218 2.54842,16.9953 1.03708,40.9244 -2.2539,35.6758 -4.18058,-6.6681 -7.25182,-50.5976 -3.53711,-50.5976 z m -18.18946,1.6133 c 0.33525,-0.011 0.55147,0.028 0.63477,0.1132 0.66539,0.666 2.0765,10.7582 3.13476,22.4258 l 1.92188,21.211 -18.80469,0.053 c -19.71088,0.054 -67.80608,13.2601 -81.875,22.4785 -15.36786,10.0694 -16.50984,8.0065 -21,-37.9102 -2.22036,-22.7084 -1.97628,-23.9468 4.21485,-21.3418 22.26345,9.3683 61.45728,8.6655 92.00781,-1.6484 9.23327,-3.1171 17.41873,-5.3208 19.76562,-5.3769 z m 828.27731,12.3437 c 1.9201,0 3.4903,1.571 3.4903,3.4902 0,1.9192 -1.5702,3.4883 -3.4903,3.4883 -1.918,0 -3.4882,-1.5691 -3.4882,-3.4883 0,-1.9192 1.5702,-3.4902 3.4882,-3.4902 z m -701.12692,13.959 c 1.75964,0 3.19727,3.9245 3.19727,8.7226 0,9.0997 -5.05814,11.9166 -7.83594,4.3633 -2.08051,-5.66 0.55066,-13.0859 4.63867,-13.0859 z m 691.22262,3.6758 v 0 c 1.8847,0.1166 2.7135,3.2825 0.8887,8.039 -1.2105,3.1538 -3.6031,5.7324 -5.3164,5.7325 -3.977,0 -3.888,-3.8421 0.2382,-10.3672 1.546,-2.443 3.0554,-3.472 4.1875,-3.4043 z m 48.4961,13.7715 c 2.0322,0 2.7259,1.571 1.5391,3.4902 -1.1858,1.9192 -2.8499,3.4902 -3.6953,3.4902 -0.8464,0 -1.5391,-1.571 -1.5391,-3.4902 0,-1.9192 1.6632,-3.4903 3.6953,-3.4902 z m -803.04879,38.9746 c 1.28761,-0.04 3.27073,0.7774 6.03515,2.2421 7.65052,4.0544 51.52108,11.129 69.01367,11.129 16.37568,0 15.93195,5.4785 -0.66796,8.2519 -7.19694,1.2025 -25.90794,3.1995 -41.57813,4.4375 l -28.48828,2.252 -3.69531,-13.3809 c -2.93001,-10.6086 -3.45247,-14.8439 -0.61914,-14.9316 z m 285.34769,24.4882 c 1.3575,-0.1587 3.4939,1.2033 6.1699,2.3418 20.9038,8.8887 48.5777,18.2621 61.4433,20.1914 14.1646,2.1243 16.4044,-1.1893 12.879,6.8399 -1.1807,2.689 -0.7266,1.3323 -1.8106,3.4629 -23.1232,7.5183 -73.0347,3.0096 -75.6191,-2.4063 -0.4679,-0.9811 -2.5289,-9.1254 -3.9317,-18.5488 -1.3338,-8.9539 -0.8761,-11.6765 0.8692,-11.8809 z m -485.95121,16.086 c 0.45044,0.074 1.06334,1.5365 1.91797,4.2031 1.53751,4.7983 2.95232,12.2577 3.14258,16.5762 0.19124,4.3183 -1.22353,7.8515 -3.14258,7.8515 -1.91906,0 -3.33293,-7.4577 -3.14063,-16.5742 0.17689,-8.4439 0.47087,-12.1797 1.22266,-12.0566 z m 2.99219,33.3086 c 0.55328,-0.1856 1.41489,0.9763 2.7539,3.2754 3.9893,6.854 2.95626,22.2011 -1.21093,17.9707 -1.43879,-1.4618 -2.56839,-7.5002 -2.50977,-13.418 0.0514,-5.1237 0.25394,-7.5892 0.9668,-7.8281 z" transform="translate(245.24304,-1.0302151) translate(-385.34177,-329.11572) scale(0.26458333)"/>
</svg>
