<svg width="1500" height="184" viewBox="0 0 1500 184" fill="none" xmlns="http://www.w3.org/2000/svg">
<path fill-rule="evenodd" clip-rule="evenodd" d="M0 34.5064L50 59.422C100 84.3376 200 134.169 300 138.598C400 142.474 500 100.948 600 63.8515C700 26.2012 800 -7.01959 900 1.28561C1000 9.59081 1100 59.422 1200 80.4618C1300 100.948 1400 92.6428 1450 88.767L1500 84.3376V184H1450C1400 184 1300 184 1200 184C1100 184 1000 184 900 184C800 184 700 184 600 184C500 184 400 184 300 184C200 184 100 184 50 184H0V34.5064Z" fill="#7BDFF2"/>
</svg>
