<?xml version="1.0" encoding="UTF-8" standalone="no"?>
<svg
   width="372.80301"
   height="370.07864"
   viewBox="0 0 372.80301 370.07864"
   fill="none"
   version="1.1"
   id="svg513757"
   sodipodi:docname="woman-asking.svg"
   inkscape:version="1.1.1 (eb90963e84, 2021-10-02)"
   xmlns:inkscape="http://www.inkscape.org/namespaces/inkscape"
   xmlns:sodipodi="http://sodipodi.sourceforge.net/DTD/sodipodi-0.dtd"
   xmlns="http://www.w3.org/2000/svg"
   xmlns:svg="http://www.w3.org/2000/svg">
  <sodipodi:namedview
     id="namedview513759"
     pagecolor="#ffffff"
     bordercolor="#666666"
     borderopacity="1.0"
     inkscape:pageshadow="2"
     inkscape:pageopacity="0.0"
     inkscape:pagecheckerboard="0"
     showgrid="false"
     inkscape:zoom="1.6779279"
     inkscape:cx="185.64564"
     inkscape:cy="212.46443"
     inkscape:window-width="1866"
     inkscape:window-height="1016"
     inkscape:window-x="54"
     inkscape:window-y="27"
     inkscape:window-maximized="1"
     inkscape:current-layer="svg513757" />
  <g
     id="g514097">
    <path
       fill-rule="evenodd"
       clip-rule="evenodd"
       d="m 188.53503,15.420264 c 52.478,4.458301 106.191,13.17364 140.761,55.1115 36.305,44.042816 53.124,105.490646 37.902,161.629586 -14.435,53.23886 -63.10321,75.24944 -112.50817,94.3886 C 145.30333,368.92557 49.948042,359.6274 16.348696,252.29271 -2.0931736,190.45293 -12.182783,94.201432 26.506017,43.864128 65.062917,-6.3015616 127.55503,10.239744 188.53503,15.420264 Z"
       fill="url(#paint0_linear)"
       id="path513722"
       style="fill:url(#paint0_linear);stroke-width:1.02786"
       sodipodi:nodetypes="cccscsc" />
    <g
       clip-path="url(#clip0)"
       id="g513726"
       transform="matrix(0.71536527,0,0,0.71536527,87.284929,-1.1950325e-6)">
      <path
         d="m 120.038,133.289 c -4.321,-1.159 -8.365,-4.144 -10.555,-7.79 -1.985,-3.306 -2.247,-4.352 -2.311,-9.252 -0.058,-4.474 -0.058,-4.474 1.533,-6.792 4.527,-7.231 13.84,-4.737 21.03,-1.041 3.731,1.895 6.332,5.221 6.958,8.898 0.04,0.234 0.118,0.618 0.174,0.852 1.654,12.505 -6.754,17.695 -16.829,15.125 z m 3.648,-4.556 c 0,-0.398 0.512,-1.258 1.138,-1.913 1.181,-1.235 1.176,-2.18 -0.005,-0.996 -0.76,0.762 -5.033,1.667 -6.521,1.382 -1.534,-0.294 -1.17,0.29 0.818,1.31 2.238,1.148 4.57,1.259 4.57,0.217 z m -3.324,-6.867 c 2.909,-1.381 4.059,-3.797 3.993,-8.391 -0.745,-8.302 -11.579,-4.901 -11.999,1.242 -0.129,2.75 0.557,5.526 1.598,6.471 0.678,0.615 2.689,1.246 4.418,1.386 0.234,0.019 1.13,-0.299 1.99,-0.708 z m -1.107,-21.9413 c -2.608,-2.4734 -5.121,-4.4262 -6.095,-4.736 -0.529,-0.168 -1.221,-0.8191 -1.54,-1.447 -1.435,-2.8294 -1.729,-10.2383 -0.676,-17.0124 0.815,-8.4784 2.497,-14.2402 6.99,-20.3446 3.893,-5.2305 6.522,-8.1981 8.566,-9.6688 2.144,-1.5433 2.356,-2.1568 0.693,-2.0069 -2.046,0.1844 -4.612,-0.4876 -5.543,-1.4514 -4.685,-3.6494 -8.377,-5.0618 -11.682,-7.9632 -1.67,-1.4912 -1.67,-1.4912 -1.373,-5.8708 0.81,-8.2561 3.629,-15.8402 10.087,-21.45727 16.772,-14.88731 45.03,-7.601841 56.651,11.04347 5.466,7.1829 7.476,9.4096 8.538,18.841 0.554,4.8902 0.156,8.6868 -1.134,10.8124 -10.623,20.794 -34.359,6.9815 -43.022,33.0724 -0.32,1.3891 -4.308,8.6123 -2.167,15.5329 0.33,1.6656 1.16,2.9895 0.4,3.6225 -7.14,1.05 -13.464,3.886 -18.693,-0.9663 z m 6.909,-2.2127 c 0.43,-0.4228 -1.446,-2.3777 -2.223,-2.3173 -0.491,0.0381 -0.988,0.0334 -1.105,-0.0109 -1.992,-0.7473 -2.426,-0.0121 -0.999,1.6884 1.008,1.2008 1.301,1.3177 2.66,1.0633 0.84,-0.1572 1.59,-0.348 1.667,-0.4239 z m -2.851,-9.3724 c 0.15,-0.703 0.295,-2.0837 0.323,-3.0682 1.076,-8.1631 3.37,-17.3094 8.801,-23.5076 7.462,-9.624 21.434,-7.395 31.412,-14.6885 2.234,-1.755 2.992,-2.687 3.866,-4.7508 0.396,-0.9373 1.086,-2.5343 1.531,-3.5488 0.98,-2.2322 1.161,-7.9514 0.373,-11.7895 -1.405,-8.9773 -8.989,-14.9133 -14.69,-17.99008 -6.254,-3.14256 -14.11,-4.34169 -20.404,-3.11446 -2.476,0.4829 -7.034,2.51843 -9.728,4.34444 -5.068,4.0677 -11.114,12.0324 -11.313,19.1657 0,1.1298 0.125,1.2373 1.381,1.1845 0.76,-0.032 4.27,0.0849 7.799,0.2597 6.418,0.3177 6.418,0.3177 6.698,-1.0863 0.651,-3.2632 3.802,-6.568 7.513,-7.8806 4.639,-1.1826 10.135,2.193 11.439,6.5091 1.429,9.0852 -6.328,15.5234 -11.243,17.9831 -14.074,8.646 -20.521,20.4691 -20.724,38.076 -0.019,3.5246 0.116,4.7066 0.571,4.9884 0.328,0.2032 1.84,0.3295 3.36,0.2807 2.7,-0.0866 2.769,-0.1179 3.035,-1.3668 z M 136.76,40.0877 c 0.105,-0.3225 -0.217,-0.5362 -0.818,-0.5418 -1.976,-0.3296 -2.782,-2.9295 -4.682,-2.9733 -3.046,-0.4598 -9.586,-1.446 -13.399,-1.1238 0,0.52 3.408,1.976 3.955,1.976 0.293,0 0.889,0.4314 1.323,0.9586 1.312,1.591 2.34,1.9222 6.027,1.9429 1.94,0.0108 3.646,0.1384 3.79,0.2834 0.463,0.4642 3.622,0.0306 3.804,-0.522 z"
         fill="url(#paint1_linear)"
         id="path513724"
         style="fill:url(#paint1_linear)" />
    </g>
    <g
       clip-path="url(#clip1)"
       id="g513732"
       transform="translate(-3.2100036,-73.687283)">
      <path
         d="m 116.051,195.05 c 16.919,-0.057 36.332,9.726 49.044,30.031 22.649,56.105 -59.635,90.257 -79.8622,27.377 -12.0783,-37.547 6.875,-57.328 30.8182,-57.408 z m 31.876,109.406 c 54.674,0.03 63.891,48.254 77.35,111.125 10.343,12.421 -78.807,41.971 -78.462,19.629 1.11,-71.814 -72.4206,-124.281 -8.844,-130.268 3.478,-0.327 6.792,-0.487 9.956,-0.486 z M 41.4989,324.11 73.5309,396.004 36.1607,386.83 6.44774,324.834 Z"
         fill="#ffffff"
         id="path513728" />
      <path
         d="m 130.533,167.914 c 0.219,-0.005 0.437,-0.003 0.651,0.003 7.548,0.233 12.235,7.519 11.099,8.596 13.748,-7.708 26.67,-1.402 32.124,12.686 7.342,2.22 28.583,10.866 17.619,24.394 17.205,10.54 18.347,22.343 7.863,27.995 19.102,7.921 27.867,33.179 12.998,42.332 7.074,14.958 14.211,29.807 -8.834,37.39 2.931,3.356 1.633,8.883 -3.042,9.016 14.553,19.38 19.357,51.175 25.274,73.377 0.139,0.167 0.329,1.246 0.424,2.399 0.436,4.835 4.422,16.433 -3.534,13.389 -1.337,-1.244 -1.369,-1.313 -1.541,-3.347 -0.441,-4.785 -2.63,-9.147 -2.952,-14.015 -0.178,-0.698 -0.538,-2.286 -0.799,-3.528 -11.678,-45.219 -22.186,-67.514 -36.793,-78.856 -6.909,33.791 -48.837,20.641 -35.099,7.738 -22.907,3.429 -21.512,-12.281 -12.65,-17.852 -15.462,4.331 -16.897,16.324 -14.488,26.12 0.622,1.719 0.725,3.357 1.486,4.972 0.206,0.306 0.376,0.833 0.376,1.171 1.67,7.259 12.147,17.097 17.735,31.432 2.281,4.524 6.499,16.029 7.113,19.397 0.108,0.593 0.381,1.441 0.606,1.883 0.226,0.443 0.705,1.904 1.064,3.247 1.594,5.956 2.816,9.64 3.198,9.64 0.215,0 0.736,-0.366 1.156,-0.814 0.421,-0.448 1.034,-0.895 1.362,-0.993 0.637,-0.192 2.768,-1.811 5.075,-3.854 1.816,-1.609 6.664,-6.56 6.668,-6.809 0,-0.104 0.327,-0.573 0.722,-1.041 5.267,-6.608 8.168,-16.294 9.78,-25.163 1.283,-5.801 1.524,-13.821 0.582,-19.338 -0.186,-1.087 -0.388,-2.738 -0.45,-3.669 -0.062,-0.932 -0.331,-2.544 -0.598,-3.582 -1.018,-3.83 7.544,-3.943 8.288,5.981 0.239,2.096 0.487,4.827 0.55,6.069 0.065,1.242 0.232,2.853 0.372,3.579 -1.652,21.555 -6.962,37.128 -22.378,50.834 -2.971,2.916 -8.214,5.708 -10.032,7.654 1.17,4.913 2.752,12.649 2.81,18.204 l 0.058,5.743 c -3.441,4.557 -5.575,5.43 -7.566,-2.313 -0.302,-2.136 -1.635,-7.697 -2.113,-8.818 -0.881,-2.234 -1.122,-5.937 -1.87,-8.689 0,-1.311 -0.55,-1.587 -3.596,-1.804 -7.989,-0.715 -18.262,-6.014 -25.63,-12.213 -5.602,-4.954 -8.738,-10.989 -12.807,-17.629 -0.444,-0.912 -0.9311,-1.659 -1.0813,-1.659 -0.1506,0 -0.5888,0.285 -0.9738,0.634 -3.2356,3.305 -11.73,0.614 -16.7226,-3.426 -3.4734,-3.168 -5.6278,-6.442 -9.3955,-9.63 -0.1775,0 -0.9413,-0.73 -1.695,-1.623 -1.3695,-1.62 -1.3707,-1.624 -1.1997,-3.253 0.0943,-0.897 0.3737,-2.018 0.6191,-2.491 0.4393,-0.845 0.4283,-0.882 -0.6181,-2.151 -0.8167,-0.993 -1.1127,-1.651 -1.275,-2.843 -0.1887,-1.383 -0.1164,-1.758 0.6647,-3.456 0.6797,-1.476 1.0888,-2.006 1.8248,-2.355 2.1395,-1.015 0.675,-2.216 -2.6342,-2.162 -1.0727,0.018 -3.0345,-0.092 -4.3609,-0.244 -4.109,-0.471 -4.0741,-0.477 -3.8844,0.685 0.0892,0.548 0.342,1.342 0.5617,1.764 0.2191,0.422 0.5981,1.149 0.8411,1.615 1.7565,3.398 2.9484,7.859 5.4982,11.339 1.1889,2.303 2.322,4.377 2.5183,4.61 0.1963,0.233 0.4515,0.741 0.5676,1.13 0.1162,0.388 0.8332,2.185 1.594,3.993 1.6307,3.894 3.8226,8.36 5.3813,12.773 1.2985,3.495 0.4468,10.02 -10.3307,7.178 -5.7225,-2.671 -14.2656,-1.655 -21.241,-5.137 -0.7344,-0.48 -0.7697,-0.477 -1.0669,0.075 -0.2582,0.48 -0.1594,0.726 0.6172,1.538 0.5092,0.531 1.2445,1.458 1.6346,2.059 0.7228,1.113 6.7465,7.158 8.709,8.739 10.1693,8.157 24.8637,17.391 36.6409,10.413 4.0908,-2.246 5.1933,-5.842 8.1656,-10.33 1.565,-1.213 6.296,-2.216 5.366,1.678 -0.291,2.774 -2.306,6.409 -4.099,8.921 -15.387,22.463 -32.6966,8.469 -49.6211,-0.615 -0.9318,-0.892 -2.7313,-2.443 -3.9984,-3.446 -6.5355,-5.293 -14.6283,-16.394 -17.0999,-25.246 -0.0203,-0.638 -0.2767,-1.603 -0.5637,-2.144 -0.2887,-0.541 -0.5231,-1.136 -0.5231,-1.321 0,-0.185 -0.4266,-0.695 -0.9501,-1.133 -0.5275,-0.443 -1.3528,-1.657 -1.8575,-2.731 -0.9951,-2.121 -2.7982,-3.992 -4.5273,-4.701 -2.563,-1.05 -3.4476,-2.345 -3.4476,-5.05 0,-1.959 -0.3534,-3.071 -1.06,-3.341 -0.2759,-0.105 -1.0411,-0.554 -1.7,-0.997 -0.9652,-0.648 -1.2842,-1.088 -1.6306,-2.248 -0.2369,-0.793 -0.6188,-1.65 -0.8491,-1.903 -0.2744,-0.301 -0.4797,-1.382 -0.5943,-3.129 -0.1908,-2.895 -0.7175,-4.885 -1.5316,-5.773 -0.2846,-0.311 -0.8389,-1.454 -1.2304,-2.541 -0.39213,-1.087 -1.09464,-2.802 -1.56331,-3.811 -2.8704,-6.253 -5.56461,-13.543 -5.48041,-20.51 0.0553,-2.532 2.37471,-4.115 5.14059,-5.654 8.27793,-2.237 17.51203,-2.165 28.23213,-1.209 4.6046,1.243 6.7177,1.214 12.6816,12.271 0.4707,1.397 0.9576,2.667 1.0798,2.822 2.2491,3.003 2.6598,6.751 4.6354,9.793 0.0999,0.397 0.4072,0.989 0.6826,1.316 0.4722,0.562 0.6173,0.579 2.6193,0.295 16.3209,-2.241 39.9714,0.375 44.844,18.925 0.67,1.648 1.459,5.954 1.419,7.751 -0.015,0.757 0.349,1.854 1.178,3.529 0.982,1.975 2.181,4.25 3.206,6.494 0.211,0.662 0.593,0.779 0.781,0.24 0.067,-0.194 0.04,-1.386 -0.059,-2.65 -0.1,-1.264 -0.155,-2.82 -0.122,-3.459 0.359,-6.371 1.174,-12.735 1.851,-19.085 0.368,-4.007 0.805,-5.292 1.32,-7.127 -2.466,-8.6 -3.469,-12.644 -4,-23.344 -0.073,-0.189 -0.025,-0.906 0.099,-1.593 -0.269,-11.761 8.898,-19.999 19.82,-23.358 -2.888,-5.345 -3.69,-9.843 -3.204,-13.744 -7.688,-1.119 -15.098,-3.961 -22.223,-8.515 -0.741,-0.429 -1.515,-0.942 -1.722,-1.142 -0.629,-0.601 -5.7921,2.691 -7.929,3.031 -3.3791,1.882 -8.6381,2.521 -7.012,-2.752 1.7205,-4.095 5.6498,-3.678 7.9541,-6.013 -8.4589,-9.883 -19.003,-20.876 -18.6028,-36.125 0,-0.957 0.0303,-1.913 0.0674,-2.868 -3.0048,-0.316 -5.9722,-0.885 -8.8289,-1.775 -22.7703,-7.1 3.472,-36.921 13.2899,-38.293 2.1587,-7.677 9.3106,-7.068 16.5471,-6.318 5.2062,-8.329 9.1602,-15.26 22.4382,-14.799 4.064,-3.8 7.853,-5.225 11.138,-5.302 z m -10.862,58.517 c 0,0 -17.578,7.838 -36.0486,8.256 0.3241,8.308 3.2132,17.092 11.2471,26.383 0.7157,0.902 1.6489,2.09 2.0735,2.641 0.8247,1.07 3.918,3.651 4.921,4.105 0.577,0.262 2.288,-0.135 3.738,-0.867 1.543,-0.779 2.676,-1.134 3.119,-0.978 1.124,0.397 1.495,1.001 1.495,2.433 0,1.137 -0.135,1.531 -0.709,2.06 -1.13,1.041 -0.942,1.929 0.559,2.652 0.698,0.336 1.687,0.891 2.2,1.233 4.056,2.691 10.208,5.036 16.356,6.1 3.932,-6.052 10.29,-10.614 13.156,-15.541 11.328,-19.477 -5.399,-27.7 -22.107,-38.477 z m -9.343,15.929 c 0.563,-0.008 1.047,0.082 1.165,0.273 0.097,0.155 0.398,0.282 0.672,0.282 7.902,4.739 4.557,15.45 -1.943,7.659 -3.283,-4.072 -3.072,-3.679 -2.843,-5.259 0.269,-1.867 0.463,-2.263 1.305,-2.645 0.437,-0.198 1.081,-0.303 1.644,-0.31 z m -13.8566,0.855 c 1.1382,-0.034 2.1782,0.701 2.9542,2.2 1.4594,3.106 -1.445,13.105 -6.6415,5.204 -0.1039,-0.343 -0.1988,-1.513 -0.209,-2.601 -0.0152,-1.762 0.0663,-2.078 0.7658,-2.905 1.0464,-1.236 2.1267,-1.867 3.1305,-1.898 z M 19.5587,325.98 c -2.2988,-0.01 -4.3236,0.048 -5.0317,0.195 -1.8676,0.388 -2.222,0.809 -1.8872,2.242 0.1314,0.562 0.2426,1.501 0.2467,2.087 0.0766,3.422 2.5706,7.272 3.2117,10.445 0.3774,0.896 0.7583,1.702 0.8481,1.791 3.1488,1.489 8.0061,-14.346 14.2587,-9.631 0.39,-0.119 0.7549,0.017 1.1155,0.414 0.4925,0.541 0.5063,0.714 0.1664,2.064 -0.2034,0.81 -0.5328,1.664 -0.7311,1.897 -3.0276,3.684 -5.3925,6.869 -8.5307,11.01 -0.1024,0.233 -0.4212,0.931 -0.7083,1.552 -0.2876,0.621 -0.5279,1.638 -0.533,2.259 -0.0203,2.754 0.1541,4.755 0.429,4.848 0.2855,0.097 2.6713,-4.368 3.1156,-5.831 0.7421,-2.41 4.6974,-8.044 7.1884,-9.604 0.2302,0 0.6203,-0.168 0.8668,-0.374 4.7096,-2.088 6.8892,2.918 1.5801,8.561 -0.7289,0.844 -4.0885,7.814 -4.7631,9.88 -1.8255,5.596 -2.023,6.844 -1.3038,8.248 0.632,1.232 1.1993,1.359 1.7268,0.386 2.6051,-4.744 5.2461,-10.312 10.9736,-11.146 2.1588,0.053 4.555,2.987 1.9616,5.778 -0.2836,0.09 -0.767,0.653 -1.0739,1.252 -0.3079,0.599 -0.6931,1.173 -0.8579,1.274 -0.282,0.174 -0.9964,1.178 -2.4866,3.499 -1.0571,1.647 -2.6255,5.114 -2.9552,6.535 -0.2825,1.216 -0.2411,1.45 0.5142,2.939 0.4509,0.89 1.2036,1.985 1.6722,2.433 1.4441,1.383 2.4838,2.233 2.7313,2.233 0.1304,0 0.935,0.444 1.7892,0.988 5.7458,3.38 14.5594,5.35 21.5104,6.782 1.5207,0.229 2.829,0.417 2.9086,0.417 0.2344,0 0.1631,-0.432 -0.1179,-0.721 -0.1435,-0.147 -0.524,-1.016 -0.844,-1.931 -8.322,-16.821 -16.5599,-37.177 -27.0919,-58.331 -0.9095,-1.438 -2.5625,-3.235 -7.0605,-3.341 -0.1781,-0.177 -1.0082,-0.322 -1.8457,-0.322 -0.8374,0 -1.7533,-0.123 -2.0358,-0.273 -0.531,-0.283 -5.1246,-0.487 -8.9566,-0.504 z m 99.4883,34.717 c -0.35,-0.032 -0.59,0.601 -0.901,2.335 -0.139,0.776 -0.549,2.491 -0.913,3.811 -0.517,1.875 -0.68,3.264 -0.74,6.351 -0.083,3.783 -0.931,9.298 -3.155,13.609 0,0.254 -0.201,0.682 -0.446,0.952 -0.406,0.447 -0.401,0.578 0.07,1.476 0.284,0.543 1.028,1.591 1.653,2.329 6.298,8.571 12.543,14.194 22.442,17.486 2.433,1.288 3.44,0.789 2.421,-1.198 -2.275,-12.847 -8.97,-34.035 -20.36,-47.136 -0.02,-0.007 -0.051,-0.013 -0.071,-0.015 z m -39.7984,0.355 c -0.3617,0.007 -0.6091,0.046 -0.6598,0.129 -0.1441,0.232 1.7441,1.099 3.9627,1.817 1.6454,0.533 1.5517,0.527 2.2151,0.143 0.6924,-0.401 0.2488,-0.899 -1.2977,-1.458 -1.0099,-0.365 -3.1349,-0.649 -4.2203,-0.631 z m 5.8172,9.585 c -0.7973,-0.028 -2.0893,0.193 -2.0893,0.442 0,0.306 1.2681,0.762 3.5476,1.277 1.092,0.246 2.607,0.631 3.3663,0.855 1.7778,0.524 1.8823,0.515 1.8823,-0.152 0,-0.687 -1.0738,-1.419 -2.3251,-1.586 -0.5159,-0.068 -1.5127,-0.2 -2.2152,-0.292 -0.702,-0.092 -1.4214,-0.284 -1.5989,-0.426 -0.0903,-0.072 -0.3009,-0.109 -0.5677,-0.118 z"
         fill="url(#paint2_linear)"
         id="path513730"
         style="fill:url(#paint2_linear)" />
    </g>
  </g>
  <defs
     id="defs513755">
    <linearGradient
       id="paint0_linear"
       x1="308.48599"
       y1="31.3428"
       x2="132.039"
       y2="374.16699"
       gradientUnits="userSpaceOnUse"
       gradientTransform="matrix(1,0,0,1.0564943,-3.2099669,-10.345308)">
      <stop
         stop-color="#7BDFF2"
         id="stop513734" />
      <stop
         offset="0.684269"
         stop-color="#B2F7EF"
         id="stop513736" />
    </linearGradient>
    <linearGradient
       id="paint1_linear"
       x1="145.63499"
       y1="0"
       x2="145.63499"
       y2="133.929"
       gradientUnits="userSpaceOnUse">
      <stop
         stop-color="#001E7C"
         id="stop513739" />
      <stop
         offset="1"
         stop-color="#212941"
         id="stop513741" />
    </linearGradient>
    <linearGradient
       id="paint2_linear"
       x1="115.65"
       y1="167.911"
       x2="115.65"
       y2="443.76599"
       gradientUnits="userSpaceOnUse">
      <stop
         stop-color="#001E7C"
         id="stop513744" />
      <stop
         offset="1"
         stop-color="#212941"
         id="stop513746" />
    </linearGradient>
    <clipPath
       id="clip0">
      <rect
         width="76.959396"
         height="133.929"
         fill="#ffffff"
         transform="translate(107.155)"
         id="rect513749"
         x="0"
         y="0" />
    </clipPath>
    <clipPath
       id="clip1">
      <rect
         width="224.881"
         height="275.85501"
         fill="#ffffff"
         transform="matrix(-1,0,0,1,228.091,167.911)"
         id="rect513752"
         x="0"
         y="0" />
    </clipPath>
  </defs>
</svg>
